<svg id="Layer_1" data-name="Layer 1" xmlns="http://www.w3.org/2000/svg" viewBox="0 0 509.17 188.17"><defs><style>.cls-1,.cls-2{fill:#333;}.cls-2{font-size:20px;font-family:GothamMedium, Gotham Medium;}.cls-3{fill:none;stroke:#333;stroke-miterlimit:10;}</style></defs><title>critical lab parameter</title><path class="cls-1" d="M69,87.23H71.9c2,0,3.28,1.14,3.28,3v0c0,2-1.48,3.07-3.37,3.09H70.5v3H69ZM71.81,92a1.65,1.65,0,0,0,1.83-1.7h0a1.6,1.6,0,0,0-1.83-1.69H70.5V92Z" transform="translate(-54.67 -31)"/><path class="cls-1" d="M76.22,91.86v-.13c0-2.7,1.66-4.64,4-4.64s4,1.92,4,4.61v.13c0,2.7-1.66,4.64-4,4.64S76.22,94.55,76.22,91.86Zm6.5,0v-.09c0-1.95-1-3.26-2.48-3.26s-2.46,1.29-2.46,3.25v.09c0,2,1.05,3.26,2.48,3.26S82.72,93.8,82.72,91.84Z" transform="translate(-54.67 -31)"/><path class="cls-1" d="M85.91,87.23h2.91c2,0,3.28,1.14,3.28,3v0c0,2-1.48,3.07-3.37,3.09H87.42v3H85.91ZM88.73,92a1.65,1.65,0,0,0,1.83-1.7h0a1.6,1.6,0,0,0-1.83-1.69H87.42V92Z" transform="translate(-54.67 -31)"/><path class="cls-1" d="M96.16,87.23H97.8L100,94.11l2.24-6.88h1.59l-3.15,9.15H99.32Z" transform="translate(-54.67 -31)"/><path class="cls-1" d="M103.92,94.36v-.06c0-1.48,1-2.21,2.44-2.21a4.68,4.68,0,0,1,1.59.27v-.29a1.3,1.3,0,0,0-1.48-1.4,3.92,3.92,0,0,0-1.66.42l-.42-1.17a4.9,4.9,0,0,1,2.27-.55,2.43,2.43,0,0,1,2.72,2.69v4.28h-1.44v-.85a2.19,2.19,0,0,1-1.91,1A2,2,0,0,1,103.92,94.36Zm4-.34v-.69a3.32,3.32,0,0,0-1.27-.25c-.84,0-1.34.43-1.34,1.16v0a1.05,1.05,0,0,0,1.12,1.09A1.38,1.38,0,0,0,108,94Z" transform="translate(-54.67 -31)"/><path class="cls-1" d="M111,86.95h1.47v9.39H111Z" transform="translate(-54.67 -31)"/><path class="cls-1" d="M114.19,94.06V89.44h1.47v4.2c0,1,.45,1.5,1.22,1.5s1.3-.57,1.3-1.52V89.44h1.48v6.89h-1.48v-1a2.13,2.13,0,0,1-1.87,1.13C115,96.46,114.19,95.54,114.19,94.06Z" transform="translate(-54.67 -31)"/><path class="cls-1" d="M121,93v-.1c0-2.07,1.25-3.55,2.94-3.55,1.87,0,2.86,1.56,2.86,3.63,0,.09,0,.3,0,.51h-4.32a1.77,1.77,0,0,0,1.74,1.78,2.19,2.19,0,0,0,1.59-.73l.77.91A3.2,3.2,0,0,1,121,93Zm4.37-.53c-.08-1.09-.57-1.89-1.43-1.89s-1.38.71-1.48,1.89Z" transform="translate(-54.67 -31)"/><path class="cls-1" d="M131.39,92.59a5.85,5.85,0,0,1,3.31-5.54l.58,1a5.51,5.51,0,0,0,0,9.15l-.58,1A5.83,5.83,0,0,1,131.39,92.59Z" transform="translate(-54.67 -31)"/><path class="cls-1" d="M136.74,87.23h1.4l4,6.07V87.23h1.47v9.1h-1.27l-4.12-6.25v6.25h-1.48Z" transform="translate(-54.67 -31)"/><path class="cls-1" d="M145.09,97.17a5.52,5.52,0,0,0,0-9.15l.58-1a6.28,6.28,0,0,1,0,11.08Z" transform="translate(-54.67 -31)"/><path class="cls-1" d="M70.81,124.64H68.42v-1.4h6.29v1.4H72.32v7.7H70.81Z" transform="translate(-54.67 -31)"/><path class="cls-1" d="M76.12,123.23h5.73v1.36H77.62v2.47h3.76v1.37H77.62V131h4.3v1.37h-5.8Z" transform="translate(-54.67 -31)"/><path class="cls-1" d="M86.17,123.18h1.46L91,132.33H89.4l-.75-2.15H85.11l-.75,2.15H82.83Zm2,5.67-1.3-3.65-1.3,3.65Z" transform="translate(-54.67 -31)"/><path class="cls-1" d="M92.27,123.23h3.29a3.37,3.37,0,0,1,2.43.86,2.76,2.76,0,0,1,.75,2v.05a2.66,2.66,0,0,1-1.89,2.67L99,132.33H97.26l-1.94-3.22H93.78v3.21H92.27Zm3.13,4.54c1.17,0,1.82-.62,1.82-1.57v0c0-1-.66-1.56-1.79-1.56H93.78v3.16Z" transform="translate(-54.67 -31)"/><path class="cls-1" d="M103.06,123.23h1.64l2.24,6.88,2.24-6.88h1.59l-3.15,9.15h-1.39Z" transform="translate(-54.67 -31)"/><path class="cls-1" d="M110.82,130.36v-.06c0-1.48,1-2.21,2.44-2.21a4.68,4.68,0,0,1,1.59.27v-.29a1.3,1.3,0,0,0-1.48-1.4,3.92,3.92,0,0,0-1.66.42l-.42-1.17a4.9,4.9,0,0,1,2.27-.55,2.43,2.43,0,0,1,2.72,2.69v4.28h-1.44v-.85a2.19,2.19,0,0,1-1.91,1A2,2,0,0,1,110.82,130.36Zm4-.34v-.69a3.32,3.32,0,0,0-1.27-.25c-.84,0-1.34.43-1.34,1.16v0a1.05,1.05,0,0,0,1.12,1.09A1.38,1.38,0,0,0,114.87,130Z" transform="translate(-54.67 -31)"/><path class="cls-1" d="M117.95,122.95h1.47v9.39h-1.47Z" transform="translate(-54.67 -31)"/><path class="cls-1" d="M121.09,130.06v-4.62h1.47v4.2c0,1,.46,1.5,1.22,1.5s1.3-.57,1.3-1.52v-4.17h1.48v6.89h-1.48v-1a2.13,2.13,0,0,1-1.87,1.13C121.87,132.46,121.09,131.54,121.09,130.06Z" transform="translate(-54.67 -31)"/><path class="cls-1" d="M127.92,129v-.1c0-2.07,1.25-3.55,2.94-3.55,1.87,0,2.86,1.56,2.86,3.63,0,.09,0,.3,0,.51h-4.32a1.77,1.77,0,0,0,1.74,1.78,2.19,2.19,0,0,0,1.59-.73l.77.91a3.2,3.2,0,0,1-5.56-2.44Zm4.37-.53c-.08-1.09-.57-1.89-1.43-1.89s-1.38.71-1.48,1.89Z" transform="translate(-54.67 -31)"/><path class="cls-1" d="M134.94,128.59a5.85,5.85,0,0,1,3.32-5.54l.58,1a5.51,5.51,0,0,0,0,9.15l-.58,1A5.83,5.83,0,0,1,134.94,128.59Z" transform="translate(-54.67 -31)"/><path class="cls-1" d="M140.29,123.23h1.4l4,6.07v-6.07h1.47v9.1H145.9l-4.12-6.25v6.25h-1.48Z" transform="translate(-54.67 -31)"/><path class="cls-1" d="M148.64,133.17a5.52,5.52,0,0,0,0-9.15l.58-1a6.28,6.28,0,0,1,0,11.08Z" transform="translate(-54.67 -31)"/><path class="cls-1" d="M69,159.23H70.5v7.71h3.9v1.39H69Z" transform="translate(-54.67 -31)"/><path class="cls-1" d="M75.64,159H77.2v1.44H75.64Zm.05,2.44h1.47v6.89H75.7Z" transform="translate(-54.67 -31)"/><path class="cls-1" d="M78.91,161.44h1.47v1a2.16,2.16,0,0,1,1.88-1.14c1.33,0,2.12.94,2.12,2.41v4.62H82.91v-4.2c0-1-.45-1.5-1.23-1.5s-1.3.57-1.3,1.52v4.17H78.91Z" transform="translate(-54.67 -31)"/><path class="cls-1" d="M86,159h1.56v1.44H86Zm.05,2.44h1.47v6.89H86.06Z" transform="translate(-54.67 -31)"/><path class="cls-1" d="M89.27,161.44h1.47v1a2.16,2.16,0,0,1,1.88-1.14c1.33,0,2.12.94,2.12,2.41v4.62H93.27v-4.2c0-1-.46-1.5-1.24-1.5s-1.3.57-1.3,1.52v4.17H89.27Z" transform="translate(-54.67 -31)"/><path class="cls-1" d="M96.34,169.67l.48-1.16a4,4,0,0,0,2.07.58,1.64,1.64,0,0,0,1.87-1.82v-.66a2.44,2.44,0,0,1-2.08,1.21c-1.38,0-2.63-1.11-2.63-3.22v-.05c0-2.13,1.26-3.24,2.63-3.24a2.45,2.45,0,0,1,2.07,1.16v-1h1.47v5.77a3.1,3.1,0,0,1-.78,2.29,3.35,3.35,0,0,1-2.48.82A5.41,5.41,0,0,1,96.34,169.67Zm4.43-5.08v0a1.77,1.77,0,0,0-1.65-2c-.9,0-1.59.74-1.59,2h0c0,1.22.7,2,1.59,2A1.78,1.78,0,0,0,100.77,164.59Z" transform="translate(-54.67 -31)"/><path class="cls-1" d="M106.92,165v-.13a3.25,3.25,0,0,1,3.15-3.54,2.91,2.91,0,0,1,2.21.94l-.82,1.08a1.85,1.85,0,0,0-1.39-.69c-1,0-1.66.92-1.66,2.22v.06c0,1.34.7,2.24,1.7,2.24a1.92,1.92,0,0,0,1.4-.7l.79,1a2.88,2.88,0,0,1-2.29,1A3.19,3.19,0,0,1,106.92,165Z" transform="translate(-54.67 -31)"/><path class="cls-1" d="M113,165v-.12a3.19,3.19,0,1,1,6.34,0V165a3.19,3.19,0,1,1-6.34,0Zm4.88,0v-.08c0-1.29-.71-2.25-1.72-2.25s-1.69.95-1.69,2.24v.08c0,1.29.71,2.26,1.72,2.26S117.88,166.23,117.88,164.94Z" transform="translate(-54.67 -31)"/><path class="cls-1" d="M120.7,161.44h1.47v1a2.13,2.13,0,0,1,1.85-1.13,1.88,1.88,0,0,1,1.78,1.11,2.44,2.44,0,0,1,2-1.11c1.27,0,2.11.85,2.11,2.41v4.62h-1.47v-4.19c0-1-.42-1.51-1.17-1.51s-1.24.55-1.24,1.52v4.17h-1.47v-4.2c0-1-.43-1.5-1.16-1.5s-1.25.58-1.25,1.53v4.16H120.7Z" transform="translate(-54.67 -31)"/><path class="cls-1" d="M131.54,161.44H133v1.1a2.33,2.33,0,0,1,2-1.24c1.38,0,2.68,1.16,2.68,3.48V165c0,2.31-1.29,3.48-2.68,3.48a2.35,2.35,0,0,1-2-1.17v3h-1.47Zm4.68,3.51v-.12c0-1.38-.71-2.22-1.6-2.22s-1.64.86-1.64,2.21V165c0,1.35.75,2.21,1.64,2.21S136.22,166.33,136.22,165Z" transform="translate(-54.67 -31)"/><path class="cls-1" d="M138.77,165v-.12a3.19,3.19,0,1,1,6.34,0V165a3.19,3.19,0,1,1-6.34,0Zm4.88,0v-.08c0-1.29-.72-2.25-1.72-2.25s-1.69.95-1.69,2.24v.08c0,1.29.71,2.26,1.72,2.26S143.65,166.23,143.65,164.94Z" transform="translate(-54.67 -31)"/><path class="cls-1" d="M146.4,166.06v-4.61h1.47v4.2c0,1,.46,1.5,1.22,1.5s1.3-.57,1.3-1.52v-4.17h1.48v6.89h-1.48v-1a2.12,2.12,0,0,1-1.87,1.13C147.18,168.46,146.4,167.54,146.4,166.06Z" transform="translate(-54.67 -31)"/><path class="cls-1" d="M153.54,161.44H155v1a2.16,2.16,0,0,1,1.89-1.14c1.33,0,2.12.94,2.12,2.41v4.62h-1.47v-4.2c0-1-.46-1.5-1.23-1.5s-1.3.57-1.3,1.52v4.17h-1.47Z" transform="translate(-54.67 -31)"/><path class="cls-1" d="M160.32,165v-.17c0-2.33,1.29-3.5,2.68-3.5a2.38,2.38,0,0,1,2,1.17v-3.54h1.47v9.39H165v-1.11a2.33,2.33,0,0,1-2,1.24C161.62,168.46,160.32,167.31,160.32,165Zm4.72,0v-.13c0-1.35-.75-2.21-1.64-2.21s-1.6.83-1.6,2.22v.1c0,1.38.71,2.22,1.6,2.22S165,166.31,165,165Z" transform="translate(-54.67 -31)"/><path class="cls-1" d="M171,161.44h1.51l1.17,4.65,1.27-4.67h1.25l1.27,4.67,1.18-4.65h1.48l-1.94,6.94h-1.35l-1.29-4.6-1.3,4.6h-1.34Z" transform="translate(-54.67 -31)"/><path class="cls-1" d="M180.73,165v-.1c0-2.07,1.25-3.55,2.94-3.55,1.87,0,2.86,1.56,2.86,3.63,0,.09,0,.3,0,.51H182.2a1.77,1.77,0,0,0,1.74,1.78,2.19,2.19,0,0,0,1.59-.73l.77.91a3.2,3.2,0,0,1-5.56-2.44Zm4.37-.53c-.08-1.09-.57-1.88-1.43-1.88s-1.38.71-1.48,1.88Z" transform="translate(-54.67 -31)"/><path class="cls-1" d="M187.88,159h1.56v1.44h-1.56Zm.05,2.44h1.47v6.89h-1.47Z" transform="translate(-54.67 -31)"/><path class="cls-1" d="M191.15,169.67l.48-1.16a4,4,0,0,0,2.07.58,1.64,1.64,0,0,0,1.87-1.82v-.66a2.44,2.44,0,0,1-2.08,1.21c-1.38,0-2.63-1.11-2.63-3.22v-.05c0-2.13,1.26-3.24,2.63-3.24a2.45,2.45,0,0,1,2.07,1.16v-1H197v5.77a3.1,3.1,0,0,1-.78,2.29,3.35,3.35,0,0,1-2.48.82A5.41,5.41,0,0,1,191.15,169.67Zm4.43-5.08v0a1.77,1.77,0,0,0-1.65-2c-.9,0-1.59.74-1.59,2h0c0,1.22.7,2,1.59,2A1.78,1.78,0,0,0,195.58,164.59Z" transform="translate(-54.67 -31)"/><path class="cls-1" d="M198.69,158.95h1.47v3.51a2.16,2.16,0,0,1,1.89-1.14c1.33,0,2.12.94,2.12,2.41v4.62h-1.47v-4.2c0-1-.46-1.5-1.23-1.5s-1.3.57-1.3,1.52v4.17h-1.47Z" transform="translate(-54.67 -31)"/><path class="cls-1" d="M206,166.67v-4h-.75v-1.26H206v-1.86h1.47v1.86H209v1.26h-1.55v3.67a.66.66,0,0,0,.74.75,1.67,1.67,0,0,0,.79-.2v1.21a2.49,2.49,0,0,1-1.22.3A1.57,1.57,0,0,1,206,166.67Z" transform="translate(-54.67 -31)"/><path class="cls-1" d="M213.61,164.59a5.85,5.85,0,0,1,3.32-5.54l.58,1a5.51,5.51,0,0,0,0,9.15l-.58,1A5.83,5.83,0,0,1,213.61,164.59Z" transform="translate(-54.67 -31)"/><path class="cls-1" d="M218.81,161.44h1.47v1a2.13,2.13,0,0,1,1.85-1.13,1.88,1.88,0,0,1,1.78,1.11,2.44,2.44,0,0,1,2-1.11c1.27,0,2.11.85,2.11,2.41v4.62h-1.47v-4.19c0-1-.42-1.51-1.17-1.51s-1.24.55-1.24,1.52v4.17h-1.47v-4.2c0-1-.43-1.5-1.16-1.5s-1.25.58-1.25,1.53v4.16h-1.47Z" transform="translate(-54.67 -31)"/><path class="cls-1" d="M229.65,169.67l.48-1.16a4,4,0,0,0,2.07.58,1.64,1.64,0,0,0,1.87-1.82v-.66a2.44,2.44,0,0,1-2.08,1.21c-1.38,0-2.63-1.11-2.63-3.22v-.05c0-2.13,1.26-3.24,2.63-3.24a2.45,2.45,0,0,1,2.07,1.16v-1h1.47v5.77a3.1,3.1,0,0,1-.78,2.29,3.35,3.35,0,0,1-2.48.82A5.41,5.41,0,0,1,229.65,169.67Zm4.43-5.08v0a1.77,1.77,0,0,0-1.65-2c-.9,0-1.59.74-1.59,2h0c0,1.22.7,2,1.59,2A1.78,1.78,0,0,0,234.09,164.59Z" transform="translate(-54.67 -31)"/><path class="cls-1" d="M236.84,169.17a5.52,5.52,0,0,0,0-9.15l.58-1a6.28,6.28,0,0,1,0,11.08Z" transform="translate(-54.67 -31)"/><path class="cls-1" d="M69,195.23H71.9c2,0,3.28,1.14,3.28,3v0c0,2-1.48,3.07-3.37,3.09H70.5v3H69ZM71.81,200a1.65,1.65,0,0,0,1.83-1.7h0a1.6,1.6,0,0,0-1.83-1.69H70.5V200Z" transform="translate(-54.67 -31)"/><path class="cls-1" d="M76,201v-.12a3.19,3.19,0,1,1,6.34,0V201A3.19,3.19,0,1,1,76,201Zm4.88,0v-.08c0-1.29-.71-2.25-1.72-2.25s-1.69.95-1.69,2.24v.08c0,1.29.71,2.26,1.72,2.26S80.9,202.23,80.9,200.94Z" transform="translate(-54.67 -31)"/><path class="cls-1" d="M83.15,203.5l.69-1.05a3.14,3.14,0,0,0,1.9.81c.61,0,1-.33,1-.75h0c0-.49-.53-.72-1.35-1.07-1-.44-1.89-.91-1.89-2v0a2.06,2.06,0,0,1,2.28-2,3.93,3.93,0,0,1,2.24.74l-.62,1.08a3.07,3.07,0,0,0-1.64-.61c-.55,0-.87.3-.87.68v0c0,.46.55.69,1.35,1.05,1.07.48,1.87,1,1.87,2.05h0a2.1,2.1,0,0,1-2.35,2.09A4.07,4.07,0,0,1,83.15,203.5Z" transform="translate(-54.67 -31)"/><path class="cls-1" d="M89.54,202.67v-4h-.75v-1.26h.75v-1.86H91v1.86h1.55v1.26H91v3.67a.66.66,0,0,0,.74.75,1.67,1.67,0,0,0,.79-.2v1.21a2.49,2.49,0,0,1-1.22.3A1.57,1.57,0,0,1,89.54,202.67Z" transform="translate(-54.67 -31)"/><path class="cls-1" d="M97.39,195.23H98.9v7.71h3.9v1.39H97.39Z" transform="translate(-54.67 -31)"/><path class="cls-1" d="M103.63,202.36v-.06c0-1.48,1-2.21,2.44-2.21a4.71,4.71,0,0,1,1.59.27v-.29a1.3,1.3,0,0,0-1.48-1.4,3.92,3.92,0,0,0-1.66.42l-.42-1.17a4.9,4.9,0,0,1,2.27-.55,2.43,2.43,0,0,1,2.72,2.69v4.28h-1.44v-.84a2.19,2.19,0,0,1-1.91,1A2,2,0,0,1,103.63,202.36Zm4-.34v-.69a3.31,3.31,0,0,0-1.27-.25c-.84,0-1.34.43-1.34,1.16v0a1.05,1.05,0,0,0,1.12,1.09A1.38,1.38,0,0,0,107.68,202Z" transform="translate(-54.67 -31)"/><path class="cls-1" d="M110.37,201v-.13a3.25,3.25,0,0,1,3.15-3.54,2.91,2.91,0,0,1,2.21.94l-.82,1.08a1.86,1.86,0,0,0-1.39-.69c-1,0-1.66.92-1.66,2.22v.06c0,1.34.7,2.24,1.7,2.24a1.92,1.92,0,0,0,1.4-.7l.79,1a2.88,2.88,0,0,1-2.29,1A3.19,3.19,0,0,1,110.37,201Z" transform="translate(-54.67 -31)"/><path class="cls-1" d="M121.23,203.23a2.33,2.33,0,0,1-2,1.24c-1.38,0-2.68-1.16-2.68-3.48v-.17c0-2.33,1.29-3.5,2.68-3.5a2.38,2.38,0,0,1,2,1.17v-1h1.47v8.85h-1.47Zm0-2.27v-.13c0-1.35-.75-2.21-1.64-2.21s-1.6.83-1.6,2.22v.1c0,1.38.72,2.22,1.6,2.22S121.26,202.31,121.26,201Z" transform="translate(-54.67 -31)"/><path class="cls-1" d="M124.3,202.06v-4.62h1.47v4.2c0,1,.46,1.5,1.22,1.5s1.3-.57,1.3-1.52v-4.17h1.48v6.89h-1.48v-1a2.12,2.12,0,0,1-1.87,1.13C125.08,204.46,124.3,203.54,124.3,202.06Z" transform="translate(-54.67 -31)"/><path class="cls-1" d="M131,202.36v-.06c0-1.48,1-2.21,2.44-2.21a4.7,4.7,0,0,1,1.59.27v-.29a1.3,1.3,0,0,0-1.48-1.4,3.92,3.92,0,0,0-1.66.42l-.42-1.17a4.9,4.9,0,0,1,2.28-.55,2.43,2.43,0,0,1,2.72,2.69v4.28h-1.44v-.84a2.19,2.19,0,0,1-1.91,1A2,2,0,0,1,131,202.36Zm4-.34v-.69a3.31,3.31,0,0,0-1.27-.25c-.84,0-1.34.43-1.34,1.16v0a1.05,1.05,0,0,0,1.12,1.09A1.38,1.38,0,0,0,135.09,202Z" transform="translate(-54.67 -31)"/><path class="cls-1" d="M138.1,197.44h1.47v1.35a2,2,0,0,1,2.07-1.46v1.6h-.07c-1.2,0-2,.78-2,2.35v3H138.1Z" transform="translate(-54.67 -31)"/><path class="cls-1" d="M146.13,197.44h1.47v1.35a2,2,0,0,1,2.07-1.46v1.6h-.07c-1.2,0-2,.78-2,2.35v3h-1.47Z" transform="translate(-54.67 -31)"/><path class="cls-1" d="M150.28,201v-.1c0-2.07,1.25-3.55,2.94-3.55,1.87,0,2.86,1.56,2.86,3.63,0,.09,0,.3,0,.51h-4.32a1.77,1.77,0,0,0,1.74,1.78,2.19,2.19,0,0,0,1.59-.73l.77.91a3.2,3.2,0,0,1-5.56-2.44Zm4.37-.53c-.08-1.09-.57-1.88-1.43-1.88s-1.38.71-1.48,1.88Z" transform="translate(-54.67 -31)"/><path class="cls-1" d="M157.4,197.44h1.47v1.11a2.33,2.33,0,0,1,2-1.24c1.38,0,2.68,1.16,2.68,3.48V201c0,2.31-1.29,3.48-2.68,3.48a2.35,2.35,0,0,1-2-1.17v3H157.4Zm4.68,3.51v-.12c0-1.38-.71-2.22-1.6-2.22s-1.64.86-1.64,2.21V201c0,1.35.75,2.21,1.64,2.21S162.08,202.33,162.08,201Z" transform="translate(-54.67 -31)"/><path class="cls-1" d="M164.55,202.36v-.06c0-1.48,1-2.21,2.44-2.21a4.7,4.7,0,0,1,1.59.27v-.29a1.3,1.3,0,0,0-1.48-1.4,3.92,3.92,0,0,0-1.66.42l-.42-1.17a4.9,4.9,0,0,1,2.28-.55,2.43,2.43,0,0,1,2.72,2.69v4.28h-1.44v-.84a2.19,2.19,0,0,1-1.91,1A2,2,0,0,1,164.55,202.36Zm4-.34v-.69a3.31,3.31,0,0,0-1.27-.25c-.84,0-1.34.43-1.34,1.16v0a1.05,1.05,0,0,0,1.12,1.09A1.38,1.38,0,0,0,168.59,202Z" transform="translate(-54.67 -31)"/><path class="cls-1" d="M171.62,195h1.56v1.44h-1.56Zm.05,2.44h1.47v6.89h-1.47Z" transform="translate(-54.67 -31)"/><path class="cls-1" d="M174.88,197.44h1.47v1.35a2,2,0,0,1,2.07-1.46v1.6h-.07c-1.2,0-2,.78-2,2.35v3h-1.47Z" transform="translate(-54.67 -31)"/><path class="cls-1" d="M183.2,202.67v-4h-.75v-1.26h.75v-1.86h1.47v1.86h1.55v1.26h-1.55v3.67a.66.66,0,0,0,.74.75,1.67,1.67,0,0,0,.79-.2v1.21a2.49,2.49,0,0,1-1.22.3A1.57,1.57,0,0,1,183.2,202.67Z" transform="translate(-54.67 -31)"/><path class="cls-1" d="M187.06,201v-.1c0-2.07,1.25-3.55,2.94-3.55,1.87,0,2.86,1.56,2.86,3.63,0,.09,0,.3,0,.51h-4.32a1.77,1.77,0,0,0,1.74,1.78,2.19,2.19,0,0,0,1.59-.73l.77.91a3.2,3.2,0,0,1-5.56-2.44Zm4.37-.53c-.08-1.09-.57-1.88-1.43-1.88s-1.38.71-1.48,1.88Z" transform="translate(-54.67 -31)"/><path class="cls-1" d="M193.62,203.5l.69-1.05a3.14,3.14,0,0,0,1.9.81c.61,0,1-.33,1-.75h0c0-.49-.53-.72-1.35-1.07-1-.44-1.88-.91-1.88-2v0a2.06,2.06,0,0,1,2.27-2,3.93,3.93,0,0,1,2.24.74l-.62,1.08a3.07,3.07,0,0,0-1.64-.61c-.55,0-.87.3-.87.68v0c0,.46.55.69,1.35,1.05,1.07.48,1.87,1,1.87,2.05h0a2.1,2.1,0,0,1-2.35,2.09A4.07,4.07,0,0,1,193.62,203.5Z" transform="translate(-54.67 -31)"/><path class="cls-1" d="M200,202.67v-4h-.75v-1.26H200v-1.86h1.47v1.86H203v1.26h-1.55v3.67a.66.66,0,0,0,.74.75,1.67,1.67,0,0,0,.79-.2v1.21a2.49,2.49,0,0,1-1.22.3A1.57,1.57,0,0,1,200,202.67Z" transform="translate(-54.67 -31)"/><path class="cls-1" d="M503.83,95.23l.94-1.07a2.54,2.54,0,0,0,2,.95,1.41,1.41,0,0,0,1.49-1.44v0c0-.94-.81-1.46-2.07-1.46h-.46l-.2-.95,2.21-2.64h-3.45V87.23h5.33v1.18l-2.3,2.64a2.52,2.52,0,0,1,2.42,2.52v0a2.79,2.79,0,0,1-3,2.86A3.81,3.81,0,0,1,503.83,95.23Z" transform="translate(-54.67 -31)"/><path class="cls-1" d="M511,91.86v-.14c0-2.76,1.35-4.63,3.46-4.63s3.43,1.85,3.43,4.61v.14c0,2.76-1.35,4.63-3.46,4.63S511,94.63,511,91.86Zm5.34,0v-.1c0-2-.78-3.28-1.91-3.28s-1.9,1.22-1.9,3.25v.1c0,2,.78,3.28,1.92,3.28S516.34,93.88,516.34,91.85Z" transform="translate(-54.67 -31)"/><path class="cls-1" d="M522.53,91.63h3.62v1.46h-3.62Z" transform="translate(-54.67 -31)"/><path class="cls-1" d="M530.64,95.33l.86-1.12a2.86,2.86,0,0,0,1.94.87,1.53,1.53,0,0,0,1.63-1.62v0a1.52,1.52,0,0,0-1.68-1.53,3.12,3.12,0,0,0-1.38.34l-.88-.58.25-4.42h4.81v1.38h-3.54l-.14,2.16a3.6,3.6,0,0,1,1.21-.21,2.63,2.63,0,0,1,2.85,2.82v0a2.92,2.92,0,0,1-3.11,3.07A4,4,0,0,1,530.64,95.33Z" transform="translate(-54.67 -31)"/><path class="cls-1" d="M537.82,91.86v-.14c0-2.76,1.35-4.63,3.46-4.63s3.43,1.85,3.43,4.61v.14c0,2.76-1.35,4.63-3.46,4.63S537.82,94.63,537.82,91.86Zm5.34,0v-.1c0-2-.78-3.28-1.91-3.28s-1.9,1.22-1.9,3.25v.1c0,2,.78,3.28,1.92,3.28S543.16,93.88,543.16,91.85Z" transform="translate(-54.67 -31)"/><path class="cls-1" d="M504.37,131.66c-.65-.66-1.05-1.62-1.05-3.52V128c0-3.07,1.27-5,3.52-5a3.59,3.59,0,0,1,2.33.83l-.74,1.2a2.54,2.54,0,0,0-1.62-.65c-1.31,0-1.91,1.35-2,2.89a2.48,2.48,0,0,1,1.91-.83,2.65,2.65,0,0,1,2.77,2.83v0a3,3,0,0,1-3,3.09A2.89,2.89,0,0,1,504.37,131.66Zm3.67-2.2v0a1.57,1.57,0,1,0-3.15,0v0a1.56,1.56,0,0,0,1.6,1.69A1.54,1.54,0,0,0,508,129.46Z" transform="translate(-54.67 -31)"/><path class="cls-1" d="M510.79,127.86v-.14c0-2.76,1.35-4.63,3.46-4.63s3.43,1.85,3.43,4.61v.14c0,2.76-1.35,4.63-3.46,4.63S510.79,130.63,510.79,127.86Zm5.34,0v-.1c0-2-.78-3.28-1.91-3.28s-1.9,1.22-1.9,3.25v.1c0,2,.78,3.28,1.92,3.28S516.14,129.88,516.14,127.85Z" transform="translate(-54.67 -31)"/><path class="cls-1" d="M522.32,127.63h3.61v1.46h-3.61Z" transform="translate(-54.67 -31)"/><path class="cls-1" d="M530.47,129.88v0a2.31,2.31,0,0,1,1.48-2.22,2.22,2.22,0,0,1-1.22-2v-.05a2.86,2.86,0,0,1,5.66,0v.05a2.2,2.2,0,0,1-1.22,2,2.31,2.31,0,0,1,1.5,2.2v.05c0,1.6-1.33,2.6-3.09,2.6S530.47,131.44,530.47,129.88Zm4.71-.1v0a1.63,1.63,0,0,0-3.24,0v0a1.63,1.63,0,0,0,3.24,0Zm-.22-4.08v0a1.39,1.39,0,0,0-2.78,0v0a1.39,1.39,0,0,0,2.78,0Z" transform="translate(-54.67 -31)"/><path class="cls-1" d="M537.82,127.86v-.14c0-2.76,1.35-4.63,3.46-4.63s3.43,1.85,3.43,4.61v.14c0,2.76-1.35,4.63-3.46,4.63S537.82,130.63,537.82,127.86Zm5.34,0v-.1c0-2-.78-3.28-1.91-3.28s-1.9,1.22-1.9,3.25v.1c0,2,.78,3.28,1.92,3.28S543.16,129.88,543.16,127.85Z" transform="translate(-54.67 -31)"/><path class="cls-1" d="M493.58,160.61h-4v-1.38h5.6v1.13l-3.5,8h-1.64Z" transform="translate(-54.67 -31)"/><path class="cls-1" d="M496.19,163.86v-.14c0-2.76,1.35-4.63,3.46-4.63s3.43,1.85,3.43,4.62v.14c0,2.76-1.35,4.63-3.46,4.63S496.19,166.63,496.19,163.86Zm5.34,0v-.1c0-2-.78-3.28-1.91-3.28s-1.9,1.22-1.9,3.25v.1c0,2,.78,3.28,1.92,3.28S501.54,165.88,501.54,163.85Z" transform="translate(-54.67 -31)"/><path class="cls-1" d="M508,163.74v2.16h-1.35v-2.16h-2.17v-1.33h2.17v-2.16H508v2.16h2.16v1.33Zm-3.5,4.47v-1.27h5.65v1.27Z" transform="translate(-54.67 -31)"/><path class="cls-1" d="M512.89,160.74l-1.43.43-.25-1.3,2.11-.7h1.07v9.17h-1.5Z" transform="translate(-54.67 -31)"/><path class="cls-1" d="M516.08,163.86v-.14c0-2.76,1.35-4.63,3.46-4.63s3.43,1.85,3.43,4.62v.14c0,2.76-1.35,4.63-3.46,4.63S516.08,166.63,516.08,163.86Zm5.34,0v-.1c0-2-.78-3.28-1.91-3.28s-1.9,1.22-1.9,3.25v.1c0,2,.78,3.28,1.92,3.28S521.43,165.88,521.43,163.85Z" transform="translate(-54.67 -31)"/><path class="cls-1" d="M527.78,161.44h1.47v1a2.13,2.13,0,0,1,1.85-1.13,1.88,1.88,0,0,1,1.78,1.11,2.44,2.44,0,0,1,2-1.11c1.27,0,2.11.85,2.11,2.41v4.62h-1.47v-4.19c0-1-.42-1.51-1.17-1.51s-1.23.55-1.23,1.52v4.17h-1.47v-4.2c0-1-.43-1.5-1.16-1.5s-1.25.58-1.25,1.53v4.16h-1.47Z" transform="translate(-54.67 -31)"/><path class="cls-1" d="M538.63,169.67l.48-1.16a4,4,0,0,0,2.07.58,1.64,1.64,0,0,0,1.87-1.82v-.66a2.44,2.44,0,0,1-2.08,1.21c-1.38,0-2.63-1.11-2.63-3.22v-.05c0-2.13,1.26-3.24,2.63-3.24a2.45,2.45,0,0,1,2.07,1.16v-1h1.47v5.77a3.1,3.1,0,0,1-.78,2.29,3.35,3.35,0,0,1-2.48.82A5.41,5.41,0,0,1,538.63,169.67Zm4.43-5.08v0a1.77,1.77,0,0,0-1.65-2c-.9,0-1.59.74-1.59,2h0c0,1.22.7,2,1.59,2A1.78,1.78,0,0,0,543.06,164.59Z" transform="translate(-54.67 -31)"/><path class="cls-1" d="M506.66,195.23h2.91c2,0,3.28,1.14,3.28,3v0c0,2-1.48,3.07-3.37,3.09h-1.31v3h-1.51Zm2.82,4.78a1.65,1.65,0,0,0,1.83-1.7h0a1.6,1.6,0,0,0-1.83-1.69h-1.31V200Z" transform="translate(-54.67 -31)"/><path class="cls-1" d="M513.58,202.36v-.06c0-1.48,1-2.21,2.44-2.21a4.7,4.7,0,0,1,1.59.27v-.29a1.3,1.3,0,0,0-1.48-1.4,3.92,3.92,0,0,0-1.66.42l-.42-1.17a4.9,4.9,0,0,1,2.28-.55,2.43,2.43,0,0,1,2.72,2.69v4.28h-1.44v-.84a2.19,2.19,0,0,1-1.91,1A2,2,0,0,1,513.58,202.36Zm4-.34v-.69a3.32,3.32,0,0,0-1.28-.25c-.84,0-1.34.43-1.34,1.16v0a1.05,1.05,0,0,0,1.12,1.09A1.38,1.38,0,0,0,517.62,202Z" transform="translate(-54.67 -31)"/><path class="cls-1" d="M520,203.5l.69-1.05a3.14,3.14,0,0,0,1.9.81c.61,0,1-.33,1-.75h0c0-.49-.53-.72-1.35-1.07-1-.44-1.88-.91-1.88-2v0a2.06,2.06,0,0,1,2.28-2,3.93,3.93,0,0,1,2.24.74l-.62,1.08a3.07,3.07,0,0,0-1.64-.61c-.55,0-.87.3-.87.68v0c0,.46.55.69,1.35,1.05,1.07.48,1.87,1,1.87,2.05h0a2.1,2.1,0,0,1-2.35,2.09A4.07,4.07,0,0,1,520,203.5Z" transform="translate(-54.67 -31)"/><path class="cls-1" d="M525.6,203.5l.69-1.05a3.14,3.14,0,0,0,1.9.81c.61,0,1-.33,1-.75h0c0-.49-.53-.72-1.35-1.07-1-.44-1.88-.91-1.88-2v0a2.06,2.06,0,0,1,2.28-2,3.93,3.93,0,0,1,2.24.74l-.62,1.08a3.07,3.07,0,0,0-1.64-.61c-.55,0-.87.3-.87.68v0c0,.46.54.69,1.35,1.05,1.07.48,1.87,1,1.87,2.05h0a2.1,2.1,0,0,1-2.35,2.09A4.06,4.06,0,0,1,525.6,203.5Z" transform="translate(-54.67 -31)"/><path class="cls-1" d="M531.5,201v-.1c0-2.07,1.25-3.55,2.94-3.55,1.87,0,2.86,1.56,2.86,3.63,0,.09,0,.3,0,.51H533a1.77,1.77,0,0,0,1.74,1.78,2.19,2.19,0,0,0,1.59-.73l.77.91A3.2,3.2,0,0,1,531.5,201Zm4.37-.53c-.08-1.09-.57-1.88-1.43-1.88s-1.38.71-1.48,1.88Z" transform="translate(-54.67 -31)"/><path class="cls-1" d="M538.34,201v-.17c0-2.33,1.29-3.5,2.68-3.5a2.38,2.38,0,0,1,2,1.17v-3.54h1.47v9.39H543v-1.11a2.33,2.33,0,0,1-2,1.24C539.64,204.46,538.34,203.31,538.34,201Zm4.72,0v-.13c0-1.35-.75-2.21-1.64-2.21s-1.6.83-1.6,2.22v.1c0,1.38.71,2.22,1.6,2.22S543.06,202.31,543.06,201Z" transform="translate(-54.67 -31)"/><text class="cls-2" transform="translate(0 17)">Critical Lab Parameters</text><rect class="cls-3" x="2" y="43" width="506.67" height="144.67"/><line class="cls-3" x1="508.67" y1="77.67" x2="2" y2="77.67"/><line class="cls-3" x1="508.67" y1="113.67" x2="2" y2="113.67"/><line class="cls-3" x1="508.67" y1="151.67" x2="2" y2="151.67"/><line class="cls-3" x1="207.33" y1="43.33" x2="207.33" y2="188"/></svg>