<svg id="Layer_1" data-name="Layer 1" xmlns="http://www.w3.org/2000/svg" viewBox="0 0 590.27 487.42"><defs><style>.cls-1{fill:none;stroke:#010101;stroke-miterlimit:10;}.cls-2{fill:#010101;}.cls-3{fill:#333;}</style></defs><title>dimensional_300</title><path d="M32.17,145.62c-7.2-2-9.06-4.12-8.67-8.85.31-3.77,4.42-7.46,9.08-7.63,6-.22,12,0,18-.11,5.29-.12,10.62,5.9,12.15,12.13,1.74,7.09,2.43,14.43,4.21,21.51.64,2.53,2.79,6,4.88,6.52,2.46.62,6.67-.62,8.25-2.57,3.22-4,6.87-4.29,11.35-4.29q218.2.11,436.41,0c3.71,0,6.38.74,9.11,3.66a12.76,12.76,0,0,0,8.62,3.44c3.88,0,4.92-3.78,5.5-7.25,1-6.07,2.12-12.13,3.27-18.18,2.09-11,6.95-15,18.26-14.95,4,0,8.19-.72,11.94.23a18.24,18.24,0,0,1,9.28,5.63c3,3.7-.61,8.55-8.57,10.81.87-2.11,1.12-3.64,2-4.63,3.24-3.71,2.6-7.21-2.24-7.82a65.87,65.87,0,0,0-17.35-.07c-4.92.69-8.09,4.52-8.93,9.63-1.19,7.21-2.38,14.44-3.18,21.7-.82,7.42-12.24,12.56-18.29,7.2-4.78-4.24-9.65-4.21-15.09-4.21q-215.45,0-430.91,0c-3.67,0-6.6.5-9.32,3.38a10,10,0,0,1-12,2.15c-4-1.91-7.33-4.45-7.72-9.91a151.18,151.18,0,0,0-3.41-20.67c-1.35-6.28-5.82-9.66-12.1-9.76-4.16-.06-8.38-.34-12.47.22a8.64,8.64,0,0,0-5.38,3.58c-.54.83,1.37,3.19,2,4.9C31.37,142.55,31.64,143.81,32.17,145.62Z" transform="translate(-23.45 -26.21)"/><path d="M579.31,312.21c-143.64,0-103.77,0-247.4-.08-3.67,0-6.6.5-9.32,3.38a10,10,0,0,1-12,2.15c-4-1.91-7.33-4.45-7.72-9.91a151.18,151.18,0,0,0-3.41-20.67c-1.35-6.28-5.82-9.66-12.1-9.76-4.16-.06-8.38-.34-12.47.22a8.64,8.64,0,0,0-5.38,3.58c-.54.83,1.37,3.19,2,4.9.47,1.18.74,2.44,1.27,4.26-7.2-2-9.06-4.12-8.67-8.85.31-3.77,4.42-7.46,9.08-7.63,6-.22,12,0,18-.11,5.29-.12,10.62,5.9,12.15,12.13,1.74,7.09,2.43,14.43,4.21,21.51.64,2.53,2.79,6,4.88,6.52,2.46.62,6.67-.62,8.25-2.57,3.22-4,6.87-4.29,11.35-4.29,145.39.07,101.79.07,247.17,0Z" transform="translate(-23.45 -26.21)"/><path d="M42.45,459.21c143.64,0,62.77,0,206.4-.08,3.67,0,6.6.5,9.32,3.38a10,10,0,0,0,12,2.15c4-1.91,7.33-4.45,7.72-9.91a151.18,151.18,0,0,1,3.41-20.67c1.35-6.28,5.82-9.66,12.1-9.76,4.16-.06,8.38-.34,12.47.22a8.64,8.64,0,0,1,5.38,3.58c.54.83-1.37,3.19-2,4.9-.47,1.18-.74,2.44-1.27,4.26,7.2-2,9.06-4.12,8.67-8.85-.31-3.77-4.42-7.46-9.08-7.63-6-.22-12,0-18-.11-5.29-.12-10.62,5.9-12.15,12.13-1.74,7.09-2.43,14.43-4.21,21.51-.64,2.53-2.79,6-4.88,6.52-2.46.62-6.67-.62-8.25-2.57-3.22-4-6.87-4.29-11.35-4.29-145.39.07-60.79.07-206.17,0Z" transform="translate(-23.45 -26.21)"/><line class="cls-1" x1="1.55" y1="56.28" x2="1.55" y2="120.28"/><line class="cls-1" x1="40.67" y1="79.28" x2="40.67" y2="184.65"/><line class="cls-1" x1="248" y1="264.28" x2="248" y2="338.65"/><line class="cls-1" x1="281.34" y1="219.28" x2="281.34" y2="338.65"/><line class="cls-1" x1="189.82" y1="264.28" x2="248.19" y2="264.28"/><line class="cls-1" x1="189.82" y1="245.61" x2="298.19" y2="245.61"/><line class="cls-1" x1="247.15" y1="393.95" x2="349.53" y2="393.95"/><line class="cls-1" x1="224.65" y1="435.45" x2="348.03" y2="435.45"/><line class="cls-1" x1="55.65" y1="441.45" x2="179.03" y2="441.45"/><line class="cls-1" x1="532.67" y1="79.28" x2="532.67" y2="184.65"/><polyline class="cls-1" points="46.36 98.97 532.36 98.97 46.36 98.97"/><polygon class="cls-2" points="47.55 100.71 41.05 98.97 47.55 97.22 47.55 100.71"/><polygon class="cls-2" points="47.55 97.22 41.05 98.97 47.55 100.71 47.55 97.22"/><polyline class="cls-1" points="46.36 170.97 532.36 170.97 46.36 170.97"/><polygon class="cls-2" points="47.55 172.71 41.05 170.97 47.55 169.22 47.55 172.71"/><polygon class="cls-2" points="47.55 169.22 41.05 170.97 47.55 172.71 47.55 169.22"/><polyline class="cls-1" points="203.7 239.97 203.7 221.98 203.7 239.97"/><polygon class="cls-2" points="205.45 238.78 203.7 245.29 201.96 238.78 205.45 238.78"/><polygon class="cls-2" points="201.96 238.78 203.7 245.29 205.45 238.78 201.96 238.78"/><path class="cls-1" d="M227.16,303.09v0Z" transform="translate(-23.45 -26.21)"/><polyline class="cls-1" points="203.7 272.29 203.7 290.29 203.7 272.29"/><polygon class="cls-2" points="201.96 273.48 203.7 266.98 205.45 273.48 201.96 273.48"/><polygon class="cls-2" points="205.45 273.48 203.7 266.98 201.96 273.48 205.45 273.48"/><polyline class="cls-1" points="336.37 386.31 336.37 368.31 336.37 386.31"/><polygon class="cls-2" points="338.11 385.12 336.37 391.62 334.63 385.12 338.11 385.12"/><polygon class="cls-2" points="334.63 385.12 336.37 391.62 338.11 385.12 334.63 385.12"/><path class="cls-1" d="M359.82,467.42v0Z" transform="translate(-23.45 -26.21)"/><polyline class="cls-1" points="336.37 446.63 336.37 464.62 336.37 446.63"/><polygon class="cls-2" points="334.63 447.81 336.37 441.31 338.11 447.81 334.63 447.81"/><polygon class="cls-2" points="338.11 447.81 336.37 441.31 334.63 447.81 338.11 447.81"/><polyline class="cls-1" points="93.37 423.31 93.37 405.31 93.37 423.31"/><polygon class="cls-2" points="95.11 422.12 93.37 428.62 91.63 422.12 95.11 422.12"/><polygon class="cls-2" points="91.63 422.12 93.37 428.62 95.11 422.12 91.63 422.12"/><path class="cls-1" d="M116.82,467.42v0Z" transform="translate(-23.45 -26.21)"/><polyline class="cls-1" points="93.37 446.63 93.37 464.62 93.37 446.63"/><polygon class="cls-2" points="91.63 447.81 93.37 441.31 95.11 447.81 91.63 447.81"/><polygon class="cls-2" points="95.11 447.81 93.37 441.31 91.63 447.81 95.11 447.81"/><polyline class="cls-1" points="287.7 328.97 305.69 328.97 287.7 328.97"/><polygon class="cls-2" points="288.88 330.71 282.38 328.97 288.88 327.22 288.88 330.71"/><polygon class="cls-2" points="288.88 327.22 282.38 328.97 288.88 330.71 288.88 327.22"/><polyline class="cls-1" points="240.71 328.97 222.71 328.97 240.71 328.97"/><polygon class="cls-2" points="239.52 327.22 246.03 328.97 239.52 330.71 239.52 327.22"/><polygon class="cls-2" points="239.52 330.71 246.03 328.97 239.52 327.22 239.52 330.71"/><path class="cls-1" d="M309.15,355.18h0Z" transform="translate(-23.45 -26.21)"/><line class="cls-1" x1="7.36" y1="69.3" x2="566.56" y2="69.3"/><polygon class="cls-2" points="8.55 71.04 2.05 69.3 8.55 67.56 8.55 71.04"/><polygon class="cls-2" points="565.38 71.04 571.88 69.3 565.38 67.56 565.38 71.04"/><line class="cls-1" x1="572.55" y1="56.28" x2="572.55" y2="120.28"/><path class="cls-3" d="M381.32,445.82v0a4.23,4.23,0,0,1,4.25-4.34,4.34,4.34,0,0,1,3,1.09.52.52,0,0,1,.19.38.49.49,0,0,1-.48.47.57.57,0,0,1-.31-.11,3.43,3.43,0,0,0-2.41-1,3.29,3.29,0,0,0-3.25,3.44v0a3.31,3.31,0,0,0,3.25,3.47,3.44,3.44,0,0,0,2.5-1,.43.43,0,0,1,.3-.13.47.47,0,0,1,.46.46.45.45,0,0,1-.16.33,4.3,4.3,0,0,1-3.12,1.24A4.19,4.19,0,0,1,381.32,445.82Z" transform="translate(-23.45 -26.21)"/><path class="cls-3" d="M389.93,445.82v0a4.28,4.28,0,1,1,8.56,0v0a4.28,4.28,0,1,1-8.56,0Zm7.58,0v0a3.34,3.34,0,0,0-3.31-3.47,3.3,3.3,0,0,0-3.29,3.44v0a3.34,3.34,0,0,0,3.31,3.47A3.3,3.3,0,0,0,397.51,445.82Z" transform="translate(-23.45 -26.21)"/><path class="cls-3" d="M400.37,446.48V442a.47.47,0,1,1,.95,0v4.4c0,1.81,1,2.83,2.57,2.83s2.53-.94,2.53-2.77V442a.47.47,0,1,1,.95,0v4.39c0,2.45-1.4,3.72-3.5,3.72A3.29,3.29,0,0,1,400.37,446.48Z" transform="translate(-23.45 -26.21)"/><path class="cls-3" d="M409.61,442a.48.48,0,0,1,.47-.47h.13a.58.58,0,0,1,.48.28l5.1,6.5V442a.46.46,0,1,1,.92,0v7.58a.43.43,0,0,1-.43.44h0a.65.65,0,0,1-.49-.29l-5.21-6.66v6.5a.46.46,0,1,1-.92,0Z" transform="translate(-23.45 -26.21)"/><path class="cls-3" d="M421.31,442.47h-2.43a.44.44,0,0,1-.44-.43.45.45,0,0,1,.44-.44h5.83a.45.45,0,0,1,.44.44.44.44,0,0,1-.44.43h-2.43v7.1a.48.48,0,0,1-1,0Z" transform="translate(-23.45 -26.21)"/><path class="cls-3" d="M426.87,449.51v-7.44a.48.48,0,0,1,.47-.48h5.22a.43.43,0,0,1,0,.86h-4.74v2.87H432a.44.44,0,0,1,.43.43.43.43,0,0,1-.43.43h-4.2v2.94h4.8a.43.43,0,1,1,0,.86h-5.28A.48.48,0,0,1,426.87,449.51Z" transform="translate(-23.45 -26.21)"/><path class="cls-3" d="M434.91,442.08a.48.48,0,0,1,.47-.48h3.14a3.31,3.31,0,0,1,2.39.84,2.32,2.32,0,0,1,.65,1.66v0a2.44,2.44,0,0,1-2.24,2.43l2.09,2.69a.52.52,0,0,1,.16.35.5.5,0,0,1-.48.47.55.55,0,0,1-.44-.25l-2.36-3.07h-2.41v2.84a.47.47,0,1,1-.95,0Zm3.53,3.8c1.26,0,2.16-.65,2.16-1.73v0c0-1-.79-1.65-2.15-1.65h-2.59v3.41Z" transform="translate(-23.45 -26.21)"/><path class="cls-3" d="M446.88,449a.42.42,0,0,1-.18-.36.46.46,0,0,1,.46-.47.42.42,0,0,1,.29.11,3.82,3.82,0,0,0,2.65,1c1.13,0,1.87-.6,1.87-1.43v0c0-.78-.42-1.22-2.18-1.6-1.93-.42-2.82-1-2.82-2.42v0a2.48,2.48,0,0,1,2.76-2.29,4.28,4.28,0,0,1,2.67.83.49.49,0,0,1,.2.38.46.46,0,0,1-.46.46.44.44,0,0,1-.28-.08,3.51,3.51,0,0,0-2.17-.73c-1.09,0-1.79.6-1.79,1.36v0c0,.79.43,1.24,2.28,1.63s2.74,1.09,2.74,2.38v0c0,1.44-1.2,2.38-2.87,2.38A4.9,4.9,0,0,1,446.88,449Z" transform="translate(-23.45 -26.21)"/><path class="cls-3" d="M454.95,442a.47.47,0,1,1,.95,0v7.56a.47.47,0,1,1-.95,0Z" transform="translate(-23.45 -26.21)"/><path class="cls-3" d="M458.35,442a.48.48,0,0,1,.47-.47H459a.58.58,0,0,1,.48.28l5.1,6.5V442a.46.46,0,1,1,.92,0v7.58a.43.43,0,0,1-.43.44h0a.65.65,0,0,1-.49-.29l-5.21-6.66v6.5a.46.46,0,1,1-.92,0Z" transform="translate(-23.45 -26.21)"/><path class="cls-3" d="M467.83,442a.47.47,0,1,1,.95,0v4.59l4.79-4.91a.54.54,0,0,1,.37-.17.46.46,0,0,1,.3.8l-3,3,3.19,3.93a.52.52,0,0,1,.13.35.49.49,0,0,1-.48.48.45.45,0,0,1-.38-.22l-3.13-3.9-1.81,1.81v1.82a.47.47,0,1,1-.95,0Z" transform="translate(-23.45 -26.21)"/><path class="cls-3" d="M480,442.08a.48.48,0,0,1,.47-.48h2.45a4.19,4.19,0,0,1,4.46,4.17v0a4.2,4.2,0,0,1-4.46,4.2h-2.45a.48.48,0,0,1-.47-.48Zm2.91,7a3.25,3.25,0,0,0,3.48-3.3v0a3.27,3.27,0,0,0-3.48-3.32h-2v6.64Z" transform="translate(-23.45 -26.21)"/><path class="cls-3" d="M489.38,449.51v-7.44a.48.48,0,0,1,.47-.48h5.22a.43.43,0,0,1,0,.86h-4.74v2.87h4.2a.44.44,0,0,1,.43.43.43.43,0,0,1-.43.43h-4.2v2.94h4.8a.43.43,0,1,1,0,.86h-5.28A.48.48,0,0,1,489.38,449.51Z" transform="translate(-23.45 -26.21)"/><path class="cls-3" d="M497.42,442.08a.48.48,0,0,1,.47-.48h2.67c1.89,0,3.14,1,3.14,2.66v0c0,1.81-1.51,2.75-3.3,2.75h-2v2.54a.47.47,0,1,1-.95,0Zm3,4.09c1.39,0,2.3-.74,2.3-1.85v0c0-1.2-.9-1.82-2.25-1.82h-2.12v3.69Z" transform="translate(-23.45 -26.21)"/><path class="cls-3" d="M507.66,442.47h-2.43a.44.44,0,0,1-.44-.43.45.45,0,0,1,.44-.44h5.83a.45.45,0,0,1,.44.44.44.44,0,0,1-.44.43h-2.43v7.1a.48.48,0,0,1-1,0Z" transform="translate(-23.45 -26.21)"/><path class="cls-3" d="M513.22,442a.47.47,0,1,1,.95,0v3.31H519V442a.47.47,0,1,1,.95,0v7.56a.47.47,0,1,1-.95,0v-3.36h-4.85v3.36a.47.47,0,1,1-.95,0Z" transform="translate(-23.45 -26.21)"/><path class="cls-3" d="M528.72,451.59a5.6,5.6,0,0,1,0-10.07.41.41,0,0,1,.22,0,.37.37,0,0,1,.36.36.36.36,0,0,1-.18.32,5,5,0,0,0,0,8.8.36.36,0,0,1,.18.32.37.37,0,0,1-.36.36A.4.4,0,0,1,528.72,451.59Z" transform="translate(-23.45 -26.21)"/><path class="cls-3" d="M531,444.2a.47.47,0,0,1,.46-.47.46.46,0,0,1,.47.47v.64a2.26,2.26,0,0,1,2-1.17,2.1,2.1,0,0,1,2,1.23,2.47,2.47,0,0,1,2.18-1.23,2.23,2.23,0,0,1,2.3,2.49v3.43a.46.46,0,1,1-.92,0v-3.21c0-1.2-.6-1.87-1.61-1.87a1.73,1.73,0,0,0-1.7,1.92v3.17a.46.46,0,1,1-.92,0v-3.24c0-1.16-.61-1.85-1.6-1.85a1.8,1.8,0,0,0-1.73,2v3.13a.45.45,0,0,1-.46.47.46.46,0,0,1-.47-.47Z" transform="translate(-23.45 -26.21)"/><path class="cls-3" d="M542.4,444.2a.47.47,0,0,1,.46-.47.46.46,0,0,1,.47.47v.64a2.26,2.26,0,0,1,2-1.17,2.1,2.1,0,0,1,2,1.23,2.47,2.47,0,0,1,2.18-1.23,2.23,2.23,0,0,1,2.3,2.49v3.43a.46.46,0,1,1-.92,0v-3.21c0-1.2-.6-1.87-1.61-1.87a1.73,1.73,0,0,0-1.7,1.92v3.17a.46.46,0,1,1-.92,0v-3.24c0-1.16-.61-1.85-1.6-1.85a1.8,1.8,0,0,0-1.73,2v3.13a.45.45,0,0,1-.46.47.46.46,0,0,1-.47-.47Z" transform="translate(-23.45 -26.21)"/><path class="cls-3" d="M553.44,451.28a.36.36,0,0,1,.18-.32,5,5,0,0,0,0-8.8.36.36,0,0,1-.18-.32.37.37,0,0,1,.36-.36.41.41,0,0,1,.22,0,5.6,5.6,0,0,1,0,10.07.4.4,0,0,1-.22,0A.37.37,0,0,1,553.44,451.28Z" transform="translate(-23.45 -26.21)"/><path class="cls-3" d="M566.77,448H562.6a.45.45,0,0,1-.48-.46.71.71,0,0,1,.18-.46l4.37-5.33a.61.61,0,0,1,.53-.29.49.49,0,0,1,.5.49v5.24h.95a.41.41,0,0,1,.41.41.4.4,0,0,1-.41.38h-.95v1.6a.46.46,0,0,1-.92,0Zm0-.79v-4.33l-3.53,4.33Z" transform="translate(-23.45 -26.21)"/><path class="cls-3" d="M571.12,448.67a.55.55,0,0,1,.56.56v.24a.57.57,0,1,1-1.14,0v-.24A.55.55,0,0,1,571.12,448.67Z" transform="translate(-23.45 -26.21)"/><path class="cls-3" d="M573.49,449a.47.47,0,0,1-.19-.4.46.46,0,0,1,.46-.44.51.51,0,0,1,.32.12,3.21,3.21,0,0,0,2.16.95,1.87,1.87,0,0,0,2-1.86v0a1.85,1.85,0,0,0-2.09-1.76,5.18,5.18,0,0,0-1.7.41.85.85,0,0,1-.48-.18.56.56,0,0,1-.2-.52l.19-3.29a.45.45,0,0,1,.46-.46h4a.44.44,0,0,1,0,.88h-3.62l-.18,2.69a3.78,3.78,0,0,1,1.65-.37,2.62,2.62,0,0,1,2.9,2.57v0a2.77,2.77,0,0,1-3,2.76A4.15,4.15,0,0,1,573.49,449Z" transform="translate(-23.45 -26.21)"/><path class="cls-3" d="M583.23,445.63h-2a.42.42,0,1,1,0-.84h2v-2a.44.44,0,1,1,.88,0v2h2a.42.42,0,0,1,0,.84h-2v2a.44.44,0,1,1-.87,0Zm-2.45,3.95a.42.42,0,0,1,.42-.41h4.94a.41.41,0,0,1,0,.83h-4.94A.43.43,0,0,1,580.79,449.57Z" transform="translate(-23.45 -26.21)"/><path class="cls-3" d="M588.17,445.82v0c0-2.35,1.4-4.34,3.56-4.34s3.53,2,3.53,4.32v0c0,2.35-1.39,4.34-3.55,4.34S588.17,448.17,588.17,445.82Zm6.11,0v0c0-1.83-1-3.48-2.57-3.48s-2.55,1.61-2.55,3.45v0c0,1.83,1,3.48,2.58,3.48S594.27,447.65,594.27,445.82Z" transform="translate(-23.45 -26.21)"/><path class="cls-3" d="M597.24,448.67a.55.55,0,0,1,.56.56v.24a.57.57,0,1,1-1.14,0v-.24A.55.55,0,0,1,597.24,448.67Z" transform="translate(-23.45 -26.21)"/><path class="cls-3" d="M599.46,449.11l2.87-2.53c1.29-1.15,1.75-1.8,1.75-2.64a1.6,1.6,0,0,0-1.69-1.61,2.51,2.51,0,0,0-2.09,1.22.43.43,0,0,1-.35.17.43.43,0,0,1-.43-.43.42.42,0,0,1,.1-.26,3.18,3.18,0,0,1,2.84-1.55,2.42,2.42,0,0,1,2.6,2.38v0c0,1.22-.65,2-2.12,3.26l-2.24,2h4.07a.43.43,0,1,1,0,.86h-5a.45.45,0,0,1-.48-.44A.55.55,0,0,1,599.46,449.11Z" transform="translate(-23.45 -26.21)"/><path class="cls-3" d="M606.63,445.82v0c0-2.35,1.4-4.34,3.56-4.34s3.53,2,3.53,4.32v0c0,2.35-1.39,4.34-3.55,4.34S606.63,448.17,606.63,445.82Zm6.11,0v0c0-1.83-1-3.48-2.57-3.48s-2.55,1.61-2.55,3.45v0c0,1.83,1,3.48,2.58,3.48S612.74,447.65,612.74,445.82Z" transform="translate(-23.45 -26.21)"/><path class="cls-3" d="M335.32,354.32v0a4.23,4.23,0,0,1,4.25-4.34,4.34,4.34,0,0,1,3,1.09.52.52,0,0,1,.19.38.49.49,0,0,1-.48.47.57.57,0,0,1-.31-.11,3.43,3.43,0,0,0-2.41-1,3.29,3.29,0,0,0-3.25,3.44v0a3.31,3.31,0,0,0,3.25,3.47,3.44,3.44,0,0,0,2.5-1,.43.43,0,0,1,.3-.13.47.47,0,0,1,.46.46.45.45,0,0,1-.16.33,4.3,4.3,0,0,1-3.12,1.24A4.19,4.19,0,0,1,335.32,354.32Z" transform="translate(-23.45 -26.21)"/><path class="cls-3" d="M344.41,355v-4.46a.47.47,0,1,1,.95,0v4.4c0,1.81,1,2.83,2.57,2.83s2.53-.94,2.53-2.77v-4.46a.47.47,0,1,1,.95,0v4.39c0,2.45-1.4,3.72-3.5,3.72A3.29,3.29,0,0,1,344.41,355Z" transform="translate(-23.45 -26.21)"/><path class="cls-3" d="M353.65,350.58a.48.48,0,0,1,.47-.48h3.14a3.31,3.31,0,0,1,2.39.84,2.32,2.32,0,0,1,.65,1.66v0a2.44,2.44,0,0,1-2.24,2.43l2.09,2.69a.52.52,0,0,1,.16.35.5.5,0,0,1-.48.47.55.55,0,0,1-.44-.25L357,355.23H354.6v2.84a.47.47,0,1,1-.95,0Zm3.53,3.8c1.26,0,2.16-.65,2.16-1.73v0c0-1-.79-1.65-2.15-1.65H354.6v3.41Z" transform="translate(-23.45 -26.21)"/><path class="cls-3" d="M362.33,350.52a.47.47,0,1,1,.95,0v7.1h4.35a.44.44,0,0,1,.43.44.43.43,0,0,1-.43.43h-4.83a.48.48,0,0,1-.47-.48Z" transform="translate(-23.45 -26.21)"/><path class="cls-3" d="M373,354.32v0a4.28,4.28,0,1,1,8.56,0v0a4.28,4.28,0,1,1-8.56,0Zm7.58,0v0a3.34,3.34,0,0,0-3.31-3.47,3.3,3.3,0,0,0-3.29,3.44v0a3.34,3.34,0,0,0,3.31,3.47A3.3,3.3,0,0,0,380.56,354.32Z" transform="translate(-23.45 -26.21)"/><path class="cls-3" d="M383.55,350.58a.48.48,0,0,1,.47-.48h2.67c1.89,0,3.14,1,3.14,2.66v0c0,1.81-1.51,2.75-3.3,2.75h-2v2.54a.47.47,0,1,1-.95,0Zm3,4.09c1.39,0,2.3-.74,2.3-1.85v0c0-1.2-.9-1.82-2.25-1.82H384.5v3.69Z" transform="translate(-23.45 -26.21)"/><path class="cls-3" d="M391.57,358v-7.44a.48.48,0,0,1,.47-.48h5.22a.43.43,0,0,1,0,.86h-4.74v2.87h4.2a.44.44,0,0,1,.43.43.43.43,0,0,1-.43.43h-4.2v2.94h4.8a.43.43,0,1,1,0,.86H392A.48.48,0,0,1,391.57,358Z" transform="translate(-23.45 -26.21)"/><path class="cls-3" d="M399.61,350.53a.48.48,0,0,1,.47-.47h.13a.58.58,0,0,1,.48.28l5.1,6.5v-6.33a.46.46,0,1,1,.92,0v7.58a.43.43,0,0,1-.43.44h0a.65.65,0,0,1-.49-.29l-5.21-6.66v6.5a.46.46,0,1,1-.92,0Z" transform="translate(-23.45 -26.21)"/><path class="cls-3" d="M409.17,350.52a.47.47,0,1,1,.95,0v7.56a.47.47,0,1,1-.95,0Z" transform="translate(-23.45 -26.21)"/><path class="cls-3" d="M412.58,350.53a.48.48,0,0,1,.47-.47h.13a.58.58,0,0,1,.48.28l5.1,6.5v-6.33a.46.46,0,1,1,.92,0v7.58a.43.43,0,0,1-.43.44h0a.65.65,0,0,1-.49-.29l-5.21-6.66v6.5a.46.46,0,1,1-.92,0Z" transform="translate(-23.45 -26.21)"/><path class="cls-3" d="M421.69,354.32v0A4.21,4.21,0,0,1,425.9,350a4.47,4.47,0,0,1,2.87.9.48.48,0,0,1-.28.86.5.5,0,0,1-.3-.12,3.56,3.56,0,0,0-2.33-.77,3.28,3.28,0,0,0-3.19,3.44v0a3.24,3.24,0,0,0,3.32,3.49,4,4,0,0,0,2.42-.84v-2.09h-2.25a.43.43,0,0,1,0-.85h2.7a.48.48,0,0,1,.47.48V357a.68.68,0,0,1-.32.58,5.11,5.11,0,0,1-3,1A4.12,4.12,0,0,1,421.69,354.32Z" transform="translate(-23.45 -26.21)"/><path class="cls-3" d="M437.85,360.09a5.6,5.6,0,0,1,0-10.07.41.41,0,0,1,.22,0,.37.37,0,0,1,.36.36.36.36,0,0,1-.18.32,5,5,0,0,0,0,8.8.36.36,0,0,1,.18.32.37.37,0,0,1-.36.36A.4.4,0,0,1,437.85,360.09Z" transform="translate(-23.45 -26.21)"/><path class="cls-3" d="M440.12,352.7a.47.47,0,0,1,.46-.47.46.46,0,0,1,.47.47v.64a2.26,2.26,0,0,1,2-1.17,2.1,2.1,0,0,1,2,1.23,2.47,2.47,0,0,1,2.18-1.23,2.23,2.23,0,0,1,2.3,2.49v3.43a.46.46,0,1,1-.92,0v-3.21c0-1.2-.6-1.87-1.61-1.87a1.73,1.73,0,0,0-1.7,1.92v3.17a.46.46,0,1,1-.92,0v-3.24c0-1.16-.61-1.85-1.6-1.85a1.8,1.8,0,0,0-1.73,2v3.13a.45.45,0,0,1-.46.47.46.46,0,0,1-.47-.47Z" transform="translate(-23.45 -26.21)"/><path class="cls-3" d="M451.53,352.7a.47.47,0,0,1,.46-.47.46.46,0,0,1,.47.47v.64a2.26,2.26,0,0,1,2-1.17,2.1,2.1,0,0,1,2,1.23,2.47,2.47,0,0,1,2.18-1.23,2.23,2.23,0,0,1,2.3,2.49v3.43a.46.46,0,1,1-.92,0v-3.21c0-1.2-.6-1.87-1.61-1.87a1.73,1.73,0,0,0-1.7,1.92v3.17a.46.46,0,1,1-.92,0v-3.24c0-1.16-.61-1.85-1.6-1.85a1.8,1.8,0,0,0-1.73,2v3.13a.45.45,0,0,1-.46.47.46.46,0,0,1-.47-.47Z" transform="translate(-23.45 -26.21)"/><path class="cls-3" d="M462.57,359.78a.36.36,0,0,1,.18-.32,5,5,0,0,0,0-8.8.36.36,0,0,1-.18-.32.37.37,0,0,1,.36-.36.41.41,0,0,1,.22,0,5.6,5.6,0,0,1,0,10.07.4.4,0,0,1-.22,0A.37.37,0,0,1,462.57,359.78Z" transform="translate(-23.45 -26.21)"/><path class="cls-3" d="M471.51,357.31v-.8l4.58-1.85v0l-4.58-1.86V352l5.56,2.3V355Zm0,1.19v-.7h5.54v.7Z" transform="translate(-23.45 -26.21)"/><path class="cls-3" d="M478.68,357.37a.52.52,0,0,1-.16-.34.48.48,0,0,1,.47-.47.49.49,0,0,1,.35.14,2.88,2.88,0,0,0,2.28,1.07,1.69,1.69,0,0,0,1.83-1.63v0c0-1-1-1.62-2.35-1.62h-.3a.41.41,0,0,1-.42-.41.53.53,0,0,1,.19-.37l2.45-2.77H479.3a.43.43,0,0,1-.44-.42.44.44,0,0,1,.44-.43h4.58a.42.42,0,0,1,.46.41.68.68,0,0,1-.23.47l-2.47,2.75c1.46.12,2.77.83,2.77,2.36v0a2.61,2.61,0,0,1-2.81,2.53A3.79,3.79,0,0,1,478.68,357.37Z" transform="translate(-23.45 -26.21)"/><path class="cls-3" d="M486.71,357.17a.55.55,0,0,1,.56.56V358a.57.57,0,1,1-1.14,0v-.24A.55.55,0,0,1,486.71,357.17Z" transform="translate(-23.45 -26.21)"/><path class="cls-3" d="M489.08,357.55a.47.47,0,0,1-.19-.4.46.46,0,0,1,.46-.44.51.51,0,0,1,.32.12,3.21,3.21,0,0,0,2.16.95,1.87,1.87,0,0,0,2-1.86v0a1.85,1.85,0,0,0-2.09-1.76,5.18,5.18,0,0,0-1.7.41.85.85,0,0,1-.48-.18.56.56,0,0,1-.2-.52l.19-3.29a.45.45,0,0,1,.46-.46h4a.44.44,0,0,1,0,.88h-3.62l-.18,2.69a3.78,3.78,0,0,1,1.65-.37,2.62,2.62,0,0,1,2.9,2.57v0a2.77,2.77,0,0,1-3,2.76A4.15,4.15,0,0,1,489.08,357.55Z" transform="translate(-23.45 -26.21)"/><path class="cls-3" d="M43.23,280.82v0a4.23,4.23,0,0,1,4.25-4.34,4.34,4.34,0,0,1,3,1.09.52.52,0,0,1,.19.38.49.49,0,0,1-.48.47.57.57,0,0,1-.31-.11,3.44,3.44,0,0,0-2.41-1,3.29,3.29,0,0,0-3.25,3.44v0a3.31,3.31,0,0,0,3.25,3.47,3.44,3.44,0,0,0,2.49-1,.43.43,0,0,1,.3-.13.47.47,0,0,1,.46.46.45.45,0,0,1-.16.33,4.3,4.3,0,0,1-3.12,1.24A4.19,4.19,0,0,1,43.23,280.82Z" transform="translate(-23.45 -26.21)"/><path class="cls-3" d="M52.33,281.48V277a.47.47,0,1,1,.95,0v4.4c0,1.81,1,2.83,2.57,2.83s2.53-.94,2.53-2.77V277a.47.47,0,1,1,.95,0v4.39c0,2.45-1.4,3.72-3.5,3.72A3.29,3.29,0,0,1,52.33,281.48Z" transform="translate(-23.45 -26.21)"/><path class="cls-3" d="M61.57,277.08a.48.48,0,0,1,.47-.48h3.14a3.31,3.31,0,0,1,2.39.84,2.32,2.32,0,0,1,.65,1.66v0A2.44,2.44,0,0,1,66,281.55l2.09,2.69a.52.52,0,0,1,.16.35.5.5,0,0,1-.48.47.55.55,0,0,1-.44-.25l-2.36-3.07H62.51v2.84a.47.47,0,1,1-.95,0Zm3.53,3.8c1.26,0,2.16-.65,2.16-1.73v0c0-1-.79-1.65-2.15-1.65H62.51v3.41Z" transform="translate(-23.45 -26.21)"/><path class="cls-3" d="M70.24,277a.47.47,0,1,1,.95,0v7.1h4.35a.44.44,0,0,1,.43.44.43.43,0,0,1-.43.43H70.71a.48.48,0,0,1-.47-.48Z" transform="translate(-23.45 -26.21)"/><path class="cls-3" d="M81.27,277a.47.47,0,1,1,.95,0v3.31h4.85V277a.47.47,0,1,1,.95,0v7.56a.47.47,0,1,1-.95,0v-3.36H82.22v3.36a.47.47,0,1,1-.95,0Z" transform="translate(-23.45 -26.21)"/><path class="cls-3" d="M90.39,284.51v-7.44a.48.48,0,0,1,.47-.48h5.22a.43.43,0,1,1,0,.86H91.34v2.87h4.2a.44.44,0,0,1,.43.43.43.43,0,0,1-.43.43h-4.2v2.94h4.8a.43.43,0,1,1,0,.86H90.86A.48.48,0,0,1,90.39,284.51Z" transform="translate(-23.45 -26.21)"/><path class="cls-3" d="M98.51,277a.47.47,0,1,1,.95,0v7.56a.47.47,0,1,1-.95,0Z" transform="translate(-23.45 -26.21)"/><path class="cls-3" d="M101.55,280.82v0a4.21,4.21,0,0,1,4.21-4.34,4.47,4.47,0,0,1,2.87.9.48.48,0,0,1-.28.86.5.5,0,0,1-.3-.12,3.56,3.56,0,0,0-2.33-.77,3.28,3.28,0,0,0-3.19,3.44v0a3.24,3.24,0,0,0,3.32,3.49,4,4,0,0,0,2.42-.84v-2.09H106a.43.43,0,0,1,0-.85h2.7a.48.48,0,0,1,.47.48v2.55a.68.68,0,0,1-.32.58,5.11,5.11,0,0,1-3,1A4.12,4.12,0,0,1,101.55,280.82Z" transform="translate(-23.45 -26.21)"/><path class="cls-3" d="M111.33,277a.47.47,0,1,1,.95,0v3.31h4.85V277a.47.47,0,1,1,.95,0v7.56a.47.47,0,1,1-.95,0v-3.36h-4.85v3.36a.47.47,0,1,1-.95,0Z" transform="translate(-23.45 -26.21)"/><path class="cls-3" d="M122.67,277.47h-2.43a.44.44,0,0,1-.44-.43.45.45,0,0,1,.44-.44h5.83a.45.45,0,0,1,.44.44.44.44,0,0,1-.44.43h-2.43v7.1a.48.48,0,0,1-1,0Z" transform="translate(-23.45 -26.21)"/><path class="cls-3" d="M134.61,286.59a5.6,5.6,0,0,1,0-10.07.41.41,0,0,1,.22,0,.37.37,0,0,1,.36.36.36.36,0,0,1-.18.32,5,5,0,0,0,0,8.8.36.36,0,0,1,.18.32.37.37,0,0,1-.36.36A.4.4,0,0,1,134.61,286.59Z" transform="translate(-23.45 -26.21)"/><path class="cls-3" d="M136.88,279.2a.47.47,0,0,1,.46-.47.46.46,0,0,1,.47.47v.64a2.27,2.27,0,0,1,2-1.17,2.11,2.11,0,0,1,2,1.23,2.47,2.47,0,0,1,2.18-1.23,2.23,2.23,0,0,1,2.3,2.49v3.43a.46.46,0,1,1-.92,0v-3.21c0-1.2-.6-1.87-1.61-1.87a1.73,1.73,0,0,0-1.7,1.92v3.17a.46.46,0,1,1-.92,0v-3.24c0-1.16-.61-1.85-1.6-1.85a1.8,1.8,0,0,0-1.73,2v3.13a.45.45,0,0,1-.46.47.46.46,0,0,1-.47-.47Z" transform="translate(-23.45 -26.21)"/><path class="cls-3" d="M148.29,279.2a.47.47,0,0,1,.46-.47.46.46,0,0,1,.47.47v.64a2.27,2.27,0,0,1,2-1.17,2.11,2.11,0,0,1,2,1.23,2.47,2.47,0,0,1,2.18-1.23,2.23,2.23,0,0,1,2.3,2.49v3.43a.46.46,0,1,1-.92,0v-3.21c0-1.2-.6-1.87-1.61-1.87a1.73,1.73,0,0,0-1.7,1.92v3.17a.46.46,0,1,1-.92,0v-3.24c0-1.16-.61-1.85-1.6-1.85a1.8,1.8,0,0,0-1.73,2v3.13a.45.45,0,0,1-.46.47.46.46,0,0,1-.47-.47Z" transform="translate(-23.45 -26.21)"/><path class="cls-3" d="M159.33,286.28a.36.36,0,0,1,.18-.32,5,5,0,0,0,0-8.8.36.36,0,0,1-.18-.32.37.37,0,0,1,.36-.36.41.41,0,0,1,.22,0,5.6,5.6,0,0,1,0,10.07.4.4,0,0,1-.22,0A.37.37,0,0,1,159.33,286.28Z" transform="translate(-23.45 -26.21)"/><path class="cls-3" d="M168.23,284.11l2.87-2.53c1.3-1.15,1.75-1.8,1.75-2.64a1.6,1.6,0,0,0-1.69-1.61,2.5,2.5,0,0,0-2.09,1.22.44.44,0,0,1-.78-.26.42.42,0,0,1,.1-.26,3.18,3.18,0,0,1,2.84-1.55,2.42,2.42,0,0,1,2.6,2.38v0c0,1.22-.65,2-2.12,3.26l-2.24,2h4.07a.43.43,0,1,1,0,.86h-5a.44.44,0,0,1-.48-.44A.55.55,0,0,1,168.23,284.11Z" transform="translate(-23.45 -26.21)"/><path class="cls-3" d="M176.14,283.67a.55.55,0,0,1,.56.56v.24a.57.57,0,1,1-1.14,0v-.24A.55.55,0,0,1,176.14,283.67Z" transform="translate(-23.45 -26.21)"/><path class="cls-3" d="M178.11,280.82v0c0-2.35,1.4-4.34,3.56-4.34s3.53,2,3.53,4.32v0c0,2.35-1.39,4.34-3.55,4.34S178.11,283.17,178.11,280.82Zm6.11,0v0c0-1.83-1-3.48-2.57-3.48s-2.55,1.61-2.55,3.45v0c0,1.83,1,3.48,2.58,3.48S184.21,282.65,184.21,280.82Z" transform="translate(-23.45 -26.21)"/><path class="cls-3" d="M189.25,280.63h-2a.42.42,0,1,1,0-.84h2v-2a.44.44,0,1,1,.88,0v2h2a.42.42,0,0,1,0,.84h-2v2a.44.44,0,1,1-.87,0Zm-2.45,3.95a.42.42,0,0,1,.42-.41h4.94a.41.41,0,0,1,0,.83h-4.94A.43.43,0,0,1,186.81,284.57Z" transform="translate(-23.45 -26.21)"/><path class="cls-3" d="M194.19,280.82v0c0-2.35,1.4-4.34,3.56-4.34s3.53,2,3.53,4.32v0c0,2.35-1.39,4.34-3.55,4.34S194.19,283.17,194.19,280.82Zm6.11,0v0c0-1.83-1-3.48-2.57-3.48s-2.55,1.61-2.55,3.45v0c0,1.83,1,3.48,2.58,3.48S200.29,282.65,200.29,280.82Z" transform="translate(-23.45 -26.21)"/><path class="cls-3" d="M203.26,283.67a.55.55,0,0,1,.56.56v.24a.57.57,0,1,1-1.14,0v-.24A.55.55,0,0,1,203.26,283.67Z" transform="translate(-23.45 -26.21)"/><path class="cls-3" d="M206.27,277.49l-1.17.38a.66.66,0,0,1-.2,0,.41.41,0,0,1-.41-.41.43.43,0,0,1,.34-.41l1.38-.48a1.81,1.81,0,0,1,.52-.11h0a.46.46,0,0,1,.47.47v7.6a.47.47,0,0,1-.47.48.48.48,0,0,1-.47-.48Z" transform="translate(-23.45 -26.21)"/><path class="cls-3" d="M209.16,280.82v0c0-2.35,1.4-4.34,3.56-4.34s3.53,2,3.53,4.32v0c0,2.35-1.39,4.34-3.55,4.34S209.16,283.17,209.16,280.82Zm6.11,0v0c0-1.83-1-3.48-2.57-3.48s-2.55,1.61-2.55,3.45v0c0,1.83,1,3.48,2.58,3.48S215.27,282.65,215.27,280.82Z" transform="translate(-23.45 -26.21)"/><path class="cls-3" d="M206,179.52a.47.47,0,1,1,.95,0v7.56a.47.47,0,1,1-.95,0Z" transform="translate(-23.45 -26.21)"/><path class="cls-3" d="M209.45,179.53a.48.48,0,0,1,.47-.47h.13a.58.58,0,0,1,.48.28l5.1,6.5v-6.33a.46.46,0,1,1,.92,0v7.58a.43.43,0,0,1-.43.44h0a.65.65,0,0,1-.49-.29l-5.21-6.66v6.5a.46.46,0,1,1-.92,0Z" transform="translate(-23.45 -26.21)"/><path class="cls-3" d="M218.93,179.53a.48.48,0,0,1,.47-.47h.13a.58.58,0,0,1,.48.28l5.1,6.5v-6.33a.46.46,0,1,1,.92,0v7.58a.43.43,0,0,1-.43.44h0a.65.65,0,0,1-.49-.29l-5.21-6.66v6.5a.46.46,0,1,1-.92,0Z" transform="translate(-23.45 -26.21)"/><path class="cls-3" d="M228.41,187v-7.44a.48.48,0,0,1,.47-.48h5.22a.43.43,0,1,1,0,.86h-4.74v2.87h4.2a.44.44,0,0,1,.43.43.43.43,0,0,1-.43.43h-4.2v2.94h4.8a.43.43,0,1,1,0,.86h-5.28A.48.48,0,0,1,228.41,187Z" transform="translate(-23.45 -26.21)"/><path class="cls-3" d="M236.45,179.58a.48.48,0,0,1,.47-.48h3.14a3.31,3.31,0,0,1,2.39.84,2.32,2.32,0,0,1,.65,1.66v0a2.44,2.44,0,0,1-2.24,2.43l2.09,2.69a.52.52,0,0,1,.16.35.5.5,0,0,1-.48.47.55.55,0,0,1-.44-.25l-2.36-3.07H237.4v2.84a.47.47,0,1,1-.95,0Zm3.53,3.8c1.26,0,2.16-.65,2.16-1.73v0c0-1-.79-1.65-2.15-1.65H237.4v3.41Z" transform="translate(-23.45 -26.21)"/><path class="cls-3" d="M248.73,179.58a.48.48,0,0,1,.47-.48h2.45a4.19,4.19,0,0,1,4.46,4.17v0a4.2,4.2,0,0,1-4.46,4.2H249.2a.48.48,0,0,1-.47-.48Zm2.91,7a3.25,3.25,0,0,0,3.48-3.3v0a3.27,3.27,0,0,0-3.48-3.32h-2v6.64Z" transform="translate(-23.45 -26.21)"/><path class="cls-3" d="M258.2,179.52a.47.47,0,1,1,.95,0v7.56a.47.47,0,1,1-.95,0Z" transform="translate(-23.45 -26.21)"/><path class="cls-3" d="M261.09,186.87l3.41-7.45a.62.62,0,0,1,.6-.42h0a.6.6,0,0,1,.59.42l3.41,7.44a.64.64,0,0,1,.06.24.45.45,0,0,1-.46.46.52.52,0,0,1-.47-.35l-.88-1.93h-4.61l-.88,2a.47.47,0,0,1-.46.32.43.43,0,0,1-.43-.43A.55.55,0,0,1,261.09,186.87Zm5.94-2.46-1.93-4.29-1.93,4.29Z" transform="translate(-23.45 -26.21)"/><path class="cls-3" d="M271,179.53a.48.48,0,0,1,.47-.47h.11a.52.52,0,0,1,.44.25l3,4.51,3-4.51a.51.51,0,0,1,.44-.25h.11a.48.48,0,0,1,.47.47v7.54a.48.48,0,0,1-.47.48.49.49,0,0,1-.48-.48v-6.26l-2.69,3.95a.46.46,0,0,1-.4.24.48.48,0,0,1-.41-.24l-2.67-3.93v6.26a.46.46,0,1,1-.92,0Z" transform="translate(-23.45 -26.21)"/><path class="cls-3" d="M281.43,187v-7.44a.48.48,0,0,1,.47-.48h5.22a.43.43,0,1,1,0,.86h-4.74v2.87h4.2a.44.44,0,0,1,.43.43.43.43,0,0,1-.43.43h-4.2v2.94h4.8a.43.43,0,0,1,0,.86h-5.28A.48.48,0,0,1,281.43,187Z" transform="translate(-23.45 -26.21)"/><path class="cls-3" d="M291.69,180h-2.43a.44.44,0,0,1-.44-.43.45.45,0,0,1,.44-.44h5.83a.45.45,0,0,1,.44.44.44.44,0,0,1-.44.43h-2.43v7.1a.48.48,0,0,1-1,0Z" transform="translate(-23.45 -26.21)"/><path class="cls-3" d="M297.24,187v-7.44a.48.48,0,0,1,.47-.48h5.22a.43.43,0,0,1,0,.86h-4.74v2.87h4.2a.44.44,0,0,1,.43.43.43.43,0,0,1-.43.43h-4.2v2.94H303a.43.43,0,1,1,0,.86h-5.28A.48.48,0,0,1,297.24,187Z" transform="translate(-23.45 -26.21)"/><path class="cls-3" d="M305.28,179.58a.48.48,0,0,1,.47-.48h3.14a3.31,3.31,0,0,1,2.39.84,2.32,2.32,0,0,1,.65,1.66v0a2.44,2.44,0,0,1-2.24,2.43l2.09,2.69a.52.52,0,0,1,.16.35.5.5,0,0,1-.48.47.55.55,0,0,1-.44-.25l-2.36-3.07h-2.41v2.84a.47.47,0,1,1-.95,0Zm3.53,3.8c1.26,0,2.16-.65,2.16-1.73v0c0-1-.79-1.65-2.15-1.65h-2.59v3.41Z" transform="translate(-23.45 -26.21)"/><path class="cls-3" d="M320.34,189.09a5.6,5.6,0,0,1,0-10.07.41.41,0,0,1,.22,0,.37.37,0,0,1,.36.36.36.36,0,0,1-.18.32,5,5,0,0,0,0,8.8.36.36,0,0,1,.18.32.37.37,0,0,1-.36.36A.4.4,0,0,1,320.34,189.09Z" transform="translate(-23.45 -26.21)"/><path class="cls-3" d="M322.61,181.7a.47.47,0,0,1,.46-.47.46.46,0,0,1,.47.47v.64a2.26,2.26,0,0,1,2-1.17,2.1,2.1,0,0,1,2,1.23,2.47,2.47,0,0,1,2.18-1.23,2.23,2.23,0,0,1,2.3,2.49v3.43a.46.46,0,1,1-.92,0v-3.21c0-1.2-.6-1.87-1.61-1.87a1.73,1.73,0,0,0-1.7,1.92v3.17a.46.46,0,1,1-.92,0v-3.24c0-1.16-.61-1.85-1.6-1.85a1.8,1.8,0,0,0-1.73,2v3.13a.45.45,0,0,1-.46.47.46.46,0,0,1-.47-.47Z" transform="translate(-23.45 -26.21)"/><path class="cls-3" d="M334,181.7a.47.47,0,0,1,.46-.47.46.46,0,0,1,.47.47v.64a2.26,2.26,0,0,1,2-1.17,2.1,2.1,0,0,1,2,1.23,2.47,2.47,0,0,1,2.18-1.23,2.23,2.23,0,0,1,2.3,2.49v3.43a.46.46,0,1,1-.92,0v-3.21c0-1.2-.6-1.87-1.61-1.87a1.73,1.73,0,0,0-1.7,1.92v3.17a.46.46,0,1,1-.92,0v-3.24c0-1.16-.61-1.85-1.6-1.85a1.8,1.8,0,0,0-1.73,2v3.13a.45.45,0,0,1-.46.47.46.46,0,0,1-.47-.47Z" transform="translate(-23.45 -26.21)"/><path class="cls-3" d="M345.06,188.78a.36.36,0,0,1,.18-.32,5,5,0,0,0,0-8.8.36.36,0,0,1-.18-.32.37.37,0,0,1,.36-.36.41.41,0,0,1,.22,0,5.6,5.6,0,0,1,0,10.07.4.4,0,0,1-.22,0A.37.37,0,0,1,345.06,188.78Z" transform="translate(-23.45 -26.21)"/><path class="cls-3" d="M355.61,186.73l-.72.74a.42.42,0,0,1-.3.14.34.34,0,0,1-.36-.35.4.4,0,0,1,.12-.29l.72-.77a4.38,4.38,0,0,1-1-2.89v0a4.31,4.31,0,0,1,7-3.42l.72-.75a.42.42,0,0,1,.3-.14.34.34,0,0,1,.36.35.4.4,0,0,1-.12.29l-.73.78a4.36,4.36,0,0,1,1.06,2.88v0a4.32,4.32,0,0,1-7,3.43Zm.13-1.22,4.64-4.93a3.24,3.24,0,0,0-2.09-.76,3.31,3.31,0,0,0-3.29,3.45v0A3.56,3.56,0,0,0,355.74,185.5Zm5.87-2.18v0a3.59,3.59,0,0,0-.73-2.21L356.23,186a3.19,3.19,0,0,0,2.09.74A3.31,3.31,0,0,0,361.61,183.32Z" transform="translate(-23.45 -26.21)"/><path class="cls-3" d="M365.37,186.82l3.48-6.86h-4.23a.43.43,0,0,1-.44-.43.44.44,0,0,1,.44-.43h4.92a.41.41,0,0,1,.46.42,1,1,0,0,1-.13.42l-3.62,7.28a.51.51,0,0,1-.46.33.46.46,0,0,1-.48-.44A.92.92,0,0,1,365.37,186.82Z" transform="translate(-23.45 -26.21)"/><path class="cls-3" d="M371.13,186.37A.52.52,0,0,1,371,186a.48.48,0,0,1,.47-.47.49.49,0,0,1,.35.14,2.88,2.88,0,0,0,2.28,1.07,1.69,1.69,0,0,0,1.83-1.63v0c0-1-1-1.62-2.35-1.62h-.3a.41.41,0,0,1-.42-.41.53.53,0,0,1,.19-.37l2.45-2.77h-3.72a.43.43,0,0,1-.44-.42.44.44,0,0,1,.44-.43h4.58a.42.42,0,0,1,.46.41.68.68,0,0,1-.23.47l-2.47,2.75c1.46.12,2.77.83,2.77,2.36v0a2.61,2.61,0,0,1-2.81,2.53A3.79,3.79,0,0,1,371.13,186.37Z" transform="translate(-23.45 -26.21)"/><path class="cls-3" d="M381,183.13h-2a.42.42,0,1,1,0-.84h2v-2a.44.44,0,1,1,.88,0v2h2a.42.42,0,0,1,0,.84h-2v2a.44.44,0,1,1-.87,0Zm-2.45,3.95a.42.42,0,0,1,.42-.41h4.94a.41.41,0,0,1,0,.83H379A.43.43,0,0,1,378.54,187.07Z" transform="translate(-23.45 -26.21)"/><path class="cls-3" d="M385.92,183.32v0c0-2.35,1.4-4.34,3.56-4.34s3.53,2,3.53,4.32v0c0,2.35-1.39,4.34-3.55,4.34S385.92,185.67,385.92,183.32Zm6.11,0v0c0-1.83-1-3.48-2.57-3.48s-2.55,1.61-2.55,3.45v0c0,1.83,1,3.48,2.58,3.48S392,185.15,392,183.32Z" transform="translate(-23.45 -26.21)"/><path class="cls-3" d="M395,186.17a.55.55,0,0,1,.56.56V187a.57.57,0,1,1-1.14,0v-.24A.55.55,0,0,1,395,186.17Z" transform="translate(-23.45 -26.21)"/><path class="cls-3" d="M397.22,186.61l2.87-2.53c1.29-1.15,1.75-1.8,1.75-2.64a1.6,1.6,0,0,0-1.69-1.61,2.51,2.51,0,0,0-2.09,1.22.43.43,0,0,1-.35.17.43.43,0,0,1-.43-.43.42.42,0,0,1,.1-.26,3.18,3.18,0,0,1,2.84-1.55,2.42,2.42,0,0,1,2.6,2.38v0c0,1.22-.65,2-2.12,3.26l-2.24,2h4.07a.43.43,0,1,1,0,.86h-5A.45.45,0,0,1,397,187,.55.55,0,0,1,397.22,186.61Z" transform="translate(-23.45 -26.21)"/><path class="cls-3" d="M404.39,183.32v0c0-2.35,1.4-4.34,3.56-4.34s3.53,2,3.53,4.32v0c0,2.35-1.39,4.34-3.55,4.34S404.39,185.67,404.39,183.32Zm6.11,0v0c0-1.83-1-3.48-2.57-3.48s-2.55,1.61-2.55,3.45v0c0,1.83,1,3.48,2.58,3.48S410.5,185.15,410.5,183.32Z" transform="translate(-23.45 -26.21)"/><path class="cls-3" d="M203,110.32v0a4.23,4.23,0,0,1,4.25-4.34,4.34,4.34,0,0,1,3,1.09.52.52,0,0,1,.19.38.49.49,0,0,1-.48.47.57.57,0,0,1-.31-.11,3.44,3.44,0,0,0-2.41-1,3.29,3.29,0,0,0-3.25,3.44v0a3.31,3.31,0,0,0,3.25,3.47,3.44,3.44,0,0,0,2.49-1,.43.43,0,0,1,.3-.13.47.47,0,0,1,.46.46.45.45,0,0,1-.16.33,4.3,4.3,0,0,1-3.12,1.24A4.19,4.19,0,0,1,203,110.32Z" transform="translate(-23.45 -26.21)"/><path class="cls-3" d="M212.2,106.52a.47.47,0,1,1,.95,0v3.31H218v-3.31a.47.47,0,1,1,.95,0v7.56a.47.47,0,1,1-.95,0v-3.36h-4.85v3.36a.47.47,0,1,1-.95,0Z" transform="translate(-23.45 -26.21)"/><path class="cls-3" d="M221.19,111v-4.46a.47.47,0,1,1,.95,0v4.4c0,1.81,1,2.83,2.57,2.83s2.53-.94,2.53-2.77v-4.46a.47.47,0,1,1,.95,0v4.39c0,2.45-1.4,3.72-3.5,3.72A3.29,3.29,0,0,1,221.19,111Z" transform="translate(-23.45 -26.21)"/><path class="cls-3" d="M230.06,110.32v0A4.23,4.23,0,0,1,234.3,106a4.34,4.34,0,0,1,3,1.09.52.52,0,0,1,.19.38.49.49,0,0,1-.48.47.57.57,0,0,1-.31-.11,3.44,3.44,0,0,0-2.41-1,3.29,3.29,0,0,0-3.25,3.44v0a3.31,3.31,0,0,0,3.25,3.47,3.44,3.44,0,0,0,2.49-1,.43.43,0,0,1,.3-.13.47.47,0,0,1,.46.46.45.45,0,0,1-.16.33,4.3,4.3,0,0,1-3.12,1.24A4.19,4.19,0,0,1,230.06,110.32Z" transform="translate(-23.45 -26.21)"/><path class="cls-3" d="M239.28,106.52a.47.47,0,1,1,.95,0v4.59l4.79-4.91a.53.53,0,0,1,.37-.17.47.47,0,0,1,.46.47.47.47,0,0,1-.16.34l-3,3,3.19,3.93a.52.52,0,0,1,.13.35.49.49,0,0,1-.48.48.45.45,0,0,1-.38-.22l-3.13-3.9-1.81,1.81v1.82a.47.47,0,1,1-.95,0Z" transform="translate(-23.45 -26.21)"/><path class="cls-3" d="M251.45,106.58a.48.48,0,0,1,.47-.48h2.45a4.19,4.19,0,0,1,4.46,4.17v0a4.2,4.2,0,0,1-4.46,4.2h-2.45a.48.48,0,0,1-.47-.48Zm2.91,7a3.25,3.25,0,0,0,3.48-3.3v0a3.27,3.27,0,0,0-3.48-3.32h-2v6.64Z" transform="translate(-23.45 -26.21)"/><path class="cls-3" d="M260.92,106.52a.47.47,0,1,1,.95,0v7.56a.47.47,0,1,1-.95,0Z" transform="translate(-23.45 -26.21)"/><path class="cls-3" d="M263.81,113.87l3.41-7.45a.62.62,0,0,1,.6-.42h0a.6.6,0,0,1,.59.42l3.41,7.44a.64.64,0,0,1,.06.24.45.45,0,0,1-.46.46.52.52,0,0,1-.47-.35l-.88-1.93h-4.61l-.87,2a.47.47,0,0,1-.46.32.43.43,0,0,1-.43-.43A.55.55,0,0,1,263.81,113.87Zm5.94-2.46-1.93-4.29-1.93,4.29Z" transform="translate(-23.45 -26.21)"/><path class="cls-3" d="M273.74,106.53a.48.48,0,0,1,.47-.47h.11a.52.52,0,0,1,.44.25l3,4.51,3-4.51a.51.51,0,0,1,.44-.25h.11a.48.48,0,0,1,.47.47v7.54a.48.48,0,0,1-.47.48.49.49,0,0,1-.48-.48v-6.26l-2.69,3.95a.46.46,0,0,1-.4.24.48.48,0,0,1-.41-.24l-2.67-3.93v6.26a.46.46,0,1,1-.92,0Z" transform="translate(-23.45 -26.21)"/><path class="cls-3" d="M284.15,114v-7.44a.48.48,0,0,1,.47-.48h5.22a.43.43,0,0,1,0,.86H285.1v2.87h4.2a.44.44,0,0,1,.43.43.43.43,0,0,1-.43.43h-4.2v2.94h4.8a.43.43,0,1,1,0,.86h-5.28A.48.48,0,0,1,284.15,114Z" transform="translate(-23.45 -26.21)"/><path class="cls-3" d="M294.41,107H292a.44.44,0,0,1-.44-.43.45.45,0,0,1,.44-.44h5.83a.45.45,0,0,1,.44.44.44.44,0,0,1-.44.43h-2.43v7.1a.48.48,0,0,1-1,0Z" transform="translate(-23.45 -26.21)"/><path class="cls-3" d="M300,114v-7.44a.48.48,0,0,1,.47-.48h5.22a.43.43,0,0,1,0,.86h-4.74v2.87h4.2a.44.44,0,0,1,.43.43.43.43,0,0,1-.43.43h-4.2v2.94h4.8a.43.43,0,1,1,0,.86h-5.28A.48.48,0,0,1,300,114Z" transform="translate(-23.45 -26.21)"/><path class="cls-3" d="M308,106.58a.48.48,0,0,1,.47-.48h3.14a3.31,3.31,0,0,1,2.39.84,2.32,2.32,0,0,1,.65,1.66v0a2.44,2.44,0,0,1-2.24,2.43l2.09,2.69a.52.52,0,0,1,.16.35.5.5,0,0,1-.48.47.55.55,0,0,1-.44-.25l-2.36-3.07H309v2.84a.47.47,0,1,1-.95,0Zm3.53,3.8c1.26,0,2.16-.65,2.16-1.73v0c0-1-.79-1.65-2.15-1.65H309v3.41Z" transform="translate(-23.45 -26.21)"/><path class="cls-3" d="M323.07,116.09a5.6,5.6,0,0,1,0-10.07.41.41,0,0,1,.22,0,.37.37,0,0,1,.36.36.36.36,0,0,1-.18.32,5,5,0,0,0,0,8.8.36.36,0,0,1,.18.32.37.37,0,0,1-.36.36A.4.4,0,0,1,323.07,116.09Z" transform="translate(-23.45 -26.21)"/><path class="cls-3" d="M325.33,108.7a.47.47,0,0,1,.46-.47.46.46,0,0,1,.47.47v.64a2.26,2.26,0,0,1,2-1.17,2.1,2.1,0,0,1,2,1.23,2.47,2.47,0,0,1,2.18-1.23,2.23,2.23,0,0,1,2.3,2.49v3.43a.46.46,0,1,1-.92,0v-3.21c0-1.2-.6-1.87-1.61-1.87a1.73,1.73,0,0,0-1.7,1.92v3.17a.46.46,0,1,1-.92,0v-3.24c0-1.16-.61-1.85-1.6-1.85a1.8,1.8,0,0,0-1.73,2v3.13a.45.45,0,0,1-.46.47.46.46,0,0,1-.47-.47Z" transform="translate(-23.45 -26.21)"/><path class="cls-3" d="M336.75,108.7a.47.47,0,0,1,.46-.47.46.46,0,0,1,.47.47v.64a2.26,2.26,0,0,1,2-1.17,2.1,2.1,0,0,1,2,1.23,2.47,2.47,0,0,1,2.18-1.23,2.23,2.23,0,0,1,2.3,2.49v3.43a.46.46,0,1,1-.92,0v-3.21c0-1.2-.6-1.87-1.61-1.87a1.73,1.73,0,0,0-1.7,1.92v3.17a.46.46,0,1,1-.92,0v-3.24c0-1.16-.61-1.85-1.6-1.85a1.8,1.8,0,0,0-1.73,2v3.13a.45.45,0,0,1-.46.47.46.46,0,0,1-.47-.47Z" transform="translate(-23.45 -26.21)"/><path class="cls-3" d="M347.79,115.78a.36.36,0,0,1,.18-.32,5,5,0,0,0,0-8.8.36.36,0,0,1-.18-.32.37.37,0,0,1,.36-.36.41.41,0,0,1,.22,0,5.6,5.6,0,0,1,0,10.07.4.4,0,0,1-.22,0A.37.37,0,0,1,347.79,115.78Z" transform="translate(-23.45 -26.21)"/><path class="cls-3" d="M358.33,113.73l-.72.74a.42.42,0,0,1-.3.14.34.34,0,0,1-.36-.35.4.4,0,0,1,.12-.29l.72-.77a4.38,4.38,0,0,1-1-2.89v0a4.31,4.31,0,0,1,7-3.42l.72-.75a.42.42,0,0,1,.3-.14.34.34,0,0,1,.36.35.4.4,0,0,1-.12.29l-.73.78a4.36,4.36,0,0,1,1.06,2.88v0a4.32,4.32,0,0,1-7,3.43Zm.13-1.22,4.64-4.93a3.24,3.24,0,0,0-2.09-.76,3.31,3.31,0,0,0-3.29,3.45v0A3.56,3.56,0,0,0,358.47,112.5Zm5.87-2.18v0a3.59,3.59,0,0,0-.73-2.21L359,113a3.19,3.19,0,0,0,2.09.74A3.31,3.31,0,0,0,364.33,110.32Z" transform="translate(-23.45 -26.21)"/><path class="cls-3" d="M368.09,113.82l3.48-6.86h-4.23a.43.43,0,0,1-.44-.43.44.44,0,0,1,.44-.43h4.92a.41.41,0,0,1,.46.42,1,1,0,0,1-.13.42L369,114.22a.51.51,0,0,1-.46.33.46.46,0,0,1-.48-.44A.92.92,0,0,1,368.09,113.82Z" transform="translate(-23.45 -26.21)"/><path class="cls-3" d="M373.86,113.61l2.87-2.53c1.29-1.15,1.75-1.8,1.75-2.64a1.6,1.6,0,0,0-1.69-1.61,2.51,2.51,0,0,0-2.09,1.22.43.43,0,0,1-.35.17.43.43,0,0,1-.43-.43.42.42,0,0,1,.1-.26,3.18,3.18,0,0,1,2.84-1.55,2.42,2.42,0,0,1,2.6,2.38v0c0,1.22-.65,2-2.12,3.26l-2.24,2h4.07a.43.43,0,1,1,0,.86h-5a.45.45,0,0,1-.48-.44A.55.55,0,0,1,373.86,113.61Z" transform="translate(-23.45 -26.21)"/><path class="cls-3" d="M383.61,110.13h-2a.42.42,0,0,1,0-.84h2v-2a.44.44,0,1,1,.88,0v2h2a.42.42,0,0,1,0,.84h-2v2a.44.44,0,1,1-.87,0Zm-2.45,3.95a.42.42,0,0,1,.42-.41h4.94a.41.41,0,0,1,0,.83h-4.94A.43.43,0,0,1,381.16,114.07Z" transform="translate(-23.45 -26.21)"/><path class="cls-3" d="M388.54,110.32v0c0-2.35,1.4-4.34,3.56-4.34s3.53,2,3.53,4.32v0c0,2.35-1.39,4.34-3.55,4.34S388.54,112.67,388.54,110.32Zm6.11,0v0c0-1.83-1-3.48-2.57-3.48s-2.55,1.61-2.55,3.45v0c0,1.83,1,3.48,2.58,3.48S394.65,112.15,394.65,110.32Z" transform="translate(-23.45 -26.21)"/><path class="cls-3" d="M397.61,113.17a.55.55,0,0,1,.56.56V114a.57.57,0,1,1-1.14,0v-.24A.55.55,0,0,1,397.61,113.17Z" transform="translate(-23.45 -26.21)"/><path class="cls-3" d="M399.83,113.61l2.87-2.53c1.29-1.15,1.75-1.8,1.75-2.64a1.6,1.6,0,0,0-1.69-1.61,2.51,2.51,0,0,0-2.09,1.22.43.43,0,0,1-.35.17.43.43,0,0,1-.43-.43.42.42,0,0,1,.1-.26,3.18,3.18,0,0,1,2.84-1.55,2.42,2.42,0,0,1,2.6,2.38v0c0,1.22-.65,2-2.12,3.26l-2.24,2h4.07a.43.43,0,1,1,0,.86h-5a.45.45,0,0,1-.48-.44A.55.55,0,0,1,399.83,113.61Z" transform="translate(-23.45 -26.21)"/><path class="cls-3" d="M407,110.32v0c0-2.35,1.4-4.34,3.56-4.34s3.53,2,3.53,4.32v0c0,2.35-1.39,4.34-3.55,4.34S407,112.67,407,110.32Zm6.11,0v0c0-1.83-1-3.48-2.57-3.48s-2.55,1.61-2.55,3.45v0c0,1.83,1,3.48,2.58,3.48S413.11,112.15,413.11,110.32Z" transform="translate(-23.45 -26.21)"/><path class="cls-3" d="M200.29,84.32v0A4.23,4.23,0,0,1,204.54,80a4.34,4.34,0,0,1,3,1.09.52.52,0,0,1,.19.38.49.49,0,0,1-.48.47.57.57,0,0,1-.31-.11,3.44,3.44,0,0,0-2.41-1,3.29,3.29,0,0,0-3.25,3.44v0a3.31,3.31,0,0,0,3.25,3.47,3.44,3.44,0,0,0,2.49-1,.43.43,0,0,1,.3-.13.47.47,0,0,1,.46.46.45.45,0,0,1-.16.33,4.3,4.3,0,0,1-3.12,1.24A4.19,4.19,0,0,1,200.29,84.32Z" transform="translate(-23.45 -26.21)"/><path class="cls-3" d="M209.39,85V80.52a.47.47,0,1,1,.95,0v4.4c0,1.81,1,2.83,2.57,2.83s2.53-.94,2.53-2.77V80.52a.47.47,0,1,1,.95,0v4.39c0,2.45-1.4,3.72-3.5,3.72A3.29,3.29,0,0,1,209.39,85Z" transform="translate(-23.45 -26.21)"/><path class="cls-3" d="M218.63,80.58a.48.48,0,0,1,.47-.48h3.14a3.31,3.31,0,0,1,2.39.84,2.32,2.32,0,0,1,.65,1.66v0A2.44,2.44,0,0,1,223,85.05l2.09,2.69a.51.51,0,0,1,.16.35.5.5,0,0,1-.48.47.55.55,0,0,1-.44-.25L222,85.23h-2.41v2.84a.47.47,0,1,1-.95,0Zm3.53,3.8c1.26,0,2.16-.65,2.16-1.73v0c0-1-.79-1.65-2.15-1.65h-2.59v3.41Z" transform="translate(-23.45 -26.21)"/><path class="cls-3" d="M227.3,80.52a.47.47,0,1,1,.95,0v7.1h4.35a.44.44,0,0,1,.43.44.43.43,0,0,1-.43.43h-4.83a.48.48,0,0,1-.47-.48Z" transform="translate(-23.45 -26.21)"/><path class="cls-3" d="M238.33,80.58a.48.48,0,0,1,.47-.48h2.45a4.19,4.19,0,0,1,4.46,4.17v0a4.2,4.2,0,0,1-4.46,4.2H238.8a.48.48,0,0,1-.47-.48Zm2.91,7a3.25,3.25,0,0,0,3.48-3.3v0A3.27,3.27,0,0,0,241.24,81h-2v6.64Z" transform="translate(-23.45 -26.21)"/><path class="cls-3" d="M247.8,80.52a.47.47,0,1,1,.95,0v7.56a.47.47,0,1,1-.95,0Z" transform="translate(-23.45 -26.21)"/><path class="cls-3" d="M250.69,87.87l3.41-7.45a.62.62,0,0,1,.6-.42h0a.6.6,0,0,1,.59.42l3.41,7.44a.64.64,0,0,1,.06.24.46.46,0,0,1-.46.46.52.52,0,0,1-.47-.35L257,86.27h-4.61l-.88,2a.47.47,0,0,1-.46.32.43.43,0,0,1-.43-.43A.55.55,0,0,1,250.69,87.87Zm5.94-2.46-1.93-4.29-1.93,4.29Z" transform="translate(-23.45 -26.21)"/><path class="cls-3" d="M260.61,80.53a.48.48,0,0,1,.47-.47h.11a.52.52,0,0,1,.44.25l3,4.51,3-4.51a.51.51,0,0,1,.44-.25h.11a.48.48,0,0,1,.47.47v7.54a.48.48,0,0,1-.47.48.49.49,0,0,1-.48-.48V81.81L265,85.76a.46.46,0,0,1-.4.24.48.48,0,0,1-.41-.24l-2.67-3.93v6.26a.46.46,0,1,1-.92,0Z" transform="translate(-23.45 -26.21)"/><path class="cls-3" d="M271,88V80.58a.48.48,0,0,1,.47-.48h5.22a.43.43,0,0,1,0,.86H272v2.87h4.2a.44.44,0,0,1,.43.43.43.43,0,0,1-.43.43H272v2.94h4.8a.43.43,0,0,1,0,.86H271.5A.48.48,0,0,1,271,88Z" transform="translate(-23.45 -26.21)"/><path class="cls-3" d="M281.29,81h-2.43a.44.44,0,0,1-.44-.43.45.45,0,0,1,.44-.44h5.83a.45.45,0,0,1,.44.44.44.44,0,0,1-.44.43h-2.43v7.1a.48.48,0,0,1-1,0Z" transform="translate(-23.45 -26.21)"/><path class="cls-3" d="M286.85,88V80.58a.48.48,0,0,1,.47-.48h5.22a.43.43,0,1,1,0,.86h-4.74v2.87H292a.44.44,0,0,1,.43.43.43.43,0,0,1-.43.43h-4.2v2.94h4.8a.43.43,0,0,1,0,.86h-5.28A.48.48,0,0,1,286.85,88Z" transform="translate(-23.45 -26.21)"/><path class="cls-3" d="M294.89,80.58a.48.48,0,0,1,.47-.48h3.14a3.3,3.3,0,0,1,2.39.84,2.32,2.32,0,0,1,.65,1.66v0a2.44,2.44,0,0,1-2.24,2.43l2.09,2.69a.52.52,0,0,1,.16.35.5.5,0,0,1-.48.47.55.55,0,0,1-.44-.25l-2.36-3.07h-2.41v2.84a.47.47,0,1,1-.95,0Zm3.53,3.8c1.26,0,2.16-.65,2.16-1.73v0c0-1-.79-1.65-2.15-1.65h-2.59v3.41Z" transform="translate(-23.45 -26.21)"/><path class="cls-3" d="M309.94,90.09a5.6,5.6,0,0,1,0-10.07.41.41,0,0,1,.22,0,.37.37,0,0,1,.36.36.36.36,0,0,1-.18.32,5,5,0,0,0,0,8.8.36.36,0,0,1,.18.32.37.37,0,0,1-.36.36A.4.4,0,0,1,309.94,90.09Z" transform="translate(-23.45 -26.21)"/><path class="cls-3" d="M312.21,82.7a.47.47,0,0,1,.46-.47.46.46,0,0,1,.47.47v.64a2.26,2.26,0,0,1,2-1.17,2.11,2.11,0,0,1,2,1.23,2.47,2.47,0,0,1,2.18-1.23,2.23,2.23,0,0,1,2.3,2.49v3.43a.46.46,0,1,1-.92,0V84.87c0-1.2-.6-1.87-1.61-1.87a1.73,1.73,0,0,0-1.7,1.92v3.17a.46.46,0,1,1-.92,0V84.85c0-1.16-.61-1.85-1.6-1.85a1.8,1.8,0,0,0-1.73,2v3.13a.45.45,0,0,1-.46.47.46.46,0,0,1-.47-.47Z" transform="translate(-23.45 -26.21)"/><path class="cls-3" d="M323.63,82.7a.47.47,0,0,1,.46-.47.46.46,0,0,1,.47.47v.64a2.26,2.26,0,0,1,2-1.17,2.11,2.11,0,0,1,2,1.23,2.47,2.47,0,0,1,2.18-1.23,2.23,2.23,0,0,1,2.3,2.49v3.43a.46.46,0,1,1-.92,0V84.87c0-1.2-.6-1.87-1.61-1.87a1.73,1.73,0,0,0-1.7,1.92v3.17a.46.46,0,1,1-.92,0V84.85c0-1.16-.61-1.85-1.6-1.85a1.8,1.8,0,0,0-1.73,2v3.13a.45.45,0,0,1-.46.47.46.46,0,0,1-.47-.47Z" transform="translate(-23.45 -26.21)"/><path class="cls-3" d="M334.67,89.78a.36.36,0,0,1,.18-.32,5,5,0,0,0,0-8.8.36.36,0,0,1-.18-.32A.37.37,0,0,1,335,80a.41.41,0,0,1,.22,0,5.6,5.6,0,0,1,0,10.07.4.4,0,0,1-.22,0A.37.37,0,0,1,334.67,89.78Z" transform="translate(-23.45 -26.21)"/><path class="cls-3" d="M345.21,87.73l-.72.74a.42.42,0,0,1-.3.14.34.34,0,0,1-.36-.35A.4.4,0,0,1,344,88l.72-.77a4.38,4.38,0,0,1-1-2.89v0a4.31,4.31,0,0,1,7-3.42l.72-.75a.42.42,0,0,1,.3-.14.34.34,0,0,1,.36.35.4.4,0,0,1-.12.29l-.73.78a4.36,4.36,0,0,1,1.06,2.88v0a4.32,4.32,0,0,1-7,3.43Zm.13-1.22L350,81.57a3.24,3.24,0,0,0-2.09-.76,3.31,3.31,0,0,0-3.29,3.45v0A3.56,3.56,0,0,0,345.34,86.5Zm5.87-2.18v0a3.59,3.59,0,0,0-.73-2.21L345.84,87a3.19,3.19,0,0,0,2.09.74A3.31,3.31,0,0,0,351.21,84.32Z" transform="translate(-23.45 -26.21)"/><path class="cls-3" d="M353.64,86.24v0a2.26,2.26,0,0,1,1.73-2.06,2.14,2.14,0,0,1-1.44-1.93v0c0-1.29,1.33-2.22,2.87-2.22s2.87.92,2.87,2.22v0a2.14,2.14,0,0,1-1.44,1.93,2.28,2.28,0,0,1,1.73,2.05v0c0,1.43-1.37,2.39-3.15,2.39S353.64,87.64,353.64,86.24Zm5.35,0v0c0-.94-1-1.59-2.19-1.59s-2.2.66-2.2,1.59v0c0,.84.82,1.57,2.2,1.57S359,87.07,359,86.22Zm-.28-3.93v0c0-.83-.83-1.45-1.92-1.45s-1.92.61-1.92,1.45v0c0,.91.85,1.54,1.92,1.54S358.71,83.19,358.71,82.28Z" transform="translate(-23.45 -26.21)"/><path class="cls-3" d="M361.33,87.61l2.87-2.53c1.29-1.15,1.75-1.8,1.75-2.64a1.6,1.6,0,0,0-1.69-1.61,2.51,2.51,0,0,0-2.09,1.22.43.43,0,0,1-.35.17.43.43,0,0,1-.43-.43.42.42,0,0,1,.1-.26A3.18,3.18,0,0,1,364.33,80a2.42,2.42,0,0,1,2.6,2.38v0c0,1.22-.65,2-2.12,3.26l-2.24,2h4.07a.43.43,0,1,1,0,.86h-5a.45.45,0,0,1-.48-.44A.55.55,0,0,1,361.33,87.61Z" transform="translate(-23.45 -26.21)"/><path class="cls-3" d="M369.24,87.17a.55.55,0,0,1,.56.56V88a.57.57,0,1,1-1.14,0v-.24A.55.55,0,0,1,369.24,87.17Z" transform="translate(-23.45 -26.21)"/><path class="cls-3" d="M372.25,81l-1.17.38a.66.66,0,0,1-.2,0,.41.41,0,0,1-.41-.41.43.43,0,0,1,.34-.41l1.38-.48a1.81,1.81,0,0,1,.52-.11h0a.46.46,0,0,1,.47.47v7.6a.47.47,0,0,1-.47.48.48.48,0,0,1-.47-.48Z" transform="translate(-23.45 -26.21)"/><path class="cls-3" d="M375.14,84.32v0c0-2.35,1.4-4.34,3.56-4.34s3.53,2,3.53,4.32v0c0,2.35-1.39,4.34-3.55,4.34S375.14,86.67,375.14,84.32Zm6.11,0v0c0-1.83-1-3.48-2.57-3.48s-2.55,1.61-2.55,3.45v0c0,1.83,1,3.48,2.58,3.48S381.25,86.15,381.25,84.32Z" transform="translate(-23.45 -26.21)"/><path class="cls-3" d="M386.29,84.13h-2a.42.42,0,1,1,0-.84h2v-2a.44.44,0,1,1,.88,0v2h2a.42.42,0,1,1,0,.84h-2v2a.44.44,0,1,1-.87,0Zm-2.45,3.95a.42.42,0,0,1,.42-.41h4.94a.41.41,0,0,1,0,.83h-4.94A.43.43,0,0,1,383.84,88.07Z" transform="translate(-23.45 -26.21)"/><path class="cls-3" d="M391.22,84.32v0c0-2.35,1.4-4.34,3.56-4.34s3.53,2,3.53,4.32v0c0,2.35-1.39,4.34-3.55,4.34S391.22,86.67,391.22,84.32Zm6.11,0v0c0-1.83-1-3.48-2.57-3.48s-2.55,1.61-2.55,3.45v0c0,1.83,1,3.48,2.58,3.48S397.33,86.15,397.33,84.32Z" transform="translate(-23.45 -26.21)"/><path class="cls-3" d="M400.29,87.17a.55.55,0,0,1,.56.56V88a.57.57,0,1,1-1.14,0v-.24A.55.55,0,0,1,400.29,87.17Z" transform="translate(-23.45 -26.21)"/><path class="cls-3" d="M402.51,87.61l2.87-2.53c1.29-1.15,1.75-1.8,1.75-2.64a1.6,1.6,0,0,0-1.69-1.61,2.51,2.51,0,0,0-2.09,1.22.43.43,0,0,1-.35.17.43.43,0,0,1-.43-.43.42.42,0,0,1,.1-.26A3.18,3.18,0,0,1,405.51,80a2.42,2.42,0,0,1,2.6,2.38v0c0,1.22-.65,2-2.12,3.26l-2.24,2h4.07a.43.43,0,1,1,0,.86h-5a.45.45,0,0,1-.48-.44A.55.55,0,0,1,402.51,87.61Z" transform="translate(-23.45 -26.21)"/><path class="cls-3" d="M409.69,84.32v0c0-2.35,1.4-4.34,3.56-4.34s3.53,2,3.53,4.32v0c0,2.35-1.39,4.34-3.55,4.34S409.69,86.67,409.69,84.32Zm6.11,0v0c0-1.83-1-3.48-2.57-3.48s-2.55,1.61-2.55,3.45v0c0,1.83,1,3.48,2.58,3.48S415.79,86.15,415.79,84.32Z" transform="translate(-23.45 -26.21)"/><path class="cls-3" d="M75.19,504.08a.48.48,0,0,1,.47-.48h2.67c1.89,0,3.14,1,3.14,2.66v0c0,1.81-1.51,2.75-3.3,2.75h-2v2.54a.47.47,0,1,1-.95,0Zm3,4.09c1.39,0,2.3-.74,2.3-1.85v0c0-1.2-.9-1.82-2.25-1.82H76.13v3.69Z" transform="translate(-23.45 -26.21)"/><path class="cls-3" d="M81.91,511.37l3.41-7.45a.62.62,0,0,1,.6-.42h0a.61.61,0,0,1,.59.42L90,511.36a.64.64,0,0,1,.06.24.46.46,0,0,1-.46.46.52.52,0,0,1-.47-.35l-.87-1.93H83.61l-.88,2a.47.47,0,0,1-.46.32.43.43,0,0,1-.43-.43A.55.55,0,0,1,81.91,511.37Zm5.94-2.46-1.93-4.29L84,508.91Z" transform="translate(-23.45 -26.21)"/><path class="cls-3" d="M91.83,504a.48.48,0,0,1,.47-.47h.13a.58.58,0,0,1,.48.28l5.1,6.5V504a.46.46,0,1,1,.92,0v7.58a.43.43,0,0,1-.43.44h0a.65.65,0,0,1-.49-.29l-5.21-6.66v6.5a.46.46,0,1,1-.92,0Z" transform="translate(-23.45 -26.21)"/><path class="cls-3" d="M101.31,511.51v-7.44a.48.48,0,0,1,.47-.48H107a.43.43,0,0,1,0,.86h-4.74v2.87h4.2a.44.44,0,0,1,.43.43.43.43,0,0,1-.43.43h-4.2v2.94h4.8a.43.43,0,1,1,0,.86h-5.28A.48.48,0,0,1,101.31,511.51Z" transform="translate(-23.45 -26.21)"/><path class="cls-3" d="M109.35,504a.47.47,0,1,1,.95,0v7.1h4.35a.44.44,0,0,1,.43.44.43.43,0,0,1-.43.43h-4.83a.48.48,0,0,1-.47-.48Z" transform="translate(-23.45 -26.21)"/><path class="cls-3" d="M120.38,504.08a.48.48,0,0,1,.47-.48h2.45a4.19,4.19,0,0,1,4.46,4.17v0a4.2,4.2,0,0,1-4.46,4.2h-2.45a.48.48,0,0,1-.47-.48Zm2.91,7a3.25,3.25,0,0,0,3.48-3.3v0a3.27,3.27,0,0,0-3.48-3.32h-2v6.64Z" transform="translate(-23.45 -26.21)"/><path class="cls-3" d="M129.76,511.51v-7.44a.48.48,0,0,1,.47-.48h5.22a.43.43,0,0,1,0,.86h-4.74v2.87h4.2a.44.44,0,0,1,.43.43.43.43,0,0,1-.43.43h-4.2v2.94h4.8a.43.43,0,1,1,0,.86h-5.28A.48.48,0,0,1,129.76,511.51Z" transform="translate(-23.45 -26.21)"/><path class="cls-3" d="M137.8,504.08a.48.48,0,0,1,.47-.48h2.67c1.89,0,3.14,1,3.14,2.66v0c0,1.81-1.51,2.75-3.3,2.75h-2v2.54a.47.47,0,1,1-.95,0Zm3,4.09c1.39,0,2.3-.74,2.3-1.85v0c0-1.2-.9-1.82-2.25-1.82h-2.12v3.69Z" transform="translate(-23.45 -26.21)"/><path class="cls-3" d="M148,504.47H145.6a.44.44,0,0,1-.44-.43.45.45,0,0,1,.44-.44h5.83a.45.45,0,0,1,.44.44.44.44,0,0,1-.44.43H149v7.1a.48.48,0,0,1-1,0Z" transform="translate(-23.45 -26.21)"/><path class="cls-3" d="M153.59,504a.47.47,0,1,1,.95,0v3.31h4.85V504a.47.47,0,1,1,.95,0v7.56a.47.47,0,1,1-.95,0v-3.36h-4.85v3.36a.47.47,0,1,1-.95,0Z" transform="translate(-23.45 -26.21)"/><path class="cls-3" d="M169.1,513.59a5.6,5.6,0,0,1,0-10.07.41.41,0,0,1,.22,0,.37.37,0,0,1,.36.36.36.36,0,0,1-.18.32,5,5,0,0,0,0,8.8.36.36,0,0,1,.18.32.37.37,0,0,1-.36.36A.4.4,0,0,1,169.1,513.59Z" transform="translate(-23.45 -26.21)"/><path class="cls-3" d="M171.37,506.2a.47.47,0,0,1,.46-.47.46.46,0,0,1,.47.47v.64a2.26,2.26,0,0,1,2-1.17,2.11,2.11,0,0,1,2,1.23,2.47,2.47,0,0,1,2.18-1.23,2.23,2.23,0,0,1,2.3,2.49v3.43a.46.46,0,1,1-.92,0v-3.21c0-1.2-.6-1.87-1.61-1.87a1.73,1.73,0,0,0-1.7,1.92v3.17a.46.46,0,1,1-.92,0v-3.24c0-1.16-.61-1.85-1.6-1.85a1.8,1.8,0,0,0-1.73,2v3.13a.45.45,0,0,1-.46.47.46.46,0,0,1-.47-.47Z" transform="translate(-23.45 -26.21)"/><path class="cls-3" d="M182.78,506.2a.47.47,0,0,1,.46-.47.46.46,0,0,1,.47.47v.64a2.26,2.26,0,0,1,2-1.17,2.11,2.11,0,0,1,2,1.23,2.47,2.47,0,0,1,2.18-1.23,2.23,2.23,0,0,1,2.3,2.49v3.43a.46.46,0,1,1-.92,0v-3.21c0-1.2-.6-1.87-1.61-1.87a1.73,1.73,0,0,0-1.7,1.92v3.17a.46.46,0,1,1-.92,0v-3.24c0-1.16-.61-1.85-1.6-1.85a1.8,1.8,0,0,0-1.73,2v3.13a.45.45,0,0,1-.46.47.46.46,0,0,1-.47-.47Z" transform="translate(-23.45 -26.21)"/><path class="cls-3" d="M193.82,513.28A.36.36,0,0,1,194,513a5,5,0,0,0,0-8.8.36.36,0,0,1-.18-.32.37.37,0,0,1,.36-.36.41.41,0,0,1,.22,0,5.6,5.6,0,0,1,0,10.07.4.4,0,0,1-.22,0A.37.37,0,0,1,193.82,513.28Z" transform="translate(-23.45 -26.21)"/><path class="cls-3" d="M202.71,507.82v0c0-2.35,1.4-4.34,3.56-4.34s3.53,2,3.53,4.32v0c0,2.35-1.39,4.34-3.55,4.34S202.71,510.17,202.71,507.82Zm6.11,0v0c0-1.83-1-3.48-2.57-3.48s-2.55,1.61-2.55,3.45v0c0,1.83,1,3.48,2.58,3.48S208.81,509.65,208.81,507.82Z" transform="translate(-23.45 -26.21)"/><path class="cls-3" d="M211.78,510.67a.55.55,0,0,1,.56.56v.24a.57.57,0,1,1-1.14,0v-.24A.55.55,0,0,1,211.78,510.67Z" transform="translate(-23.45 -26.21)"/><path class="cls-3" d="M214.45,511.3a.45.45,0,0,1,.24-.84.56.56,0,0,1,.3.1,2.79,2.79,0,0,0,1.82.72c1.51,0,2.53-1.54,2.49-3.68a2.88,2.88,0,0,1-5.3-1.26v0a2.86,2.86,0,0,1,3-2.85,3,3,0,0,1,2.21.86,4.26,4.26,0,0,1,1,3.25v0c0,2.66-1.42,4.54-3.49,4.54A3.77,3.77,0,0,1,214.45,511.3Zm4.68-5.07v0a2,2,0,0,0-2.13-1.91,1.93,1.93,0,0,0-2,2v0a1.88,1.88,0,0,0,2.06,1.83A2,2,0,0,0,219.12,506.22Z" transform="translate(-23.45 -26.21)"/><path class="cls-3" d="M221.86,511a.47.47,0,0,1-.19-.4.46.46,0,0,1,.46-.44.51.51,0,0,1,.32.12,3.21,3.21,0,0,0,2.16.95,1.87,1.87,0,0,0,2-1.86v0a1.85,1.85,0,0,0-2.09-1.76,5.18,5.18,0,0,0-1.7.41.85.85,0,0,1-.48-.18.56.56,0,0,1-.2-.52l.19-3.29a.45.45,0,0,1,.46-.46h4a.44.44,0,0,1,0,.88H223.2l-.18,2.69a3.78,3.78,0,0,1,1.65-.37,2.62,2.62,0,0,1,2.9,2.57v0a2.77,2.77,0,0,1-3,2.76A4.15,4.15,0,0,1,221.86,511Z" transform="translate(-23.45 -26.21)"/><path class="cls-3" d="M231.6,507.63h-2a.42.42,0,0,1,0-.84h2v-2a.44.44,0,1,1,.88,0v2h2a.42.42,0,0,1,0,.84h-2v2a.44.44,0,1,1-.87,0Zm-2.45,3.95a.42.42,0,0,1,.42-.41h4.94a.41.41,0,0,1,0,.83h-4.94A.43.43,0,0,1,229.16,511.57Z" transform="translate(-23.45 -26.21)"/><path class="cls-3" d="M236.54,507.82v0c0-2.35,1.4-4.34,3.56-4.34s3.53,2,3.53,4.32v0c0,2.35-1.39,4.34-3.55,4.34S236.54,510.17,236.54,507.82Zm6.11,0v0c0-1.83-1-3.48-2.57-3.48s-2.55,1.61-2.55,3.45v0c0,1.83,1,3.48,2.58,3.48S242.64,509.65,242.64,507.82Z" transform="translate(-23.45 -26.21)"/><path class="cls-3" d="M245.61,510.67a.55.55,0,0,1,.56.56v.24a.57.57,0,1,1-1.14,0v-.24A.55.55,0,0,1,245.61,510.67Z" transform="translate(-23.45 -26.21)"/><path class="cls-3" d="M248.62,504.49l-1.17.38a.66.66,0,0,1-.2,0,.41.41,0,0,1-.41-.41.43.43,0,0,1,.34-.41l1.38-.48a1.81,1.81,0,0,1,.52-.11h0a.46.46,0,0,1,.47.47v7.6a.47.47,0,0,1-.47.48.48.48,0,0,1-.47-.48Z" transform="translate(-23.45 -26.21)"/><path class="cls-3" d="M251.51,507.82v0c0-2.35,1.4-4.34,3.56-4.34s3.53,2,3.53,4.32v0c0,2.35-1.39,4.34-3.55,4.34S251.51,510.17,251.51,507.82Zm6.11,0v0c0-1.83-1-3.48-2.57-3.48s-2.55,1.61-2.55,3.45v0c0,1.83,1,3.48,2.58,3.48S257.62,509.65,257.62,507.82Z" transform="translate(-23.45 -26.21)"/><path class="cls-3" d="M110.91,26.47h5.48a8.67,8.67,0,0,1,3.17.56A7.49,7.49,0,0,1,122,28.57a6.88,6.88,0,0,1,1.61,2.32,7.3,7.3,0,0,1,.57,2.89v0a7.37,7.37,0,0,1-.57,2.9A6.85,6.85,0,0,1,122,39a7.62,7.62,0,0,1-2.47,1.55,8.53,8.53,0,0,1-3.17.57h-5.48Zm5.48,12.33a5.77,5.77,0,0,0,2.1-.37,4.51,4.51,0,0,0,2.64-2.59,5.23,5.23,0,0,0,.37-2v0a5.32,5.32,0,0,0-.37-2,4.61,4.61,0,0,0-1-1.58,4.71,4.71,0,0,0-1.61-1,5.63,5.63,0,0,0-2.1-.38h-2.9v10Z" transform="translate(-23.45 -26.21)"/><path class="cls-3" d="M127.48,26.47h2.58v14.7h-2.58Z" transform="translate(-23.45 -26.21)"/><path class="cls-3" d="M134,26.47h2.75l4.47,7,4.47-7h2.75v14.7h-2.58V30.62l-4.64,6.93h-.08l-4.6-6.89v10.5H134Z" transform="translate(-23.45 -26.21)"/><path class="cls-3" d="M152.22,26.47h10.9v2.31H154.8V32.6h7.37v2.31H154.8v3.95h8.42v2.31h-11Z" transform="translate(-23.45 -26.21)"/><path class="cls-3" d="M166.29,26.47h2.39l7.88,10.16V26.47h2.54v14.7h-2.16l-8.11-10.46V41.17h-2.54Z" transform="translate(-23.45 -26.21)"/><path class="cls-3" d="M188,41.38a9.19,9.19,0,0,1-3.26-.58A8.87,8.87,0,0,1,181.89,39l1.55-1.85a9,9,0,0,0,2.16,1.42,6,6,0,0,0,2.48.49,3.21,3.21,0,0,0,1.9-.5,1.57,1.57,0,0,0,.7-1.34v0a1.7,1.7,0,0,0-.14-.7,1.53,1.53,0,0,0-.5-.58,4,4,0,0,0-1-.5,14.57,14.57,0,0,0-1.67-.46,20.39,20.39,0,0,1-2.09-.63,5.46,5.46,0,0,1-1.53-.83,3.24,3.24,0,0,1-.95-1.21,4.11,4.11,0,0,1-.33-1.72v0a3.94,3.94,0,0,1,1.42-3.07,4.89,4.89,0,0,1,1.59-.87,6.24,6.24,0,0,1,2-.31,8.36,8.36,0,0,1,2.91.48,8.66,8.66,0,0,1,2.43,1.39l-1.39,2a9,9,0,0,0-2-1.12,5.41,5.41,0,0,0-2-.39,2.76,2.76,0,0,0-1.76.5,1.53,1.53,0,0,0-.63,1.24v0a1.79,1.79,0,0,0,.15.75,1.44,1.44,0,0,0,.54.59,4.54,4.54,0,0,0,1.07.49q.68.23,1.73.48a13,13,0,0,1,2.06.64,5.33,5.33,0,0,1,1.47.88,3.47,3.47,0,0,1,.89,1.18,3.84,3.84,0,0,1,.3,1.59v0a4.25,4.25,0,0,1-.39,1.84,4,4,0,0,1-1.08,1.38,4.79,4.79,0,0,1-1.66.86A7.28,7.28,0,0,1,188,41.38Z" transform="translate(-23.45 -26.21)"/><path class="cls-3" d="M196.47,26.47H199v14.7h-2.58Z" transform="translate(-23.45 -26.21)"/><path class="cls-3" d="M210,41.42a7.85,7.85,0,0,1-3.11-.6,7.38,7.38,0,0,1-2.42-1.63,7.46,7.46,0,0,1-1.57-2.41,7.6,7.6,0,0,1-.57-2.93v0a7.61,7.61,0,0,1,.57-2.93,7.4,7.4,0,0,1,1.6-2.42A7.66,7.66,0,0,1,210,26.21a7.86,7.86,0,0,1,3.11.6,7.32,7.32,0,0,1,4,4,7.61,7.61,0,0,1,.57,2.93v0a7.6,7.6,0,0,1-.57,2.93,7.4,7.4,0,0,1-1.6,2.42A7.66,7.66,0,0,1,210,41.42ZM210,39a4.86,4.86,0,0,0,2-.41,4.75,4.75,0,0,0,1.56-1.11,5.15,5.15,0,0,0,1-1.65,5.52,5.52,0,0,0,.37-2v0a5.61,5.61,0,0,0-.37-2A4.92,4.92,0,0,0,212,29a5.08,5.08,0,0,0-4,0,4.76,4.76,0,0,0-1.56,1.11,5.15,5.15,0,0,0-1,1.65,5.51,5.51,0,0,0-.37,2v0a5.59,5.59,0,0,0,.37,2A4.91,4.91,0,0,0,208,38.63,4.81,4.81,0,0,0,210,39Z" transform="translate(-23.45 -26.21)"/><path class="cls-3" d="M220.83,26.47h2.39l7.88,10.16V26.47h2.54v14.7h-2.16l-8.11-10.46V41.17h-2.54Z" transform="translate(-23.45 -26.21)"/><path class="cls-3" d="M242.62,26.36H245l6.47,14.8h-2.73l-1.49-3.55h-7l-1.51,3.55h-2.65Zm3.7,8.95-2.54-5.88-2.52,5.88Z" transform="translate(-23.45 -26.21)"/><path class="cls-3" d="M254,26.47h2.58V38.79h7.73v2.37H254Z" transform="translate(-23.45 -26.21)"/><path class="cls-3" d="M278.45,41.38a9.19,9.19,0,0,1-3.25-.58A8.86,8.86,0,0,1,272.32,39l1.55-1.85A9,9,0,0,0,276,38.57a6,6,0,0,0,2.48.49,3.21,3.21,0,0,0,1.9-.5,1.57,1.57,0,0,0,.7-1.34v0a1.7,1.7,0,0,0-.14-.7,1.52,1.52,0,0,0-.5-.58,4,4,0,0,0-1-.5,14.63,14.63,0,0,0-1.67-.46,20.34,20.34,0,0,1-2.09-.63,5.45,5.45,0,0,1-1.53-.83,3.24,3.24,0,0,1-.95-1.21,4.12,4.12,0,0,1-.33-1.72v0a3.94,3.94,0,0,1,.38-1.73,4,4,0,0,1,1-1.34,4.9,4.9,0,0,1,1.59-.87,6.24,6.24,0,0,1,2-.31,8.37,8.37,0,0,1,2.91.48,8.65,8.65,0,0,1,2.42,1.39l-1.39,2a9,9,0,0,0-2-1.12,5.41,5.41,0,0,0-2-.39,2.76,2.76,0,0,0-1.76.5,1.53,1.53,0,0,0-.63,1.24v0a1.8,1.8,0,0,0,.15.75,1.44,1.44,0,0,0,.54.59,4.52,4.52,0,0,0,1.07.49q.68.23,1.73.48a13,13,0,0,1,2.06.64,5.32,5.32,0,0,1,1.47.88,3.47,3.47,0,0,1,.89,1.18,3.83,3.83,0,0,1,.3,1.59v0a4.25,4.25,0,0,1-.39,1.84,3.94,3.94,0,0,1-1.08,1.38,4.81,4.81,0,0,1-1.66.86A7.29,7.29,0,0,1,278.45,41.38Z" transform="translate(-23.45 -26.21)"/><path class="cls-3" d="M286.74,26.47h5.8a7.3,7.3,0,0,1,2.32.35,5,5,0,0,1,1.76,1,4.42,4.42,0,0,1,1.11,1.55,5.05,5.05,0,0,1,.39,2v0a4.84,4.84,0,0,1-.46,2.17,4.5,4.5,0,0,1-1.26,1.56,5.62,5.62,0,0,1-1.87,1,7.8,7.8,0,0,1-2.29.33h-2.92v4.72h-2.58Zm5.59,7.67a3.43,3.43,0,0,0,2.32-.73,2.39,2.39,0,0,0,.85-1.89v0a2.32,2.32,0,0,0-.86-2,3.69,3.69,0,0,0-2.31-.66h-3v5.29Z" transform="translate(-23.45 -26.21)"/><path class="cls-3" d="M300.77,26.47h10.9v2.31h-8.32V32.6h7.37v2.31h-7.37v3.95h8.42v2.31h-11Z" transform="translate(-23.45 -26.21)"/><path class="cls-3" d="M321.67,41.42a7.49,7.49,0,0,1-3-.59,7.29,7.29,0,0,1-2.37-1.61,7.4,7.4,0,0,1-1.56-2.4,7.75,7.75,0,0,1-.57-3v0a7.79,7.79,0,0,1,.56-3,7.44,7.44,0,0,1,1.56-2.42,7.34,7.34,0,0,1,2.4-1.64,7.67,7.67,0,0,1,3.06-.6,9.32,9.32,0,0,1,1.84.17,7.47,7.47,0,0,1,1.52.47,7.11,7.11,0,0,1,1.28.72,10.12,10.12,0,0,1,1.11.92l-1.66,1.91A8.28,8.28,0,0,0,324,29.09a4.87,4.87,0,0,0-2.25-.5,4.61,4.61,0,0,0-1.94.41,4.71,4.71,0,0,0-1.53,1.11,5.26,5.26,0,0,0-1,1.65,5.51,5.51,0,0,0-.37,2v0a5.59,5.59,0,0,0,.37,2,5.35,5.35,0,0,0,1,1.67A4.61,4.61,0,0,0,321.75,39a5.25,5.25,0,0,0,1.24-.14,5.37,5.37,0,0,0,1.07-.38,5.67,5.67,0,0,0,1-.6,10.59,10.59,0,0,0,.93-.8l1.66,1.68a11.25,11.25,0,0,1-1.19,1.07,7.48,7.48,0,0,1-1.33.83,6.74,6.74,0,0,1-1.56.52A9.17,9.17,0,0,1,321.67,41.42Z" transform="translate(-23.45 -26.21)"/><path class="cls-3" d="M330.49,26.47h2.58v14.7h-2.58Z" transform="translate(-23.45 -26.21)"/><path class="cls-3" d="M337,26.47h10.94v2.37h-8.36v4H347v2.37h-7.41v6H337Z" transform="translate(-23.45 -26.21)"/><path class="cls-3" d="M350.92,26.47h2.58v14.7h-2.58Z" transform="translate(-23.45 -26.21)"/><path class="cls-3" d="M364.25,41.42a7.49,7.49,0,0,1-3-.59,7.29,7.29,0,0,1-2.37-1.61,7.4,7.4,0,0,1-1.56-2.4,7.75,7.75,0,0,1-.57-3v0a7.79,7.79,0,0,1,.56-3,7.44,7.44,0,0,1,1.56-2.42,7.34,7.34,0,0,1,2.4-1.64,7.67,7.67,0,0,1,3.06-.6,9.32,9.32,0,0,1,1.84.17,7.47,7.47,0,0,1,1.52.47,7.11,7.11,0,0,1,1.28.72,10.12,10.12,0,0,1,1.11.92l-1.66,1.91a8.28,8.28,0,0,0-1.87-1.32,4.87,4.87,0,0,0-2.25-.5,4.61,4.61,0,0,0-1.94.41,4.71,4.71,0,0,0-1.53,1.11,5.26,5.26,0,0,0-1,1.65,5.51,5.51,0,0,0-.37,2v0a5.59,5.59,0,0,0,.37,2,5.35,5.35,0,0,0,1,1.67A4.61,4.61,0,0,0,364.34,39a5.25,5.25,0,0,0,1.24-.14,5.37,5.37,0,0,0,1.07-.38,5.67,5.67,0,0,0,1-.6,10.59,10.59,0,0,0,.93-.8l1.66,1.68A11.25,11.25,0,0,1,369,39.89a7.48,7.48,0,0,1-1.33.83,6.74,6.74,0,0,1-1.56.52A9.17,9.17,0,0,1,364.25,41.42Z" transform="translate(-23.45 -26.21)"/><path class="cls-3" d="M378.13,26.36h2.39L387,41.17h-2.73l-1.49-3.55h-7l-1.51,3.55h-2.65Zm3.7,8.95-2.54-5.88-2.52,5.88Z" transform="translate(-23.45 -26.21)"/><path class="cls-3" d="M391.24,28.84h-4.66V26.47h11.91v2.37h-4.66V41.17h-2.58Z" transform="translate(-23.45 -26.21)"/><path class="cls-3" d="M401.38,26.47H404v14.7h-2.58Z" transform="translate(-23.45 -26.21)"/><path class="cls-3" d="M414.91,41.42a7.85,7.85,0,0,1-3.11-.6,7.37,7.37,0,0,1-2.42-1.63,7.46,7.46,0,0,1-1.58-2.41,7.6,7.6,0,0,1-.57-2.93v0a7.61,7.61,0,0,1,.57-2.93,7.4,7.4,0,0,1,1.6-2.42,7.66,7.66,0,0,1,5.54-2.26,7.85,7.85,0,0,1,3.11.6,7.38,7.38,0,0,1,2.42,1.63,7.46,7.46,0,0,1,1.58,2.4,7.61,7.61,0,0,1,.57,2.93v0a7.6,7.6,0,0,1-.57,2.93,7.4,7.4,0,0,1-1.6,2.42,7.66,7.66,0,0,1-5.54,2.26Zm0-2.37a4.85,4.85,0,0,0,2-.41,4.74,4.74,0,0,0,1.56-1.11,5.14,5.14,0,0,0,1-1.65,5.51,5.51,0,0,0,.37-2v0a5.6,5.6,0,0,0-.37-2A4.91,4.91,0,0,0,416.92,29a5.08,5.08,0,0,0-4,0,4.76,4.76,0,0,0-1.56,1.11,5.15,5.15,0,0,0-1,1.65,5.51,5.51,0,0,0-.37,2v0a5.59,5.59,0,0,0,.37,2,5,5,0,0,0,1,1.66,5,5,0,0,0,1.58,1.12A4.81,4.81,0,0,0,414.95,39Z" transform="translate(-23.45 -26.21)"/><path class="cls-3" d="M425.74,26.47h2.39L436,36.63V26.47h2.54v14.7h-2.16l-8.11-10.46V41.17h-2.54Z" transform="translate(-23.45 -26.21)"/><path class="cls-3" d="M455.64,41.42a7.92,7.92,0,0,1-2.31-.33,7.29,7.29,0,0,1-2-.93l-1,1.11h-2.54l2.08-2.33a7.09,7.09,0,0,1-1.42-2.32,7.78,7.78,0,0,1-.49-2.76v0a7.62,7.62,0,0,1,.57-2.93,7.41,7.41,0,0,1,1.6-2.42,7.66,7.66,0,0,1,5.54-2.26,7.91,7.91,0,0,1,2.31.33,7.37,7.37,0,0,1,2,.93l1-1.11h2.54l-2.08,2.35A7.13,7.13,0,0,1,462.86,31a7.7,7.7,0,0,1,.49,2.75v0a7.61,7.61,0,0,1-.57,2.93,7.41,7.41,0,0,1-1.6,2.42,7.66,7.66,0,0,1-5.54,2.26Zm2.69-12.05a4.34,4.34,0,0,0-1.23-.62,4.73,4.73,0,0,0-1.46-.22,4.91,4.91,0,0,0-2,.41A4.75,4.75,0,0,0,452,30.06a5.15,5.15,0,0,0-1,1.67,5.59,5.59,0,0,0-.37,2v0a5.22,5.22,0,0,0,1,3.13Zm-2.65,9.74a4.91,4.91,0,0,0,2-.41,4.77,4.77,0,0,0,1.59-1.12,5.15,5.15,0,0,0,1-1.67,5.59,5.59,0,0,0,.37-2v0a5.22,5.22,0,0,0-1-3.13L453,38.27a4.31,4.31,0,0,0,1.23.62A4.74,4.74,0,0,0,455.69,39.11Z" transform="translate(-23.45 -26.21)"/><path class="cls-3" d="M471.12,41.42a7.07,7.07,0,0,1-3.31-.72,7.56,7.56,0,0,1-2.32-1.84l1.81-1.68A6,6,0,0,0,469,38.61a4.46,4.46,0,0,0,2.15.49A2.73,2.73,0,0,0,473,38.5a2,2,0,0,0,.72-1.62v0a1.89,1.89,0,0,0-.91-1.68,4.51,4.51,0,0,0-2.47-.59h-1.2l-.42-1.62,4-4.23h-6.36V26.47h9.74V28.4l-4.11,4.2a7.46,7.46,0,0,1,1.62.39,4.85,4.85,0,0,1,1.38.77,3.63,3.63,0,0,1,1,1.22,3.88,3.88,0,0,1,.37,1.76v0a4.57,4.57,0,0,1-.38,1.87,4.27,4.27,0,0,1-1.06,1.47,4.89,4.89,0,0,1-1.63,1A6.09,6.09,0,0,1,471.12,41.42Z" transform="translate(-23.45 -26.21)"/><path class="cls-3" d="M485.15,41.42a5.79,5.79,0,0,1-2.62-.59,6.08,6.08,0,0,1-2-1.62,7.4,7.4,0,0,1-1.29-2.4,9.41,9.41,0,0,1-.45-3v0a9.28,9.28,0,0,1,.46-3,7.54,7.54,0,0,1,1.3-2.42,6.18,6.18,0,0,1,2-1.63,6.13,6.13,0,0,1,5.26,0,6,6,0,0,1,2,1.62,7.7,7.7,0,0,1,1.29,2.4,9.22,9.22,0,0,1,.46,3v0a9.32,9.32,0,0,1-.46,3,7.56,7.56,0,0,1-1.3,2.42,6.19,6.19,0,0,1-2,1.63A5.76,5.76,0,0,1,485.15,41.42Zm0-2.31a2.94,2.94,0,0,0,1.54-.41,3.72,3.72,0,0,0,1.17-1.13,5.64,5.64,0,0,0,.75-1.67,7.65,7.65,0,0,0,.26-2v0a7.49,7.49,0,0,0-.27-2.06,5.86,5.86,0,0,0-.76-1.68,3.78,3.78,0,0,0-1.18-1.14,3.07,3.07,0,0,0-3.09,0,3.71,3.71,0,0,0-1.18,1.12,5.48,5.48,0,0,0-.75,1.67,7.72,7.72,0,0,0-.26,2.05v0a7.73,7.73,0,0,0,.26,2.06,5.47,5.47,0,0,0,.76,1.68,3.89,3.89,0,0,0,1.19,1.14A2.93,2.93,0,0,0,485.19,39.11Z" transform="translate(-23.45 -26.21)"/><path class="cls-3" d="M500.35,41.42a5.79,5.79,0,0,1-2.62-.59,6.08,6.08,0,0,1-2-1.62,7.4,7.4,0,0,1-1.29-2.4,9.41,9.41,0,0,1-.45-3v0a9.28,9.28,0,0,1,.46-3,7.54,7.54,0,0,1,1.3-2.42,6.18,6.18,0,0,1,2-1.63,6.13,6.13,0,0,1,5.26,0,6,6,0,0,1,2,1.62,7.7,7.7,0,0,1,1.29,2.4,9.22,9.22,0,0,1,.46,3v0a9.32,9.32,0,0,1-.46,3,7.56,7.56,0,0,1-1.3,2.42,6.19,6.19,0,0,1-2,1.63A5.76,5.76,0,0,1,500.35,41.42Zm0-2.31a2.94,2.94,0,0,0,1.54-.41,3.72,3.72,0,0,0,1.17-1.13,5.64,5.64,0,0,0,.75-1.67,7.65,7.65,0,0,0,.26-2v0a7.49,7.49,0,0,0-.27-2.06,5.86,5.86,0,0,0-.76-1.68,3.78,3.78,0,0,0-1.18-1.14,3.07,3.07,0,0,0-3.09,0,3.71,3.71,0,0,0-1.18,1.12,5.48,5.48,0,0,0-.75,1.67,7.72,7.72,0,0,0-.26,2.05v0a7.73,7.73,0,0,0,.26,2.06,5.47,5.47,0,0,0,.76,1.68,3.89,3.89,0,0,0,1.19,1.14A2.93,2.93,0,0,0,500.39,39.11Z" transform="translate(-23.45 -26.21)"/></svg>