<svg id="Layer_1" data-name="Layer 1" xmlns="http://www.w3.org/2000/svg" viewBox="0 0 575.86 481.09"><defs><style>.cls-1{fill:none;stroke:#010101;stroke-miterlimit:10;}.cls-2{fill:#010101;}.cls-3{fill:#333;}</style></defs><title>dimensional_401</title><path d="M32.17,147.29c-7.2-2-9.06-4.12-8.67-8.85.31-3.77,4.42-7.46,9.08-7.63,6-.22,12,0,18-.11,5.29-.12,10.62,5.9,12.15,12.13,1.74,7.09,2.43,14.43,4.21,21.51.64,2.53,2.79,6,4.88,6.52,2.46.62,6.67-.62,8.25-2.57,3.22-4,6.87-4.29,11.35-4.29q218.2.11,436.41,0c3.71,0,6.38.74,9.11,3.66a12.76,12.76,0,0,0,8.62,3.44c3.88,0,4.92-3.78,5.5-7.25,1-6.07,2.12-12.13,3.27-18.18,2.09-11,6.95-15,18.26-14.95,4,0,8.19-.72,11.94.23a18.24,18.24,0,0,1,9.28,5.63c3,3.7-.61,8.55-8.57,10.81.87-2.11,1.12-3.64,2-4.63,3.24-3.71,2.6-7.21-2.24-7.82a65.87,65.87,0,0,0-17.35-.07c-4.92.69-8.09,4.52-8.93,9.63-1.19,7.21-2.38,14.44-3.18,21.7-.82,7.42-12.24,12.56-18.29,7.2-4.78-4.24-9.65-4.21-15.09-4.21q-215.45,0-430.91,0c-3.67,0-6.6.5-9.32,3.38a10,10,0,0,1-12,2.15c-4-1.91-7.33-4.45-7.72-9.91a151.18,151.18,0,0,0-3.41-20.67c-1.35-6.28-5.82-9.66-12.1-9.76-4.16-.06-8.38-.34-12.47.22a8.64,8.64,0,0,0-5.38,3.58c-.54.83,1.37,3.19,2,4.9C31.37,144.21,31.64,145.47,32.17,147.29Z" transform="translate(-23.45 -26.21)"/><path d="M599.31,303.88c-143.64,0-103.77,0-247.4-.08-3.67,0-6.6.5-9.32,3.38a10,10,0,0,1-12,2.15c-4-1.91-7.33-4.45-7.72-9.91a151.18,151.18,0,0,0-3.41-20.67c-1.35-6.28-5.82-9.66-12.1-9.76-4.16-.06-8.38-.34-12.47.22a8.64,8.64,0,0,0-5.38,3.58c-.54.83,1.37,3.19,2,4.9.47,1.18.74,2.44,1.27,4.26-7.2-2-9.06-4.12-8.67-8.85.31-3.77,4.42-7.46,9.08-7.63,6-.22,12,0,18-.11,5.29-.12,10.62,5.9,12.15,12.13,1.74,7.09,2.43,14.43,4.21,21.51.64,2.53,2.79,6,4.88,6.52,2.46.62,6.67-.62,8.25-2.57,3.22-4,6.87-4.29,11.35-4.29,145.39.07,101.79.07,247.17,0Z" transform="translate(-23.45 -26.21)"/><line class="cls-1" x1="1.55" y1="57.95" x2="1.55" y2="121.95"/><line class="cls-1" x1="40.67" y1="80.95" x2="40.67" y2="186.32"/><line class="cls-1" x1="268" y1="255.95" x2="268" y2="330.32"/><line class="cls-1" x1="301.34" y1="210.95" x2="301.34" y2="330.32"/><line class="cls-1" x1="209.82" y1="255.95" x2="268.19" y2="255.95"/><line class="cls-1" x1="209.82" y1="227.28" x2="318.19" y2="227.28"/><line class="cls-1" x1="532.67" y1="80.95" x2="532.67" y2="186.32"/><polyline class="cls-1" points="46.36 100.63 532.36 100.63 46.36 100.63"/><polygon class="cls-2" points="47.55 102.38 41.05 100.63 47.55 98.89 47.55 102.38"/><polygon class="cls-2" points="47.55 98.89 41.05 100.63 47.55 102.38 47.55 98.89"/><polyline class="cls-1" points="46.36 172.63 532.36 172.63 46.36 172.63"/><polygon class="cls-2" points="47.55 174.38 41.05 172.63 47.55 170.89 47.55 174.38"/><polygon class="cls-2" points="47.55 170.89 41.05 172.63 47.55 174.38 47.55 170.89"/><polyline class="cls-1" points="223.7 221.64 223.7 203.64 223.7 221.64"/><polygon class="cls-2" points="225.45 220.45 223.7 226.96 221.96 220.45 225.45 220.45"/><polygon class="cls-2" points="221.96 220.45 223.7 226.96 225.45 220.45 221.96 220.45"/><path class="cls-1" d="M247.16,294.75v0Z" transform="translate(-23.45 -26.21)"/><polyline class="cls-1" points="223.7 263.96 223.7 281.96 223.7 263.96"/><polygon class="cls-2" points="221.96 265.15 223.7 258.64 225.45 265.15 221.96 265.15"/><polygon class="cls-2" points="225.45 265.15 223.7 258.64 221.96 265.15 225.45 265.15"/><polyline class="cls-1" points="307.7 320.63 325.69 320.63 307.7 320.63"/><polygon class="cls-2" points="308.88 322.38 302.38 320.63 308.88 318.89 308.88 322.38"/><polygon class="cls-2" points="308.88 318.89 302.38 320.63 308.88 322.38 308.88 318.89"/><polyline class="cls-1" points="260.71 320.63 242.71 320.63 260.71 320.63"/><polygon class="cls-2" points="259.52 318.89 266.03 320.63 259.52 322.38 259.52 318.89"/><polygon class="cls-2" points="259.52 322.38 266.03 320.63 259.52 318.89 259.52 322.38"/><path class="cls-1" d="M329.15,346.85h0Z" transform="translate(-23.45 -26.21)"/><line class="cls-1" x1="7.36" y1="70.97" x2="566.56" y2="70.97"/><polygon class="cls-2" points="8.55 72.71 2.05 70.97 8.55 69.22 8.55 72.71"/><polygon class="cls-2" points="565.38 72.71 571.88 70.97 565.38 69.22 565.38 72.71"/><line class="cls-1" x1="572.55" y1="57.95" x2="572.55" y2="121.95"/><path class="cls-3" d="M355.32,436.49v0a4.23,4.23,0,0,1,4.25-4.34,4.34,4.34,0,0,1,3,1.09.52.52,0,0,1,.19.38.49.49,0,0,1-.48.47A.57.57,0,0,1,362,434a3.43,3.43,0,0,0-2.41-1,3.29,3.29,0,0,0-3.25,3.44v0a3.31,3.31,0,0,0,3.25,3.47,3.44,3.44,0,0,0,2.5-1,.43.43,0,0,1,.3-.13.47.47,0,0,1,.46.46.45.45,0,0,1-.16.33,4.3,4.3,0,0,1-3.12,1.24A4.19,4.19,0,0,1,355.32,436.49Z" transform="translate(-23.45 -26.21)"/><path class="cls-3" d="M363.93,436.49v0a4.28,4.28,0,1,1,8.56,0v0a4.28,4.28,0,1,1-8.56,0Zm7.58,0v0A3.34,3.34,0,0,0,368.2,433a3.3,3.3,0,0,0-3.29,3.44v0a3.34,3.34,0,0,0,3.31,3.47A3.3,3.3,0,0,0,371.51,436.49Z" transform="translate(-23.45 -26.21)"/><path class="cls-3" d="M374.37,437.15v-4.46a.47.47,0,1,1,.95,0v4.4c0,1.81,1,2.83,2.57,2.83s2.53-.94,2.53-2.77v-4.46a.47.47,0,1,1,.95,0v4.39c0,2.45-1.4,3.72-3.5,3.72A3.29,3.29,0,0,1,374.37,437.15Z" transform="translate(-23.45 -26.21)"/><path class="cls-3" d="M383.61,432.7a.48.48,0,0,1,.47-.47h.13a.58.58,0,0,1,.48.28l5.1,6.5v-6.33a.46.46,0,1,1,.92,0v7.58a.43.43,0,0,1-.43.44h0a.65.65,0,0,1-.49-.29l-5.21-6.66v6.5a.46.46,0,1,1-.92,0Z" transform="translate(-23.45 -26.21)"/><path class="cls-3" d="M395.31,433.14h-2.43a.44.44,0,0,1-.44-.43.45.45,0,0,1,.44-.44h5.83a.45.45,0,0,1,.44.44.44.44,0,0,1-.44.43h-2.43v7.1a.48.48,0,1,1-1,0Z" transform="translate(-23.45 -26.21)"/><path class="cls-3" d="M400.87,440.18v-7.44a.48.48,0,0,1,.47-.48h5.22a.43.43,0,1,1,0,.86h-4.74V436H406a.44.44,0,0,1,.43.43.43.43,0,0,1-.43.43h-4.2v2.94h4.8a.43.43,0,1,1,0,.86h-5.28A.48.48,0,0,1,400.87,440.18Z" transform="translate(-23.45 -26.21)"/><path class="cls-3" d="M408.91,432.74a.48.48,0,0,1,.47-.48h3.14a3.31,3.31,0,0,1,2.39.84,2.32,2.32,0,0,1,.65,1.66v0a2.44,2.44,0,0,1-2.24,2.43l2.09,2.69a.52.52,0,0,1,.16.35.5.5,0,0,1-.48.47.55.55,0,0,1-.44-.25l-2.36-3.07h-2.41v2.84a.47.47,0,1,1-.95,0Zm3.53,3.8c1.26,0,2.16-.65,2.16-1.73v0c0-1-.79-1.65-2.15-1.65h-2.59v3.41Z" transform="translate(-23.45 -26.21)"/><path class="cls-3" d="M420.88,439.65a.42.42,0,0,1-.18-.36.46.46,0,0,1,.46-.47.42.42,0,0,1,.29.11,3.82,3.82,0,0,0,2.65,1c1.13,0,1.87-.6,1.87-1.43v0c0-.78-.42-1.22-2.18-1.6-1.93-.42-2.82-1-2.82-2.42v0a2.48,2.48,0,0,1,2.76-2.29,4.28,4.28,0,0,1,2.67.83.49.49,0,0,1,.2.38.46.46,0,0,1-.46.46.44.44,0,0,1-.28-.08,3.51,3.51,0,0,0-2.17-.73c-1.09,0-1.79.6-1.79,1.36v0c0,.79.43,1.24,2.28,1.63s2.74,1.09,2.74,2.38v0c0,1.44-1.2,2.38-2.87,2.38A4.9,4.9,0,0,1,420.88,439.65Z" transform="translate(-23.45 -26.21)"/><path class="cls-3" d="M428.95,432.68a.47.47,0,1,1,.95,0v7.56a.47.47,0,1,1-.95,0Z" transform="translate(-23.45 -26.21)"/><path class="cls-3" d="M432.35,432.7a.48.48,0,0,1,.47-.47H433a.58.58,0,0,1,.48.28l5.1,6.5v-6.33a.46.46,0,1,1,.92,0v7.58a.43.43,0,0,1-.43.44h0a.65.65,0,0,1-.49-.29l-5.21-6.66v6.5a.46.46,0,1,1-.92,0Z" transform="translate(-23.45 -26.21)"/><path class="cls-3" d="M441.83,432.68a.47.47,0,1,1,.95,0v4.59l4.79-4.91a.54.54,0,0,1,.37-.17.46.46,0,0,1,.3.8l-3,3,3.19,3.93a.52.52,0,0,1,.13.35.49.49,0,0,1-.48.48.45.45,0,0,1-.38-.22l-3.13-3.9-1.81,1.81v1.82a.47.47,0,1,1-.95,0Z" transform="translate(-23.45 -26.21)"/><path class="cls-3" d="M454,432.74a.48.48,0,0,1,.47-.48h2.45a4.19,4.19,0,0,1,4.46,4.17v0a4.2,4.2,0,0,1-4.46,4.2h-2.45a.48.48,0,0,1-.47-.48Zm2.91,7a3.25,3.25,0,0,0,3.48-3.3v0a3.27,3.27,0,0,0-3.48-3.32h-2v6.64Z" transform="translate(-23.45 -26.21)"/><path class="cls-3" d="M463.38,440.18v-7.44a.48.48,0,0,1,.47-.48h5.22a.43.43,0,1,1,0,.86h-4.74V436h4.2a.44.44,0,0,1,.43.43.43.43,0,0,1-.43.43h-4.2v2.94h4.8a.43.43,0,0,1,0,.86h-5.28A.48.48,0,0,1,463.38,440.18Z" transform="translate(-23.45 -26.21)"/><path class="cls-3" d="M471.42,432.74a.48.48,0,0,1,.47-.48h2.67c1.89,0,3.14,1,3.14,2.66v0c0,1.81-1.51,2.75-3.3,2.75h-2v2.54a.47.47,0,1,1-.95,0Zm3,4.09c1.39,0,2.3-.74,2.3-1.85v0c0-1.2-.9-1.82-2.25-1.82h-2.12v3.69Z" transform="translate(-23.45 -26.21)"/><path class="cls-3" d="M481.66,433.14h-2.43a.44.44,0,0,1-.44-.43.45.45,0,0,1,.44-.44h5.83a.45.45,0,0,1,.44.44.44.44,0,0,1-.44.43h-2.43v7.1a.48.48,0,1,1-1,0Z" transform="translate(-23.45 -26.21)"/><path class="cls-3" d="M487.22,432.68a.47.47,0,1,1,.95,0V436H493v-3.31a.47.47,0,1,1,.95,0v7.56a.47.47,0,1,1-.95,0v-3.36h-4.85v3.36a.47.47,0,1,1-.95,0Z" transform="translate(-23.45 -26.21)"/><path class="cls-3" d="M502.72,442.25a5.6,5.6,0,0,1,0-10.07.41.41,0,0,1,.22,0,.37.37,0,0,1,.36.36.36.36,0,0,1-.18.32,5,5,0,0,0,0,8.8.36.36,0,0,1,.18.32.37.37,0,0,1-.36.36A.4.4,0,0,1,502.72,442.25Z" transform="translate(-23.45 -26.21)"/><path class="cls-3" d="M505,434.87a.47.47,0,0,1,.46-.47.46.46,0,0,1,.47.47v.64a2.26,2.26,0,0,1,2-1.17,2.1,2.1,0,0,1,2,1.23,2.47,2.47,0,0,1,2.18-1.23,2.23,2.23,0,0,1,2.3,2.49v3.43a.46.46,0,1,1-.92,0V437c0-1.2-.6-1.87-1.61-1.87a1.73,1.73,0,0,0-1.7,1.92v3.17a.46.46,0,1,1-.92,0V437c0-1.16-.61-1.85-1.6-1.85a1.8,1.8,0,0,0-1.73,2v3.13a.45.45,0,0,1-.46.47.46.46,0,0,1-.47-.47Z" transform="translate(-23.45 -26.21)"/><path class="cls-3" d="M516.4,434.87a.47.47,0,0,1,.46-.47.46.46,0,0,1,.47.47v.64a2.26,2.26,0,0,1,2-1.17,2.1,2.1,0,0,1,2,1.23,2.47,2.47,0,0,1,2.18-1.23,2.23,2.23,0,0,1,2.3,2.49v3.43a.46.46,0,1,1-.92,0V437c0-1.2-.6-1.87-1.61-1.87a1.73,1.73,0,0,0-1.7,1.92v3.17a.46.46,0,1,1-.92,0V437c0-1.16-.61-1.85-1.6-1.85a1.8,1.8,0,0,0-1.73,2v3.13a.45.45,0,0,1-.46.47.46.46,0,0,1-.47-.47Z" transform="translate(-23.45 -26.21)"/><path class="cls-3" d="M527.44,441.94a.36.36,0,0,1,.18-.32,5,5,0,0,0,0-8.8.36.36,0,0,1-.18-.32.37.37,0,0,1,.36-.36.41.41,0,0,1,.22,0,5.6,5.6,0,0,1,0,10.07.4.4,0,0,1-.22,0A.37.37,0,0,1,527.44,441.94Z" transform="translate(-23.45 -26.21)"/><path class="cls-3" d="M536.5,439.71a.47.47,0,0,1-.19-.4.46.46,0,0,1,.46-.44.51.51,0,0,1,.32.12,3.21,3.21,0,0,0,2.16.95,1.87,1.87,0,0,0,2-1.86v0a1.85,1.85,0,0,0-2.09-1.76,5.18,5.18,0,0,0-1.7.41.85.85,0,0,1-.48-.18.56.56,0,0,1-.2-.52l.19-3.29a.45.45,0,0,1,.46-.46h4a.44.44,0,0,1,0,.88h-3.62l-.18,2.69a3.78,3.78,0,0,1,1.65-.37,2.62,2.62,0,0,1,2.9,2.57v0a2.77,2.77,0,0,1-3,2.76A4.15,4.15,0,0,1,536.5,439.71Z" transform="translate(-23.45 -26.21)"/><path class="cls-3" d="M544.41,439.34a.55.55,0,0,1,.56.56v.24a.57.57,0,1,1-1.14,0v-.24A.55.55,0,0,1,544.41,439.34Z" transform="translate(-23.45 -26.21)"/><path class="cls-3" d="M546.63,439.77l2.87-2.53c1.29-1.15,1.75-1.8,1.75-2.64a1.6,1.6,0,0,0-1.69-1.61,2.51,2.51,0,0,0-2.09,1.22.43.43,0,0,1-.35.17.43.43,0,0,1-.43-.43.42.42,0,0,1,.1-.26,3.18,3.18,0,0,1,2.84-1.55,2.42,2.42,0,0,1,2.6,2.38v0c0,1.22-.65,2-2.12,3.26l-2.24,2h4.07a.43.43,0,1,1,0,.86h-5a.45.45,0,0,1-.48-.44A.55.55,0,0,1,546.63,439.77Z" transform="translate(-23.45 -26.21)"/><path class="cls-3" d="M556.37,436.29h-2a.42.42,0,1,1,0-.84h2v-2a.44.44,0,1,1,.88,0v2h2a.42.42,0,1,1,0,.84h-2v2a.44.44,0,1,1-.87,0Zm-2.45,3.95a.42.42,0,0,1,.42-.41h4.94a.41.41,0,0,1,0,.83h-4.94A.43.43,0,0,1,553.92,440.24Z" transform="translate(-23.45 -26.21)"/><path class="cls-3" d="M561.3,436.49v0c0-2.35,1.4-4.34,3.56-4.34s3.53,2,3.53,4.32v0c0,2.35-1.39,4.34-3.55,4.34S561.3,438.84,561.3,436.49Zm6.11,0v0c0-1.83-1-3.48-2.57-3.48s-2.55,1.61-2.55,3.45v0c0,1.83,1,3.48,2.58,3.48S567.41,438.32,567.41,436.49Z" transform="translate(-23.45 -26.21)"/><path class="cls-3" d="M570.38,439.34a.55.55,0,0,1,.56.56v.24a.57.57,0,1,1-1.14,0v-.24A.55.55,0,0,1,570.38,439.34Z" transform="translate(-23.45 -26.21)"/><path class="cls-3" d="M573.38,433.15l-1.17.38a.66.66,0,0,1-.2,0,.41.41,0,0,1-.41-.41.43.43,0,0,1,.34-.41l1.38-.48a1.81,1.81,0,0,1,.52-.11h0a.46.46,0,0,1,.47.47v7.6a.47.47,0,0,1-.47.48.48.48,0,0,1-.47-.48Z" transform="translate(-23.45 -26.21)"/><path class="cls-3" d="M576.45,439.71a.47.47,0,0,1-.19-.4.46.46,0,0,1,.46-.44.51.51,0,0,1,.32.12,3.21,3.21,0,0,0,2.16.95,1.87,1.87,0,0,0,2-1.86v0a1.85,1.85,0,0,0-2.09-1.76,5.18,5.18,0,0,0-1.7.41.85.85,0,0,1-.48-.18.56.56,0,0,1-.2-.52l.19-3.29a.45.45,0,0,1,.46-.46h4a.44.44,0,0,1,0,.88h-3.62l-.18,2.69a3.78,3.78,0,0,1,1.65-.37,2.62,2.62,0,0,1,2.9,2.57v0a2.77,2.77,0,0,1-3,2.76A4.15,4.15,0,0,1,576.45,439.71Z" transform="translate(-23.45 -26.21)"/><path class="cls-3" d="M355.32,346v0a4.23,4.23,0,0,1,4.25-4.34,4.34,4.34,0,0,1,3,1.09.52.52,0,0,1,.19.38.49.49,0,0,1-.48.47.57.57,0,0,1-.31-.11,3.43,3.43,0,0,0-2.41-1,3.29,3.29,0,0,0-3.25,3.44v0a3.31,3.31,0,0,0,3.25,3.47,3.44,3.44,0,0,0,2.5-1,.43.43,0,0,1,.3-.13.47.47,0,0,1,.46.46.45.45,0,0,1-.16.33,4.3,4.3,0,0,1-3.12,1.24A4.19,4.19,0,0,1,355.32,346Z" transform="translate(-23.45 -26.21)"/><path class="cls-3" d="M364.41,346.65v-4.46a.47.47,0,1,1,.95,0v4.4c0,1.81,1,2.83,2.57,2.83s2.53-.94,2.53-2.77v-4.46a.47.47,0,1,1,.95,0v4.39c0,2.45-1.4,3.72-3.5,3.72A3.29,3.29,0,0,1,364.41,346.65Z" transform="translate(-23.45 -26.21)"/><path class="cls-3" d="M373.65,342.24a.48.48,0,0,1,.47-.48h3.14a3.31,3.31,0,0,1,2.39.84,2.32,2.32,0,0,1,.65,1.66v0a2.44,2.44,0,0,1-2.24,2.43l2.09,2.69a.52.52,0,0,1,.16.35.5.5,0,0,1-.48.47.55.55,0,0,1-.44-.25L377,346.9H374.6v2.84a.47.47,0,1,1-.95,0Zm3.53,3.8c1.26,0,2.16-.65,2.16-1.73v0c0-1-.79-1.65-2.15-1.65H374.6V346Z" transform="translate(-23.45 -26.21)"/><path class="cls-3" d="M382.33,342.18a.47.47,0,1,1,.95,0v7.1h4.35a.44.44,0,0,1,.43.44.43.43,0,0,1-.43.43h-4.83a.48.48,0,0,1-.47-.48Z" transform="translate(-23.45 -26.21)"/><path class="cls-3" d="M393,346v0a4.28,4.28,0,1,1,8.56,0v0a4.28,4.28,0,1,1-8.56,0Zm7.58,0v0a3.34,3.34,0,0,0-3.31-3.47,3.3,3.3,0,0,0-3.29,3.44v0a3.34,3.34,0,0,0,3.31,3.47A3.3,3.3,0,0,0,400.56,346Z" transform="translate(-23.45 -26.21)"/><path class="cls-3" d="M403.55,342.24a.48.48,0,0,1,.47-.48h2.67c1.89,0,3.14,1,3.14,2.66v0c0,1.81-1.51,2.75-3.3,2.75h-2v2.54a.47.47,0,1,1-.95,0Zm3,4.09c1.39,0,2.3-.74,2.3-1.85v0c0-1.2-.9-1.82-2.25-1.82H404.5v3.69Z" transform="translate(-23.45 -26.21)"/><path class="cls-3" d="M411.57,349.68v-7.44a.48.48,0,0,1,.47-.48h5.22a.43.43,0,1,1,0,.86h-4.74v2.87h4.2a.44.44,0,0,1,.43.43.43.43,0,0,1-.43.43h-4.2v2.94h4.8a.43.43,0,1,1,0,.86H412A.48.48,0,0,1,411.57,349.68Z" transform="translate(-23.45 -26.21)"/><path class="cls-3" d="M419.61,342.2a.48.48,0,0,1,.47-.47h.13a.58.58,0,0,1,.48.28l5.1,6.5v-6.33a.46.46,0,1,1,.92,0v7.58a.43.43,0,0,1-.43.44h0a.65.65,0,0,1-.49-.29l-5.21-6.66v6.5a.46.46,0,1,1-.92,0Z" transform="translate(-23.45 -26.21)"/><path class="cls-3" d="M429.17,342.18a.47.47,0,1,1,.95,0v7.56a.47.47,0,1,1-.95,0Z" transform="translate(-23.45 -26.21)"/><path class="cls-3" d="M432.58,342.2a.48.48,0,0,1,.47-.47h.13a.58.58,0,0,1,.48.28l5.1,6.5v-6.33a.46.46,0,1,1,.92,0v7.58a.43.43,0,0,1-.43.44h0a.65.65,0,0,1-.49-.29l-5.21-6.66v6.5a.46.46,0,1,1-.92,0Z" transform="translate(-23.45 -26.21)"/><path class="cls-3" d="M441.69,346v0a4.21,4.21,0,0,1,4.21-4.34,4.47,4.47,0,0,1,2.87.9.48.48,0,0,1-.28.86.5.5,0,0,1-.3-.12,3.56,3.56,0,0,0-2.33-.77,3.28,3.28,0,0,0-3.19,3.44v0a3.24,3.24,0,0,0,3.32,3.49,4,4,0,0,0,2.42-.84v-2.09h-2.25a.43.43,0,0,1,0-.85h2.7a.48.48,0,0,1,.47.48v2.55a.68.68,0,0,1-.32.58,5.11,5.11,0,0,1-3,1A4.12,4.12,0,0,1,441.69,346Z" transform="translate(-23.45 -26.21)"/><path class="cls-3" d="M457.85,351.75a5.6,5.6,0,0,1,0-10.07.41.41,0,0,1,.22,0,.37.37,0,0,1,.36.36.36.36,0,0,1-.18.32,5,5,0,0,0,0,8.8.36.36,0,0,1,.18.32.37.37,0,0,1-.36.36A.4.4,0,0,1,457.85,351.75Z" transform="translate(-23.45 -26.21)"/><path class="cls-3" d="M460.12,344.37a.47.47,0,0,1,.46-.47.46.46,0,0,1,.47.47V345a2.26,2.26,0,0,1,2-1.17,2.1,2.1,0,0,1,2,1.23,2.47,2.47,0,0,1,2.18-1.23,2.23,2.23,0,0,1,2.3,2.49v3.43a.46.46,0,1,1-.92,0v-3.21c0-1.2-.6-1.87-1.61-1.87a1.73,1.73,0,0,0-1.7,1.92v3.17a.46.46,0,1,1-.92,0v-3.24c0-1.16-.61-1.85-1.6-1.85a1.8,1.8,0,0,0-1.73,2v3.13a.45.45,0,0,1-.46.47.46.46,0,0,1-.47-.47Z" transform="translate(-23.45 -26.21)"/><path class="cls-3" d="M471.53,344.37a.47.47,0,0,1,.46-.47.46.46,0,0,1,.47.47V345a2.26,2.26,0,0,1,2-1.17,2.1,2.1,0,0,1,2,1.23,2.47,2.47,0,0,1,2.18-1.23,2.23,2.23,0,0,1,2.3,2.49v3.43a.46.46,0,1,1-.92,0v-3.21c0-1.2-.6-1.87-1.61-1.87a1.73,1.73,0,0,0-1.7,1.92v3.17a.46.46,0,1,1-.92,0v-3.24c0-1.16-.61-1.85-1.6-1.85a1.8,1.8,0,0,0-1.73,2v3.13a.45.45,0,0,1-.46.47.46.46,0,0,1-.47-.47Z" transform="translate(-23.45 -26.21)"/><path class="cls-3" d="M482.57,351.44a.36.36,0,0,1,.18-.32,5,5,0,0,0,0-8.8.36.36,0,0,1-.18-.32.37.37,0,0,1,.36-.36.41.41,0,0,1,.22,0,5.6,5.6,0,0,1,0,10.07.4.4,0,0,1-.22,0A.37.37,0,0,1,482.57,351.44Z" transform="translate(-23.45 -26.21)"/><path class="cls-3" d="M491.51,349v-.8l4.58-1.85v0l-4.58-1.86v-.79l5.56,2.3v.71Zm0,1.19v-.7h5.54v.7Z" transform="translate(-23.45 -26.21)"/><path class="cls-3" d="M498.68,349a.52.52,0,0,1-.16-.34.48.48,0,0,1,.47-.47.49.49,0,0,1,.35.14,2.88,2.88,0,0,0,2.28,1.07,1.69,1.69,0,0,0,1.83-1.63v0c0-1-1-1.62-2.35-1.62h-.3a.41.41,0,0,1-.42-.41.53.53,0,0,1,.19-.37l2.45-2.77H499.3a.43.43,0,0,1-.44-.42.44.44,0,0,1,.44-.43h4.58a.42.42,0,0,1,.46.41.68.68,0,0,1-.23.47l-2.47,2.75c1.46.12,2.77.83,2.77,2.36v0a2.61,2.61,0,0,1-2.81,2.53A3.79,3.79,0,0,1,498.68,349Z" transform="translate(-23.45 -26.21)"/><path class="cls-3" d="M506.71,348.84a.55.55,0,0,1,.56.56v.24a.57.57,0,1,1-1.14,0v-.24A.55.55,0,0,1,506.71,348.84Z" transform="translate(-23.45 -26.21)"/><path class="cls-3" d="M509.08,349.21a.47.47,0,0,1-.19-.4.46.46,0,0,1,.46-.44.51.51,0,0,1,.32.12,3.21,3.21,0,0,0,2.16.95,1.87,1.87,0,0,0,2-1.86v0a1.85,1.85,0,0,0-2.09-1.76,5.18,5.18,0,0,0-1.7.41.85.85,0,0,1-.48-.18.56.56,0,0,1-.2-.52l.19-3.29a.45.45,0,0,1,.46-.46h4a.44.44,0,0,1,0,.88h-3.62l-.18,2.69a3.78,3.78,0,0,1,1.65-.37,2.62,2.62,0,0,1,2.9,2.57v0a2.77,2.77,0,0,1-3,2.76A4.15,4.15,0,0,1,509.08,349.21Z" transform="translate(-23.45 -26.21)"/><path class="cls-3" d="M63.23,272.49v0a4.23,4.23,0,0,1,4.25-4.34,4.34,4.34,0,0,1,3,1.09.52.52,0,0,1,.19.38.49.49,0,0,1-.48.47.57.57,0,0,1-.31-.11,3.44,3.44,0,0,0-2.41-1,3.29,3.29,0,0,0-3.25,3.44v0a3.31,3.31,0,0,0,3.25,3.47,3.44,3.44,0,0,0,2.49-1,.43.43,0,0,1,.3-.13.47.47,0,0,1,.46.46.45.45,0,0,1-.16.33,4.3,4.3,0,0,1-3.12,1.24A4.19,4.19,0,0,1,63.23,272.49Z" transform="translate(-23.45 -26.21)"/><path class="cls-3" d="M72.33,273.15v-4.46a.47.47,0,1,1,.95,0v4.4c0,1.81,1,2.83,2.57,2.83s2.53-.94,2.53-2.77v-4.46a.47.47,0,1,1,.95,0v4.39c0,2.45-1.4,3.72-3.5,3.72A3.29,3.29,0,0,1,72.33,273.15Z" transform="translate(-23.45 -26.21)"/><path class="cls-3" d="M81.57,268.74a.48.48,0,0,1,.47-.48h3.14a3.31,3.31,0,0,1,2.39.84,2.32,2.32,0,0,1,.65,1.66v0A2.44,2.44,0,0,1,86,273.22l2.09,2.69a.52.52,0,0,1,.16.35.5.5,0,0,1-.48.47.55.55,0,0,1-.44-.25l-2.36-3.07H82.51v2.84a.47.47,0,1,1-.95,0Zm3.53,3.8c1.26,0,2.16-.65,2.16-1.73v0c0-1-.79-1.65-2.15-1.65H82.51v3.41Z" transform="translate(-23.45 -26.21)"/><path class="cls-3" d="M90.24,268.68a.47.47,0,1,1,.95,0v7.1h4.35a.44.44,0,0,1,.43.44.43.43,0,0,1-.43.43H90.71a.48.48,0,0,1-.47-.48Z" transform="translate(-23.45 -26.21)"/><path class="cls-3" d="M101.27,268.68a.47.47,0,1,1,.95,0V272h4.85v-3.31a.47.47,0,1,1,.95,0v7.56a.47.47,0,1,1-.95,0v-3.36h-4.85v3.36a.47.47,0,1,1-.95,0Z" transform="translate(-23.45 -26.21)"/><path class="cls-3" d="M110.39,276.18v-7.44a.48.48,0,0,1,.47-.48h5.22a.43.43,0,1,1,0,.86h-4.74V272h4.2a.44.44,0,0,1,.43.43.43.43,0,0,1-.43.43h-4.2v2.94h4.8a.43.43,0,0,1,0,.86h-5.28A.48.48,0,0,1,110.39,276.18Z" transform="translate(-23.45 -26.21)"/><path class="cls-3" d="M118.51,268.68a.47.47,0,1,1,.95,0v7.56a.47.47,0,1,1-.95,0Z" transform="translate(-23.45 -26.21)"/><path class="cls-3" d="M121.55,272.49v0a4.21,4.21,0,0,1,4.21-4.34,4.47,4.47,0,0,1,2.87.9.48.48,0,0,1-.28.86.5.5,0,0,1-.3-.12,3.56,3.56,0,0,0-2.33-.77,3.28,3.28,0,0,0-3.19,3.44v0a3.24,3.24,0,0,0,3.32,3.49,4,4,0,0,0,2.42-.84V273H126a.43.43,0,0,1,0-.85h2.7a.48.48,0,0,1,.47.48v2.55a.68.68,0,0,1-.32.58,5.11,5.11,0,0,1-3,1A4.12,4.12,0,0,1,121.55,272.49Z" transform="translate(-23.45 -26.21)"/><path class="cls-3" d="M131.33,268.68a.47.47,0,1,1,.95,0V272h4.85v-3.31a.47.47,0,1,1,.95,0v7.56a.47.47,0,1,1-.95,0v-3.36h-4.85v3.36a.47.47,0,1,1-.95,0Z" transform="translate(-23.45 -26.21)"/><path class="cls-3" d="M142.67,269.14h-2.43a.44.44,0,0,1-.44-.43.45.45,0,0,1,.44-.44h5.83a.45.45,0,0,1,.44.44.44.44,0,0,1-.44.43h-2.43v7.1a.48.48,0,0,1-1,0Z" transform="translate(-23.45 -26.21)"/><path class="cls-3" d="M154.61,278.25a5.6,5.6,0,0,1,0-10.07.41.41,0,0,1,.22,0,.37.37,0,0,1,.36.36.36.36,0,0,1-.18.32,5,5,0,0,0,0,8.8.36.36,0,0,1,.18.32.37.37,0,0,1-.36.36A.4.4,0,0,1,154.61,278.25Z" transform="translate(-23.45 -26.21)"/><path class="cls-3" d="M156.88,270.87a.47.47,0,0,1,.46-.47.46.46,0,0,1,.47.47v.64a2.27,2.27,0,0,1,2-1.17,2.11,2.11,0,0,1,2,1.23,2.47,2.47,0,0,1,2.18-1.23,2.23,2.23,0,0,1,2.3,2.49v3.43a.46.46,0,1,1-.92,0V273c0-1.2-.6-1.87-1.61-1.87a1.73,1.73,0,0,0-1.7,1.92v3.17a.46.46,0,1,1-.92,0V273c0-1.16-.61-1.85-1.6-1.85a1.8,1.8,0,0,0-1.73,2v3.13a.45.45,0,0,1-.46.47.46.46,0,0,1-.47-.47Z" transform="translate(-23.45 -26.21)"/><path class="cls-3" d="M168.29,270.87a.47.47,0,0,1,.46-.47.46.46,0,0,1,.47.47v.64a2.27,2.27,0,0,1,2-1.17,2.11,2.11,0,0,1,2,1.23,2.47,2.47,0,0,1,2.18-1.23,2.23,2.23,0,0,1,2.3,2.49v3.43a.46.46,0,1,1-.92,0V273c0-1.2-.6-1.87-1.61-1.87a1.73,1.73,0,0,0-1.7,1.92v3.17a.46.46,0,1,1-.92,0V273c0-1.16-.61-1.85-1.6-1.85a1.8,1.8,0,0,0-1.73,2v3.13a.45.45,0,0,1-.46.47.46.46,0,0,1-.47-.47Z" transform="translate(-23.45 -26.21)"/><path class="cls-3" d="M179.33,277.94a.36.36,0,0,1,.18-.32,5,5,0,0,0,0-8.8.36.36,0,0,1-.18-.32.37.37,0,0,1,.36-.36.41.41,0,0,1,.22,0,5.6,5.6,0,0,1,0,10.07.4.4,0,0,1-.22,0A.37.37,0,0,1,179.33,277.94Z" transform="translate(-23.45 -26.21)"/><path class="cls-3" d="M188.23,275.77l2.87-2.53c1.3-1.15,1.75-1.8,1.75-2.64a1.6,1.6,0,0,0-1.69-1.61,2.5,2.5,0,0,0-2.09,1.22.44.44,0,0,1-.78-.26.42.42,0,0,1,.1-.26,3.18,3.18,0,0,1,2.84-1.55,2.42,2.42,0,0,1,2.6,2.38v0c0,1.22-.65,2-2.12,3.26l-2.24,2h4.07a.43.43,0,1,1,0,.86h-5a.44.44,0,0,1-.48-.44A.55.55,0,0,1,188.23,275.77Z" transform="translate(-23.45 -26.21)"/><path class="cls-3" d="M196.14,275.34a.55.55,0,0,1,.56.56v.24a.57.57,0,1,1-1.14,0v-.24A.55.55,0,0,1,196.14,275.34Z" transform="translate(-23.45 -26.21)"/><path class="cls-3" d="M198.11,272.49v0c0-2.35,1.4-4.34,3.56-4.34s3.53,2,3.53,4.32v0c0,2.35-1.39,4.34-3.55,4.34S198.11,274.84,198.11,272.49Zm6.11,0v0c0-1.83-1-3.48-2.57-3.48s-2.55,1.61-2.55,3.45v0c0,1.83,1,3.48,2.58,3.48S204.21,274.32,204.21,272.49Z" transform="translate(-23.45 -26.21)"/><path class="cls-3" d="M209.25,272.29h-2a.42.42,0,1,1,0-.84h2v-2a.44.44,0,1,1,.88,0v2h2a.42.42,0,1,1,0,.84h-2v2a.44.44,0,1,1-.87,0Zm-2.45,3.95a.42.42,0,0,1,.42-.41h4.94a.41.41,0,0,1,0,.83h-4.94A.43.43,0,0,1,206.81,276.24Z" transform="translate(-23.45 -26.21)"/><path class="cls-3" d="M214.19,272.49v0c0-2.35,1.4-4.34,3.56-4.34s3.53,2,3.53,4.32v0c0,2.35-1.39,4.34-3.55,4.34S214.19,274.84,214.19,272.49Zm6.11,0v0c0-1.83-1-3.48-2.57-3.48s-2.55,1.61-2.55,3.45v0c0,1.83,1,3.48,2.58,3.48S220.29,274.32,220.29,272.49Z" transform="translate(-23.45 -26.21)"/><path class="cls-3" d="M223.26,275.34a.55.55,0,0,1,.56.56v.24a.57.57,0,1,1-1.14,0v-.24A.55.55,0,0,1,223.26,275.34Z" transform="translate(-23.45 -26.21)"/><path class="cls-3" d="M226.27,269.15l-1.17.38a.66.66,0,0,1-.2,0,.41.41,0,0,1-.41-.41.43.43,0,0,1,.34-.41l1.38-.48a1.81,1.81,0,0,1,.52-.11h0a.46.46,0,0,1,.47.47v7.6a.47.47,0,0,1-.47.48.48.48,0,0,1-.47-.48Z" transform="translate(-23.45 -26.21)"/><path class="cls-3" d="M229.16,272.49v0c0-2.35,1.4-4.34,3.56-4.34s3.53,2,3.53,4.32v0c0,2.35-1.39,4.34-3.55,4.34S229.16,274.84,229.16,272.49Zm6.11,0v0c0-1.83-1-3.48-2.57-3.48s-2.55,1.61-2.55,3.45v0c0,1.83,1,3.48,2.58,3.48S235.27,274.32,235.27,272.49Z" transform="translate(-23.45 -26.21)"/><path class="cls-3" d="M201.91,181.18a.47.47,0,1,1,.95,0v7.56a.47.47,0,1,1-.95,0Z" transform="translate(-23.45 -26.21)"/><path class="cls-3" d="M205.32,181.2a.48.48,0,0,1,.47-.47h.13a.58.58,0,0,1,.48.28l5.1,6.5v-6.33a.46.46,0,1,1,.92,0v7.58a.43.43,0,0,1-.43.44h0a.65.65,0,0,1-.49-.29l-5.21-6.66v6.5a.46.46,0,1,1-.92,0Z" transform="translate(-23.45 -26.21)"/><path class="cls-3" d="M214.8,181.2a.48.48,0,0,1,.47-.47h.13a.58.58,0,0,1,.48.28l5.1,6.5v-6.33a.46.46,0,1,1,.92,0v7.58a.43.43,0,0,1-.43.44h0a.65.65,0,0,1-.49-.29l-5.21-6.66v6.5a.46.46,0,1,1-.92,0Z" transform="translate(-23.45 -26.21)"/><path class="cls-3" d="M224.28,188.68v-7.44a.48.48,0,0,1,.47-.48H230a.43.43,0,1,1,0,.86h-4.74v2.87h4.2a.44.44,0,0,1,.43.43.43.43,0,0,1-.43.43h-4.2v2.94H230a.43.43,0,0,1,0,.86h-5.28A.48.48,0,0,1,224.28,188.68Z" transform="translate(-23.45 -26.21)"/><path class="cls-3" d="M232.32,181.24a.48.48,0,0,1,.47-.48h3.14a3.31,3.31,0,0,1,2.39.84,2.32,2.32,0,0,1,.65,1.66v0a2.44,2.44,0,0,1-2.24,2.43l2.09,2.69a.52.52,0,0,1,.16.35.5.5,0,0,1-.48.47A.55.55,0,0,1,238,189l-2.36-3.07h-2.41v2.84a.47.47,0,1,1-.95,0Zm3.53,3.8c1.26,0,2.16-.65,2.16-1.73v0c0-1-.79-1.65-2.15-1.65h-2.59V185Z" transform="translate(-23.45 -26.21)"/><path class="cls-3" d="M244.59,181.24a.48.48,0,0,1,.47-.48h2.45a4.19,4.19,0,0,1,4.46,4.17v0a4.2,4.2,0,0,1-4.46,4.2h-2.45a.48.48,0,0,1-.47-.48Zm2.91,7A3.25,3.25,0,0,0,251,185v0a3.27,3.27,0,0,0-3.48-3.32h-2v6.64Z" transform="translate(-23.45 -26.21)"/><path class="cls-3" d="M254.06,181.18a.47.47,0,1,1,.95,0v7.56a.47.47,0,1,1-.95,0Z" transform="translate(-23.45 -26.21)"/><path class="cls-3" d="M257,188.54l3.41-7.45a.62.62,0,0,1,.6-.42h0a.6.6,0,0,1,.59.42l3.41,7.44a.64.64,0,0,1,.06.24.45.45,0,0,1-.46.46.52.52,0,0,1-.47-.35l-.88-1.93h-4.61l-.88,2a.47.47,0,0,1-.46.32.43.43,0,0,1-.43-.43A.55.55,0,0,1,257,188.54Zm5.94-2.46L261,181.78,259,186.08Z" transform="translate(-23.45 -26.21)"/><path class="cls-3" d="M266.88,181.2a.48.48,0,0,1,.47-.47h.11a.52.52,0,0,1,.44.25l3,4.51,3-4.51a.51.51,0,0,1,.44-.25h.11a.48.48,0,0,1,.47.47v7.54a.48.48,0,0,1-.47.48.49.49,0,0,1-.48-.48v-6.26l-2.69,3.95a.46.46,0,0,1-.4.24.48.48,0,0,1-.41-.24l-2.67-3.93v6.26a.46.46,0,1,1-.92,0Z" transform="translate(-23.45 -26.21)"/><path class="cls-3" d="M277.29,188.68v-7.44a.48.48,0,0,1,.47-.48H283a.43.43,0,1,1,0,.86h-4.74v2.87h4.2a.44.44,0,0,1,.43.43.43.43,0,0,1-.43.43h-4.2v2.94H283a.43.43,0,1,1,0,.86h-5.28A.48.48,0,0,1,277.29,188.68Z" transform="translate(-23.45 -26.21)"/><path class="cls-3" d="M287.55,181.64h-2.43a.44.44,0,0,1-.44-.43.45.45,0,0,1,.44-.44h5.83a.45.45,0,0,1,.44.44.44.44,0,0,1-.44.43h-2.43v7.1a.48.48,0,0,1-1,0Z" transform="translate(-23.45 -26.21)"/><path class="cls-3" d="M293.11,188.68v-7.44a.48.48,0,0,1,.47-.48h5.22a.43.43,0,1,1,0,.86h-4.74v2.87h4.2a.44.44,0,0,1,.43.43.43.43,0,0,1-.43.43h-4.2v2.94h4.8a.43.43,0,0,1,0,.86h-5.28A.48.48,0,0,1,293.11,188.68Z" transform="translate(-23.45 -26.21)"/><path class="cls-3" d="M301.15,181.24a.48.48,0,0,1,.47-.48h3.14a3.3,3.3,0,0,1,2.39.84,2.32,2.32,0,0,1,.65,1.66v0a2.44,2.44,0,0,1-2.24,2.43l2.09,2.69a.52.52,0,0,1,.16.35.5.5,0,0,1-.48.47.55.55,0,0,1-.44-.25l-2.36-3.07H302.1v2.84a.47.47,0,1,1-.95,0Zm3.53,3.8c1.26,0,2.16-.65,2.16-1.73v0c0-1-.79-1.65-2.15-1.65H302.1V185Z" transform="translate(-23.45 -26.21)"/><path class="cls-3" d="M316.21,190.75a5.6,5.6,0,0,1,0-10.07.41.41,0,0,1,.22,0,.37.37,0,0,1,.36.36.36.36,0,0,1-.18.32,5,5,0,0,0,0,8.8.36.36,0,0,1,.18.32.37.37,0,0,1-.36.36A.4.4,0,0,1,316.21,190.75Z" transform="translate(-23.45 -26.21)"/><path class="cls-3" d="M318.48,183.37a.47.47,0,0,1,.46-.47.46.46,0,0,1,.47.47V184a2.26,2.26,0,0,1,2-1.17,2.11,2.11,0,0,1,2,1.23,2.47,2.47,0,0,1,2.18-1.23,2.23,2.23,0,0,1,2.3,2.49v3.43a.46.46,0,1,1-.92,0v-3.21c0-1.2-.6-1.87-1.61-1.87a1.73,1.73,0,0,0-1.7,1.92v3.17a.46.46,0,1,1-.92,0v-3.24c0-1.16-.61-1.85-1.6-1.85a1.8,1.8,0,0,0-1.73,2v3.13a.45.45,0,0,1-.46.47.46.46,0,0,1-.47-.47Z" transform="translate(-23.45 -26.21)"/><path class="cls-3" d="M329.89,183.37a.47.47,0,0,1,.46-.47.46.46,0,0,1,.47.47V184a2.26,2.26,0,0,1,2-1.17,2.11,2.11,0,0,1,2,1.23,2.47,2.47,0,0,1,2.18-1.23,2.23,2.23,0,0,1,2.3,2.49v3.43a.46.46,0,1,1-.92,0v-3.21c0-1.2-.6-1.87-1.61-1.87a1.73,1.73,0,0,0-1.7,1.92v3.17a.46.46,0,1,1-.92,0v-3.24c0-1.16-.61-1.85-1.6-1.85a1.8,1.8,0,0,0-1.73,2v3.13a.45.45,0,0,1-.46.47.46.46,0,0,1-.47-.47Z" transform="translate(-23.45 -26.21)"/><path class="cls-3" d="M340.93,190.44a.36.36,0,0,1,.18-.32,5,5,0,0,0,0-8.8.36.36,0,0,1-.18-.32.37.37,0,0,1,.36-.36.41.41,0,0,1,.22,0,5.6,5.6,0,0,1,0,10.07.4.4,0,0,1-.22,0A.37.37,0,0,1,340.93,190.44Z" transform="translate(-23.45 -26.21)"/><path class="cls-3" d="M351.48,188.39l-.72.74a.42.42,0,0,1-.3.14.34.34,0,0,1-.36-.35.4.4,0,0,1,.12-.29l.72-.77a4.38,4.38,0,0,1-1-2.89v0a4.31,4.31,0,0,1,7-3.42l.72-.75a.42.42,0,0,1,.3-.14.34.34,0,0,1,.36.35.4.4,0,0,1-.12.29l-.73.78a4.36,4.36,0,0,1,1.06,2.88v0a4.32,4.32,0,0,1-7,3.43Zm.13-1.22,4.64-4.93a3.24,3.24,0,0,0-2.09-.76,3.31,3.31,0,0,0-3.29,3.45v0A3.56,3.56,0,0,0,351.61,187.17Zm5.87-2.18v0a3.59,3.59,0,0,0-.73-2.21l-4.64,4.94a3.19,3.19,0,0,0,2.09.74A3.31,3.31,0,0,0,357.47,185Z" transform="translate(-23.45 -26.21)"/><path class="cls-3" d="M360.48,188.46a.45.45,0,0,1,.24-.84.56.56,0,0,1,.3.1,2.79,2.79,0,0,0,1.82.72c1.51,0,2.53-1.54,2.49-3.68a2.88,2.88,0,0,1-5.3-1.26v0a2.86,2.86,0,0,1,3-2.85,3,3,0,0,1,2.21.86,4.26,4.26,0,0,1,1,3.25v0c0,2.66-1.42,4.54-3.49,4.54A3.77,3.77,0,0,1,360.48,188.46Zm4.68-5.07v0a2,2,0,0,0-2.13-1.91,1.93,1.93,0,0,0-2,2v0a1.88,1.88,0,0,0,2.06,1.83A2,2,0,0,0,365.15,183.39Z" transform="translate(-23.45 -26.21)"/><path class="cls-3" d="M367.67,186.91v0a2.26,2.26,0,0,1,1.73-2.06,2.14,2.14,0,0,1-1.44-1.93v0c0-1.29,1.33-2.22,2.87-2.22s2.87.92,2.87,2.22v0a2.14,2.14,0,0,1-1.44,1.93,2.28,2.28,0,0,1,1.73,2.05v0c0,1.43-1.37,2.39-3.15,2.39S367.67,188.31,367.67,186.91Zm5.35,0v0c0-.94-1-1.59-2.19-1.59s-2.2.66-2.2,1.59v0c0,.84.82,1.57,2.2,1.57S373,187.73,373,186.88Zm-.28-3.93v0c0-.83-.83-1.45-1.92-1.45s-1.92.61-1.92,1.45v0c0,.91.85,1.54,1.92,1.54S372.74,183.86,372.74,182.95Z" transform="translate(-23.45 -26.21)"/><path class="cls-3" d="M376.08,187.84a.55.55,0,0,1,.56.56v.24a.57.57,0,1,1-1.14,0v-.24A.55.55,0,0,1,376.08,187.84Z" transform="translate(-23.45 -26.21)"/><path class="cls-3" d="M378.74,188.46a.45.45,0,0,1,.24-.84.56.56,0,0,1,.3.1,2.79,2.79,0,0,0,1.82.72c1.51,0,2.53-1.54,2.49-3.68a2.88,2.88,0,0,1-5.3-1.26v0a2.86,2.86,0,0,1,3-2.85,3,3,0,0,1,2.21.86,4.26,4.26,0,0,1,1,3.25v0c0,2.66-1.42,4.54-3.49,4.54A3.77,3.77,0,0,1,378.74,188.46Zm4.68-5.07v0a2,2,0,0,0-2.13-1.91,1.93,1.93,0,0,0-2,2v0a1.88,1.88,0,0,0,2.06,1.83A2,2,0,0,0,383.42,183.39Z" transform="translate(-23.45 -26.21)"/><path class="cls-3" d="M388.62,184.79h-2a.42.42,0,0,1,0-.84h2v-2a.44.44,0,1,1,.88,0v2h2a.42.42,0,1,1,0,.84h-2v2a.44.44,0,1,1-.87,0Zm-2.45,3.95a.42.42,0,0,1,.42-.41h4.94a.41.41,0,0,1,0,.83h-4.94A.43.43,0,0,1,386.17,188.74Z" transform="translate(-23.45 -26.21)"/><path class="cls-3" d="M393.55,185v0c0-2.35,1.4-4.34,3.56-4.34s3.53,2,3.53,4.32v0c0,2.35-1.39,4.34-3.55,4.34S393.55,187.34,393.55,185Zm6.11,0v0c0-1.83-1-3.48-2.57-3.48s-2.55,1.61-2.55,3.45v0c0,1.83,1,3.48,2.58,3.48S399.65,186.82,399.65,185Z" transform="translate(-23.45 -26.21)"/><path class="cls-3" d="M402.62,187.84a.55.55,0,0,1,.56.56v.24a.57.57,0,1,1-1.14,0v-.24A.55.55,0,0,1,402.62,187.84Z" transform="translate(-23.45 -26.21)"/><path class="cls-3" d="M405.63,181.65l-1.17.38a.66.66,0,0,1-.2,0,.41.41,0,0,1-.41-.41.43.43,0,0,1,.34-.41l1.38-.48a1.81,1.81,0,0,1,.52-.11h0a.46.46,0,0,1,.47.47v7.6a.47.47,0,0,1-.47.48.48.48,0,0,1-.47-.48Z" transform="translate(-23.45 -26.21)"/><path class="cls-3" d="M408.52,185v0c0-2.35,1.4-4.34,3.56-4.34s3.53,2,3.53,4.32v0c0,2.35-1.39,4.34-3.55,4.34S408.52,187.34,408.52,185Zm6.11,0v0c0-1.83-1-3.48-2.57-3.48s-2.55,1.61-2.55,3.45v0c0,1.83,1,3.48,2.58,3.48S414.63,186.82,414.63,185Z" transform="translate(-23.45 -26.21)"/><path class="cls-3" d="M198.78,112v0a4.23,4.23,0,0,1,4.25-4.34,4.34,4.34,0,0,1,3,1.09.52.52,0,0,1,.19.38.49.49,0,0,1-.48.47.57.57,0,0,1-.31-.11,3.44,3.44,0,0,0-2.41-1,3.29,3.29,0,0,0-3.25,3.44v0a3.31,3.31,0,0,0,3.25,3.47,3.44,3.44,0,0,0,2.49-1,.43.43,0,0,1,.3-.13.47.47,0,0,1,.46.46.45.45,0,0,1-.16.33A4.3,4.3,0,0,1,203,116.3,4.19,4.19,0,0,1,198.78,112Z" transform="translate(-23.45 -26.21)"/><path class="cls-3" d="M208,108.18a.47.47,0,1,1,.95,0v3.31h4.85v-3.31a.47.47,0,1,1,.95,0v7.56a.47.47,0,1,1-.95,0v-3.36H209v3.36a.47.47,0,1,1-.95,0Z" transform="translate(-23.45 -26.21)"/><path class="cls-3" d="M217,112.65v-4.46a.47.47,0,1,1,.95,0v4.4c0,1.81,1,2.83,2.57,2.83s2.53-.94,2.53-2.77v-4.46a.47.47,0,1,1,.95,0v4.39c0,2.45-1.4,3.72-3.5,3.72A3.29,3.29,0,0,1,217,112.65Z" transform="translate(-23.45 -26.21)"/><path class="cls-3" d="M225.87,112v0a4.23,4.23,0,0,1,4.25-4.34,4.34,4.34,0,0,1,3,1.09.52.52,0,0,1,.19.38.49.49,0,0,1-.48.47.57.57,0,0,1-.31-.11,3.44,3.44,0,0,0-2.41-1,3.29,3.29,0,0,0-3.25,3.44v0a3.31,3.31,0,0,0,3.25,3.47,3.44,3.44,0,0,0,2.49-1,.43.43,0,0,1,.3-.13.47.47,0,0,1,.46.46.45.45,0,0,1-.16.33,4.3,4.3,0,0,1-3.12,1.24A4.19,4.19,0,0,1,225.87,112Z" transform="translate(-23.45 -26.21)"/><path class="cls-3" d="M235.1,108.18a.47.47,0,1,1,.95,0v4.59l4.79-4.91a.53.53,0,0,1,.37-.17.47.47,0,0,1,.46.47.47.47,0,0,1-.16.34l-3,3,3.19,3.93a.52.52,0,0,1,.13.35.49.49,0,0,1-.48.48A.45.45,0,0,1,241,116l-3.13-3.9L236,113.92v1.82a.47.47,0,1,1-.95,0Z" transform="translate(-23.45 -26.21)"/><path class="cls-3" d="M247.26,108.24a.48.48,0,0,1,.47-.48h2.45a4.19,4.19,0,0,1,4.46,4.17v0a4.2,4.2,0,0,1-4.46,4.2h-2.45a.48.48,0,0,1-.47-.48Zm2.91,7a3.25,3.25,0,0,0,3.48-3.3v0a3.27,3.27,0,0,0-3.48-3.32h-2v6.64Z" transform="translate(-23.45 -26.21)"/><path class="cls-3" d="M256.73,108.18a.47.47,0,1,1,.95,0v7.56a.47.47,0,1,1-.95,0Z" transform="translate(-23.45 -26.21)"/><path class="cls-3" d="M259.62,115.54l3.41-7.45a.62.62,0,0,1,.6-.42h0a.6.6,0,0,1,.59.42l3.41,7.44a.64.64,0,0,1,.06.24.45.45,0,0,1-.46.46.52.52,0,0,1-.47-.35l-.88-1.93h-4.61l-.88,2a.47.47,0,0,1-.46.32.43.43,0,0,1-.43-.43A.55.55,0,0,1,259.62,115.54Zm5.94-2.46-1.93-4.29-1.93,4.29Z" transform="translate(-23.45 -26.21)"/><path class="cls-3" d="M269.55,108.2a.48.48,0,0,1,.47-.47h.11a.52.52,0,0,1,.44.25l3,4.51,3-4.51a.51.51,0,0,1,.44-.25h.11a.48.48,0,0,1,.47.47v7.54a.48.48,0,0,1-.47.48.49.49,0,0,1-.48-.48v-6.26l-2.69,3.95a.46.46,0,0,1-.4.24.48.48,0,0,1-.41-.24l-2.67-3.93v6.26a.46.46,0,1,1-.92,0Z" transform="translate(-23.45 -26.21)"/><path class="cls-3" d="M280,115.68v-7.44a.48.48,0,0,1,.47-.48h5.22a.43.43,0,1,1,0,.86h-4.74v2.87h4.2a.44.44,0,0,1,.43.43.43.43,0,0,1-.43.43h-4.2v2.94h4.8a.43.43,0,0,1,0,.86h-5.28A.48.48,0,0,1,280,115.68Z" transform="translate(-23.45 -26.21)"/><path class="cls-3" d="M290.22,108.64h-2.43a.44.44,0,0,1-.44-.43.45.45,0,0,1,.44-.44h5.83a.45.45,0,0,1,.44.44.44.44,0,0,1-.44.43h-2.43v7.1a.48.48,0,1,1-1,0Z" transform="translate(-23.45 -26.21)"/><path class="cls-3" d="M295.78,115.68v-7.44a.48.48,0,0,1,.47-.48h5.22a.43.43,0,0,1,0,.86h-4.74v2.87h4.2a.44.44,0,0,1,.43.43.43.43,0,0,1-.43.43h-4.2v2.94h4.8a.43.43,0,1,1,0,.86h-5.28A.48.48,0,0,1,295.78,115.68Z" transform="translate(-23.45 -26.21)"/><path class="cls-3" d="M303.82,108.24a.48.48,0,0,1,.47-.48h3.14a3.31,3.31,0,0,1,2.39.84,2.32,2.32,0,0,1,.65,1.66v0a2.44,2.44,0,0,1-2.24,2.43l2.09,2.69a.52.52,0,0,1,.16.35.5.5,0,0,1-.48.47.55.55,0,0,1-.44-.25l-2.36-3.07h-2.41v2.84a.47.47,0,1,1-.95,0Zm3.53,3.8c1.26,0,2.16-.65,2.16-1.73v0c0-1-.79-1.65-2.15-1.65h-2.59V112Z" transform="translate(-23.45 -26.21)"/><path class="cls-3" d="M318.88,117.75a5.6,5.6,0,0,1,0-10.07.41.41,0,0,1,.22,0,.37.37,0,0,1,.36.36.36.36,0,0,1-.18.32,5,5,0,0,0,0,8.8.36.36,0,0,1,.18.32.37.37,0,0,1-.36.36A.4.4,0,0,1,318.88,117.75Z" transform="translate(-23.45 -26.21)"/><path class="cls-3" d="M321.15,110.37a.47.47,0,0,1,.46-.47.46.46,0,0,1,.47.47V111a2.26,2.26,0,0,1,2-1.17,2.1,2.1,0,0,1,2,1.23,2.47,2.47,0,0,1,2.18-1.23,2.23,2.23,0,0,1,2.3,2.49v3.43a.46.46,0,1,1-.92,0v-3.21c0-1.2-.6-1.87-1.61-1.87a1.73,1.73,0,0,0-1.7,1.92v3.17a.46.46,0,1,1-.92,0v-3.24c0-1.16-.61-1.85-1.6-1.85a1.8,1.8,0,0,0-1.73,2v3.13a.45.45,0,0,1-.46.47.46.46,0,0,1-.47-.47Z" transform="translate(-23.45 -26.21)"/><path class="cls-3" d="M332.56,110.37a.47.47,0,0,1,.46-.47.46.46,0,0,1,.47.47V111a2.26,2.26,0,0,1,2-1.17,2.1,2.1,0,0,1,2,1.23,2.47,2.47,0,0,1,2.18-1.23,2.23,2.23,0,0,1,2.3,2.49v3.43a.46.46,0,1,1-.92,0v-3.21c0-1.2-.6-1.87-1.61-1.87a1.73,1.73,0,0,0-1.7,1.92v3.17a.46.46,0,1,1-.92,0v-3.24c0-1.16-.61-1.85-1.6-1.85a1.8,1.8,0,0,0-1.73,2v3.13a.45.45,0,0,1-.46.47.46.46,0,0,1-.47-.47Z" transform="translate(-23.45 -26.21)"/><path class="cls-3" d="M343.6,117.44a.36.36,0,0,1,.18-.32,5,5,0,0,0,0-8.8.36.36,0,0,1-.18-.32.37.37,0,0,1,.36-.36.41.41,0,0,1,.22,0,5.6,5.6,0,0,1,0,10.07.4.4,0,0,1-.22,0A.37.37,0,0,1,343.6,117.44Z" transform="translate(-23.45 -26.21)"/><path class="cls-3" d="M354.15,115.39l-.72.74a.42.42,0,0,1-.3.14.34.34,0,0,1-.36-.35.4.4,0,0,1,.12-.29l.72-.77a4.38,4.38,0,0,1-1-2.89v0a4.31,4.31,0,0,1,7-3.42l.72-.75a.42.42,0,0,1,.3-.14.34.34,0,0,1,.36.35.4.4,0,0,1-.12.29l-.73.78a4.36,4.36,0,0,1,1.06,2.88v0a4.32,4.32,0,0,1-7,3.43Zm.13-1.22,4.64-4.93a3.24,3.24,0,0,0-2.09-.76,3.31,3.31,0,0,0-3.29,3.45v0A3.56,3.56,0,0,0,354.28,114.17Zm5.87-2.18v0a3.59,3.59,0,0,0-.73-2.21l-4.64,4.94a3.19,3.19,0,0,0,2.09.74A3.31,3.31,0,0,0,360.14,112Z" transform="translate(-23.45 -26.21)"/><path class="cls-3" d="M363.15,115.46a.45.45,0,0,1,.24-.84.56.56,0,0,1,.3.1,2.79,2.79,0,0,0,1.82.72c1.51,0,2.53-1.54,2.49-3.68a2.88,2.88,0,0,1-5.3-1.26v0a2.86,2.86,0,0,1,3-2.85,3,3,0,0,1,2.21.86,4.26,4.26,0,0,1,1,3.25v0c0,2.66-1.42,4.54-3.49,4.54A3.77,3.77,0,0,1,363.15,115.46Zm4.68-5.07v0a2,2,0,0,0-2.13-1.91,1.93,1.93,0,0,0-2,2v0a1.88,1.88,0,0,0,2.06,1.83A2,2,0,0,0,367.83,110.39Z" transform="translate(-23.45 -26.21)"/><path class="cls-3" d="M370.34,113.91v0a2.26,2.26,0,0,1,1.73-2.06,2.14,2.14,0,0,1-1.44-1.93v0c0-1.29,1.33-2.22,2.87-2.22s2.87.92,2.87,2.22v0a2.14,2.14,0,0,1-1.44,1.93,2.28,2.28,0,0,1,1.73,2.05v0c0,1.43-1.37,2.39-3.15,2.39S370.34,115.31,370.34,113.91Zm5.35,0v0c0-.94-1-1.59-2.19-1.59s-2.2.66-2.2,1.59v0c0,.84.82,1.57,2.2,1.57S375.68,114.73,375.68,113.88Zm-.28-3.93v0c0-.83-.83-1.45-1.92-1.45s-1.92.61-1.92,1.45v0c0,.91.85,1.54,1.92,1.54S375.41,110.86,375.41,109.95Z" transform="translate(-23.45 -26.21)"/><path class="cls-3" d="M378.75,114.84a.55.55,0,0,1,.56.56v.24a.57.57,0,1,1-1.14,0v-.24A.55.55,0,0,1,378.75,114.84Z" transform="translate(-23.45 -26.21)"/><path class="cls-3" d="M382,115.45a4.12,4.12,0,0,1-1.06-3.25v0c0-2.55,1.3-4.56,3.49-4.56a3.48,3.48,0,0,1,2.18.74.45.45,0,0,1,.23.4.46.46,0,0,1-.46.46.49.49,0,0,1-.26-.08,2.72,2.72,0,0,0-1.74-.65c-1.52,0-2.47,1.54-2.46,3.71a2.72,2.72,0,0,1,2.39-1.28,2.69,2.69,0,0,1,2.9,2.58v0a2.84,2.84,0,0,1-3,2.79A3,3,0,0,1,382,115.45Zm4.25-1.91v0a1.87,1.87,0,0,0-2.05-1.8,2,2,0,0,0-2.1,1.83v0a2,2,0,0,0,2.12,1.88A1.9,1.9,0,0,0,386.24,113.55Z" transform="translate(-23.45 -26.21)"/><path class="cls-3" d="M391.29,111.79h-2a.42.42,0,1,1,0-.84h2v-2a.44.44,0,1,1,.88,0v2h2a.42.42,0,1,1,0,.84h-2v2a.44.44,0,1,1-.87,0Zm-2.45,3.95a.42.42,0,0,1,.42-.41h4.94a.41.41,0,0,1,0,.83h-4.94A.43.43,0,0,1,388.84,115.74Z" transform="translate(-23.45 -26.21)"/><path class="cls-3" d="M396.22,112v0c0-2.35,1.4-4.34,3.56-4.34s3.53,2,3.53,4.32v0c0,2.35-1.39,4.34-3.55,4.34S396.22,114.34,396.22,112Zm6.11,0v0c0-1.83-1-3.48-2.57-3.48s-2.55,1.61-2.55,3.45v0c0,1.83,1,3.48,2.58,3.48S402.32,113.82,402.32,112Z" transform="translate(-23.45 -26.21)"/><path class="cls-3" d="M405.29,114.84a.55.55,0,0,1,.56.56v.24a.57.57,0,1,1-1.14,0v-.24A.55.55,0,0,1,405.29,114.84Z" transform="translate(-23.45 -26.21)"/><path class="cls-3" d="M408.3,108.65l-1.17.38a.66.66,0,0,1-.2,0,.41.41,0,0,1-.41-.41.43.43,0,0,1,.34-.41l1.38-.48a1.81,1.81,0,0,1,.52-.11h0a.46.46,0,0,1,.47.47v7.6a.47.47,0,0,1-.47.48.48.48,0,0,1-.47-.48Z" transform="translate(-23.45 -26.21)"/><path class="cls-3" d="M411.19,112v0c0-2.35,1.4-4.34,3.56-4.34s3.53,2,3.53,4.32v0c0,2.35-1.39,4.34-3.55,4.34S411.19,114.34,411.19,112Zm6.11,0v0c0-1.83-1-3.48-2.57-3.48s-2.55,1.61-2.55,3.45v0c0,1.83,1,3.48,2.58,3.48S417.3,113.82,417.3,112Z" transform="translate(-23.45 -26.21)"/><path class="cls-3" d="M206.7,86v0a4.23,4.23,0,0,1,4.25-4.34,4.34,4.34,0,0,1,3,1.09.52.52,0,0,1,.19.38.49.49,0,0,1-.48.47.57.57,0,0,1-.31-.11,3.44,3.44,0,0,0-2.41-1,3.29,3.29,0,0,0-3.25,3.44v0a3.31,3.31,0,0,0,3.25,3.47,3.44,3.44,0,0,0,2.49-1,.43.43,0,0,1,.3-.13.47.47,0,0,1,.46.46.45.45,0,0,1-.16.33,4.3,4.3,0,0,1-3.12,1.24A4.19,4.19,0,0,1,206.7,86Z" transform="translate(-23.45 -26.21)"/><path class="cls-3" d="M215.79,86.65V82.18a.47.47,0,1,1,.95,0v4.4c0,1.81,1,2.83,2.57,2.83s2.53-.94,2.53-2.77V82.18a.47.47,0,1,1,.95,0v4.39c0,2.45-1.4,3.72-3.5,3.72A3.29,3.29,0,0,1,215.79,86.65Z" transform="translate(-23.45 -26.21)"/><path class="cls-3" d="M225,82.24a.48.48,0,0,1,.47-.48h3.14a3.31,3.31,0,0,1,2.39.84,2.32,2.32,0,0,1,.65,1.66v0a2.44,2.44,0,0,1-2.24,2.43l2.09,2.69a.51.51,0,0,1,.16.35.5.5,0,0,1-.48.47.55.55,0,0,1-.44-.25l-2.36-3.07H226v2.84a.47.47,0,1,1-.95,0Zm3.53,3.8c1.26,0,2.16-.65,2.16-1.73v0c0-1-.79-1.65-2.15-1.65H226V86Z" transform="translate(-23.45 -26.21)"/><path class="cls-3" d="M233.71,82.18a.47.47,0,1,1,.95,0v7.1H239a.44.44,0,0,1,.43.44.43.43,0,0,1-.43.43h-4.83a.48.48,0,0,1-.47-.48Z" transform="translate(-23.45 -26.21)"/><path class="cls-3" d="M244.74,82.24a.48.48,0,0,1,.47-.48h2.45a4.19,4.19,0,0,1,4.46,4.17v0a4.2,4.2,0,0,1-4.46,4.2h-2.45a.48.48,0,0,1-.47-.48Zm2.91,7a3.25,3.25,0,0,0,3.48-3.3v0a3.27,3.27,0,0,0-3.48-3.32h-2v6.64Z" transform="translate(-23.45 -26.21)"/><path class="cls-3" d="M254.21,82.18a.47.47,0,1,1,.95,0v7.56a.47.47,0,1,1-.95,0Z" transform="translate(-23.45 -26.21)"/><path class="cls-3" d="M257.1,89.54l3.41-7.45a.62.62,0,0,1,.6-.42h0a.6.6,0,0,1,.59.42l3.41,7.44a.64.64,0,0,1,.06.24.45.45,0,0,1-.46.46.52.52,0,0,1-.47-.35l-.88-1.93H258.8l-.88,2a.47.47,0,0,1-.46.32.43.43,0,0,1-.43-.43A.55.55,0,0,1,257.1,89.54ZM263,87.08l-1.93-4.29-1.93,4.29Z" transform="translate(-23.45 -26.21)"/><path class="cls-3" d="M267,82.2a.48.48,0,0,1,.47-.47h.11A.52.52,0,0,1,268,82l3,4.51L274,82a.51.51,0,0,1,.44-.25h.11a.48.48,0,0,1,.47.47v7.54a.48.48,0,0,1-.47.48.49.49,0,0,1-.48-.48V83.48l-2.69,3.95a.46.46,0,0,1-.4.24.48.48,0,0,1-.41-.24l-2.67-3.93v6.26a.46.46,0,1,1-.92,0Z" transform="translate(-23.45 -26.21)"/><path class="cls-3" d="M277.44,89.68V82.24a.48.48,0,0,1,.47-.48h5.22a.43.43,0,0,1,0,.86h-4.74v2.87h4.2a.44.44,0,0,1,.43.43.43.43,0,0,1-.43.43h-4.2V89.3h4.8a.43.43,0,0,1,0,.86h-5.28A.48.48,0,0,1,277.44,89.68Z" transform="translate(-23.45 -26.21)"/><path class="cls-3" d="M287.7,82.64h-2.43a.44.44,0,0,1-.44-.43.45.45,0,0,1,.44-.44h5.83a.45.45,0,0,1,.44.44.44.44,0,0,1-.44.43h-2.43v7.1a.48.48,0,1,1-1,0Z" transform="translate(-23.45 -26.21)"/><path class="cls-3" d="M293.25,89.68V82.24a.48.48,0,0,1,.47-.48h5.22a.43.43,0,0,1,0,.86H294.2v2.87h4.2a.44.44,0,0,1,.43.43.43.43,0,0,1-.43.43h-4.2V89.3H299a.43.43,0,1,1,0,.86h-5.28A.48.48,0,0,1,293.25,89.68Z" transform="translate(-23.45 -26.21)"/><path class="cls-3" d="M301.29,82.24a.48.48,0,0,1,.47-.48h3.14a3.3,3.3,0,0,1,2.39.84,2.32,2.32,0,0,1,.65,1.66v0a2.44,2.44,0,0,1-2.24,2.43l2.09,2.69a.52.52,0,0,1,.16.35.5.5,0,0,1-.48.47A.55.55,0,0,1,307,90l-2.36-3.07h-2.41v2.84a.47.47,0,1,1-.95,0Zm3.53,3.8c1.26,0,2.16-.65,2.16-1.73v0c0-1-.79-1.65-2.15-1.65h-2.59V86Z" transform="translate(-23.45 -26.21)"/><path class="cls-3" d="M316.35,91.75a5.6,5.6,0,0,1,0-10.07.41.41,0,0,1,.22,0,.37.37,0,0,1,.36.36.36.36,0,0,1-.18.32,5,5,0,0,0,0,8.8.36.36,0,0,1,.18.32.37.37,0,0,1-.36.36A.4.4,0,0,1,316.35,91.75Z" transform="translate(-23.45 -26.21)"/><path class="cls-3" d="M318.62,84.37a.47.47,0,0,1,.46-.47.46.46,0,0,1,.47.47V85a2.26,2.26,0,0,1,2-1.17,2.11,2.11,0,0,1,2,1.23,2.47,2.47,0,0,1,2.18-1.23,2.23,2.23,0,0,1,2.3,2.49v3.43a.46.46,0,1,1-.92,0V86.54c0-1.2-.6-1.87-1.61-1.87a1.73,1.73,0,0,0-1.7,1.92v3.17a.46.46,0,1,1-.92,0V86.51c0-1.16-.61-1.85-1.6-1.85a1.8,1.8,0,0,0-1.73,2v3.13a.45.45,0,0,1-.46.47.46.46,0,0,1-.47-.47Z" transform="translate(-23.45 -26.21)"/><path class="cls-3" d="M330,84.37a.47.47,0,0,1,.46-.47.46.46,0,0,1,.47.47V85a2.26,2.26,0,0,1,2-1.17,2.11,2.11,0,0,1,2,1.23,2.47,2.47,0,0,1,2.18-1.23,2.23,2.23,0,0,1,2.3,2.49v3.43a.46.46,0,1,1-.92,0V86.54c0-1.2-.6-1.87-1.61-1.87a1.73,1.73,0,0,0-1.7,1.92v3.17a.46.46,0,1,1-.92,0V86.51c0-1.16-.61-1.85-1.6-1.85a1.8,1.8,0,0,0-1.73,2v3.13a.45.45,0,0,1-.46.47.46.46,0,0,1-.47-.47Z" transform="translate(-23.45 -26.21)"/><path class="cls-3" d="M341.07,91.44a.36.36,0,0,1,.18-.32,5,5,0,0,0,0-8.8.36.36,0,0,1-.18-.32.37.37,0,0,1,.36-.36.41.41,0,0,1,.22,0,5.6,5.6,0,0,1,0,10.07.4.4,0,0,1-.22,0A.37.37,0,0,1,341.07,91.44Z" transform="translate(-23.45 -26.21)"/><path class="cls-3" d="M351.62,89.39l-.72.74a.42.42,0,0,1-.3.14.34.34,0,0,1-.36-.35.4.4,0,0,1,.12-.29l.72-.77A4.38,4.38,0,0,1,350,86v0a4.31,4.31,0,0,1,7-3.42l.72-.75a.42.42,0,0,1,.3-.14.34.34,0,0,1,.36.35.4.4,0,0,1-.12.29l-.73.78a4.36,4.36,0,0,1,1.06,2.88v0a4.32,4.32,0,0,1-7,3.43Zm.13-1.22,4.64-4.93a3.24,3.24,0,0,0-2.09-.76A3.31,3.31,0,0,0,351,85.94v0A3.56,3.56,0,0,0,351.75,88.17ZM357.62,86v0a3.59,3.59,0,0,0-.73-2.21l-4.64,4.94a3.19,3.19,0,0,0,2.09.74A3.31,3.31,0,0,0,357.62,86Z" transform="translate(-23.45 -26.21)"/><path class="cls-3" d="M361.57,82.65l-1.17.38a.66.66,0,0,1-.2,0,.41.41,0,0,1-.41-.41.43.43,0,0,1,.34-.41l1.38-.48a1.81,1.81,0,0,1,.52-.11h0a.46.46,0,0,1,.47.47v7.6a.47.47,0,0,1-.47.48.48.48,0,0,1-.47-.48Z" transform="translate(-23.45 -26.21)"/><path class="cls-3" d="M364.46,86v0c0-2.35,1.4-4.34,3.56-4.34s3.53,2,3.53,4.32v0c0,2.35-1.39,4.34-3.55,4.34S364.46,88.34,364.46,86Zm6.11,0v0c0-1.83-1-3.48-2.57-3.48s-2.55,1.61-2.55,3.45v0c0,1.83,1,3.48,2.58,3.48S370.57,87.82,370.57,86Z" transform="translate(-23.45 -26.21)"/><path class="cls-3" d="M373.5,89.46a.45.45,0,0,1,.24-.84.56.56,0,0,1,.3.1,2.79,2.79,0,0,0,1.82.72c1.51,0,2.53-1.54,2.49-3.68a2.88,2.88,0,0,1-5.3-1.26v0a2.86,2.86,0,0,1,3-2.85,3,3,0,0,1,2.21.86,4.26,4.26,0,0,1,1,3.25v0c0,2.66-1.42,4.54-3.49,4.54A3.77,3.77,0,0,1,373.5,89.46Zm4.68-5.07v0A2,2,0,0,0,376,82.46a1.93,1.93,0,0,0-2,2v0a1.88,1.88,0,0,0,2.06,1.83A2,2,0,0,0,378.17,84.39Z" transform="translate(-23.45 -26.21)"/><path class="cls-3" d="M383.37,85.79h-2a.42.42,0,1,1,0-.84h2V83a.44.44,0,1,1,.88,0v2h2a.42.42,0,0,1,0,.84h-2v2a.44.44,0,1,1-.87,0Zm-2.45,3.95a.42.42,0,0,1,.42-.41h4.94a.41.41,0,0,1,0,.83h-4.94A.43.43,0,0,1,380.92,89.74Z" transform="translate(-23.45 -26.21)"/><path class="cls-3" d="M388.3,86v0c0-2.35,1.4-4.34,3.56-4.34s3.53,2,3.53,4.32v0c0,2.35-1.39,4.34-3.55,4.34S388.3,88.34,388.3,86Zm6.11,0v0c0-1.83-1-3.48-2.57-3.48s-2.55,1.61-2.55,3.45v0c0,1.83,1,3.48,2.58,3.48S394.41,87.82,394.41,86Z" transform="translate(-23.45 -26.21)"/><path class="cls-3" d="M397.38,88.84a.55.55,0,0,1,.56.56v.24a.57.57,0,1,1-1.14,0V89.4A.55.55,0,0,1,397.38,88.84Z" transform="translate(-23.45 -26.21)"/><path class="cls-3" d="M400.39,82.65l-1.17.38a.66.66,0,0,1-.2,0,.41.41,0,0,1-.41-.41.43.43,0,0,1,.34-.41l1.38-.48a1.81,1.81,0,0,1,.52-.11h0a.46.46,0,0,1,.47.47v7.6a.47.47,0,0,1-.47.48.48.48,0,0,1-.47-.48Z" transform="translate(-23.45 -26.21)"/><path class="cls-3" d="M403.28,86v0c0-2.35,1.4-4.34,3.56-4.34s3.53,2,3.53,4.32v0c0,2.35-1.39,4.34-3.55,4.34S403.28,88.34,403.28,86Zm6.11,0v0c0-1.83-1-3.48-2.57-3.48s-2.55,1.61-2.55,3.45v0c0,1.83,1,3.48,2.58,3.48S409.39,87.82,409.39,86Z" transform="translate(-23.45 -26.21)"/><path d="M27.45,452.88c143.64,0,62.77,0,206.4-.08,3.67,0,6.6.5,9.32,3.38a10,10,0,0,0,12,2.15c4-1.91,7.33-4.45,7.72-9.91a151.18,151.18,0,0,1,3.41-20.67c1.35-6.28,5.82-9.66,12.1-9.76,4.16-.06,8.38-.34,12.47.22a8.64,8.64,0,0,1,5.38,3.58c.54.83-1.37,3.19-2,4.9-.47,1.18-.74,2.44-1.27,4.26,7.2-2,9.06-4.12,8.67-8.85-.31-3.77-4.42-7.46-9.08-7.63-6-.22-12,0-18-.11-5.29-.12-10.62,5.9-12.15,12.13-1.74,7.09-2.43,14.43-4.21,21.51-.64,2.53-2.79,6-4.88,6.52-2.46.62-6.67-.62-8.25-2.57-3.22-4-6.87-4.29-11.35-4.29-145.39.07-60.79.07-206.17,0Z" transform="translate(-23.45 -26.21)"/><line class="cls-1" x1="232.15" y1="387.61" x2="334.53" y2="387.61"/><line class="cls-1" x1="209.65" y1="429.11" x2="333.03" y2="429.11"/><line class="cls-1" x1="40.65" y1="435.11" x2="164.03" y2="435.11"/><polyline class="cls-1" points="321.37 379.97 321.37 361.98 321.37 379.97"/><polygon class="cls-2" points="323.11 378.79 321.37 385.29 319.63 378.79 323.11 378.79"/><polygon class="cls-2" points="319.63 378.79 321.37 385.29 323.11 378.79 319.63 378.79"/><path class="cls-1" d="M344.82,461.09v0Z" transform="translate(-23.45 -26.21)"/><polyline class="cls-1" points="321.37 440.29 321.37 458.29 321.37 440.29"/><polygon class="cls-2" points="319.63 441.48 321.37 434.98 323.11 441.48 319.63 441.48"/><polygon class="cls-2" points="323.11 441.48 321.37 434.98 319.63 441.48 323.11 441.48"/><polyline class="cls-1" points="78.37 416.97 78.37 398.98 78.37 416.97"/><polygon class="cls-2" points="80.11 415.79 78.37 422.29 76.63 415.79 80.11 415.79"/><polygon class="cls-2" points="76.63 415.79 78.37 422.29 80.11 415.79 76.63 415.79"/><path class="cls-1" d="M101.82,461.09v0Z" transform="translate(-23.45 -26.21)"/><polyline class="cls-1" points="78.37 440.29 78.37 458.29 78.37 440.29"/><polygon class="cls-2" points="76.63 441.48 78.37 434.98 80.11 441.48 76.63 441.48"/><polygon class="cls-2" points="80.11 441.48 78.37 434.98 76.63 441.48 80.11 441.48"/><path class="cls-3" d="M60.19,497.74a.48.48,0,0,1,.47-.48h2.67c1.89,0,3.14,1,3.14,2.66v0c0,1.81-1.51,2.75-3.3,2.75h-2v2.54a.47.47,0,1,1-.95,0Zm3,4.09c1.39,0,2.3-.74,2.3-1.85v0c0-1.2-.9-1.82-2.25-1.82H61.13v3.69Z" transform="translate(-23.45 -26.21)"/><path class="cls-3" d="M66.91,505l3.41-7.45a.62.62,0,0,1,.6-.42h0a.61.61,0,0,1,.59.42L75,505a.64.64,0,0,1,.06.24.46.46,0,0,1-.46.46.52.52,0,0,1-.47-.35l-.87-1.93H68.61l-.88,2a.47.47,0,0,1-.46.32.43.43,0,0,1-.43-.43A.55.55,0,0,1,66.91,505Zm5.94-2.46-1.93-4.29L69,502.58Z" transform="translate(-23.45 -26.21)"/><path class="cls-3" d="M76.83,497.7a.48.48,0,0,1,.47-.47h.13a.58.58,0,0,1,.48.28L83,504v-6.33a.46.46,0,1,1,.92,0v7.58a.43.43,0,0,1-.43.44h0a.65.65,0,0,1-.49-.29l-5.21-6.66v6.5a.46.46,0,1,1-.92,0Z" transform="translate(-23.45 -26.21)"/><path class="cls-3" d="M86.31,505.18v-7.44a.48.48,0,0,1,.47-.48H92a.43.43,0,1,1,0,.86H87.26V501h4.2a.44.44,0,0,1,.43.43.43.43,0,0,1-.43.43h-4.2v2.94h4.8a.43.43,0,0,1,0,.86H86.78A.48.48,0,0,1,86.31,505.18Z" transform="translate(-23.45 -26.21)"/><path class="cls-3" d="M94.35,497.68a.47.47,0,1,1,.95,0v7.1h4.35a.44.44,0,0,1,.43.44.43.43,0,0,1-.43.43H94.82a.48.48,0,0,1-.47-.48Z" transform="translate(-23.45 -26.21)"/><path class="cls-3" d="M105.38,497.74a.48.48,0,0,1,.47-.48h2.45a4.19,4.19,0,0,1,4.46,4.17v0a4.2,4.2,0,0,1-4.46,4.2h-2.45a.48.48,0,0,1-.47-.48Zm2.91,7a3.25,3.25,0,0,0,3.48-3.3v0a3.27,3.27,0,0,0-3.48-3.32h-2v6.64Z" transform="translate(-23.45 -26.21)"/><path class="cls-3" d="M114.76,505.18v-7.44a.48.48,0,0,1,.47-.48h5.22a.43.43,0,1,1,0,.86h-4.74V501h4.2a.44.44,0,0,1,.43.43.43.43,0,0,1-.43.43h-4.2v2.94h4.8a.43.43,0,1,1,0,.86h-5.28A.48.48,0,0,1,114.76,505.18Z" transform="translate(-23.45 -26.21)"/><path class="cls-3" d="M122.8,497.74a.48.48,0,0,1,.47-.48h2.67c1.89,0,3.14,1,3.14,2.66v0c0,1.81-1.51,2.75-3.3,2.75h-2v2.54a.47.47,0,1,1-.95,0Zm3,4.09c1.39,0,2.3-.74,2.3-1.85v0c0-1.2-.9-1.82-2.25-1.82h-2.12v3.69Z" transform="translate(-23.45 -26.21)"/><path class="cls-3" d="M133,498.14H130.6a.44.44,0,0,1-.44-.43.45.45,0,0,1,.44-.44h5.83a.45.45,0,0,1,.44.44.44.44,0,0,1-.44.43H134v7.1a.48.48,0,0,1-1,0Z" transform="translate(-23.45 -26.21)"/><path class="cls-3" d="M138.59,497.68a.47.47,0,1,1,.95,0V501h4.85v-3.31a.47.47,0,1,1,.95,0v7.56a.47.47,0,1,1-.95,0v-3.36h-4.85v3.36a.47.47,0,1,1-.95,0Z" transform="translate(-23.45 -26.21)"/><path class="cls-3" d="M154.1,507.25a5.6,5.6,0,0,1,0-10.07.41.41,0,0,1,.22,0,.37.37,0,0,1,.36.36.36.36,0,0,1-.18.32,5,5,0,0,0,0,8.8.36.36,0,0,1,.18.32.37.37,0,0,1-.36.36A.4.4,0,0,1,154.1,507.25Z" transform="translate(-23.45 -26.21)"/><path class="cls-3" d="M156.37,499.87a.47.47,0,0,1,.46-.47.46.46,0,0,1,.47.47v.64a2.26,2.26,0,0,1,2-1.17,2.11,2.11,0,0,1,2,1.23,2.47,2.47,0,0,1,2.18-1.23,2.23,2.23,0,0,1,2.3,2.49v3.43a.46.46,0,1,1-.92,0V502c0-1.2-.6-1.87-1.61-1.87a1.73,1.73,0,0,0-1.7,1.92v3.17a.46.46,0,1,1-.92,0V502c0-1.16-.61-1.85-1.6-1.85a1.8,1.8,0,0,0-1.73,2v3.13a.45.45,0,0,1-.46.47.46.46,0,0,1-.47-.47Z" transform="translate(-23.45 -26.21)"/><path class="cls-3" d="M167.78,499.87a.47.47,0,0,1,.46-.47.46.46,0,0,1,.47.47v.64a2.26,2.26,0,0,1,2-1.17,2.11,2.11,0,0,1,2,1.23,2.47,2.47,0,0,1,2.18-1.23,2.23,2.23,0,0,1,2.3,2.49v3.43a.46.46,0,1,1-.92,0V502c0-1.2-.6-1.87-1.61-1.87a1.73,1.73,0,0,0-1.7,1.92v3.17a.46.46,0,1,1-.92,0V502c0-1.16-.61-1.85-1.6-1.85a1.8,1.8,0,0,0-1.73,2v3.13a.45.45,0,0,1-.46.47.46.46,0,0,1-.47-.47Z" transform="translate(-23.45 -26.21)"/><path class="cls-3" d="M178.82,506.94a.36.36,0,0,1,.18-.32,5,5,0,0,0,0-8.8.36.36,0,0,1-.18-.32.37.37,0,0,1,.36-.36.41.41,0,0,1,.22,0,5.6,5.6,0,0,1,0,10.07.4.4,0,0,1-.22,0A.37.37,0,0,1,178.82,506.94Z" transform="translate(-23.45 -26.21)"/><path class="cls-3" d="M189.11,498.15l-1.17.38a.66.66,0,0,1-.2,0,.41.41,0,0,1-.41-.41.43.43,0,0,1,.34-.41l1.38-.48a1.81,1.81,0,0,1,.52-.11h0a.46.46,0,0,1,.47.47v7.6a.47.47,0,0,1-.47.48.48.48,0,0,1-.47-.48Z" transform="translate(-23.45 -26.21)"/><path class="cls-3" d="M192.74,504.34a.55.55,0,0,1,.56.56v.24a.57.57,0,1,1-1.14,0v-.24A.55.55,0,0,1,192.74,504.34Z" transform="translate(-23.45 -26.21)"/><path class="cls-3" d="M195,504.77l2.87-2.53c1.29-1.15,1.75-1.8,1.75-2.64a1.6,1.6,0,0,0-1.69-1.61,2.51,2.51,0,0,0-2.09,1.22.43.43,0,0,1-.35.17A.43.43,0,0,1,195,499a.42.42,0,0,1,.1-.26,3.18,3.18,0,0,1,2.84-1.55,2.42,2.42,0,0,1,2.6,2.38v0c0,1.22-.65,2-2.12,3.26l-2.24,2h4.07a.43.43,0,1,1,0,.86h-5a.45.45,0,0,1-.48-.44A.55.55,0,0,1,195,504.77Z" transform="translate(-23.45 -26.21)"/><path class="cls-3" d="M206.26,503.67h-4.17a.45.45,0,0,1-.48-.46.71.71,0,0,1,.18-.46l4.37-5.33a.61.61,0,0,1,.53-.29.49.49,0,0,1,.5.49v5.24h.95a.41.41,0,0,1,.41.41.4.4,0,0,1-.41.38h-.95v1.6a.46.46,0,0,1-.92,0Zm0-.79v-4.33l-3.53,4.33Z" transform="translate(-23.45 -26.21)"/><path class="cls-3" d="M212.44,501.29h-2a.42.42,0,0,1,0-.84h2v-2a.44.44,0,1,1,.88,0v2h2a.42.42,0,1,1,0,.84h-2v2a.44.44,0,1,1-.87,0ZM210,505.24a.42.42,0,0,1,.42-.41h4.94a.41.41,0,0,1,0,.83h-4.94A.43.43,0,0,1,210,505.24Z" transform="translate(-23.45 -26.21)"/><path class="cls-3" d="M217.37,501.49v0c0-2.35,1.4-4.34,3.56-4.34s3.53,2,3.53,4.32v0c0,2.35-1.39,4.34-3.55,4.34S217.37,503.84,217.37,501.49Zm6.11,0v0c0-1.83-1-3.48-2.57-3.48s-2.55,1.61-2.55,3.45v0c0,1.83,1,3.48,2.58,3.48S223.48,503.32,223.48,501.49Z" transform="translate(-23.45 -26.21)"/><path class="cls-3" d="M226.45,504.34a.55.55,0,0,1,.56.56v.24a.57.57,0,1,1-1.14,0v-.24A.55.55,0,0,1,226.45,504.34Z" transform="translate(-23.45 -26.21)"/><path class="cls-3" d="M229.46,498.15l-1.17.38a.66.66,0,0,1-.2,0,.41.41,0,0,1-.41-.41.43.43,0,0,1,.34-.41l1.38-.48a1.81,1.81,0,0,1,.52-.11h0a.46.46,0,0,1,.47.47v7.6a.47.47,0,0,1-.47.48.48.48,0,0,1-.47-.48Z" transform="translate(-23.45 -26.21)"/><path class="cls-3" d="M232.35,501.49v0c0-2.35,1.4-4.34,3.56-4.34s3.53,2,3.53,4.32v0c0,2.35-1.39,4.34-3.55,4.34S232.35,503.84,232.35,501.49Zm6.11,0v0c0-1.83-1-3.48-2.57-3.48s-2.55,1.61-2.55,3.45v0c0,1.83,1,3.48,2.58,3.48S238.46,503.32,238.46,501.49Z" transform="translate(-23.45 -26.21)"/><path class="cls-3" d="M113.75,26.47h5.48a8.67,8.67,0,0,1,3.17.56,7.49,7.49,0,0,1,2.47,1.54,6.88,6.88,0,0,1,1.61,2.32,7.3,7.3,0,0,1,.57,2.89v0a7.37,7.37,0,0,1-.57,2.9A6.85,6.85,0,0,1,124.87,39a7.62,7.62,0,0,1-2.47,1.55,8.53,8.53,0,0,1-3.17.57h-5.48Zm5.48,12.33a5.77,5.77,0,0,0,2.1-.37A4.51,4.51,0,0,0,124,35.83a5.23,5.23,0,0,0,.37-2v0a5.32,5.32,0,0,0-.37-2,4.61,4.61,0,0,0-1-1.58,4.71,4.71,0,0,0-1.61-1,5.63,5.63,0,0,0-2.1-.38h-2.9v10Z" transform="translate(-23.45 -26.21)"/><path class="cls-3" d="M130.32,26.47h2.58v14.7h-2.58Z" transform="translate(-23.45 -26.21)"/><path class="cls-3" d="M136.83,26.47h2.75l4.47,7,4.47-7h2.75v14.7h-2.58V30.62l-4.64,6.93H144l-4.6-6.89v10.5h-2.54Z" transform="translate(-23.45 -26.21)"/><path class="cls-3" d="M155.05,26.47H166v2.31h-8.32V32.6H165v2.31h-7.37v3.95h8.42v2.31h-11Z" transform="translate(-23.45 -26.21)"/><path class="cls-3" d="M169.12,26.47h2.39l7.88,10.16V26.47h2.54v14.7h-2.16l-8.11-10.46V41.17h-2.54Z" transform="translate(-23.45 -26.21)"/><path class="cls-3" d="M190.86,41.38a9.19,9.19,0,0,1-3.26-.58A8.87,8.87,0,0,1,184.73,39l1.55-1.85a9,9,0,0,0,2.16,1.42,6,6,0,0,0,2.48.49,3.21,3.21,0,0,0,1.9-.5,1.57,1.57,0,0,0,.7-1.34v0a1.7,1.7,0,0,0-.14-.7,1.53,1.53,0,0,0-.5-.58,4,4,0,0,0-1-.5,14.57,14.57,0,0,0-1.67-.46,20.39,20.39,0,0,1-2.09-.63,5.46,5.46,0,0,1-1.53-.83,3.24,3.24,0,0,1-.95-1.21,4.11,4.11,0,0,1-.33-1.72v0a3.94,3.94,0,0,1,1.42-3.07,4.89,4.89,0,0,1,1.59-.87,6.24,6.24,0,0,1,2-.31,8.36,8.36,0,0,1,2.91.48,8.66,8.66,0,0,1,2.43,1.39l-1.39,2a9,9,0,0,0-2-1.12,5.41,5.41,0,0,0-2-.39,2.76,2.76,0,0,0-1.76.5,1.53,1.53,0,0,0-.63,1.24v0a1.79,1.79,0,0,0,.15.75,1.44,1.44,0,0,0,.54.59,4.54,4.54,0,0,0,1.07.49q.68.23,1.73.48a13,13,0,0,1,2.06.64,5.33,5.33,0,0,1,1.47.88,3.47,3.47,0,0,1,.89,1.18,3.84,3.84,0,0,1,.3,1.59v0a4.25,4.25,0,0,1-.39,1.84,4,4,0,0,1-1.08,1.38,4.79,4.79,0,0,1-1.66.86A7.28,7.28,0,0,1,190.86,41.38Z" transform="translate(-23.45 -26.21)"/><path class="cls-3" d="M199.3,26.47h2.58v14.7H199.3Z" transform="translate(-23.45 -26.21)"/><path class="cls-3" d="M212.82,41.42a7.85,7.85,0,0,1-3.11-.6,7.38,7.38,0,0,1-2.42-1.63,7.46,7.46,0,0,1-1.57-2.41,7.6,7.6,0,0,1-.57-2.93v0a7.61,7.61,0,0,1,.57-2.93,7.4,7.4,0,0,1,1.6-2.42,7.66,7.66,0,0,1,5.54-2.26,7.86,7.86,0,0,1,3.11.6,7.32,7.32,0,0,1,4,4,7.61,7.61,0,0,1,.57,2.93v0a7.6,7.6,0,0,1-.57,2.93,7.4,7.4,0,0,1-1.6,2.42,7.66,7.66,0,0,1-5.54,2.26Zm0-2.37a4.86,4.86,0,0,0,2-.41,4.75,4.75,0,0,0,1.56-1.11,5.15,5.15,0,0,0,1-1.65,5.52,5.52,0,0,0,.37-2v0a5.61,5.61,0,0,0-.37-2A4.92,4.92,0,0,0,214.84,29a5.08,5.08,0,0,0-4,0,4.76,4.76,0,0,0-1.56,1.11,5.15,5.15,0,0,0-1,1.65,5.51,5.51,0,0,0-.37,2v0a5.59,5.59,0,0,0,.37,2,4.91,4.91,0,0,0,2.61,2.78A4.81,4.81,0,0,0,212.87,39Z" transform="translate(-23.45 -26.21)"/><path class="cls-3" d="M223.66,26.47h2.39l7.88,10.16V26.47h2.54v14.7h-2.16L226.2,30.71V41.17h-2.54Z" transform="translate(-23.45 -26.21)"/><path class="cls-3" d="M245.46,26.36h2.39l6.47,14.8h-2.73l-1.49-3.55h-7l-1.51,3.55H239Zm3.7,8.95-2.54-5.88-2.52,5.88Z" transform="translate(-23.45 -26.21)"/><path class="cls-3" d="M256.84,26.47h2.58V38.79h7.73v2.37H256.84Z" transform="translate(-23.45 -26.21)"/><path class="cls-3" d="M281.28,41.38a9.19,9.19,0,0,1-3.25-.58A8.86,8.86,0,0,1,275.15,39l1.55-1.85a9,9,0,0,0,2.16,1.42,6,6,0,0,0,2.48.49,3.21,3.21,0,0,0,1.9-.5,1.57,1.57,0,0,0,.7-1.34v0a1.7,1.7,0,0,0-.14-.7,1.52,1.52,0,0,0-.5-.58,4,4,0,0,0-1-.5,14.63,14.63,0,0,0-1.67-.46,20.34,20.34,0,0,1-2.09-.63,5.45,5.45,0,0,1-1.53-.83,3.24,3.24,0,0,1-.95-1.21,4.12,4.12,0,0,1-.33-1.72v0a3.94,3.94,0,0,1,.38-1.73,4,4,0,0,1,1-1.34,4.9,4.9,0,0,1,1.59-.87,6.24,6.24,0,0,1,2-.31,8.37,8.37,0,0,1,2.91.48,8.65,8.65,0,0,1,2.42,1.39l-1.39,2a9,9,0,0,0-2-1.12,5.41,5.41,0,0,0-2-.39,2.76,2.76,0,0,0-1.76.5,1.53,1.53,0,0,0-.63,1.24v0a1.8,1.8,0,0,0,.15.75,1.44,1.44,0,0,0,.54.59,4.52,4.52,0,0,0,1.07.49q.68.23,1.73.48a13,13,0,0,1,2.06.64,5.32,5.32,0,0,1,1.47.88,3.47,3.47,0,0,1,.89,1.18,3.83,3.83,0,0,1,.3,1.59v0a4.25,4.25,0,0,1-.39,1.84,3.94,3.94,0,0,1-1.08,1.38,4.81,4.81,0,0,1-1.66.86A7.29,7.29,0,0,1,281.28,41.38Z" transform="translate(-23.45 -26.21)"/><path class="cls-3" d="M289.58,26.47h5.8a7.3,7.3,0,0,1,2.32.35,5,5,0,0,1,1.76,1,4.42,4.42,0,0,1,1.11,1.55,5.05,5.05,0,0,1,.39,2v0a4.84,4.84,0,0,1-.46,2.17,4.5,4.5,0,0,1-1.26,1.56,5.62,5.62,0,0,1-1.87,1,7.8,7.8,0,0,1-2.29.33h-2.92v4.72h-2.58Zm5.59,7.67a3.43,3.43,0,0,0,2.32-.73,2.39,2.39,0,0,0,.85-1.89v0a2.32,2.32,0,0,0-.86-2,3.69,3.69,0,0,0-2.31-.66h-3v5.29Z" transform="translate(-23.45 -26.21)"/><path class="cls-3" d="M303.61,26.47h10.9v2.31h-8.32V32.6h7.37v2.31h-7.37v3.95h8.42v2.31h-11Z" transform="translate(-23.45 -26.21)"/><path class="cls-3" d="M324.5,41.42a7.49,7.49,0,0,1-3-.59,7.29,7.29,0,0,1-2.37-1.61,7.4,7.4,0,0,1-1.56-2.4,7.75,7.75,0,0,1-.57-3v0a7.79,7.79,0,0,1,.56-3,7.44,7.44,0,0,1,1.56-2.42,7.34,7.34,0,0,1,2.4-1.64,7.67,7.67,0,0,1,3.06-.6,9.32,9.32,0,0,1,1.84.17,7.47,7.47,0,0,1,1.52.47,7.11,7.11,0,0,1,1.28.72,10.12,10.12,0,0,1,1.11.92l-1.66,1.91a8.28,8.28,0,0,0-1.87-1.32,4.87,4.87,0,0,0-2.25-.5,4.61,4.61,0,0,0-1.94.41,4.71,4.71,0,0,0-1.53,1.11,5.26,5.26,0,0,0-1,1.65,5.51,5.51,0,0,0-.37,2v0a5.59,5.59,0,0,0,.37,2,5.35,5.35,0,0,0,1,1.67A4.61,4.61,0,0,0,324.59,39a5.25,5.25,0,0,0,1.24-.14,5.37,5.37,0,0,0,1.07-.38,5.67,5.67,0,0,0,1-.6,10.59,10.59,0,0,0,.93-.8l1.66,1.68a11.25,11.25,0,0,1-1.19,1.07,7.48,7.48,0,0,1-1.33.83,6.74,6.74,0,0,1-1.56.52A9.17,9.17,0,0,1,324.5,41.42Z" transform="translate(-23.45 -26.21)"/><path class="cls-3" d="M333.32,26.47h2.58v14.7h-2.58Z" transform="translate(-23.45 -26.21)"/><path class="cls-3" d="M339.83,26.47h10.94v2.37h-8.36v4h7.41v2.37h-7.41v6h-2.58Z" transform="translate(-23.45 -26.21)"/><path class="cls-3" d="M353.75,26.47h2.58v14.7h-2.58Z" transform="translate(-23.45 -26.21)"/><path class="cls-3" d="M367.09,41.42a7.49,7.49,0,0,1-3-.59,7.29,7.29,0,0,1-2.37-1.61,7.4,7.4,0,0,1-1.56-2.4,7.75,7.75,0,0,1-.57-3v0a7.79,7.79,0,0,1,.56-3,7.44,7.44,0,0,1,1.56-2.42,7.34,7.34,0,0,1,2.4-1.64,7.67,7.67,0,0,1,3.06-.6,9.32,9.32,0,0,1,1.84.17,7.47,7.47,0,0,1,1.52.47,7.11,7.11,0,0,1,1.28.72,10.12,10.12,0,0,1,1.11.92l-1.66,1.91a8.28,8.28,0,0,0-1.87-1.32,4.87,4.87,0,0,0-2.25-.5,4.61,4.61,0,0,0-1.94.41,4.71,4.71,0,0,0-1.53,1.11,5.26,5.26,0,0,0-1,1.65,5.51,5.51,0,0,0-.37,2v0a5.59,5.59,0,0,0,.37,2,5.35,5.35,0,0,0,1,1.67A4.61,4.61,0,0,0,367.17,39a5.25,5.25,0,0,0,1.24-.14,5.37,5.37,0,0,0,1.07-.38,5.67,5.67,0,0,0,1-.6,10.59,10.59,0,0,0,.93-.8l1.66,1.68a11.25,11.25,0,0,1-1.19,1.07,7.48,7.48,0,0,1-1.33.83,6.74,6.74,0,0,1-1.56.52A9.17,9.17,0,0,1,367.09,41.42Z" transform="translate(-23.45 -26.21)"/><path class="cls-3" d="M381,26.36h2.39l6.47,14.8H387.1l-1.49-3.55h-7l-1.51,3.55H374.5Zm3.7,8.95-2.54-5.88-2.52,5.88Z" transform="translate(-23.45 -26.21)"/><path class="cls-3" d="M394.07,28.84h-4.66V26.47h11.91v2.37h-4.66V41.17h-2.58Z" transform="translate(-23.45 -26.21)"/><path class="cls-3" d="M404.22,26.47h2.58v14.7h-2.58Z" transform="translate(-23.45 -26.21)"/><path class="cls-3" d="M417.74,41.42a7.85,7.85,0,0,1-3.11-.6,7.37,7.37,0,0,1-2.42-1.63,7.46,7.46,0,0,1-1.58-2.41,7.6,7.6,0,0,1-.57-2.93v0a7.61,7.61,0,0,1,.57-2.93,7.4,7.4,0,0,1,1.6-2.42,7.66,7.66,0,0,1,5.54-2.26,7.85,7.85,0,0,1,3.11.6,7.38,7.38,0,0,1,2.42,1.63,7.46,7.46,0,0,1,1.58,2.4,7.61,7.61,0,0,1,.57,2.93v0a7.6,7.6,0,0,1-.57,2.93,7.4,7.4,0,0,1-1.6,2.42,7.66,7.66,0,0,1-5.54,2.26Zm0-2.37a4.85,4.85,0,0,0,2-.41,4.74,4.74,0,0,0,1.56-1.11,5.14,5.14,0,0,0,1-1.65,5.51,5.51,0,0,0,.37-2v0a5.6,5.6,0,0,0-.37-2A4.91,4.91,0,0,0,419.76,29a5.08,5.08,0,0,0-4,0,4.76,4.76,0,0,0-1.56,1.11,5.15,5.15,0,0,0-1,1.65,5.51,5.51,0,0,0-.37,2v0a5.59,5.59,0,0,0,.37,2,5,5,0,0,0,1,1.66,5,5,0,0,0,1.58,1.12A4.81,4.81,0,0,0,417.78,39Z" transform="translate(-23.45 -26.21)"/><path class="cls-3" d="M428.58,26.47H431l7.88,10.16V26.47h2.54v14.7h-2.16l-8.11-10.46V41.17h-2.54Z" transform="translate(-23.45 -26.21)"/><path class="cls-3" d="M458.48,41.42a7.92,7.92,0,0,1-2.31-.33,7.29,7.29,0,0,1-2-.93l-1,1.11h-2.54l2.08-2.33a7.09,7.09,0,0,1-1.42-2.32,7.78,7.78,0,0,1-.49-2.76v0a7.62,7.62,0,0,1,.57-2.93,7.41,7.41,0,0,1,1.6-2.42,7.66,7.66,0,0,1,5.54-2.26,7.91,7.91,0,0,1,2.31.33,7.37,7.37,0,0,1,2,.93l1-1.11h2.54l-2.08,2.35A7.13,7.13,0,0,1,465.69,31a7.7,7.7,0,0,1,.49,2.75v0a7.61,7.61,0,0,1-.57,2.93,7.41,7.41,0,0,1-1.6,2.42,7.66,7.66,0,0,1-5.54,2.26Zm2.69-12.05a4.34,4.34,0,0,0-1.23-.62,4.73,4.73,0,0,0-1.46-.22,4.91,4.91,0,0,0-2,.41,4.75,4.75,0,0,0-1.58,1.12,5.15,5.15,0,0,0-1,1.67,5.59,5.59,0,0,0-.37,2v0a5.22,5.22,0,0,0,1,3.13Zm-2.65,9.74a4.91,4.91,0,0,0,2-.41,4.77,4.77,0,0,0,1.59-1.12,5.15,5.15,0,0,0,1-1.67,5.59,5.59,0,0,0,.37-2v0a5.22,5.22,0,0,0-1-3.13l-6.72,7.56a4.31,4.31,0,0,0,1.23.62A4.74,4.74,0,0,0,458.52,39.11Z" transform="translate(-23.45 -26.21)"/><path class="cls-3" d="M476.08,37.87h-7.41L468.18,36l8.17-9.66h2.21v9.39h2.1v2.12h-2.1v3.3h-2.48Zm0-2.12V29.93l-4.83,5.82Z" transform="translate(-23.45 -26.21)"/><path class="cls-3" d="M489.31,41.42a5.79,5.79,0,0,1-2.62-.59,6.08,6.08,0,0,1-2-1.62,7.4,7.4,0,0,1-1.29-2.4,9.41,9.41,0,0,1-.45-3v0a9.28,9.28,0,0,1,.46-3,7.54,7.54,0,0,1,1.3-2.42,6.18,6.18,0,0,1,2-1.63,6.13,6.13,0,0,1,5.26,0,6,6,0,0,1,2,1.62,7.7,7.7,0,0,1,1.29,2.4,9.22,9.22,0,0,1,.46,3v0a9.32,9.32,0,0,1-.46,3,7.56,7.56,0,0,1-1.3,2.42,6.19,6.19,0,0,1-2,1.63A5.76,5.76,0,0,1,489.31,41.42Zm0-2.31a2.94,2.94,0,0,0,1.54-.41,3.72,3.72,0,0,0,1.17-1.13,5.64,5.64,0,0,0,.75-1.67,7.65,7.65,0,0,0,.26-2v0a7.49,7.49,0,0,0-.27-2.06,5.86,5.86,0,0,0-.76-1.68,3.78,3.78,0,0,0-1.18-1.14,3.07,3.07,0,0,0-3.09,0,3.71,3.71,0,0,0-1.18,1.12,5.48,5.48,0,0,0-.75,1.67,7.72,7.72,0,0,0-.26,2.05v0a7.73,7.73,0,0,0,.26,2.06,5.47,5.47,0,0,0,.76,1.68,3.89,3.89,0,0,0,1.19,1.14A2.93,2.93,0,0,0,489.35,39.11Z" transform="translate(-23.45 -26.21)"/><path class="cls-3" d="M500.56,29l-2.65.73-.55-2.1,4-1.26h1.82v14.8h-2.58Z" transform="translate(-23.45 -26.21)"/></svg>