<svg id="Layer_1" data-name="Layer 1" xmlns="http://www.w3.org/2000/svg" viewBox="0 0 578.98 491.09"><defs><style>.cls-1{fill:none;stroke:#010101;stroke-miterlimit:10;}.cls-2{fill:#010101;}.cls-3{fill:#333;}</style></defs><title>dimensional_307</title><path d="M32.17,149.29c-7.2-2-9.06-4.12-8.67-8.85.31-3.77,4.42-7.46,9.08-7.63,6-.22,12,0,18-.11,5.29-.12,10.62,5.9,12.15,12.13,1.74,7.09,2.43,14.43,4.21,21.51.64,2.53,2.79,6,4.88,6.52,2.46.62,6.67-.62,8.25-2.57,3.22-4,6.87-4.29,11.35-4.29q218.2.11,436.41,0c3.71,0,6.38.74,9.11,3.66a12.76,12.76,0,0,0,8.62,3.44c3.88,0,4.92-3.78,5.5-7.25,1-6.07,2.12-12.13,3.27-18.18,2.09-11,6.95-15,18.26-14.95,4,0,8.19-.72,11.94.23a18.24,18.24,0,0,1,9.28,5.63c3,3.7-.61,8.55-8.57,10.81.87-2.11,1.12-3.64,2-4.63,3.24-3.71,2.6-7.21-2.24-7.82a65.87,65.87,0,0,0-17.35-.07c-4.92.69-8.09,4.52-8.93,9.63-1.19,7.21-2.38,14.44-3.18,21.7-.82,7.42-12.24,12.56-18.29,7.2-4.78-4.24-9.65-4.21-15.09-4.21q-215.45,0-430.91,0c-3.67,0-6.6.5-9.32,3.38a10,10,0,0,1-12,2.15c-4-1.91-7.33-4.45-7.72-9.91a151.18,151.18,0,0,0-3.41-20.67c-1.35-6.28-5.82-9.66-12.1-9.76-4.16-.06-8.38-.34-12.47.22a8.64,8.64,0,0,0-5.38,3.58c-.54.83,1.37,3.19,2,4.9C31.37,146.21,31.64,147.47,32.17,149.29Z" transform="translate(-23.45 -26.21)"/><path d="M579.31,315.88c-143.64,0-103.77,0-247.4-.08-3.67,0-6.6.5-9.32,3.38a10,10,0,0,1-12,2.15c-4-1.91-7.33-4.45-7.72-9.91a151.18,151.18,0,0,0-3.41-20.67c-1.35-6.28-5.82-9.66-12.1-9.76-4.16-.06-8.38-.34-12.47.22a8.64,8.64,0,0,0-5.38,3.58c-.54.83,1.37,3.19,2,4.9.47,1.18.74,2.44,1.27,4.26-7.2-2-9.06-4.12-8.67-8.85.31-3.77,4.42-7.46,9.08-7.63,6-.22,12,0,18-.11,5.29-.12,10.62,5.9,12.15,12.13,1.74,7.09,2.43,14.43,4.21,21.51.64,2.53,2.79,6,4.88,6.52,2.46.62,6.67-.62,8.25-2.57,3.22-4,6.87-4.29,11.35-4.29,145.39.07,101.79.07,247.17,0Z" transform="translate(-23.45 -26.21)"/><path d="M42.45,462.88c143.64,0,62.77,0,206.4-.08,3.67,0,6.6.5,9.32,3.38a10,10,0,0,0,12,2.15c4-1.91,7.33-4.45,7.72-9.91a151.18,151.18,0,0,1,3.41-20.67c1.35-6.28,5.82-9.66,12.1-9.76,4.16-.06,8.38-.34,12.47.22a8.64,8.64,0,0,1,5.38,3.58c.54.83-1.37,3.19-2,4.9-.47,1.18-.74,2.44-1.27,4.26,7.2-2,9.06-4.12,8.67-8.85-.31-3.77-4.42-7.46-9.08-7.63-6-.22-12,0-18-.11-5.29-.12-10.62,5.9-12.15,12.13-1.74,7.09-2.43,14.43-4.21,21.51-.64,2.53-2.79,6-4.88,6.52-2.46.62-6.67-.62-8.25-2.57-3.22-4-6.87-4.29-11.35-4.29-145.39.07-60.79.07-206.17,0Z" transform="translate(-23.45 -26.21)"/><line class="cls-1" x1="1.55" y1="59.95" x2="1.55" y2="123.95"/><line class="cls-1" x1="40.67" y1="82.95" x2="40.67" y2="188.32"/><line class="cls-1" x1="248" y1="267.95" x2="248" y2="342.32"/><line class="cls-1" x1="281.34" y1="222.95" x2="281.34" y2="342.32"/><line class="cls-1" x1="189.82" y1="267.95" x2="248.19" y2="267.95"/><line class="cls-1" x1="189.82" y1="249.28" x2="298.19" y2="249.28"/><line class="cls-1" x1="247.15" y1="397.61" x2="349.53" y2="397.61"/><line class="cls-1" x1="224.65" y1="439.11" x2="348.03" y2="439.11"/><line class="cls-1" x1="55.65" y1="445.11" x2="179.03" y2="445.11"/><line class="cls-1" x1="532.67" y1="82.95" x2="532.67" y2="188.32"/><polyline class="cls-1" points="46.36 102.63 532.36 102.63 46.36 102.63"/><polygon class="cls-2" points="47.55 104.38 41.05 102.63 47.55 100.89 47.55 104.38"/><polygon class="cls-2" points="47.55 100.89 41.05 102.63 47.55 104.38 47.55 100.89"/><polyline class="cls-1" points="46.36 174.63 532.36 174.63 46.36 174.63"/><polygon class="cls-2" points="47.55 176.38 41.05 174.63 47.55 172.89 47.55 176.38"/><polygon class="cls-2" points="47.55 172.89 41.05 174.63 47.55 176.38 47.55 172.89"/><polyline class="cls-1" points="203.7 243.64 203.7 225.64 203.7 243.64"/><polygon class="cls-2" points="205.45 242.45 203.7 248.96 201.96 242.45 205.45 242.45"/><polygon class="cls-2" points="201.96 242.45 203.7 248.96 205.45 242.45 201.96 242.45"/><path class="cls-1" d="M227.16,306.75v0Z" transform="translate(-23.45 -26.21)"/><polyline class="cls-1" points="203.7 275.96 203.7 293.96 203.7 275.96"/><polygon class="cls-2" points="201.96 277.15 203.7 270.64 205.45 277.15 201.96 277.15"/><polygon class="cls-2" points="205.45 277.15 203.7 270.64 201.96 277.15 205.45 277.15"/><polyline class="cls-1" points="336.37 389.97 336.37 371.98 336.37 389.97"/><polygon class="cls-2" points="338.11 388.79 336.37 395.29 334.63 388.79 338.11 388.79"/><polygon class="cls-2" points="334.63 388.79 336.37 395.29 338.11 388.79 334.63 388.79"/><path class="cls-1" d="M359.82,471.09v0Z" transform="translate(-23.45 -26.21)"/><polyline class="cls-1" points="336.37 450.29 336.37 468.29 336.37 450.29"/><polygon class="cls-2" points="334.63 451.48 336.37 444.98 338.11 451.48 334.63 451.48"/><polygon class="cls-2" points="338.11 451.48 336.37 444.98 334.63 451.48 338.11 451.48"/><polyline class="cls-1" points="93.37 426.97 93.37 408.98 93.37 426.97"/><polygon class="cls-2" points="95.11 425.79 93.37 432.29 91.63 425.79 95.11 425.79"/><polygon class="cls-2" points="91.63 425.79 93.37 432.29 95.11 425.79 91.63 425.79"/><path class="cls-1" d="M116.82,471.09v0Z" transform="translate(-23.45 -26.21)"/><polyline class="cls-1" points="93.37 450.29 93.37 468.29 93.37 450.29"/><polygon class="cls-2" points="91.63 451.48 93.37 444.98 95.11 451.48 91.63 451.48"/><polygon class="cls-2" points="95.11 451.48 93.37 444.98 91.63 451.48 95.11 451.48"/><polyline class="cls-1" points="287.7 332.63 305.69 332.63 287.7 332.63"/><polygon class="cls-2" points="288.88 334.38 282.38 332.63 288.88 330.89 288.88 334.38"/><polygon class="cls-2" points="288.88 330.89 282.38 332.63 288.88 334.38 288.88 330.89"/><polyline class="cls-1" points="240.71 332.63 222.71 332.63 240.71 332.63"/><polygon class="cls-2" points="239.52 330.89 246.03 332.63 239.52 334.38 239.52 330.89"/><polygon class="cls-2" points="239.52 334.38 246.03 332.63 239.52 330.89 239.52 334.38"/><path class="cls-1" d="M309.15,358.85h0Z" transform="translate(-23.45 -26.21)"/><line class="cls-1" x1="7.36" y1="72.97" x2="566.56" y2="72.97"/><polygon class="cls-2" points="8.55 74.71 2.05 72.97 8.55 71.22 8.55 74.71"/><polygon class="cls-2" points="565.38 74.71 571.88 72.97 565.38 71.22 565.38 74.71"/><line class="cls-1" x1="572.55" y1="59.95" x2="572.55" y2="123.95"/><path class="cls-3" d="M381.32,449.49v0a4.23,4.23,0,0,1,4.25-4.34,4.34,4.34,0,0,1,3,1.09.52.52,0,0,1,.19.38.49.49,0,0,1-.48.47A.57.57,0,0,1,388,447a3.43,3.43,0,0,0-2.41-1,3.29,3.29,0,0,0-3.25,3.44v0a3.31,3.31,0,0,0,3.25,3.47,3.44,3.44,0,0,0,2.5-1,.43.43,0,0,1,.3-.13.47.47,0,0,1,.46.46.45.45,0,0,1-.16.33,4.3,4.3,0,0,1-3.12,1.24A4.19,4.19,0,0,1,381.32,449.49Z" transform="translate(-23.45 -26.21)"/><path class="cls-3" d="M389.93,449.49v0a4.28,4.28,0,1,1,8.56,0v0a4.28,4.28,0,1,1-8.56,0Zm7.58,0v0A3.34,3.34,0,0,0,394.2,446a3.3,3.3,0,0,0-3.29,3.44v0a3.34,3.34,0,0,0,3.31,3.47A3.3,3.3,0,0,0,397.51,449.49Z" transform="translate(-23.45 -26.21)"/><path class="cls-3" d="M400.37,450.15v-4.46a.47.47,0,1,1,.95,0v4.4c0,1.81,1,2.83,2.57,2.83s2.53-.94,2.53-2.77v-4.46a.47.47,0,1,1,.95,0v4.39c0,2.45-1.4,3.72-3.5,3.72A3.29,3.29,0,0,1,400.37,450.15Z" transform="translate(-23.45 -26.21)"/><path class="cls-3" d="M409.61,445.7a.48.48,0,0,1,.47-.47h.13a.58.58,0,0,1,.48.28l5.1,6.5v-6.33a.46.46,0,1,1,.92,0v7.58a.43.43,0,0,1-.43.44h0a.65.65,0,0,1-.49-.29l-5.21-6.66v6.5a.46.46,0,1,1-.92,0Z" transform="translate(-23.45 -26.21)"/><path class="cls-3" d="M421.31,446.14h-2.43a.44.44,0,0,1-.44-.43.45.45,0,0,1,.44-.44h5.83a.45.45,0,0,1,.44.44.44.44,0,0,1-.44.43h-2.43v7.1a.48.48,0,1,1-1,0Z" transform="translate(-23.45 -26.21)"/><path class="cls-3" d="M426.87,453.18v-7.44a.48.48,0,0,1,.47-.48h5.22a.43.43,0,1,1,0,.86h-4.74V449H432a.44.44,0,0,1,.43.43.43.43,0,0,1-.43.43h-4.2v2.94h4.8a.43.43,0,1,1,0,.86h-5.28A.48.48,0,0,1,426.87,453.18Z" transform="translate(-23.45 -26.21)"/><path class="cls-3" d="M434.91,445.74a.48.48,0,0,1,.47-.48h3.14a3.31,3.31,0,0,1,2.39.84,2.32,2.32,0,0,1,.65,1.66v0a2.44,2.44,0,0,1-2.24,2.43l2.09,2.69a.52.52,0,0,1,.16.35.5.5,0,0,1-.48.47.55.55,0,0,1-.44-.25l-2.36-3.07h-2.41v2.84a.47.47,0,1,1-.95,0Zm3.53,3.8c1.26,0,2.16-.65,2.16-1.73v0c0-1-.79-1.65-2.15-1.65h-2.59v3.41Z" transform="translate(-23.45 -26.21)"/><path class="cls-3" d="M446.88,452.65a.42.42,0,0,1-.18-.36.46.46,0,0,1,.46-.47.42.42,0,0,1,.29.11,3.82,3.82,0,0,0,2.65,1c1.13,0,1.87-.6,1.87-1.43v0c0-.78-.42-1.22-2.18-1.6-1.93-.42-2.82-1-2.82-2.42v0a2.48,2.48,0,0,1,2.76-2.29,4.28,4.28,0,0,1,2.67.83.49.49,0,0,1,.2.38.46.46,0,0,1-.46.46.44.44,0,0,1-.28-.08,3.51,3.51,0,0,0-2.17-.73c-1.09,0-1.79.6-1.79,1.36v0c0,.79.43,1.24,2.28,1.63s2.74,1.09,2.74,2.38v0c0,1.44-1.2,2.38-2.87,2.38A4.9,4.9,0,0,1,446.88,452.65Z" transform="translate(-23.45 -26.21)"/><path class="cls-3" d="M454.95,445.68a.47.47,0,1,1,.95,0v7.56a.47.47,0,1,1-.95,0Z" transform="translate(-23.45 -26.21)"/><path class="cls-3" d="M458.35,445.7a.48.48,0,0,1,.47-.47H459a.58.58,0,0,1,.48.28l5.1,6.5v-6.33a.46.46,0,1,1,.92,0v7.58a.43.43,0,0,1-.43.44h0a.65.65,0,0,1-.49-.29l-5.21-6.66v6.5a.46.46,0,1,1-.92,0Z" transform="translate(-23.45 -26.21)"/><path class="cls-3" d="M467.83,445.68a.47.47,0,1,1,.95,0v4.59l4.79-4.91a.54.54,0,0,1,.37-.17.46.46,0,0,1,.3.8l-3,3,3.19,3.93a.52.52,0,0,1,.13.35.49.49,0,0,1-.48.48.45.45,0,0,1-.38-.22l-3.13-3.9-1.81,1.81v1.82a.47.47,0,1,1-.95,0Z" transform="translate(-23.45 -26.21)"/><path class="cls-3" d="M480,445.74a.48.48,0,0,1,.47-.48h2.45a4.19,4.19,0,0,1,4.46,4.17v0a4.2,4.2,0,0,1-4.46,4.2h-2.45a.48.48,0,0,1-.47-.48Zm2.91,7a3.25,3.25,0,0,0,3.48-3.3v0a3.27,3.27,0,0,0-3.48-3.32h-2v6.64Z" transform="translate(-23.45 -26.21)"/><path class="cls-3" d="M489.38,453.18v-7.44a.48.48,0,0,1,.47-.48h5.22a.43.43,0,1,1,0,.86h-4.74V449h4.2a.44.44,0,0,1,.43.43.43.43,0,0,1-.43.43h-4.2v2.94h4.8a.43.43,0,0,1,0,.86h-5.28A.48.48,0,0,1,489.38,453.18Z" transform="translate(-23.45 -26.21)"/><path class="cls-3" d="M497.42,445.74a.48.48,0,0,1,.47-.48h2.67c1.89,0,3.14,1,3.14,2.66v0c0,1.81-1.51,2.75-3.3,2.75h-2v2.54a.47.47,0,1,1-.95,0Zm3,4.09c1.39,0,2.3-.74,2.3-1.85v0c0-1.2-.9-1.82-2.25-1.82h-2.12v3.69Z" transform="translate(-23.45 -26.21)"/><path class="cls-3" d="M507.66,446.14h-2.43a.44.44,0,0,1-.44-.43.45.45,0,0,1,.44-.44h5.83a.45.45,0,0,1,.44.44.44.44,0,0,1-.44.43h-2.43v7.1a.48.48,0,1,1-1,0Z" transform="translate(-23.45 -26.21)"/><path class="cls-3" d="M513.22,445.68a.47.47,0,1,1,.95,0V449H519v-3.31a.47.47,0,1,1,.95,0v7.56a.47.47,0,1,1-.95,0v-3.36h-4.85v3.36a.47.47,0,1,1-.95,0Z" transform="translate(-23.45 -26.21)"/><path class="cls-3" d="M528.72,455.25a5.6,5.6,0,0,1,0-10.07.41.41,0,0,1,.22,0,.37.37,0,0,1,.36.36.36.36,0,0,1-.18.32,5,5,0,0,0,0,8.8.36.36,0,0,1,.18.32.37.37,0,0,1-.36.36A.4.4,0,0,1,528.72,455.25Z" transform="translate(-23.45 -26.21)"/><path class="cls-3" d="M531,447.87a.47.47,0,0,1,.46-.47.46.46,0,0,1,.47.47v.64a2.26,2.26,0,0,1,2-1.17,2.1,2.1,0,0,1,2,1.23,2.47,2.47,0,0,1,2.18-1.23,2.23,2.23,0,0,1,2.3,2.49v3.43a.46.46,0,1,1-.92,0V450c0-1.2-.6-1.87-1.61-1.87a1.73,1.73,0,0,0-1.7,1.92v3.17a.46.46,0,1,1-.92,0V450c0-1.16-.61-1.85-1.6-1.85a1.8,1.8,0,0,0-1.73,2v3.13a.45.45,0,0,1-.46.47.46.46,0,0,1-.47-.47Z" transform="translate(-23.45 -26.21)"/><path class="cls-3" d="M542.4,447.87a.47.47,0,0,1,.46-.47.46.46,0,0,1,.47.47v.64a2.26,2.26,0,0,1,2-1.17,2.1,2.1,0,0,1,2,1.23,2.47,2.47,0,0,1,2.18-1.23,2.23,2.23,0,0,1,2.3,2.49v3.43a.46.46,0,1,1-.92,0V450c0-1.2-.6-1.87-1.61-1.87a1.73,1.73,0,0,0-1.7,1.92v3.17a.46.46,0,1,1-.92,0V450c0-1.16-.61-1.85-1.6-1.85a1.8,1.8,0,0,0-1.73,2v3.13a.45.45,0,0,1-.46.47.46.46,0,0,1-.47-.47Z" transform="translate(-23.45 -26.21)"/><path class="cls-3" d="M553.44,454.94a.36.36,0,0,1,.18-.32,5,5,0,0,0,0-8.8.36.36,0,0,1-.18-.32.37.37,0,0,1,.36-.36.41.41,0,0,1,.22,0,5.6,5.6,0,0,1,0,10.07.4.4,0,0,1-.22,0A.37.37,0,0,1,553.44,454.94Z" transform="translate(-23.45 -26.21)"/><path class="cls-3" d="M562.5,452.71a.47.47,0,0,1-.19-.4.46.46,0,0,1,.46-.44.51.51,0,0,1,.32.12,3.21,3.21,0,0,0,2.16.95,1.87,1.87,0,0,0,2-1.86v0a1.85,1.85,0,0,0-2.09-1.76,5.18,5.18,0,0,0-1.7.41.85.85,0,0,1-.48-.18.56.56,0,0,1-.2-.52l.19-3.29a.45.45,0,0,1,.46-.46h4a.44.44,0,0,1,0,.88h-3.62l-.18,2.69a3.78,3.78,0,0,1,1.65-.37,2.62,2.62,0,0,1,2.9,2.57v0a2.77,2.77,0,0,1-3,2.76A4.15,4.15,0,0,1,562.5,452.71Z" transform="translate(-23.45 -26.21)"/><path class="cls-3" d="M572.24,449.29h-2a.42.42,0,1,1,0-.84h2v-2a.44.44,0,1,1,.88,0v2h2a.42.42,0,0,1,0,.84h-2v2a.44.44,0,1,1-.87,0Zm-2.45,3.95a.42.42,0,0,1,.42-.41h4.94a.41.41,0,0,1,0,.83h-4.94A.43.43,0,0,1,569.79,453.24Z" transform="translate(-23.45 -26.21)"/><path class="cls-3" d="M577.17,449.49v0c0-2.35,1.4-4.34,3.56-4.34s3.53,2,3.53,4.32v0c0,2.35-1.39,4.34-3.55,4.34S577.17,451.84,577.17,449.49Zm6.11,0v0c0-1.83-1-3.48-2.57-3.48s-2.55,1.61-2.55,3.45v0c0,1.83,1,3.48,2.58,3.48S583.28,451.32,583.28,449.49Z" transform="translate(-23.45 -26.21)"/><path class="cls-3" d="M586.25,452.34a.55.55,0,0,1,.56.56v.24a.57.57,0,1,1-1.14,0v-.24A.55.55,0,0,1,586.25,452.34Z" transform="translate(-23.45 -26.21)"/><path class="cls-3" d="M588.21,449.49v0c0-2.35,1.4-4.34,3.56-4.34s3.53,2,3.53,4.32v0c0,2.35-1.39,4.34-3.55,4.34S588.21,451.84,588.21,449.49Zm6.11,0v0c0-1.83-1-3.48-2.57-3.48s-2.55,1.61-2.55,3.45v0c0,1.83,1,3.48,2.58,3.48S594.32,451.32,594.32,449.49Z" transform="translate(-23.45 -26.21)"/><path class="cls-3" d="M596.69,452.77l2.87-2.53c1.29-1.15,1.75-1.8,1.75-2.64a1.6,1.6,0,0,0-1.69-1.61,2.51,2.51,0,0,0-2.09,1.22.43.43,0,0,1-.35.17.43.43,0,0,1-.43-.43.42.42,0,0,1,.1-.26,3.18,3.18,0,0,1,2.84-1.55,2.42,2.42,0,0,1,2.6,2.38v0c0,1.22-.65,2-2.12,3.26l-2.24,2H602a.43.43,0,1,1,0,.86h-5a.45.45,0,0,1-.48-.44A.55.55,0,0,1,596.69,452.77Z" transform="translate(-23.45 -26.21)"/><path class="cls-3" d="M335.32,358v0a4.23,4.23,0,0,1,4.25-4.34,4.34,4.34,0,0,1,3,1.09.52.52,0,0,1,.19.38.49.49,0,0,1-.48.47.57.57,0,0,1-.31-.11,3.43,3.43,0,0,0-2.41-1,3.29,3.29,0,0,0-3.25,3.44v0a3.31,3.31,0,0,0,3.25,3.47,3.44,3.44,0,0,0,2.5-1,.43.43,0,0,1,.3-.13.47.47,0,0,1,.46.46.45.45,0,0,1-.16.33,4.3,4.3,0,0,1-3.12,1.24A4.19,4.19,0,0,1,335.32,358Z" transform="translate(-23.45 -26.21)"/><path class="cls-3" d="M344.41,358.65v-4.46a.47.47,0,1,1,.95,0v4.4c0,1.81,1,2.83,2.57,2.83s2.53-.94,2.53-2.77v-4.46a.47.47,0,1,1,.95,0v4.39c0,2.45-1.4,3.72-3.5,3.72A3.29,3.29,0,0,1,344.41,358.65Z" transform="translate(-23.45 -26.21)"/><path class="cls-3" d="M353.65,354.24a.48.48,0,0,1,.47-.48h3.14a3.31,3.31,0,0,1,2.39.84,2.32,2.32,0,0,1,.65,1.66v0a2.44,2.44,0,0,1-2.24,2.43l2.09,2.69a.52.52,0,0,1,.16.35.5.5,0,0,1-.48.47.55.55,0,0,1-.44-.25L357,358.9H354.6v2.84a.47.47,0,1,1-.95,0Zm3.53,3.8c1.26,0,2.16-.65,2.16-1.73v0c0-1-.79-1.65-2.15-1.65H354.6V358Z" transform="translate(-23.45 -26.21)"/><path class="cls-3" d="M362.33,354.18a.47.47,0,1,1,.95,0v7.1h4.35a.44.44,0,0,1,.43.44.43.43,0,0,1-.43.43h-4.83a.48.48,0,0,1-.47-.48Z" transform="translate(-23.45 -26.21)"/><path class="cls-3" d="M373,358v0a4.28,4.28,0,1,1,8.56,0v0a4.28,4.28,0,1,1-8.56,0Zm7.58,0v0a3.34,3.34,0,0,0-3.31-3.47,3.3,3.3,0,0,0-3.29,3.44v0a3.34,3.34,0,0,0,3.31,3.47A3.3,3.3,0,0,0,380.56,358Z" transform="translate(-23.45 -26.21)"/><path class="cls-3" d="M383.55,354.24a.48.48,0,0,1,.47-.48h2.67c1.89,0,3.14,1,3.14,2.66v0c0,1.81-1.51,2.75-3.3,2.75h-2v2.54a.47.47,0,1,1-.95,0Zm3,4.09c1.39,0,2.3-.74,2.3-1.85v0c0-1.2-.9-1.82-2.25-1.82H384.5v3.69Z" transform="translate(-23.45 -26.21)"/><path class="cls-3" d="M391.57,361.68v-7.44a.48.48,0,0,1,.47-.48h5.22a.43.43,0,1,1,0,.86h-4.74v2.87h4.2a.44.44,0,0,1,.43.43.43.43,0,0,1-.43.43h-4.2v2.94h4.8a.43.43,0,1,1,0,.86H392A.48.48,0,0,1,391.57,361.68Z" transform="translate(-23.45 -26.21)"/><path class="cls-3" d="M399.61,354.2a.48.48,0,0,1,.47-.47h.13a.58.58,0,0,1,.48.28l5.1,6.5v-6.33a.46.46,0,1,1,.92,0v7.58a.43.43,0,0,1-.43.44h0a.65.65,0,0,1-.49-.29l-5.21-6.66v6.5a.46.46,0,1,1-.92,0Z" transform="translate(-23.45 -26.21)"/><path class="cls-3" d="M409.17,354.18a.47.47,0,1,1,.95,0v7.56a.47.47,0,1,1-.95,0Z" transform="translate(-23.45 -26.21)"/><path class="cls-3" d="M412.58,354.2a.48.48,0,0,1,.47-.47h.13a.58.58,0,0,1,.48.28l5.1,6.5v-6.33a.46.46,0,1,1,.92,0v7.58a.43.43,0,0,1-.43.44h0a.65.65,0,0,1-.49-.29l-5.21-6.66v6.5a.46.46,0,1,1-.92,0Z" transform="translate(-23.45 -26.21)"/><path class="cls-3" d="M421.69,358v0a4.21,4.21,0,0,1,4.21-4.34,4.47,4.47,0,0,1,2.87.9.48.48,0,0,1-.28.86.5.5,0,0,1-.3-.12,3.56,3.56,0,0,0-2.33-.77,3.28,3.28,0,0,0-3.19,3.44v0a3.24,3.24,0,0,0,3.32,3.49,4,4,0,0,0,2.42-.84v-2.09h-2.25a.43.43,0,0,1,0-.85h2.7a.48.48,0,0,1,.47.48v2.55a.68.68,0,0,1-.32.58,5.11,5.11,0,0,1-3,1A4.12,4.12,0,0,1,421.69,358Z" transform="translate(-23.45 -26.21)"/><path class="cls-3" d="M437.85,363.75a5.6,5.6,0,0,1,0-10.07.41.41,0,0,1,.22,0,.37.37,0,0,1,.36.36.36.36,0,0,1-.18.32,5,5,0,0,0,0,8.8.36.36,0,0,1,.18.32.37.37,0,0,1-.36.36A.4.4,0,0,1,437.85,363.75Z" transform="translate(-23.45 -26.21)"/><path class="cls-3" d="M440.12,356.37a.47.47,0,0,1,.46-.47.46.46,0,0,1,.47.47V357a2.26,2.26,0,0,1,2-1.17,2.1,2.1,0,0,1,2,1.23,2.47,2.47,0,0,1,2.18-1.23,2.23,2.23,0,0,1,2.3,2.49v3.43a.46.46,0,1,1-.92,0v-3.21c0-1.2-.6-1.87-1.61-1.87a1.73,1.73,0,0,0-1.7,1.92v3.17a.46.46,0,1,1-.92,0v-3.24c0-1.16-.61-1.85-1.6-1.85a1.8,1.8,0,0,0-1.73,2v3.13a.45.45,0,0,1-.46.47.46.46,0,0,1-.47-.47Z" transform="translate(-23.45 -26.21)"/><path class="cls-3" d="M451.53,356.37a.47.47,0,0,1,.46-.47.46.46,0,0,1,.47.47V357a2.26,2.26,0,0,1,2-1.17,2.1,2.1,0,0,1,2,1.23,2.47,2.47,0,0,1,2.18-1.23,2.23,2.23,0,0,1,2.3,2.49v3.43a.46.46,0,1,1-.92,0v-3.21c0-1.2-.6-1.87-1.61-1.87a1.73,1.73,0,0,0-1.7,1.92v3.17a.46.46,0,1,1-.92,0v-3.24c0-1.16-.61-1.85-1.6-1.85a1.8,1.8,0,0,0-1.73,2v3.13a.45.45,0,0,1-.46.47.46.46,0,0,1-.47-.47Z" transform="translate(-23.45 -26.21)"/><path class="cls-3" d="M462.57,363.44a.36.36,0,0,1,.18-.32,5,5,0,0,0,0-8.8.36.36,0,0,1-.18-.32.37.37,0,0,1,.36-.36.41.41,0,0,1,.22,0,5.6,5.6,0,0,1,0,10.07.4.4,0,0,1-.22,0A.37.37,0,0,1,462.57,363.44Z" transform="translate(-23.45 -26.21)"/><path class="cls-3" d="M471.51,361v-.8l4.58-1.85v0l-4.58-1.86v-.79l5.56,2.3v.71Zm0,1.19v-.7h5.54v.7Z" transform="translate(-23.45 -26.21)"/><path class="cls-3" d="M478.68,361a.52.52,0,0,1-.16-.34.48.48,0,0,1,.47-.47.49.49,0,0,1,.35.14,2.88,2.88,0,0,0,2.28,1.07,1.69,1.69,0,0,0,1.83-1.63v0c0-1-1-1.62-2.35-1.62h-.3a.41.41,0,0,1-.42-.41.53.53,0,0,1,.19-.37l2.45-2.77H479.3a.43.43,0,0,1-.44-.42.44.44,0,0,1,.44-.43h4.58a.42.42,0,0,1,.46.41.68.68,0,0,1-.23.47l-2.47,2.75c1.46.12,2.77.83,2.77,2.36v0a2.61,2.61,0,0,1-2.81,2.53A3.79,3.79,0,0,1,478.68,361Z" transform="translate(-23.45 -26.21)"/><path class="cls-3" d="M486.71,360.84a.55.55,0,0,1,.56.56v.24a.57.57,0,1,1-1.14,0v-.24A.55.55,0,0,1,486.71,360.84Z" transform="translate(-23.45 -26.21)"/><path class="cls-3" d="M489.08,361.21a.47.47,0,0,1-.19-.4.46.46,0,0,1,.46-.44.51.51,0,0,1,.32.12,3.21,3.21,0,0,0,2.16.95,1.87,1.87,0,0,0,2-1.86v0a1.85,1.85,0,0,0-2.09-1.76,5.18,5.18,0,0,0-1.7.41.85.85,0,0,1-.48-.18.56.56,0,0,1-.2-.52l.19-3.29a.45.45,0,0,1,.46-.46h4a.44.44,0,0,1,0,.88h-3.62l-.18,2.69a3.78,3.78,0,0,1,1.65-.37,2.62,2.62,0,0,1,2.9,2.57v0a2.77,2.77,0,0,1-3,2.76A4.15,4.15,0,0,1,489.08,361.21Z" transform="translate(-23.45 -26.21)"/><path class="cls-3" d="M43.23,284.49v0a4.23,4.23,0,0,1,4.25-4.34,4.34,4.34,0,0,1,3,1.09.52.52,0,0,1,.19.38.49.49,0,0,1-.48.47.57.57,0,0,1-.31-.11,3.44,3.44,0,0,0-2.41-1,3.29,3.29,0,0,0-3.25,3.44v0a3.31,3.31,0,0,0,3.25,3.47,3.44,3.44,0,0,0,2.49-1,.43.43,0,0,1,.3-.13.47.47,0,0,1,.46.46.45.45,0,0,1-.16.33,4.3,4.3,0,0,1-3.12,1.24A4.19,4.19,0,0,1,43.23,284.49Z" transform="translate(-23.45 -26.21)"/><path class="cls-3" d="M52.33,285.15v-4.46a.47.47,0,1,1,.95,0v4.4c0,1.81,1,2.83,2.57,2.83s2.53-.94,2.53-2.77v-4.46a.47.47,0,1,1,.95,0v4.39c0,2.45-1.4,3.72-3.5,3.72A3.29,3.29,0,0,1,52.33,285.15Z" transform="translate(-23.45 -26.21)"/><path class="cls-3" d="M61.57,280.74a.48.48,0,0,1,.47-.48h3.14a3.31,3.31,0,0,1,2.39.84,2.32,2.32,0,0,1,.65,1.66v0A2.44,2.44,0,0,1,66,285.22l2.09,2.69a.52.52,0,0,1,.16.35.5.5,0,0,1-.48.47.55.55,0,0,1-.44-.25l-2.36-3.07H62.51v2.84a.47.47,0,1,1-.95,0Zm3.53,3.8c1.26,0,2.16-.65,2.16-1.73v0c0-1-.79-1.65-2.15-1.65H62.51v3.41Z" transform="translate(-23.45 -26.21)"/><path class="cls-3" d="M70.24,280.68a.47.47,0,1,1,.95,0v7.1h4.35a.44.44,0,0,1,.43.44.43.43,0,0,1-.43.43H70.71a.48.48,0,0,1-.47-.48Z" transform="translate(-23.45 -26.21)"/><path class="cls-3" d="M81.27,280.68a.47.47,0,1,1,.95,0V284h4.85v-3.31a.47.47,0,1,1,.95,0v7.56a.47.47,0,1,1-.95,0v-3.36H82.22v3.36a.47.47,0,1,1-.95,0Z" transform="translate(-23.45 -26.21)"/><path class="cls-3" d="M90.39,288.18v-7.44a.48.48,0,0,1,.47-.48h5.22a.43.43,0,1,1,0,.86H91.34V284h4.2a.44.44,0,0,1,.43.43.43.43,0,0,1-.43.43h-4.2v2.94h4.8a.43.43,0,0,1,0,.86H90.86A.48.48,0,0,1,90.39,288.18Z" transform="translate(-23.45 -26.21)"/><path class="cls-3" d="M98.51,280.68a.47.47,0,1,1,.95,0v7.56a.47.47,0,1,1-.95,0Z" transform="translate(-23.45 -26.21)"/><path class="cls-3" d="M101.55,284.49v0a4.21,4.21,0,0,1,4.21-4.34,4.47,4.47,0,0,1,2.87.9.48.48,0,0,1-.28.86.5.5,0,0,1-.3-.12,3.56,3.56,0,0,0-2.33-.77,3.28,3.28,0,0,0-3.19,3.44v0a3.24,3.24,0,0,0,3.32,3.49,4,4,0,0,0,2.42-.84V285H106a.43.43,0,0,1,0-.85h2.7a.48.48,0,0,1,.47.48v2.55a.68.68,0,0,1-.32.58,5.11,5.11,0,0,1-3,1A4.12,4.12,0,0,1,101.55,284.49Z" transform="translate(-23.45 -26.21)"/><path class="cls-3" d="M111.33,280.68a.47.47,0,1,1,.95,0V284h4.85v-3.31a.47.47,0,1,1,.95,0v7.56a.47.47,0,1,1-.95,0v-3.36h-4.85v3.36a.47.47,0,1,1-.95,0Z" transform="translate(-23.45 -26.21)"/><path class="cls-3" d="M122.67,281.14h-2.43a.44.44,0,0,1-.44-.43.45.45,0,0,1,.44-.44h5.83a.45.45,0,0,1,.44.44.44.44,0,0,1-.44.43h-2.43v7.1a.48.48,0,0,1-1,0Z" transform="translate(-23.45 -26.21)"/><path class="cls-3" d="M134.61,290.25a5.6,5.6,0,0,1,0-10.07.41.41,0,0,1,.22,0,.37.37,0,0,1,.36.36.36.36,0,0,1-.18.32,5,5,0,0,0,0,8.8.36.36,0,0,1,.18.32.37.37,0,0,1-.36.36A.4.4,0,0,1,134.61,290.25Z" transform="translate(-23.45 -26.21)"/><path class="cls-3" d="M136.88,282.87a.47.47,0,0,1,.46-.47.46.46,0,0,1,.47.47v.64a2.27,2.27,0,0,1,2-1.17,2.11,2.11,0,0,1,2,1.23,2.47,2.47,0,0,1,2.18-1.23,2.23,2.23,0,0,1,2.3,2.49v3.43a.46.46,0,1,1-.92,0V285c0-1.2-.6-1.87-1.61-1.87a1.73,1.73,0,0,0-1.7,1.92v3.17a.46.46,0,1,1-.92,0V285c0-1.16-.61-1.85-1.6-1.85a1.8,1.8,0,0,0-1.73,2v3.13a.45.45,0,0,1-.46.47.46.46,0,0,1-.47-.47Z" transform="translate(-23.45 -26.21)"/><path class="cls-3" d="M148.29,282.87a.47.47,0,0,1,.46-.47.46.46,0,0,1,.47.47v.64a2.27,2.27,0,0,1,2-1.17,2.11,2.11,0,0,1,2,1.23,2.47,2.47,0,0,1,2.18-1.23,2.23,2.23,0,0,1,2.3,2.49v3.43a.46.46,0,1,1-.92,0V285c0-1.2-.6-1.87-1.61-1.87a1.73,1.73,0,0,0-1.7,1.92v3.17a.46.46,0,1,1-.92,0V285c0-1.16-.61-1.85-1.6-1.85a1.8,1.8,0,0,0-1.73,2v3.13a.45.45,0,0,1-.46.47.46.46,0,0,1-.47-.47Z" transform="translate(-23.45 -26.21)"/><path class="cls-3" d="M159.33,289.94a.36.36,0,0,1,.18-.32,5,5,0,0,0,0-8.8.36.36,0,0,1-.18-.32.37.37,0,0,1,.36-.36.41.41,0,0,1,.22,0,5.6,5.6,0,0,1,0,10.07.4.4,0,0,1-.22,0A.37.37,0,0,1,159.33,289.94Z" transform="translate(-23.45 -26.21)"/><path class="cls-3" d="M168.23,287.77l2.87-2.53c1.3-1.15,1.75-1.8,1.75-2.64a1.6,1.6,0,0,0-1.69-1.61,2.5,2.5,0,0,0-2.09,1.22.44.44,0,0,1-.78-.26.42.42,0,0,1,.1-.26,3.18,3.18,0,0,1,2.84-1.55,2.42,2.42,0,0,1,2.6,2.38v0c0,1.22-.65,2-2.12,3.26l-2.24,2h4.07a.43.43,0,1,1,0,.86h-5a.44.44,0,0,1-.48-.44A.55.55,0,0,1,168.23,287.77Z" transform="translate(-23.45 -26.21)"/><path class="cls-3" d="M176.14,287.34a.55.55,0,0,1,.56.56v.24a.57.57,0,1,1-1.14,0v-.24A.55.55,0,0,1,176.14,287.34Z" transform="translate(-23.45 -26.21)"/><path class="cls-3" d="M178.11,284.49v0c0-2.35,1.4-4.34,3.56-4.34s3.53,2,3.53,4.32v0c0,2.35-1.39,4.34-3.55,4.34S178.11,286.84,178.11,284.49Zm6.11,0v0c0-1.83-1-3.48-2.57-3.48s-2.55,1.61-2.55,3.45v0c0,1.83,1,3.48,2.58,3.48S184.21,286.32,184.21,284.49Z" transform="translate(-23.45 -26.21)"/><path class="cls-3" d="M189.25,284.29h-2a.42.42,0,1,1,0-.84h2v-2a.44.44,0,1,1,.88,0v2h2a.42.42,0,1,1,0,.84h-2v2a.44.44,0,1,1-.87,0Zm-2.45,3.95a.42.42,0,0,1,.42-.41h4.94a.41.41,0,0,1,0,.83h-4.94A.43.43,0,0,1,186.81,288.24Z" transform="translate(-23.45 -26.21)"/><path class="cls-3" d="M194.19,284.49v0c0-2.35,1.4-4.34,3.56-4.34s3.53,2,3.53,4.32v0c0,2.35-1.39,4.34-3.55,4.34S194.19,286.84,194.19,284.49Zm6.11,0v0c0-1.83-1-3.48-2.57-3.48s-2.55,1.61-2.55,3.45v0c0,1.83,1,3.48,2.58,3.48S200.29,286.32,200.29,284.49Z" transform="translate(-23.45 -26.21)"/><path class="cls-3" d="M203.26,287.34a.55.55,0,0,1,.56.56v.24a.57.57,0,1,1-1.14,0v-.24A.55.55,0,0,1,203.26,287.34Z" transform="translate(-23.45 -26.21)"/><path class="cls-3" d="M206.27,281.15l-1.17.38a.66.66,0,0,1-.2,0,.41.41,0,0,1-.41-.41.43.43,0,0,1,.34-.41l1.38-.48a1.81,1.81,0,0,1,.52-.11h0a.46.46,0,0,1,.47.47v7.6a.47.47,0,0,1-.47.48.48.48,0,0,1-.47-.48Z" transform="translate(-23.45 -26.21)"/><path class="cls-3" d="M209.16,284.49v0c0-2.35,1.4-4.34,3.56-4.34s3.53,2,3.53,4.32v0c0,2.35-1.39,4.34-3.55,4.34S209.16,286.84,209.16,284.49Zm6.11,0v0c0-1.83-1-3.48-2.57-3.48s-2.55,1.61-2.55,3.45v0c0,1.83,1,3.48,2.58,3.48S215.27,286.32,215.27,284.49Z" transform="translate(-23.45 -26.21)"/><path class="cls-3" d="M196.29,183.18a.47.47,0,1,1,.95,0v7.56a.47.47,0,1,1-.95,0Z" transform="translate(-23.45 -26.21)"/><path class="cls-3" d="M199.7,183.2a.48.48,0,0,1,.47-.47h.13a.58.58,0,0,1,.48.28l5.1,6.5v-6.33a.46.46,0,1,1,.92,0v7.58a.43.43,0,0,1-.43.44h0a.65.65,0,0,1-.49-.29l-5.21-6.66v6.5a.46.46,0,1,1-.92,0Z" transform="translate(-23.45 -26.21)"/><path class="cls-3" d="M209.18,183.2a.48.48,0,0,1,.47-.47h.13a.58.58,0,0,1,.48.28l5.1,6.5v-6.33a.46.46,0,1,1,.92,0v7.58a.43.43,0,0,1-.43.44h0a.65.65,0,0,1-.49-.29l-5.21-6.66v6.5a.46.46,0,1,1-.92,0Z" transform="translate(-23.45 -26.21)"/><path class="cls-3" d="M218.66,190.68v-7.44a.48.48,0,0,1,.47-.48h5.22a.43.43,0,1,1,0,.86H219.6v2.87h4.2a.44.44,0,0,1,.43.43.43.43,0,0,1-.43.43h-4.2v2.94h4.8a.43.43,0,0,1,0,.86h-5.28A.48.48,0,0,1,218.66,190.68Z" transform="translate(-23.45 -26.21)"/><path class="cls-3" d="M226.7,183.24a.48.48,0,0,1,.47-.48h3.14a3.31,3.31,0,0,1,2.39.84,2.32,2.32,0,0,1,.65,1.66v0a2.44,2.44,0,0,1-2.24,2.43l2.09,2.69a.52.52,0,0,1,.16.35.5.5,0,0,1-.48.47.55.55,0,0,1-.44-.25l-2.36-3.07h-2.41v2.84a.47.47,0,1,1-.95,0Zm3.53,3.8c1.26,0,2.16-.65,2.16-1.73v0c0-1-.79-1.65-2.15-1.65h-2.59V187Z" transform="translate(-23.45 -26.21)"/><path class="cls-3" d="M239,183.24a.48.48,0,0,1,.47-.48h2.45a4.19,4.19,0,0,1,4.46,4.17v0a4.2,4.2,0,0,1-4.46,4.2h-2.45a.48.48,0,0,1-.47-.48Zm2.91,7a3.25,3.25,0,0,0,3.48-3.3v0a3.27,3.27,0,0,0-3.48-3.32h-2v6.64Z" transform="translate(-23.45 -26.21)"/><path class="cls-3" d="M248.44,183.18a.47.47,0,1,1,.95,0v7.56a.47.47,0,1,1-.95,0Z" transform="translate(-23.45 -26.21)"/><path class="cls-3" d="M251.33,190.54l3.41-7.45a.62.62,0,0,1,.6-.42h0a.6.6,0,0,1,.59.42l3.41,7.44a.64.64,0,0,1,.06.24.46.46,0,0,1-.46.46.52.52,0,0,1-.47-.35l-.88-1.93H253l-.88,2a.47.47,0,0,1-.46.32.43.43,0,0,1-.43-.43A.55.55,0,0,1,251.33,190.54Zm5.94-2.46-1.93-4.29-1.93,4.29Z" transform="translate(-23.45 -26.21)"/><path class="cls-3" d="M261.25,183.2a.48.48,0,0,1,.47-.47h.11a.52.52,0,0,1,.44.25l3,4.51,3-4.51a.51.51,0,0,1,.44-.25h.11a.48.48,0,0,1,.47.47v7.54a.48.48,0,0,1-.47.48.49.49,0,0,1-.48-.48v-6.26l-2.69,3.95a.46.46,0,0,1-.4.24.48.48,0,0,1-.41-.24l-2.67-3.93v6.26a.46.46,0,1,1-.92,0Z" transform="translate(-23.45 -26.21)"/><path class="cls-3" d="M271.67,190.68v-7.44a.48.48,0,0,1,.47-.48h5.22a.43.43,0,1,1,0,.86h-4.74v2.87h4.2a.44.44,0,0,1,.43.43.43.43,0,0,1-.43.43h-4.2v2.94h4.8a.43.43,0,1,1,0,.86h-5.28A.48.48,0,0,1,271.67,190.68Z" transform="translate(-23.45 -26.21)"/><path class="cls-3" d="M281.93,183.64H279.5a.44.44,0,0,1-.44-.43.45.45,0,0,1,.44-.44h5.83a.45.45,0,0,1,.44.44.44.44,0,0,1-.44.43h-2.43v7.1a.48.48,0,0,1-1,0Z" transform="translate(-23.45 -26.21)"/><path class="cls-3" d="M287.49,190.68v-7.44a.48.48,0,0,1,.47-.48h5.22a.43.43,0,1,1,0,.86h-4.74v2.87h4.2a.44.44,0,0,1,.43.43.43.43,0,0,1-.43.43h-4.2v2.94h4.8a.43.43,0,0,1,0,.86H288A.48.48,0,0,1,287.49,190.68Z" transform="translate(-23.45 -26.21)"/><path class="cls-3" d="M295.53,183.24a.48.48,0,0,1,.47-.48h3.14a3.31,3.31,0,0,1,2.39.84,2.32,2.32,0,0,1,.65,1.66v0a2.44,2.44,0,0,1-2.24,2.43L302,190.4a.52.52,0,0,1,.16.35.5.5,0,0,1-.48.47.55.55,0,0,1-.44-.25l-2.36-3.07h-2.41v2.84a.47.47,0,1,1-.95,0Zm3.53,3.8c1.26,0,2.16-.65,2.16-1.73v0c0-1-.79-1.65-2.15-1.65h-2.59V187Z" transform="translate(-23.45 -26.21)"/><path class="cls-3" d="M310.58,192.75a5.6,5.6,0,0,1,0-10.07.41.41,0,0,1,.22,0,.37.37,0,0,1,.36.36.36.36,0,0,1-.18.32,5,5,0,0,0,0,8.8.36.36,0,0,1,.18.32.37.37,0,0,1-.36.36A.4.4,0,0,1,310.58,192.75Z" transform="translate(-23.45 -26.21)"/><path class="cls-3" d="M312.85,185.37a.47.47,0,0,1,.46-.47.46.46,0,0,1,.47.47V186a2.26,2.26,0,0,1,2-1.17,2.1,2.1,0,0,1,2,1.23,2.47,2.47,0,0,1,2.18-1.23,2.23,2.23,0,0,1,2.3,2.49v3.43a.46.46,0,1,1-.92,0v-3.21c0-1.2-.6-1.87-1.61-1.87a1.73,1.73,0,0,0-1.7,1.92v3.17a.46.46,0,1,1-.92,0v-3.24c0-1.16-.61-1.85-1.6-1.85a1.8,1.8,0,0,0-1.73,2v3.13a.45.45,0,0,1-.46.47.46.46,0,0,1-.47-.47Z" transform="translate(-23.45 -26.21)"/><path class="cls-3" d="M324.27,185.37a.47.47,0,0,1,.46-.47.46.46,0,0,1,.47.47V186a2.26,2.26,0,0,1,2-1.17,2.1,2.1,0,0,1,2,1.23,2.47,2.47,0,0,1,2.18-1.23,2.23,2.23,0,0,1,2.3,2.49v3.43a.46.46,0,1,1-.92,0v-3.21c0-1.2-.6-1.87-1.61-1.87a1.73,1.73,0,0,0-1.7,1.92v3.17a.46.46,0,1,1-.92,0v-3.24c0-1.16-.61-1.85-1.6-1.85a1.8,1.8,0,0,0-1.73,2v3.13a.45.45,0,0,1-.46.47.46.46,0,0,1-.47-.47Z" transform="translate(-23.45 -26.21)"/><path class="cls-3" d="M335.31,192.44a.36.36,0,0,1,.18-.32,5,5,0,0,0,0-8.8.36.36,0,0,1-.18-.32.37.37,0,0,1,.36-.36.41.41,0,0,1,.22,0,5.6,5.6,0,0,1,0,10.07.4.4,0,0,1-.22,0A.37.37,0,0,1,335.31,192.44Z" transform="translate(-23.45 -26.21)"/><path class="cls-3" d="M345.85,190.39l-.72.74a.42.42,0,0,1-.3.14.34.34,0,0,1-.36-.35.4.4,0,0,1,.12-.29l.72-.77a4.38,4.38,0,0,1-1-2.89v0a4.31,4.31,0,0,1,7-3.42l.72-.75a.42.42,0,0,1,.3-.14.34.34,0,0,1,.36.35.4.4,0,0,1-.12.29l-.73.78a4.36,4.36,0,0,1,1.06,2.88v0a4.32,4.32,0,0,1-7,3.43Zm.13-1.22,4.64-4.93a3.24,3.24,0,0,0-2.09-.76,3.31,3.31,0,0,0-3.29,3.45v0A3.56,3.56,0,0,0,346,189.17Zm5.87-2.18v0a3.59,3.59,0,0,0-.73-2.21l-4.64,4.94a3.19,3.19,0,0,0,2.09.74A3.31,3.31,0,0,0,351.85,187Z" transform="translate(-23.45 -26.21)"/><path class="cls-3" d="M354.28,188.91v0a2.26,2.26,0,0,1,1.73-2.06,2.14,2.14,0,0,1-1.44-1.93v0c0-1.29,1.33-2.22,2.87-2.22s2.87.92,2.87,2.22v0a2.14,2.14,0,0,1-1.44,1.93,2.28,2.28,0,0,1,1.73,2.05v0c0,1.43-1.37,2.39-3.15,2.39S354.28,190.31,354.28,188.91Zm5.35,0v0c0-.94-1-1.59-2.19-1.59s-2.2.66-2.2,1.59v0c0,.84.82,1.57,2.2,1.57S359.63,189.73,359.63,188.88Zm-.28-3.93v0c0-.83-.83-1.45-1.92-1.45s-1.92.61-1.92,1.45v0c0,.91.85,1.54,1.92,1.54S359.35,185.86,359.35,184.95Z" transform="translate(-23.45 -26.21)"/><path class="cls-3" d="M362,190a.52.52,0,0,1-.16-.34.48.48,0,0,1,.47-.47.49.49,0,0,1,.35.14,2.88,2.88,0,0,0,2.28,1.07,1.69,1.69,0,0,0,1.83-1.63v0c0-1-1-1.62-2.35-1.62h-.3a.41.41,0,0,1-.42-.41.53.53,0,0,1,.19-.37l2.45-2.77h-3.72a.43.43,0,0,1-.44-.42.44.44,0,0,1,.44-.43h4.58a.42.42,0,0,1,.46.41.68.68,0,0,1-.23.47L365,186.39c1.46.12,2.77.83,2.77,2.36v0a2.61,2.61,0,0,1-2.81,2.53A3.79,3.79,0,0,1,362,190Z" transform="translate(-23.45 -26.21)"/><path class="cls-3" d="M370,189.84a.55.55,0,0,1,.56.56v.24a.57.57,0,1,1-1.14,0v-.24A.55.55,0,0,1,370,189.84Z" transform="translate(-23.45 -26.21)"/><path class="cls-3" d="M372.42,190.21a.47.47,0,0,1-.19-.4.46.46,0,0,1,.46-.44.51.51,0,0,1,.32.12,3.21,3.21,0,0,0,2.16.95,1.87,1.87,0,0,0,2-1.86v0a1.85,1.85,0,0,0-2.09-1.76,5.18,5.18,0,0,0-1.7.41.85.85,0,0,1-.48-.18.56.56,0,0,1-.2-.52l.19-3.29a.45.45,0,0,1,.46-.46h4a.44.44,0,0,1,0,.88h-3.62l-.18,2.69a3.78,3.78,0,0,1,1.65-.37,2.62,2.62,0,0,1,2.9,2.57v0a2.77,2.77,0,0,1-3,2.76A4.15,4.15,0,0,1,372.42,190.21Z" transform="translate(-23.45 -26.21)"/><path class="cls-3" d="M379.6,187v0c0-2.35,1.4-4.34,3.56-4.34s3.53,2,3.53,4.32v0c0,2.35-1.39,4.34-3.55,4.34S379.6,189.34,379.6,187Zm6.11,0v0c0-1.83-1-3.48-2.57-3.48s-2.55,1.61-2.55,3.45v0c0,1.83,1,3.48,2.58,3.48S385.7,188.82,385.7,187Z" transform="translate(-23.45 -26.21)"/><path class="cls-3" d="M390.74,186.79h-2a.42.42,0,1,1,0-.84h2v-2a.44.44,0,1,1,.88,0v2h2a.42.42,0,1,1,0,.84h-2v2a.44.44,0,1,1-.87,0Zm-2.45,3.95a.42.42,0,0,1,.42-.41h4.94a.41.41,0,0,1,0,.83h-4.94A.43.43,0,0,1,388.3,190.74Z" transform="translate(-23.45 -26.21)"/><path class="cls-3" d="M395.68,187v0c0-2.35,1.4-4.34,3.56-4.34s3.53,2,3.53,4.32v0c0,2.35-1.39,4.34-3.55,4.34S395.68,189.34,395.68,187Zm6.11,0v0c0-1.83-1-3.48-2.57-3.48s-2.55,1.61-2.55,3.45v0c0,1.83,1,3.48,2.58,3.48S401.78,188.82,401.78,187Z" transform="translate(-23.45 -26.21)"/><path class="cls-3" d="M404.75,189.84a.55.55,0,0,1,.56.56v.24a.57.57,0,1,1-1.14,0v-.24A.55.55,0,0,1,404.75,189.84Z" transform="translate(-23.45 -26.21)"/><path class="cls-3" d="M407,190.27l2.87-2.53c1.29-1.15,1.75-1.8,1.75-2.64a1.6,1.6,0,0,0-1.69-1.61,2.51,2.51,0,0,0-2.09,1.22.43.43,0,0,1-.35.17.43.43,0,0,1-.43-.43.42.42,0,0,1,.1-.26,3.18,3.18,0,0,1,2.84-1.55,2.42,2.42,0,0,1,2.6,2.38v0c0,1.22-.65,2-2.12,3.26l-2.24,2h4.07a.43.43,0,1,1,0,.86h-5a.45.45,0,0,1-.48-.44A.55.55,0,0,1,407,190.27Z" transform="translate(-23.45 -26.21)"/><path class="cls-3" d="M414.14,187v0c0-2.35,1.4-4.34,3.56-4.34s3.53,2,3.53,4.32v0c0,2.35-1.39,4.34-3.55,4.34S414.14,189.34,414.14,187Zm6.11,0v0c0-1.83-1-3.48-2.57-3.48s-2.55,1.61-2.55,3.45v0c0,1.83,1,3.48,2.58,3.48S420.25,188.82,420.25,187Z" transform="translate(-23.45 -26.21)"/><path class="cls-3" d="M197.54,114v0a4.23,4.23,0,0,1,4.25-4.34,4.34,4.34,0,0,1,3,1.09.52.52,0,0,1,.19.38.49.49,0,0,1-.48.47.57.57,0,0,1-.31-.11,3.44,3.44,0,0,0-2.41-1,3.29,3.29,0,0,0-3.25,3.44v0a3.31,3.31,0,0,0,3.25,3.47,3.44,3.44,0,0,0,2.49-1,.43.43,0,0,1,.3-.13.47.47,0,0,1,.46.46.45.45,0,0,1-.16.33,4.3,4.3,0,0,1-3.12,1.24A4.19,4.19,0,0,1,197.54,114Z" transform="translate(-23.45 -26.21)"/><path class="cls-3" d="M206.76,110.18a.47.47,0,1,1,.95,0v3.31h4.85v-3.31a.47.47,0,1,1,.95,0v7.56a.47.47,0,1,1-.95,0v-3.36h-4.85v3.36a.47.47,0,1,1-.95,0Z" transform="translate(-23.45 -26.21)"/><path class="cls-3" d="M215.75,114.65v-4.46a.47.47,0,1,1,.95,0v4.4c0,1.81,1,2.83,2.57,2.83s2.53-.94,2.53-2.77v-4.46a.47.47,0,1,1,.95,0v4.39c0,2.45-1.4,3.72-3.5,3.72A3.29,3.29,0,0,1,215.75,114.65Z" transform="translate(-23.45 -26.21)"/><path class="cls-3" d="M224.62,114v0a4.23,4.23,0,0,1,4.25-4.34,4.34,4.34,0,0,1,3,1.09.52.52,0,0,1,.19.38.49.49,0,0,1-.48.47.57.57,0,0,1-.31-.11,3.44,3.44,0,0,0-2.41-1,3.29,3.29,0,0,0-3.25,3.44v0a3.31,3.31,0,0,0,3.25,3.47,3.44,3.44,0,0,0,2.49-1,.43.43,0,0,1,.3-.13.47.47,0,0,1,.46.46.45.45,0,0,1-.16.33,4.3,4.3,0,0,1-3.12,1.24A4.19,4.19,0,0,1,224.62,114Z" transform="translate(-23.45 -26.21)"/><path class="cls-3" d="M233.85,110.18a.47.47,0,1,1,.95,0v4.59l4.79-4.91a.53.53,0,0,1,.37-.17.47.47,0,0,1,.46.47.47.47,0,0,1-.16.34l-3,3,3.19,3.93a.52.52,0,0,1,.13.35.49.49,0,0,1-.48.48.45.45,0,0,1-.38-.22l-3.13-3.9-1.81,1.81v1.82a.47.47,0,1,1-.95,0Z" transform="translate(-23.45 -26.21)"/><path class="cls-3" d="M246,110.24a.48.48,0,0,1,.47-.48h2.45a4.19,4.19,0,0,1,4.46,4.17v0a4.2,4.2,0,0,1-4.46,4.2h-2.45a.48.48,0,0,1-.47-.48Zm2.91,7a3.25,3.25,0,0,0,3.48-3.3v0a3.27,3.27,0,0,0-3.48-3.32h-2v6.64Z" transform="translate(-23.45 -26.21)"/><path class="cls-3" d="M255.48,110.18a.47.47,0,1,1,.95,0v7.56a.47.47,0,1,1-.95,0Z" transform="translate(-23.45 -26.21)"/><path class="cls-3" d="M258.38,117.54l3.41-7.45a.62.62,0,0,1,.6-.42h0a.6.6,0,0,1,.59.42l3.41,7.44a.64.64,0,0,1,.06.24.45.45,0,0,1-.46.46.52.52,0,0,1-.47-.35l-.88-1.93h-4.61l-.88,2a.47.47,0,0,1-.46.32.43.43,0,0,1-.43-.43A.55.55,0,0,1,258.38,117.54Zm5.94-2.46-1.93-4.29-1.93,4.29Z" transform="translate(-23.45 -26.21)"/><path class="cls-3" d="M268.3,110.2a.48.48,0,0,1,.47-.47h.11a.52.52,0,0,1,.44.25l3,4.51,3-4.51a.51.51,0,0,1,.44-.25h.11a.48.48,0,0,1,.47.47v7.54a.48.48,0,0,1-.47.48.49.49,0,0,1-.48-.48v-6.26l-2.69,3.95a.46.46,0,0,1-.4.24.48.48,0,0,1-.41-.24l-2.67-3.93v6.26a.46.46,0,1,1-.92,0Z" transform="translate(-23.45 -26.21)"/><path class="cls-3" d="M278.72,117.68v-7.44a.48.48,0,0,1,.47-.48h5.22a.43.43,0,1,1,0,.86h-4.74v2.87h4.2a.44.44,0,0,1,.43.43.43.43,0,0,1-.43.43h-4.2v2.94h4.8a.43.43,0,0,1,0,.86h-5.28A.48.48,0,0,1,278.72,117.68Z" transform="translate(-23.45 -26.21)"/><path class="cls-3" d="M289,110.64h-2.43a.44.44,0,0,1-.44-.43.45.45,0,0,1,.44-.44h5.83a.45.45,0,0,1,.44.44.44.44,0,0,1-.44.43h-2.43v7.1a.48.48,0,1,1-1,0Z" transform="translate(-23.45 -26.21)"/><path class="cls-3" d="M294.53,117.68v-7.44a.48.48,0,0,1,.47-.48h5.22a.43.43,0,1,1,0,.86h-4.74v2.87h4.2a.44.44,0,0,1,.43.43.43.43,0,0,1-.43.43h-4.2v2.94h4.8a.43.43,0,0,1,0,.86H295A.48.48,0,0,1,294.53,117.68Z" transform="translate(-23.45 -26.21)"/><path class="cls-3" d="M302.57,110.24a.48.48,0,0,1,.47-.48h3.14a3.31,3.31,0,0,1,2.39.84,2.32,2.32,0,0,1,.65,1.66v0a2.44,2.44,0,0,1-2.24,2.43l2.09,2.69a.52.52,0,0,1,.16.35.5.5,0,0,1-.48.47.55.55,0,0,1-.44-.25l-2.36-3.07h-2.41v2.84a.47.47,0,1,1-.95,0Zm3.53,3.8c1.26,0,2.16-.65,2.16-1.73v0c0-1-.79-1.65-2.15-1.65h-2.59V114Z" transform="translate(-23.45 -26.21)"/><path class="cls-3" d="M317.63,119.75a5.6,5.6,0,0,1,0-10.07.41.41,0,0,1,.22,0,.37.37,0,0,1,.36.36.36.36,0,0,1-.18.32,5,5,0,0,0,0,8.8.36.36,0,0,1,.18.32.37.37,0,0,1-.36.36A.4.4,0,0,1,317.63,119.75Z" transform="translate(-23.45 -26.21)"/><path class="cls-3" d="M319.9,112.37a.47.47,0,0,1,.46-.47.46.46,0,0,1,.47.47V113a2.26,2.26,0,0,1,2-1.17,2.1,2.1,0,0,1,2,1.23,2.47,2.47,0,0,1,2.18-1.23,2.23,2.23,0,0,1,2.3,2.49v3.43a.46.46,0,1,1-.92,0v-3.21c0-1.2-.6-1.87-1.61-1.87a1.73,1.73,0,0,0-1.7,1.92v3.17a.46.46,0,1,1-.92,0v-3.24c0-1.16-.61-1.85-1.6-1.85a1.8,1.8,0,0,0-1.73,2v3.13a.45.45,0,0,1-.46.47.46.46,0,0,1-.47-.47Z" transform="translate(-23.45 -26.21)"/><path class="cls-3" d="M331.31,112.37a.47.47,0,0,1,.46-.47.46.46,0,0,1,.47.47V113a2.26,2.26,0,0,1,2-1.17,2.1,2.1,0,0,1,2,1.23,2.47,2.47,0,0,1,2.18-1.23,2.23,2.23,0,0,1,2.3,2.49v3.43a.46.46,0,1,1-.92,0v-3.21c0-1.2-.6-1.87-1.61-1.87a1.73,1.73,0,0,0-1.7,1.92v3.17a.46.46,0,1,1-.92,0v-3.24c0-1.16-.61-1.85-1.6-1.85a1.8,1.8,0,0,0-1.73,2v3.13a.45.45,0,0,1-.46.47.46.46,0,0,1-.47-.47Z" transform="translate(-23.45 -26.21)"/><path class="cls-3" d="M342.35,119.44a.36.36,0,0,1,.18-.32,5,5,0,0,0,0-8.8.36.36,0,0,1-.18-.32.37.37,0,0,1,.36-.36.41.41,0,0,1,.22,0,5.6,5.6,0,0,1,0,10.07.4.4,0,0,1-.22,0A.37.37,0,0,1,342.35,119.44Z" transform="translate(-23.45 -26.21)"/><path class="cls-3" d="M352.9,117.39l-.72.74a.42.42,0,0,1-.3.14.34.34,0,0,1-.36-.35.4.4,0,0,1,.12-.29l.72-.77a4.38,4.38,0,0,1-1-2.89v0a4.31,4.31,0,0,1,7-3.42l.72-.75a.42.42,0,0,1,.3-.14.34.34,0,0,1,.36.35.4.4,0,0,1-.12.29l-.73.78a4.36,4.36,0,0,1,1.06,2.88v0a4.32,4.32,0,0,1-7,3.43Zm.13-1.22,4.64-4.93a3.24,3.24,0,0,0-2.09-.76,3.31,3.31,0,0,0-3.29,3.45v0A3.56,3.56,0,0,0,353,116.17ZM358.9,114v0a3.59,3.59,0,0,0-.73-2.21l-4.64,4.94a3.19,3.19,0,0,0,2.09.74A3.31,3.31,0,0,0,358.9,114Z" transform="translate(-23.45 -26.21)"/><path class="cls-3" d="M361.32,115.91v0a2.26,2.26,0,0,1,1.73-2.06,2.14,2.14,0,0,1-1.44-1.93v0c0-1.29,1.33-2.22,2.87-2.22s2.87.92,2.87,2.22v0a2.14,2.14,0,0,1-1.44,1.93,2.28,2.28,0,0,1,1.73,2.05v0c0,1.43-1.37,2.39-3.15,2.39S361.32,117.31,361.32,115.91Zm5.35,0v0c0-.94-1-1.59-2.19-1.59s-2.2.66-2.2,1.59v0c0,.84.82,1.57,2.2,1.57S366.67,116.73,366.67,115.88Zm-.28-3.93v0c0-.83-.83-1.45-1.92-1.45s-1.92.61-1.92,1.45v0c0,.91.85,1.54,1.92,1.54S366.4,112.86,366.4,111.95Z" transform="translate(-23.45 -26.21)"/><path class="cls-3" d="M369,117.27l2.87-2.53c1.29-1.15,1.75-1.8,1.75-2.64a1.6,1.6,0,0,0-1.69-1.61,2.51,2.51,0,0,0-2.09,1.22.43.43,0,0,1-.35.17.43.43,0,0,1-.43-.43.42.42,0,0,1,.1-.26,3.18,3.18,0,0,1,2.84-1.55,2.42,2.42,0,0,1,2.6,2.38v0c0,1.22-.65,2-2.12,3.26l-2.24,2h4.07a.43.43,0,1,1,0,.86h-5a.45.45,0,0,1-.48-.44A.55.55,0,0,1,369,117.27Z" transform="translate(-23.45 -26.21)"/><path class="cls-3" d="M376.92,116.84a.55.55,0,0,1,.56.56v.24a.57.57,0,1,1-1.14,0v-.24A.55.55,0,0,1,376.92,116.84Z" transform="translate(-23.45 -26.21)"/><path class="cls-3" d="M379.3,117.21a.47.47,0,0,1-.19-.4.46.46,0,0,1,.46-.44.51.51,0,0,1,.32.12,3.21,3.21,0,0,0,2.16.95,1.87,1.87,0,0,0,2-1.86v0a1.85,1.85,0,0,0-2.09-1.76,5.18,5.18,0,0,0-1.7.41.85.85,0,0,1-.48-.18.56.56,0,0,1-.2-.52l.19-3.29a.45.45,0,0,1,.46-.46h4a.44.44,0,0,1,0,.88h-3.62l-.18,2.69a3.78,3.78,0,0,1,1.65-.37,2.62,2.62,0,0,1,2.9,2.57v0a2.77,2.77,0,0,1-3,2.76A4.15,4.15,0,0,1,379.3,117.21Z" transform="translate(-23.45 -26.21)"/><path class="cls-3" d="M389,113.79h-2a.42.42,0,1,1,0-.84h2v-2a.44.44,0,1,1,.88,0v2h2a.42.42,0,1,1,0,.84h-2v2a.44.44,0,1,1-.87,0Zm-2.45,3.95a.42.42,0,0,1,.42-.41H392a.41.41,0,0,1,0,.83H387A.43.43,0,0,1,386.59,117.74Z" transform="translate(-23.45 -26.21)"/><path class="cls-3" d="M394,114v0c0-2.35,1.4-4.34,3.56-4.34s3.53,2,3.53,4.32v0c0,2.35-1.39,4.34-3.55,4.34S394,116.34,394,114Zm6.11,0v0c0-1.83-1-3.48-2.57-3.48s-2.55,1.61-2.55,3.45v0c0,1.83,1,3.48,2.58,3.48S400.08,115.82,400.08,114Z" transform="translate(-23.45 -26.21)"/><path class="cls-3" d="M403,116.84a.55.55,0,0,1,.56.56v.24a.57.57,0,1,1-1.14,0v-.24A.55.55,0,0,1,403,116.84Z" transform="translate(-23.45 -26.21)"/><path class="cls-3" d="M405.27,117.27l2.87-2.53c1.29-1.15,1.75-1.8,1.75-2.64a1.6,1.6,0,0,0-1.69-1.61,2.51,2.51,0,0,0-2.09,1.22.43.43,0,0,1-.35.17.43.43,0,0,1-.43-.43.42.42,0,0,1,.1-.26,3.18,3.18,0,0,1,2.84-1.55,2.42,2.42,0,0,1,2.6,2.38v0c0,1.22-.65,2-2.12,3.26l-2.24,2h4.07a.43.43,0,1,1,0,.86h-5a.45.45,0,0,1-.48-.44A.55.55,0,0,1,405.27,117.27Z" transform="translate(-23.45 -26.21)"/><path class="cls-3" d="M412.44,114v0c0-2.35,1.4-4.34,3.56-4.34s3.53,2,3.53,4.32v0c0,2.35-1.39,4.34-3.55,4.34S412.44,116.34,412.44,114Zm6.11,0v0c0-1.83-1-3.48-2.57-3.48s-2.55,1.61-2.55,3.45v0c0,1.83,1,3.48,2.58,3.48S418.55,115.82,418.55,114Z" transform="translate(-23.45 -26.21)"/><path class="cls-3" d="M200.16,88v0a4.23,4.23,0,0,1,4.25-4.34,4.34,4.34,0,0,1,3,1.09.52.52,0,0,1,.19.38.49.49,0,0,1-.48.47.57.57,0,0,1-.31-.11,3.44,3.44,0,0,0-2.41-1,3.29,3.29,0,0,0-3.25,3.44v0a3.31,3.31,0,0,0,3.25,3.47,3.44,3.44,0,0,0,2.49-1,.43.43,0,0,1,.3-.13.47.47,0,0,1,.46.46.45.45,0,0,1-.16.33,4.3,4.3,0,0,1-3.12,1.24A4.19,4.19,0,0,1,200.16,88Z" transform="translate(-23.45 -26.21)"/><path class="cls-3" d="M209.26,88.65V84.18a.47.47,0,1,1,.95,0v4.4c0,1.81,1,2.83,2.57,2.83s2.53-.94,2.53-2.77V84.18a.47.47,0,1,1,.95,0v4.39c0,2.45-1.4,3.72-3.5,3.72A3.29,3.29,0,0,1,209.26,88.65Z" transform="translate(-23.45 -26.21)"/><path class="cls-3" d="M218.5,84.24a.48.48,0,0,1,.47-.48h3.14a3.31,3.31,0,0,1,2.39.84,2.32,2.32,0,0,1,.65,1.66v0a2.44,2.44,0,0,1-2.24,2.43L225,91.4a.51.51,0,0,1,.16.35.5.5,0,0,1-.48.47.55.55,0,0,1-.44-.25l-2.36-3.07h-2.41v2.84a.47.47,0,1,1-.95,0ZM222,88c1.26,0,2.16-.65,2.16-1.73v0c0-1-.79-1.65-2.15-1.65h-2.59V88Z" transform="translate(-23.45 -26.21)"/><path class="cls-3" d="M227.18,84.18a.47.47,0,1,1,.95,0v7.1h4.35a.44.44,0,0,1,.43.44.43.43,0,0,1-.43.43h-4.83a.48.48,0,0,1-.47-.48Z" transform="translate(-23.45 -26.21)"/><path class="cls-3" d="M238.2,84.24a.48.48,0,0,1,.47-.48h2.45a4.19,4.19,0,0,1,4.46,4.17v0a4.2,4.2,0,0,1-4.46,4.2h-2.45a.48.48,0,0,1-.47-.48Zm2.91,7A3.25,3.25,0,0,0,244.6,88v0a3.27,3.27,0,0,0-3.48-3.32h-2v6.64Z" transform="translate(-23.45 -26.21)"/><path class="cls-3" d="M247.67,84.18a.47.47,0,1,1,.95,0v7.56a.47.47,0,1,1-.95,0Z" transform="translate(-23.45 -26.21)"/><path class="cls-3" d="M250.56,91.54,254,84.09a.62.62,0,0,1,.6-.42h0a.6.6,0,0,1,.59.42l3.41,7.44a.64.64,0,0,1,.06.24.46.46,0,0,1-.46.46.52.52,0,0,1-.47-.35l-.88-1.93h-4.61l-.88,2a.47.47,0,0,1-.46.32.43.43,0,0,1-.43-.43A.55.55,0,0,1,250.56,91.54Zm5.94-2.46-1.93-4.29-1.93,4.29Z" transform="translate(-23.45 -26.21)"/><path class="cls-3" d="M260.49,84.2a.48.48,0,0,1,.47-.47h.11a.52.52,0,0,1,.44.25l3,4.51,3-4.51a.51.51,0,0,1,.44-.25h.11a.48.48,0,0,1,.47.47v7.54a.48.48,0,0,1-.47.48.49.49,0,0,1-.48-.48V85.48l-2.69,3.95a.46.46,0,0,1-.4.24.48.48,0,0,1-.41-.24l-2.67-3.93v6.26a.46.46,0,1,1-.92,0Z" transform="translate(-23.45 -26.21)"/><path class="cls-3" d="M270.9,91.68V84.24a.48.48,0,0,1,.47-.48h5.22a.43.43,0,1,1,0,.86h-4.74v2.87H276a.44.44,0,0,1,.43.43.43.43,0,0,1-.43.43h-4.2V91.3h4.8a.43.43,0,0,1,0,.86h-5.28A.48.48,0,0,1,270.9,91.68Z" transform="translate(-23.45 -26.21)"/><path class="cls-3" d="M281.16,84.64h-2.43a.44.44,0,0,1-.44-.43.45.45,0,0,1,.44-.44h5.83a.45.45,0,0,1,.44.44.44.44,0,0,1-.44.43h-2.43v7.1a.48.48,0,0,1-1,0Z" transform="translate(-23.45 -26.21)"/><path class="cls-3" d="M286.72,91.68V84.24a.48.48,0,0,1,.47-.48h5.22a.43.43,0,0,1,0,.86h-4.74v2.87h4.2a.44.44,0,0,1,.43.43.43.43,0,0,1-.43.43h-4.2V91.3h4.8a.43.43,0,0,1,0,.86h-5.28A.48.48,0,0,1,286.72,91.68Z" transform="translate(-23.45 -26.21)"/><path class="cls-3" d="M294.76,84.24a.48.48,0,0,1,.47-.48h3.14a3.31,3.31,0,0,1,2.39.84,2.32,2.32,0,0,1,.65,1.66v0a2.44,2.44,0,0,1-2.24,2.43l2.09,2.69a.52.52,0,0,1,.16.35.5.5,0,0,1-.48.47.55.55,0,0,1-.44-.25l-2.36-3.07h-2.41v2.84a.47.47,0,1,1-.95,0Zm3.53,3.8c1.26,0,2.16-.65,2.16-1.73v0c0-1-.79-1.65-2.15-1.65h-2.59V88Z" transform="translate(-23.45 -26.21)"/><path class="cls-3" d="M309.82,93.75a5.6,5.6,0,0,1,0-10.07.41.41,0,0,1,.22,0,.37.37,0,0,1,.36.36.36.36,0,0,1-.18.32,5,5,0,0,0,0,8.8.36.36,0,0,1,.18.32.37.37,0,0,1-.36.36A.4.4,0,0,1,309.82,93.75Z" transform="translate(-23.45 -26.21)"/><path class="cls-3" d="M312.09,86.37a.47.47,0,0,1,.46-.47.46.46,0,0,1,.47.47V87a2.26,2.26,0,0,1,2-1.17,2.1,2.1,0,0,1,2,1.23,2.47,2.47,0,0,1,2.18-1.23,2.23,2.23,0,0,1,2.3,2.49v3.43a.46.46,0,1,1-.92,0V88.54c0-1.2-.6-1.87-1.61-1.87a1.73,1.73,0,0,0-1.7,1.92v3.17a.46.46,0,1,1-.92,0V88.51c0-1.16-.61-1.85-1.6-1.85a1.8,1.8,0,0,0-1.73,2v3.13a.45.45,0,0,1-.46.47.46.46,0,0,1-.47-.47Z" transform="translate(-23.45 -26.21)"/><path class="cls-3" d="M323.5,86.37a.47.47,0,0,1,.46-.47.46.46,0,0,1,.47.47V87a2.26,2.26,0,0,1,2-1.17,2.1,2.1,0,0,1,2,1.23,2.47,2.47,0,0,1,2.18-1.23,2.23,2.23,0,0,1,2.3,2.49v3.43a.46.46,0,1,1-.92,0V88.54c0-1.2-.6-1.87-1.61-1.87a1.73,1.73,0,0,0-1.7,1.92v3.17a.46.46,0,1,1-.92,0V88.51c0-1.16-.61-1.85-1.6-1.85a1.8,1.8,0,0,0-1.73,2v3.13a.45.45,0,0,1-.46.47.46.46,0,0,1-.47-.47Z" transform="translate(-23.45 -26.21)"/><path class="cls-3" d="M334.54,93.44a.36.36,0,0,1,.18-.32,5,5,0,0,0,0-8.8.36.36,0,0,1-.18-.32.37.37,0,0,1,.36-.36.41.41,0,0,1,.22,0,5.6,5.6,0,0,1,0,10.07.4.4,0,0,1-.22,0A.37.37,0,0,1,334.54,93.44Z" transform="translate(-23.45 -26.21)"/><path class="cls-3" d="M345.09,91.39l-.72.74a.42.42,0,0,1-.3.14.34.34,0,0,1-.36-.35.4.4,0,0,1,.12-.29l.72-.77a4.38,4.38,0,0,1-1-2.89v0a4.31,4.31,0,0,1,7-3.42l.72-.75a.42.42,0,0,1,.3-.14.34.34,0,0,1,.36.35.4.4,0,0,1-.12.29l-.73.78a4.36,4.36,0,0,1,1.06,2.88v0a4.32,4.32,0,0,1-7,3.43Zm.13-1.22,4.64-4.93a3.24,3.24,0,0,0-2.09-.76,3.31,3.31,0,0,0-3.29,3.45v0A3.56,3.56,0,0,0,345.22,90.17ZM351.08,88v0a3.59,3.59,0,0,0-.73-2.21l-4.64,4.94a3.19,3.19,0,0,0,2.09.74A3.31,3.31,0,0,0,351.08,88Z" transform="translate(-23.45 -26.21)"/><path class="cls-3" d="M354.09,91.46a.45.45,0,0,1,.24-.84.56.56,0,0,1,.3.1,2.79,2.79,0,0,0,1.82.72c1.51,0,2.53-1.54,2.49-3.68a2.88,2.88,0,0,1-5.3-1.26v0a2.86,2.86,0,0,1,3-2.85,3,3,0,0,1,2.21.86,4.26,4.26,0,0,1,1,3.25v0c0,2.66-1.42,4.54-3.49,4.54A3.77,3.77,0,0,1,354.09,91.46Zm4.68-5.07v0a2,2,0,0,0-2.13-1.91,1.93,1.93,0,0,0-2,2v0a1.88,1.88,0,0,0,2.06,1.83A2,2,0,0,0,358.76,86.39Z" transform="translate(-23.45 -26.21)"/><path class="cls-3" d="M361.33,91a.52.52,0,0,1-.16-.34.48.48,0,0,1,.47-.47.49.49,0,0,1,.35.14,2.88,2.88,0,0,0,2.28,1.07,1.69,1.69,0,0,0,1.83-1.63v0c0-1-1-1.62-2.35-1.62h-.3a.41.41,0,0,1-.42-.41.53.53,0,0,1,.19-.37l2.45-2.77H362a.43.43,0,0,1-.44-.42.44.44,0,0,1,.44-.43h4.58a.42.42,0,0,1,.46.41.68.68,0,0,1-.23.47l-2.47,2.75c1.46.12,2.77.83,2.77,2.36v0a2.61,2.61,0,0,1-2.81,2.53A3.79,3.79,0,0,1,361.33,91Z" transform="translate(-23.45 -26.21)"/><path class="cls-3" d="M369.36,90.84a.55.55,0,0,1,.56.56v.24a.57.57,0,1,1-1.14,0V91.4A.55.55,0,0,1,369.36,90.84Z" transform="translate(-23.45 -26.21)"/><path class="cls-3" d="M372.37,84.65,371.2,85a.66.66,0,0,1-.2,0,.41.41,0,0,1-.41-.41.43.43,0,0,1,.34-.41l1.38-.48a1.81,1.81,0,0,1,.52-.11h0a.46.46,0,0,1,.47.47v7.6a.47.47,0,0,1-.47.48.48.48,0,0,1-.47-.48Z" transform="translate(-23.45 -26.21)"/><path class="cls-3" d="M375.27,88v0c0-2.35,1.4-4.34,3.56-4.34s3.53,2,3.53,4.32v0c0,2.35-1.39,4.34-3.55,4.34S375.27,90.34,375.27,88Zm6.11,0v0c0-1.83-1-3.48-2.57-3.48s-2.55,1.61-2.55,3.45v0c0,1.83,1,3.48,2.58,3.48S381.37,89.82,381.37,88Z" transform="translate(-23.45 -26.21)"/><path class="cls-3" d="M386.41,87.79h-2a.42.42,0,1,1,0-.84h2V85a.44.44,0,1,1,.88,0v2h2a.42.42,0,0,1,0,.84h-2v2a.44.44,0,1,1-.87,0ZM384,91.74a.42.42,0,0,1,.42-.41h4.94a.41.41,0,0,1,0,.83h-4.94A.43.43,0,0,1,384,91.74Z" transform="translate(-23.45 -26.21)"/><path class="cls-3" d="M391.35,88v0c0-2.35,1.4-4.34,3.56-4.34s3.53,2,3.53,4.32v0c0,2.35-1.39,4.34-3.55,4.34S391.35,90.34,391.35,88Zm6.11,0v0c0-1.83-1-3.48-2.57-3.48s-2.55,1.61-2.55,3.45v0c0,1.83,1,3.48,2.58,3.48S397.45,89.82,397.45,88Z" transform="translate(-23.45 -26.21)"/><path class="cls-3" d="M400.42,90.84a.55.55,0,0,1,.56.56v.24a.57.57,0,1,1-1.14,0V91.4A.55.55,0,0,1,400.42,90.84Z" transform="translate(-23.45 -26.21)"/><path class="cls-3" d="M402.64,91.27l2.87-2.53c1.29-1.15,1.75-1.8,1.75-2.64a1.6,1.6,0,0,0-1.69-1.61,2.51,2.51,0,0,0-2.09,1.22.43.43,0,0,1-.35.17.43.43,0,0,1-.43-.43.42.42,0,0,1,.1-.26,3.18,3.18,0,0,1,2.84-1.55,2.42,2.42,0,0,1,2.6,2.38v0c0,1.22-.65,2-2.12,3.26l-2.24,2h4.07a.43.43,0,1,1,0,.86h-5a.45.45,0,0,1-.48-.44A.55.55,0,0,1,402.64,91.27Z" transform="translate(-23.45 -26.21)"/><path class="cls-3" d="M409.81,88v0c0-2.35,1.4-4.34,3.56-4.34s3.53,2,3.53,4.32v0c0,2.35-1.39,4.34-3.55,4.34S409.81,90.34,409.81,88Zm6.11,0v0c0-1.83-1-3.48-2.57-3.48s-2.55,1.61-2.55,3.45v0c0,1.83,1,3.48,2.58,3.48S415.92,89.82,415.92,88Z" transform="translate(-23.45 -26.21)"/><path class="cls-3" d="M75.19,507.74a.48.48,0,0,1,.47-.48h2.67c1.89,0,3.14,1,3.14,2.66v0c0,1.81-1.51,2.75-3.3,2.75h-2v2.54a.47.47,0,1,1-.95,0Zm3,4.09c1.39,0,2.3-.74,2.3-1.85v0c0-1.2-.9-1.82-2.25-1.82H76.13v3.69Z" transform="translate(-23.45 -26.21)"/><path class="cls-3" d="M81.91,515l3.41-7.45a.62.62,0,0,1,.6-.42h0a.61.61,0,0,1,.59.42L90,515a.64.64,0,0,1,.06.24.46.46,0,0,1-.46.46.52.52,0,0,1-.47-.35l-.87-1.93H83.61l-.88,2a.47.47,0,0,1-.46.32.43.43,0,0,1-.43-.43A.55.55,0,0,1,81.91,515Zm5.94-2.46-1.93-4.29L84,512.58Z" transform="translate(-23.45 -26.21)"/><path class="cls-3" d="M91.83,507.7a.48.48,0,0,1,.47-.47h.13a.58.58,0,0,1,.48.28L98,514v-6.33a.46.46,0,1,1,.92,0v7.58a.43.43,0,0,1-.43.44h0a.65.65,0,0,1-.49-.29l-5.21-6.66v6.5a.46.46,0,1,1-.92,0Z" transform="translate(-23.45 -26.21)"/><path class="cls-3" d="M101.31,515.18v-7.44a.48.48,0,0,1,.47-.48H107a.43.43,0,0,1,0,.86h-4.74V511h4.2a.44.44,0,0,1,.43.43.43.43,0,0,1-.43.43h-4.2v2.94h4.8a.43.43,0,0,1,0,.86h-5.28A.48.48,0,0,1,101.31,515.18Z" transform="translate(-23.45 -26.21)"/><path class="cls-3" d="M109.35,507.68a.47.47,0,1,1,.95,0v7.1h4.35a.44.44,0,0,1,.43.44.43.43,0,0,1-.43.43h-4.83a.48.48,0,0,1-.47-.48Z" transform="translate(-23.45 -26.21)"/><path class="cls-3" d="M120.38,507.74a.48.48,0,0,1,.47-.48h2.45a4.19,4.19,0,0,1,4.46,4.17v0a4.2,4.2,0,0,1-4.46,4.2h-2.45a.48.48,0,0,1-.47-.48Zm2.91,7a3.25,3.25,0,0,0,3.48-3.3v0a3.27,3.27,0,0,0-3.48-3.32h-2v6.64Z" transform="translate(-23.45 -26.21)"/><path class="cls-3" d="M129.76,515.18v-7.44a.48.48,0,0,1,.47-.48h5.22a.43.43,0,0,1,0,.86h-4.74V511h4.2a.44.44,0,0,1,.43.43.43.43,0,0,1-.43.43h-4.2v2.94h4.8a.43.43,0,1,1,0,.86h-5.28A.48.48,0,0,1,129.76,515.18Z" transform="translate(-23.45 -26.21)"/><path class="cls-3" d="M137.8,507.74a.48.48,0,0,1,.47-.48h2.67c1.89,0,3.14,1,3.14,2.66v0c0,1.81-1.51,2.75-3.3,2.75h-2v2.54a.47.47,0,1,1-.95,0Zm3,4.09c1.39,0,2.3-.74,2.3-1.85v0c0-1.2-.9-1.82-2.25-1.82h-2.12v3.69Z" transform="translate(-23.45 -26.21)"/><path class="cls-3" d="M148,508.14H145.6a.44.44,0,0,1-.44-.43.45.45,0,0,1,.44-.44h5.83a.45.45,0,0,1,.44.44.44.44,0,0,1-.44.43H149v7.1a.48.48,0,0,1-1,0Z" transform="translate(-23.45 -26.21)"/><path class="cls-3" d="M153.59,507.68a.47.47,0,1,1,.95,0V511h4.85v-3.31a.47.47,0,1,1,.95,0v7.56a.47.47,0,1,1-.95,0v-3.36h-4.85v3.36a.47.47,0,1,1-.95,0Z" transform="translate(-23.45 -26.21)"/><path class="cls-3" d="M169.1,517.25a5.6,5.6,0,0,1,0-10.07.41.41,0,0,1,.22,0,.37.37,0,0,1,.36.36.36.36,0,0,1-.18.32,5,5,0,0,0,0,8.8.36.36,0,0,1,.18.32.37.37,0,0,1-.36.36A.4.4,0,0,1,169.1,517.25Z" transform="translate(-23.45 -26.21)"/><path class="cls-3" d="M171.37,509.87a.47.47,0,0,1,.46-.47.46.46,0,0,1,.47.47v.64a2.26,2.26,0,0,1,2-1.17,2.11,2.11,0,0,1,2,1.23,2.47,2.47,0,0,1,2.18-1.23,2.23,2.23,0,0,1,2.3,2.49v3.43a.46.46,0,1,1-.92,0V512c0-1.2-.6-1.87-1.61-1.87a1.73,1.73,0,0,0-1.7,1.92v3.17a.46.46,0,1,1-.92,0V512c0-1.16-.61-1.85-1.6-1.85a1.8,1.8,0,0,0-1.73,2v3.13a.45.45,0,0,1-.46.47.46.46,0,0,1-.47-.47Z" transform="translate(-23.45 -26.21)"/><path class="cls-3" d="M182.78,509.87a.47.47,0,0,1,.46-.47.46.46,0,0,1,.47.47v.64a2.26,2.26,0,0,1,2-1.17,2.11,2.11,0,0,1,2,1.23,2.47,2.47,0,0,1,2.18-1.23,2.23,2.23,0,0,1,2.3,2.49v3.43a.46.46,0,1,1-.92,0V512c0-1.2-.6-1.87-1.61-1.87a1.73,1.73,0,0,0-1.7,1.92v3.17a.46.46,0,1,1-.92,0V512c0-1.16-.61-1.85-1.6-1.85a1.8,1.8,0,0,0-1.73,2v3.13a.45.45,0,0,1-.46.47.46.46,0,0,1-.47-.47Z" transform="translate(-23.45 -26.21)"/><path class="cls-3" d="M193.82,516.94a.36.36,0,0,1,.18-.32,5,5,0,0,0,0-8.8.36.36,0,0,1-.18-.32.37.37,0,0,1,.36-.36.41.41,0,0,1,.22,0,5.6,5.6,0,0,1,0,10.07.4.4,0,0,1-.22,0A.37.37,0,0,1,193.82,516.94Z" transform="translate(-23.45 -26.21)"/><path class="cls-3" d="M202.71,511.49v0c0-2.35,1.4-4.34,3.56-4.34s3.53,2,3.53,4.32v0c0,2.35-1.39,4.34-3.55,4.34S202.71,513.84,202.71,511.49Zm6.11,0v0c0-1.83-1-3.48-2.57-3.48s-2.55,1.61-2.55,3.45v0c0,1.83,1,3.48,2.58,3.48S208.81,513.32,208.81,511.49Z" transform="translate(-23.45 -26.21)"/><path class="cls-3" d="M211.78,514.34a.55.55,0,0,1,.56.56v.24a.57.57,0,1,1-1.14,0v-.24A.55.55,0,0,1,211.78,514.34Z" transform="translate(-23.45 -26.21)"/><path class="cls-3" d="M214.45,515a.45.45,0,0,1,.24-.84.56.56,0,0,1,.3.1,2.79,2.79,0,0,0,1.82.72c1.51,0,2.53-1.54,2.49-3.68A2.88,2.88,0,0,1,214,510v0a2.86,2.86,0,0,1,3-2.85,3,3,0,0,1,2.21.86,4.26,4.26,0,0,1,1,3.25v0c0,2.66-1.42,4.54-3.49,4.54A3.77,3.77,0,0,1,214.45,515Zm4.68-5.07v0A2,2,0,0,0,217,508a1.93,1.93,0,0,0-2,2v0a1.88,1.88,0,0,0,2.06,1.83A2,2,0,0,0,219.12,509.89Z" transform="translate(-23.45 -26.21)"/><path class="cls-3" d="M221.86,514.71a.47.47,0,0,1-.19-.4.46.46,0,0,1,.46-.44.51.51,0,0,1,.32.12,3.21,3.21,0,0,0,2.16.95,1.87,1.87,0,0,0,2-1.86v0a1.85,1.85,0,0,0-2.09-1.76,5.18,5.18,0,0,0-1.7.41.85.85,0,0,1-.48-.18.56.56,0,0,1-.2-.52l.19-3.29a.45.45,0,0,1,.46-.46h4a.44.44,0,0,1,0,.88H223.2l-.18,2.69a3.78,3.78,0,0,1,1.65-.37,2.62,2.62,0,0,1,2.9,2.57v0a2.77,2.77,0,0,1-3,2.76A4.15,4.15,0,0,1,221.86,514.71Z" transform="translate(-23.45 -26.21)"/><path class="cls-3" d="M231.6,511.29h-2a.42.42,0,1,1,0-.84h2v-2a.44.44,0,1,1,.88,0v2h2a.42.42,0,1,1,0,.84h-2v2a.44.44,0,1,1-.87,0Zm-2.45,3.95a.42.42,0,0,1,.42-.41h4.94a.41.41,0,0,1,0,.83h-4.94A.43.43,0,0,1,229.16,515.24Z" transform="translate(-23.45 -26.21)"/><path class="cls-3" d="M236.54,511.49v0c0-2.35,1.4-4.34,3.56-4.34s3.53,2,3.53,4.32v0c0,2.35-1.39,4.34-3.55,4.34S236.54,513.84,236.54,511.49Zm6.11,0v0c0-1.83-1-3.48-2.57-3.48s-2.55,1.61-2.55,3.45v0c0,1.83,1,3.48,2.58,3.48S242.64,513.32,242.64,511.49Z" transform="translate(-23.45 -26.21)"/><path class="cls-3" d="M245.61,514.34a.55.55,0,0,1,.56.56v.24a.57.57,0,1,1-1.14,0v-.24A.55.55,0,0,1,245.61,514.34Z" transform="translate(-23.45 -26.21)"/><path class="cls-3" d="M247.58,511.49v0c0-2.35,1.4-4.34,3.56-4.34s3.53,2,3.53,4.32v0c0,2.35-1.39,4.34-3.55,4.34S247.58,513.84,247.58,511.49Zm6.11,0v0c0-1.83-1-3.48-2.57-3.48s-2.55,1.61-2.55,3.45v0c0,1.83,1,3.48,2.58,3.48S253.68,513.32,253.68,511.49Z" transform="translate(-23.45 -26.21)"/><path class="cls-3" d="M256.32,514.71a.47.47,0,0,1-.19-.4.46.46,0,0,1,.46-.44.51.51,0,0,1,.32.12,3.21,3.21,0,0,0,2.16.95,1.87,1.87,0,0,0,2-1.86v0a1.85,1.85,0,0,0-2.09-1.76,5.18,5.18,0,0,0-1.7.41.85.85,0,0,1-.48-.18.56.56,0,0,1-.2-.52l.19-3.29a.45.45,0,0,1,.46-.46h4a.44.44,0,0,1,0,.88h-3.62l-.18,2.69a3.78,3.78,0,0,1,1.65-.37A2.62,2.62,0,0,1,262,513v0a2.77,2.77,0,0,1-3,2.76A4.15,4.15,0,0,1,256.32,514.71Z" transform="translate(-23.45 -26.21)"/><path class="cls-3" d="M112.4,26.47h5.48a8.67,8.67,0,0,1,3.17.56,7.49,7.49,0,0,1,2.47,1.54,6.88,6.88,0,0,1,1.61,2.32,7.3,7.3,0,0,1,.57,2.89v0a7.37,7.37,0,0,1-.57,2.9A6.85,6.85,0,0,1,123.52,39a7.62,7.62,0,0,1-2.47,1.55,8.53,8.53,0,0,1-3.17.57H112.4Zm5.48,12.33a5.77,5.77,0,0,0,2.1-.37,4.51,4.51,0,0,0,2.64-2.59,5.23,5.23,0,0,0,.37-2v0a5.32,5.32,0,0,0-.37-2,4.61,4.61,0,0,0-1-1.58,4.71,4.71,0,0,0-1.61-1,5.63,5.63,0,0,0-2.1-.38H115v10Z" transform="translate(-23.45 -26.21)"/><path class="cls-3" d="M129,26.47h2.58v14.7H129Z" transform="translate(-23.45 -26.21)"/><path class="cls-3" d="M135.48,26.47h2.75l4.47,7,4.47-7h2.75v14.7h-2.58V30.62l-4.64,6.93h-.08L138,30.67v10.5h-2.54Z" transform="translate(-23.45 -26.21)"/><path class="cls-3" d="M153.71,26.47h10.9v2.31h-8.32V32.6h7.37v2.31h-7.37v3.95h8.42v2.31h-11Z" transform="translate(-23.45 -26.21)"/><path class="cls-3" d="M167.78,26.47h2.39L178,36.63V26.47h2.54v14.7h-2.16l-8.11-10.46V41.17h-2.54Z" transform="translate(-23.45 -26.21)"/><path class="cls-3" d="M189.52,41.38a9.19,9.19,0,0,1-3.26-.58A8.87,8.87,0,0,1,183.38,39l1.55-1.85a9,9,0,0,0,2.16,1.42,6,6,0,0,0,2.48.49,3.21,3.21,0,0,0,1.9-.5,1.57,1.57,0,0,0,.7-1.34v0a1.7,1.7,0,0,0-.14-.7,1.53,1.53,0,0,0-.5-.58,4,4,0,0,0-1-.5,14.57,14.57,0,0,0-1.67-.46,20.39,20.39,0,0,1-2.09-.63,5.46,5.46,0,0,1-1.53-.83,3.24,3.24,0,0,1-.95-1.21,4.11,4.11,0,0,1-.33-1.72v0a3.94,3.94,0,0,1,1.42-3.07,4.89,4.89,0,0,1,1.59-.87,6.24,6.24,0,0,1,2-.31,8.36,8.36,0,0,1,2.91.48,8.66,8.66,0,0,1,2.43,1.39l-1.39,2a9,9,0,0,0-2-1.12,5.41,5.41,0,0,0-2-.39,2.76,2.76,0,0,0-1.76.5,1.53,1.53,0,0,0-.63,1.24v0a1.79,1.79,0,0,0,.15.75,1.44,1.44,0,0,0,.54.59,4.54,4.54,0,0,0,1.07.49q.68.23,1.73.48a13,13,0,0,1,2.06.64,5.33,5.33,0,0,1,1.47.88,3.47,3.47,0,0,1,.89,1.18,3.84,3.84,0,0,1,.3,1.59v0a4.25,4.25,0,0,1-.39,1.84,4,4,0,0,1-1.08,1.38,4.79,4.79,0,0,1-1.66.86A7.28,7.28,0,0,1,189.52,41.38Z" transform="translate(-23.45 -26.21)"/><path class="cls-3" d="M198,26.47h2.58v14.7H198Z" transform="translate(-23.45 -26.21)"/><path class="cls-3" d="M211.48,41.42a7.85,7.85,0,0,1-3.11-.6A7.38,7.38,0,0,1,206,39.19a7.46,7.46,0,0,1-1.57-2.41,7.6,7.6,0,0,1-.57-2.93v0a7.61,7.61,0,0,1,.57-2.93,7.4,7.4,0,0,1,1.6-2.42,7.66,7.66,0,0,1,5.54-2.26,7.86,7.86,0,0,1,3.11.6,7.32,7.32,0,0,1,4,4,7.61,7.61,0,0,1,.57,2.93v0a7.6,7.6,0,0,1-.57,2.93,7.4,7.4,0,0,1-1.6,2.42,7.66,7.66,0,0,1-5.54,2.26Zm0-2.37a4.86,4.86,0,0,0,2-.41,4.75,4.75,0,0,0,1.56-1.11,5.15,5.15,0,0,0,1-1.65,5.52,5.52,0,0,0,.37-2v0a5.61,5.61,0,0,0-.37-2A4.92,4.92,0,0,0,213.5,29a5.08,5.08,0,0,0-4,0,4.76,4.76,0,0,0-1.56,1.11,5.15,5.15,0,0,0-1,1.65,5.51,5.51,0,0,0-.37,2v0a5.59,5.59,0,0,0,.37,2,4.91,4.91,0,0,0,2.61,2.78A4.81,4.81,0,0,0,211.52,39Z" transform="translate(-23.45 -26.21)"/><path class="cls-3" d="M222.32,26.47h2.39l7.88,10.16V26.47h2.54v14.7H233l-8.11-10.46V41.17h-2.54Z" transform="translate(-23.45 -26.21)"/><path class="cls-3" d="M244.11,26.36h2.39L253,41.17h-2.73l-1.49-3.55h-7l-1.51,3.55h-2.65Zm3.7,8.95-2.54-5.88-2.52,5.88Z" transform="translate(-23.45 -26.21)"/><path class="cls-3" d="M255.5,26.47h2.58V38.79h7.73v2.37H255.5Z" transform="translate(-23.45 -26.21)"/><path class="cls-3" d="M279.94,41.38a9.19,9.19,0,0,1-3.25-.58A8.86,8.86,0,0,1,273.81,39l1.55-1.85a9,9,0,0,0,2.16,1.42,6,6,0,0,0,2.48.49,3.21,3.21,0,0,0,1.9-.5,1.57,1.57,0,0,0,.7-1.34v0a1.7,1.7,0,0,0-.14-.7,1.52,1.52,0,0,0-.5-.58,4,4,0,0,0-1-.5,14.63,14.63,0,0,0-1.67-.46,20.34,20.34,0,0,1-2.09-.63,5.45,5.45,0,0,1-1.53-.83,3.24,3.24,0,0,1-.95-1.21,4.12,4.12,0,0,1-.33-1.72v0a3.94,3.94,0,0,1,.38-1.73,4,4,0,0,1,1-1.34,4.9,4.9,0,0,1,1.59-.87,6.24,6.24,0,0,1,2-.31,8.37,8.37,0,0,1,2.91.48,8.65,8.65,0,0,1,2.42,1.39l-1.39,2a9,9,0,0,0-2-1.12,5.41,5.41,0,0,0-2-.39,2.76,2.76,0,0,0-1.76.5,1.53,1.53,0,0,0-.63,1.24v0a1.8,1.8,0,0,0,.15.75,1.44,1.44,0,0,0,.54.59,4.52,4.52,0,0,0,1.07.49q.68.23,1.73.48a13,13,0,0,1,2.06.64,5.32,5.32,0,0,1,1.47.88,3.47,3.47,0,0,1,.89,1.18,3.83,3.83,0,0,1,.3,1.59v0a4.25,4.25,0,0,1-.39,1.84,3.94,3.94,0,0,1-1.08,1.38,4.81,4.81,0,0,1-1.66.86A7.29,7.29,0,0,1,279.94,41.38Z" transform="translate(-23.45 -26.21)"/><path class="cls-3" d="M288.24,26.47H294a7.3,7.3,0,0,1,2.32.35,5,5,0,0,1,1.76,1,4.42,4.42,0,0,1,1.11,1.55,5.05,5.05,0,0,1,.39,2v0a4.84,4.84,0,0,1-.46,2.17,4.5,4.5,0,0,1-1.26,1.56,5.62,5.62,0,0,1-1.87,1,7.8,7.8,0,0,1-2.29.33h-2.92v4.72h-2.58Zm5.59,7.67a3.43,3.43,0,0,0,2.32-.73,2.39,2.39,0,0,0,.85-1.89v0a2.32,2.32,0,0,0-.86-2,3.69,3.69,0,0,0-2.31-.66h-3v5.29Z" transform="translate(-23.45 -26.21)"/><path class="cls-3" d="M302.26,26.47h10.9v2.31h-8.32V32.6h7.37v2.31h-7.37v3.95h8.42v2.31h-11Z" transform="translate(-23.45 -26.21)"/><path class="cls-3" d="M323.16,41.42a7.49,7.49,0,0,1-3-.59,7.29,7.29,0,0,1-2.37-1.61,7.4,7.4,0,0,1-1.56-2.4,7.75,7.75,0,0,1-.57-3v0a7.79,7.79,0,0,1,.56-3,7.44,7.44,0,0,1,1.56-2.42,7.34,7.34,0,0,1,2.4-1.64,7.67,7.67,0,0,1,3.06-.6,9.32,9.32,0,0,1,1.84.17,7.47,7.47,0,0,1,1.52.47,7.11,7.11,0,0,1,1.28.72,10.12,10.12,0,0,1,1.11.92l-1.66,1.91a8.28,8.28,0,0,0-1.87-1.32,4.87,4.87,0,0,0-2.25-.5,4.61,4.61,0,0,0-1.94.41,4.71,4.71,0,0,0-1.53,1.11,5.26,5.26,0,0,0-1,1.65,5.51,5.51,0,0,0-.37,2v0a5.59,5.59,0,0,0,.37,2,5.35,5.35,0,0,0,1,1.67A4.61,4.61,0,0,0,323.24,39a5.25,5.25,0,0,0,1.24-.14,5.37,5.37,0,0,0,1.07-.38,5.67,5.67,0,0,0,1-.6,10.59,10.59,0,0,0,.93-.8l1.66,1.68a11.25,11.25,0,0,1-1.19,1.07,7.48,7.48,0,0,1-1.33.83,6.74,6.74,0,0,1-1.56.52A9.17,9.17,0,0,1,323.16,41.42Z" transform="translate(-23.45 -26.21)"/><path class="cls-3" d="M332,26.47h2.58v14.7H332Z" transform="translate(-23.45 -26.21)"/><path class="cls-3" d="M338.49,26.47h10.94v2.37h-8.36v4h7.41v2.37h-7.41v6h-2.58Z" transform="translate(-23.45 -26.21)"/><path class="cls-3" d="M352.41,26.47H355v14.7h-2.58Z" transform="translate(-23.45 -26.21)"/><path class="cls-3" d="M365.75,41.42a7.49,7.49,0,0,1-3-.59,7.29,7.29,0,0,1-2.37-1.61,7.4,7.4,0,0,1-1.56-2.4,7.75,7.75,0,0,1-.57-3v0a7.79,7.79,0,0,1,.56-3,7.44,7.44,0,0,1,1.56-2.42,7.34,7.34,0,0,1,2.4-1.64,7.67,7.67,0,0,1,3.06-.6,9.32,9.32,0,0,1,1.84.17,7.47,7.47,0,0,1,1.52.47,7.11,7.11,0,0,1,1.28.72,10.12,10.12,0,0,1,1.11.92l-1.66,1.91a8.28,8.28,0,0,0-1.87-1.32,4.87,4.87,0,0,0-2.25-.5,4.61,4.61,0,0,0-1.94.41,4.71,4.71,0,0,0-1.53,1.11,5.26,5.26,0,0,0-1,1.65,5.51,5.51,0,0,0-.37,2v0a5.59,5.59,0,0,0,.37,2,5.35,5.35,0,0,0,1,1.67A4.61,4.61,0,0,0,365.83,39a5.25,5.25,0,0,0,1.24-.14,5.37,5.37,0,0,0,1.07-.38,5.67,5.67,0,0,0,1-.6,10.59,10.59,0,0,0,.93-.8l1.66,1.68a11.25,11.25,0,0,1-1.19,1.07,7.48,7.48,0,0,1-1.33.83,6.74,6.74,0,0,1-1.56.52A9.17,9.17,0,0,1,365.75,41.42Z" transform="translate(-23.45 -26.21)"/><path class="cls-3" d="M379.63,26.36H382l6.47,14.8h-2.73l-1.49-3.55h-7l-1.51,3.55h-2.65Zm3.7,8.95-2.54-5.88-2.52,5.88Z" transform="translate(-23.45 -26.21)"/><path class="cls-3" d="M392.73,28.84h-4.66V26.47H400v2.37h-4.66V41.17h-2.58Z" transform="translate(-23.45 -26.21)"/><path class="cls-3" d="M402.87,26.47h2.58v14.7h-2.58Z" transform="translate(-23.45 -26.21)"/><path class="cls-3" d="M416.4,41.42a7.85,7.85,0,0,1-3.11-.6,7.37,7.37,0,0,1-2.42-1.63,7.46,7.46,0,0,1-1.58-2.41,7.6,7.6,0,0,1-.57-2.93v0a7.61,7.61,0,0,1,.57-2.93,7.4,7.4,0,0,1,1.6-2.42,7.66,7.66,0,0,1,5.54-2.26,7.85,7.85,0,0,1,3.11.6A7.38,7.38,0,0,1,422,28.44a7.46,7.46,0,0,1,1.58,2.4,7.61,7.61,0,0,1,.57,2.93v0a7.6,7.6,0,0,1-.57,2.93,7.4,7.4,0,0,1-1.6,2.42,7.66,7.66,0,0,1-5.54,2.26Zm0-2.37a4.85,4.85,0,0,0,2-.41A4.74,4.74,0,0,0,420,37.52a5.14,5.14,0,0,0,1-1.65,5.51,5.51,0,0,0,.37-2v0a5.6,5.6,0,0,0-.37-2A4.91,4.91,0,0,0,418.41,29a5.08,5.08,0,0,0-4,0,4.76,4.76,0,0,0-1.56,1.11,5.15,5.15,0,0,0-1,1.65,5.51,5.51,0,0,0-.37,2v0a5.59,5.59,0,0,0,.37,2,5,5,0,0,0,1,1.66,5,5,0,0,0,1.58,1.12A4.81,4.81,0,0,0,416.44,39Z" transform="translate(-23.45 -26.21)"/><path class="cls-3" d="M427.23,26.47h2.39l7.88,10.16V26.47H440v14.7h-2.16l-8.11-10.46V41.17h-2.54Z" transform="translate(-23.45 -26.21)"/><path class="cls-3" d="M457.14,41.42a7.92,7.92,0,0,1-2.31-.33,7.29,7.29,0,0,1-2-.93l-1,1.11H449.3l2.08-2.33A7.09,7.09,0,0,1,450,36.62a7.78,7.78,0,0,1-.49-2.76v0a7.62,7.62,0,0,1,.57-2.93,7.41,7.41,0,0,1,1.6-2.42,7.66,7.66,0,0,1,5.54-2.26,7.91,7.91,0,0,1,2.31.33,7.37,7.37,0,0,1,2,.93l1-1.11H465l-2.08,2.35A7.13,7.13,0,0,1,464.35,31a7.7,7.7,0,0,1,.49,2.75v0a7.61,7.61,0,0,1-.57,2.93,7.41,7.41,0,0,1-1.6,2.42,7.66,7.66,0,0,1-5.54,2.26Zm2.69-12.05a4.34,4.34,0,0,0-1.23-.62,4.73,4.73,0,0,0-1.46-.22,4.91,4.91,0,0,0-2,.41,4.75,4.75,0,0,0-1.58,1.12,5.15,5.15,0,0,0-1,1.67,5.59,5.59,0,0,0-.37,2v0a5.22,5.22,0,0,0,1,3.13Zm-2.65,9.74a4.91,4.91,0,0,0,2-.41,4.77,4.77,0,0,0,1.59-1.12,5.15,5.15,0,0,0,1-1.67,5.59,5.59,0,0,0,.37-2v0a5.22,5.22,0,0,0-1-3.13l-6.72,7.56a4.31,4.31,0,0,0,1.23.62A4.74,4.74,0,0,0,457.18,39.11Z" transform="translate(-23.45 -26.21)"/><path class="cls-3" d="M472.61,41.42a7.07,7.07,0,0,1-3.31-.72A7.56,7.56,0,0,1,467,38.86l1.81-1.68a6,6,0,0,0,1.71,1.44,4.46,4.46,0,0,0,2.15.49,2.73,2.73,0,0,0,1.82-.61,2,2,0,0,0,.72-1.62v0a1.89,1.89,0,0,0-.91-1.68,4.51,4.51,0,0,0-2.47-.59h-1.2l-.42-1.62,4-4.23H467.8V26.47h9.74V28.4l-4.11,4.2a7.46,7.46,0,0,1,1.62.39,4.85,4.85,0,0,1,1.38.77,3.63,3.63,0,0,1,1,1.22,3.88,3.88,0,0,1,.37,1.76v0a4.57,4.57,0,0,1-.38,1.87,4.27,4.27,0,0,1-1.06,1.47,4.89,4.89,0,0,1-1.63,1A6.09,6.09,0,0,1,472.61,41.42Z" transform="translate(-23.45 -26.21)"/><path class="cls-3" d="M486.64,41.42a5.79,5.79,0,0,1-2.62-.59,6.08,6.08,0,0,1-2-1.62,7.4,7.4,0,0,1-1.29-2.4,9.41,9.41,0,0,1-.45-3v0a9.28,9.28,0,0,1,.46-3,7.54,7.54,0,0,1,1.3-2.42,6.18,6.18,0,0,1,2-1.63,6.13,6.13,0,0,1,5.26,0,6,6,0,0,1,2,1.62,7.7,7.7,0,0,1,1.29,2.4,9.22,9.22,0,0,1,.46,3v0a9.32,9.32,0,0,1-.46,3,7.56,7.56,0,0,1-1.3,2.42,6.19,6.19,0,0,1-2,1.63A5.76,5.76,0,0,1,486.64,41.42Zm0-2.31a2.94,2.94,0,0,0,1.54-.41,3.72,3.72,0,0,0,1.17-1.13,5.64,5.64,0,0,0,.75-1.67,7.65,7.65,0,0,0,.26-2v0a7.49,7.49,0,0,0-.27-2.06,5.86,5.86,0,0,0-.76-1.68,3.78,3.78,0,0,0-1.18-1.14,3.07,3.07,0,0,0-3.09,0,3.71,3.71,0,0,0-1.18,1.12,5.48,5.48,0,0,0-.75,1.67,7.72,7.72,0,0,0-.26,2.05v0a7.73,7.73,0,0,0,.26,2.06,5.47,5.47,0,0,0,.76,1.68,3.89,3.89,0,0,0,1.19,1.14A2.93,2.93,0,0,0,486.68,39.11Z" transform="translate(-23.45 -26.21)"/><path class="cls-3" d="M502.52,28.74h-7.39V26.47h10.33v2l-6.64,12.75h-2.9Z" transform="translate(-23.45 -26.21)"/></svg>