<svg id="Layer_1" data-name="Layer 1" xmlns="http://www.w3.org/2000/svg" viewBox="0 0 573.67 498.76"><defs><style>.cls-1{fill:none;stroke:#010101;stroke-miterlimit:10;}.cls-2{fill:#010101;}.cls-3{fill:#333;}</style></defs><title>dimensional_202</title><line class="cls-1" x1="0.5" y1="57.62" x2="0.5" y2="121.62"/><line class="cls-1" x1="79.63" y1="59.62" x2="79.63" y2="124.99"/><line class="cls-1" x1="74.63" y1="106.62" x2="74.63" y2="185.99"/><line class="cls-1" x1="497.63" y1="106.62" x2="497.63" y2="185.99"/><line class="cls-1" x1="492.63" y1="59.62" x2="492.63" y2="124.99"/><line class="cls-1" x1="216.96" y1="265.62" x2="216.96" y2="339.99"/><line class="cls-1" x1="258.29" y1="224.62" x2="258.29" y2="339.99"/><line class="cls-1" x1="188.77" y1="265.62" x2="227.15" y2="265.62"/><line class="cls-1" x1="188.77" y1="246.95" x2="267.15" y2="246.95"/><line class="cls-1" x1="276.1" y1="395.29" x2="348.48" y2="395.29"/><line class="cls-1" x1="223.6" y1="455.79" x2="346.98" y2="455.79"/><line class="cls-1" x1="120.17" y1="460.79" x2="210.17" y2="460.79"/><polyline class="cls-1" points="202.66 241.31 202.66 223.32 202.66 241.31"/><polygon class="cls-2" points="204.4 240.13 202.66 246.63 200.91 240.13 204.4 240.13"/><polygon class="cls-2" points="200.91 240.13 202.66 246.63 204.4 240.13 200.91 240.13"/><path class="cls-1" d="M227.16,304.43v0Z" transform="translate(-24.5 -26.21)"/><polyline class="cls-1" points="202.66 273.63 202.66 291.63 202.66 273.63"/><polygon class="cls-2" points="200.91 274.82 202.66 268.32 204.4 274.82 200.91 274.82"/><polygon class="cls-2" points="204.4 274.82 202.66 268.32 200.91 274.82 204.4 274.82"/><polyline class="cls-1" points="335.32 387.65 335.32 369.65 335.32 387.65"/><polygon class="cls-2" points="337.07 386.46 335.32 392.96 333.58 386.46 337.07 386.46"/><polygon class="cls-2" points="333.58 386.46 335.32 392.96 337.07 386.46 333.58 386.46"/><path class="cls-1" d="M359.82,487.76v0Z" transform="translate(-24.5 -26.21)"/><polyline class="cls-1" points="335.32 466.97 335.32 484.96 335.32 466.97"/><polygon class="cls-2" points="333.58 468.15 335.32 461.65 337.07 468.15 333.58 468.15"/><polygon class="cls-2" points="337.07 468.15 335.32 461.65 333.58 468.15 337.07 468.15"/><polyline class="cls-1" points="136.32 442.65 136.32 424.65 136.32 442.65"/><polygon class="cls-2" points="138.07 441.46 136.32 447.96 134.58 441.46 138.07 441.46"/><polygon class="cls-2" points="134.58 441.46 136.32 447.96 138.07 441.46 134.58 441.46"/><path class="cls-1" d="M160.82,486.76v0Z" transform="translate(-24.5 -26.21)"/><polyline class="cls-1" points="136.32 465.97 136.32 483.96 136.32 465.97"/><polygon class="cls-2" points="134.58 467.15 136.32 460.65 138.07 467.15 134.58 467.15"/><polygon class="cls-2" points="138.07 467.15 136.32 460.65 134.58 467.15 138.07 467.15"/><polyline class="cls-1" points="259.65 330.31 277.65 330.31 259.65 330.31"/><polygon class="cls-2" points="260.84 332.05 254.33 330.31 260.84 328.56 260.84 332.05"/><polygon class="cls-2" points="260.84 328.56 254.33 330.31 260.84 332.05 260.84 328.56"/><polyline class="cls-1" points="212.66 330.31 194.67 330.31 212.66 330.31"/><polygon class="cls-2" points="211.47 328.56 217.98 330.31 211.47 332.05 211.47 328.56"/><polygon class="cls-2" points="211.47 332.05 217.98 330.31 211.47 328.56 211.47 332.05"/><path class="cls-1" d="M282.15,356.52h0Z" transform="translate(-24.5 -26.21)"/><line class="cls-1" x1="6.32" y1="70.64" x2="565.52" y2="70.64"/><polygon class="cls-2" points="7.5 72.38 1 70.64 7.5 68.9 7.5 72.38"/><polygon class="cls-2" points="564.33 72.38 570.83 70.64 564.33 68.9 564.33 72.38"/><line class="cls-1" x1="86.32" y1="101.64" x2="484.52" y2="101.64"/><polygon class="cls-2" points="87.5 103.38 81 101.64 87.5 99.9 87.5 103.38"/><polygon class="cls-2" points="483.33 103.38 489.83 101.64 483.33 99.9 483.33 103.38"/><line class="cls-1" x1="79.32" y1="183.64" x2="493.52" y2="183.64"/><polygon class="cls-2" points="80.5 185.38 74 183.64 80.5 181.9 80.5 185.38"/><polygon class="cls-2" points="492.33 185.38 498.83 183.64 492.33 181.9 492.33 185.38"/><line class="cls-1" x1="571.5" y1="57.62" x2="571.5" y2="121.62"/><path class="cls-3" d="M371.32,452.16v0a4.23,4.23,0,0,1,4.25-4.34,4.34,4.34,0,0,1,3,1.09.52.52,0,0,1,.19.38.49.49,0,0,1-.48.47.57.57,0,0,1-.31-.11,3.43,3.43,0,0,0-2.41-1,3.29,3.29,0,0,0-3.25,3.44v0a3.31,3.31,0,0,0,3.25,3.47,3.44,3.44,0,0,0,2.5-1,.43.43,0,0,1,.3-.13.47.47,0,0,1,.46.46.45.45,0,0,1-.16.33,4.3,4.3,0,0,1-3.12,1.24A4.19,4.19,0,0,1,371.32,452.16Z" transform="translate(-24.5 -26.21)"/><path class="cls-3" d="M379.93,452.16v0a4.28,4.28,0,1,1,8.56,0v0a4.28,4.28,0,1,1-8.56,0Zm7.58,0v0a3.34,3.34,0,0,0-3.31-3.47,3.3,3.3,0,0,0-3.29,3.44v0a3.34,3.34,0,0,0,3.31,3.47A3.3,3.3,0,0,0,387.51,452.16Z" transform="translate(-24.5 -26.21)"/><path class="cls-3" d="M390.37,452.82v-4.46a.47.47,0,1,1,.95,0v4.4c0,1.81,1,2.83,2.57,2.83s2.53-.94,2.53-2.77v-4.46a.47.47,0,1,1,.95,0v4.39c0,2.45-1.4,3.72-3.5,3.72A3.29,3.29,0,0,1,390.37,452.82Z" transform="translate(-24.5 -26.21)"/><path class="cls-3" d="M399.61,448.37a.48.48,0,0,1,.47-.47h.13a.58.58,0,0,1,.48.28l5.1,6.5v-6.33a.46.46,0,1,1,.92,0v7.58a.43.43,0,0,1-.43.44h0a.65.65,0,0,1-.49-.29l-5.21-6.66v6.5a.46.46,0,1,1-.92,0Z" transform="translate(-24.5 -26.21)"/><path class="cls-3" d="M411.31,448.81h-2.43a.44.44,0,0,1-.44-.43.45.45,0,0,1,.44-.44h5.83a.45.45,0,0,1,.44.44.44.44,0,0,1-.44.43h-2.43v7.1a.48.48,0,0,1-1,0Z" transform="translate(-24.5 -26.21)"/><path class="cls-3" d="M416.87,455.85v-7.44a.48.48,0,0,1,.47-.48h5.22a.43.43,0,0,1,0,.86h-4.74v2.87H422a.44.44,0,0,1,.43.43.43.43,0,0,1-.43.43h-4.2v2.94h4.8a.43.43,0,1,1,0,.86h-5.28A.48.48,0,0,1,416.87,455.85Z" transform="translate(-24.5 -26.21)"/><path class="cls-3" d="M424.91,448.42a.48.48,0,0,1,.47-.48h3.14a3.31,3.31,0,0,1,2.39.84,2.32,2.32,0,0,1,.65,1.66v0a2.44,2.44,0,0,1-2.24,2.43l2.09,2.69a.52.52,0,0,1,.16.35.5.5,0,0,1-.48.47.55.55,0,0,1-.44-.25l-2.36-3.07h-2.41v2.84a.47.47,0,1,1-.95,0Zm3.53,3.8c1.26,0,2.16-.65,2.16-1.73v0c0-1-.79-1.65-2.15-1.65h-2.59v3.41Z" transform="translate(-24.5 -26.21)"/><path class="cls-3" d="M436.88,455.33a.42.42,0,0,1-.18-.36.46.46,0,0,1,.46-.47.42.42,0,0,1,.29.11,3.82,3.82,0,0,0,2.65,1c1.13,0,1.87-.6,1.87-1.43v0c0-.78-.42-1.22-2.18-1.6-1.93-.42-2.82-1-2.82-2.42v0a2.48,2.48,0,0,1,2.76-2.29,4.28,4.28,0,0,1,2.67.83.49.49,0,0,1,.2.38.46.46,0,0,1-.46.46.44.44,0,0,1-.28-.08,3.51,3.51,0,0,0-2.17-.73c-1.09,0-1.79.6-1.79,1.36v0c0,.79.43,1.24,2.28,1.63s2.74,1.09,2.74,2.38v0c0,1.44-1.2,2.38-2.87,2.38A4.9,4.9,0,0,1,436.88,455.33Z" transform="translate(-24.5 -26.21)"/><path class="cls-3" d="M444.95,448.36a.47.47,0,1,1,.95,0v7.56a.47.47,0,1,1-.95,0Z" transform="translate(-24.5 -26.21)"/><path class="cls-3" d="M448.35,448.37a.48.48,0,0,1,.47-.47H449a.58.58,0,0,1,.48.28l5.1,6.5v-6.33a.46.46,0,1,1,.92,0v7.58a.43.43,0,0,1-.43.44h0a.65.65,0,0,1-.49-.29l-5.21-6.66v6.5a.46.46,0,1,1-.92,0Z" transform="translate(-24.5 -26.21)"/><path class="cls-3" d="M457.83,448.36a.47.47,0,1,1,.95,0V453l4.79-4.91a.54.54,0,0,1,.37-.17.46.46,0,0,1,.3.8l-3,3,3.19,3.93a.52.52,0,0,1,.13.35.49.49,0,0,1-.48.48.45.45,0,0,1-.38-.22l-3.13-3.9-1.81,1.81v1.82a.47.47,0,1,1-.95,0Z" transform="translate(-24.5 -26.21)"/><path class="cls-3" d="M470,448.42a.48.48,0,0,1,.47-.48h2.45a4.19,4.19,0,0,1,4.46,4.17v0a4.2,4.2,0,0,1-4.46,4.2h-2.45a.48.48,0,0,1-.47-.48Zm2.91,7a3.25,3.25,0,0,0,3.48-3.3v0a3.27,3.27,0,0,0-3.48-3.32h-2v6.64Z" transform="translate(-24.5 -26.21)"/><path class="cls-3" d="M479.38,455.85v-7.44a.48.48,0,0,1,.47-.48h5.22a.43.43,0,0,1,0,.86h-4.74v2.87h4.2a.44.44,0,0,1,.43.43.43.43,0,0,1-.43.43h-4.2v2.94h4.8a.43.43,0,0,1,0,.86h-5.28A.48.48,0,0,1,479.38,455.85Z" transform="translate(-24.5 -26.21)"/><path class="cls-3" d="M487.42,448.42a.48.48,0,0,1,.47-.48h2.67c1.89,0,3.14,1,3.14,2.66v0c0,1.81-1.51,2.75-3.3,2.75h-2v2.54a.47.47,0,1,1-.95,0Zm3,4.09c1.39,0,2.3-.74,2.3-1.85v0c0-1.2-.9-1.82-2.25-1.82h-2.12v3.69Z" transform="translate(-24.5 -26.21)"/><path class="cls-3" d="M497.66,448.81h-2.43a.44.44,0,0,1-.44-.43.45.45,0,0,1,.44-.44h5.83a.45.45,0,0,1,.44.44.44.44,0,0,1-.44.43h-2.43v7.1a.48.48,0,0,1-1,0Z" transform="translate(-24.5 -26.21)"/><path class="cls-3" d="M503.22,448.36a.47.47,0,1,1,.95,0v3.31H509v-3.31a.47.47,0,1,1,.95,0v7.56a.47.47,0,1,1-.95,0v-3.36h-4.85v3.36a.47.47,0,1,1-.95,0Z" transform="translate(-24.5 -26.21)"/><path class="cls-3" d="M518.72,457.93a5.6,5.6,0,0,1,0-10.07.41.41,0,0,1,.22,0,.37.37,0,0,1,.36.36.36.36,0,0,1-.18.32,5,5,0,0,0,0,8.8.36.36,0,0,1,.18.32.37.37,0,0,1-.36.36A.4.4,0,0,1,518.72,457.93Z" transform="translate(-24.5 -26.21)"/><path class="cls-3" d="M521,450.54a.47.47,0,0,1,.46-.47.46.46,0,0,1,.47.47v.64a2.26,2.26,0,0,1,2-1.17,2.1,2.1,0,0,1,2,1.23,2.47,2.47,0,0,1,2.18-1.23,2.23,2.23,0,0,1,2.3,2.49v3.43a.46.46,0,1,1-.92,0v-3.21c0-1.2-.6-1.87-1.61-1.87a1.73,1.73,0,0,0-1.7,1.92v3.17a.46.46,0,1,1-.92,0v-3.24c0-1.16-.61-1.85-1.6-1.85a1.8,1.8,0,0,0-1.73,2v3.13a.45.45,0,0,1-.46.47.46.46,0,0,1-.47-.47Z" transform="translate(-24.5 -26.21)"/><path class="cls-3" d="M532.4,450.54a.47.47,0,0,1,.46-.47.46.46,0,0,1,.47.47v.64a2.26,2.26,0,0,1,2-1.17,2.1,2.1,0,0,1,2,1.23A2.47,2.47,0,0,1,539.5,450a2.23,2.23,0,0,1,2.3,2.49v3.43a.46.46,0,1,1-.92,0v-3.21c0-1.2-.6-1.87-1.61-1.87a1.73,1.73,0,0,0-1.7,1.92v3.17a.46.46,0,1,1-.92,0v-3.24c0-1.16-.61-1.85-1.6-1.85a1.8,1.8,0,0,0-1.73,2v3.13a.45.45,0,0,1-.46.47.46.46,0,0,1-.47-.47Z" transform="translate(-24.5 -26.21)"/><path class="cls-3" d="M543.44,457.62a.36.36,0,0,1,.18-.32,5,5,0,0,0,0-8.8.36.36,0,0,1-.18-.32.37.37,0,0,1,.36-.36.41.41,0,0,1,.22,0,5.6,5.6,0,0,1,0,10.07.4.4,0,0,1-.22,0A.37.37,0,0,1,543.44,457.62Z" transform="translate(-24.5 -26.21)"/><path class="cls-3" d="M552.5,455.39a.47.47,0,0,1-.19-.4.46.46,0,0,1,.46-.44.51.51,0,0,1,.32.12,3.21,3.21,0,0,0,2.16.95,1.87,1.87,0,0,0,2-1.86v0a1.85,1.85,0,0,0-2.09-1.76,5.18,5.18,0,0,0-1.7.41.85.85,0,0,1-.48-.18.56.56,0,0,1-.2-.52l.19-3.29a.45.45,0,0,1,.46-.46h4a.44.44,0,0,1,0,.88h-3.62l-.18,2.69a3.78,3.78,0,0,1,1.65-.37,2.62,2.62,0,0,1,2.9,2.57v0a2.77,2.77,0,0,1-3,2.76A4.15,4.15,0,0,1,552.5,455.39Z" transform="translate(-24.5 -26.21)"/><path class="cls-3" d="M560.41,455a.55.55,0,0,1,.56.56v.24a.57.57,0,1,1-1.14,0v-.24A.55.55,0,0,1,560.41,455Z" transform="translate(-24.5 -26.21)"/><path class="cls-3" d="M562.63,455.45l2.87-2.53c1.29-1.15,1.75-1.8,1.75-2.64a1.6,1.6,0,0,0-1.69-1.61,2.51,2.51,0,0,0-2.09,1.22.43.43,0,0,1-.35.17.43.43,0,0,1-.43-.43.42.42,0,0,1,.1-.26,3.18,3.18,0,0,1,2.84-1.55,2.42,2.42,0,0,1,2.6,2.38v0c0,1.22-.65,2-2.12,3.26l-2.24,2h4.07a.43.43,0,1,1,0,.86h-5a.45.45,0,0,1-.48-.44A.55.55,0,0,1,562.63,455.45Z" transform="translate(-24.5 -26.21)"/><path class="cls-3" d="M572.37,452h-2a.42.42,0,1,1,0-.84h2v-2a.44.44,0,1,1,.88,0v2h2a.42.42,0,1,1,0,.84h-2v2a.44.44,0,1,1-.87,0Zm-2.45,3.95a.42.42,0,0,1,.42-.41h4.94a.41.41,0,0,1,0,.83h-4.94A.43.43,0,0,1,569.92,455.91Z" transform="translate(-24.5 -26.21)"/><path class="cls-3" d="M577.3,452.16v0c0-2.35,1.4-4.34,3.56-4.34s3.53,2,3.53,4.32v0c0,2.35-1.39,4.34-3.55,4.34S577.3,454.51,577.3,452.16Zm6.11,0v0c0-1.83-1-3.48-2.57-3.48s-2.55,1.61-2.55,3.45v0c0,1.83,1,3.48,2.58,3.48S583.41,454,583.41,452.16Z" transform="translate(-24.5 -26.21)"/><path class="cls-3" d="M586.38,455a.55.55,0,0,1,.56.56v.24a.57.57,0,1,1-1.14,0v-.24A.55.55,0,0,1,586.38,455Z" transform="translate(-24.5 -26.21)"/><path class="cls-3" d="M589.38,448.83l-1.17.38a.66.66,0,0,1-.2,0,.41.41,0,0,1-.41-.41.43.43,0,0,1,.34-.41l1.38-.48a1.81,1.81,0,0,1,.52-.11h0a.46.46,0,0,1,.47.47v7.6a.47.47,0,0,1-.47.48.48.48,0,0,1-.47-.48Z" transform="translate(-24.5 -26.21)"/><path class="cls-3" d="M592.45,455.39a.47.47,0,0,1-.19-.4.46.46,0,0,1,.46-.44.51.51,0,0,1,.32.12,3.21,3.21,0,0,0,2.16.95,1.87,1.87,0,0,0,2-1.86v0a1.85,1.85,0,0,0-2.09-1.76,5.18,5.18,0,0,0-1.7.41.85.85,0,0,1-.48-.18.56.56,0,0,1-.2-.52l.19-3.29a.45.45,0,0,1,.46-.46h4a.44.44,0,0,1,0,.88h-3.62l-.18,2.69a3.78,3.78,0,0,1,1.65-.37,2.62,2.62,0,0,1,2.9,2.57v0a2.77,2.77,0,0,1-3,2.76A4.15,4.15,0,0,1,592.45,455.39Z" transform="translate(-24.5 -26.21)"/><path class="cls-3" d="M312.32,356.66v0a4.23,4.23,0,0,1,4.25-4.34,4.34,4.34,0,0,1,3,1.09.52.52,0,0,1,.19.38.49.49,0,0,1-.48.47.57.57,0,0,1-.31-.11,3.43,3.43,0,0,0-2.41-1,3.29,3.29,0,0,0-3.25,3.44v0a3.31,3.31,0,0,0,3.25,3.47,3.44,3.44,0,0,0,2.5-1,.43.43,0,0,1,.3-.13.47.47,0,0,1,.46.46.45.45,0,0,1-.16.33,4.3,4.3,0,0,1-3.12,1.24A4.19,4.19,0,0,1,312.32,356.66Z" transform="translate(-24.5 -26.21)"/><path class="cls-3" d="M321.41,357.32v-4.46a.47.47,0,1,1,.95,0v4.4c0,1.81,1,2.83,2.57,2.83s2.53-.94,2.53-2.77v-4.46a.47.47,0,1,1,.95,0v4.39c0,2.45-1.4,3.72-3.5,3.72A3.29,3.29,0,0,1,321.41,357.32Z" transform="translate(-24.5 -26.21)"/><path class="cls-3" d="M330.65,352.92a.48.48,0,0,1,.47-.48h3.14a3.31,3.31,0,0,1,2.39.84,2.32,2.32,0,0,1,.65,1.66v0a2.44,2.44,0,0,1-2.24,2.43l2.09,2.69a.52.52,0,0,1,.16.35.5.5,0,0,1-.48.47.55.55,0,0,1-.44-.25L334,357.57H331.6v2.84a.47.47,0,1,1-.95,0Zm3.53,3.8c1.26,0,2.16-.65,2.16-1.73v0c0-1-.79-1.65-2.15-1.65H331.6v3.41Z" transform="translate(-24.5 -26.21)"/><path class="cls-3" d="M339.33,352.86a.47.47,0,1,1,.95,0V360h4.35a.44.44,0,0,1,.43.44.43.43,0,0,1-.43.43h-4.83a.48.48,0,0,1-.47-.48Z" transform="translate(-24.5 -26.21)"/><path class="cls-3" d="M350,356.66v0a4.28,4.28,0,1,1,8.56,0v0a4.28,4.28,0,1,1-8.56,0Zm7.58,0v0a3.34,3.34,0,0,0-3.31-3.47,3.3,3.3,0,0,0-3.29,3.44v0a3.34,3.34,0,0,0,3.31,3.47A3.3,3.3,0,0,0,357.56,356.66Z" transform="translate(-24.5 -26.21)"/><path class="cls-3" d="M360.55,352.92a.48.48,0,0,1,.47-.48h2.67c1.89,0,3.14,1,3.14,2.66v0c0,1.81-1.51,2.75-3.3,2.75h-2v2.54a.47.47,0,1,1-.95,0Zm3,4.09c1.39,0,2.3-.74,2.3-1.85v0c0-1.2-.9-1.82-2.25-1.82H361.5V357Z" transform="translate(-24.5 -26.21)"/><path class="cls-3" d="M368.57,360.35v-7.44a.48.48,0,0,1,.47-.48h5.22a.43.43,0,0,1,0,.86h-4.74v2.87h4.2a.44.44,0,0,1,.43.43.43.43,0,0,1-.43.43h-4.2V360h4.8a.43.43,0,1,1,0,.86H369A.48.48,0,0,1,368.57,360.35Z" transform="translate(-24.5 -26.21)"/><path class="cls-3" d="M376.61,352.87a.48.48,0,0,1,.47-.47h.13a.58.58,0,0,1,.48.28l5.1,6.5v-6.33a.46.46,0,1,1,.92,0v7.58a.43.43,0,0,1-.43.44h0a.65.65,0,0,1-.49-.29l-5.21-6.66v6.5a.46.46,0,1,1-.92,0Z" transform="translate(-24.5 -26.21)"/><path class="cls-3" d="M386.17,352.86a.47.47,0,1,1,.95,0v7.56a.47.47,0,1,1-.95,0Z" transform="translate(-24.5 -26.21)"/><path class="cls-3" d="M389.58,352.87a.48.48,0,0,1,.47-.47h.13a.58.58,0,0,1,.48.28l5.1,6.5v-6.33a.46.46,0,1,1,.92,0v7.58a.43.43,0,0,1-.43.44h0a.65.65,0,0,1-.49-.29l-5.21-6.66v6.5a.46.46,0,1,1-.92,0Z" transform="translate(-24.5 -26.21)"/><path class="cls-3" d="M398.69,356.66v0a4.21,4.21,0,0,1,4.21-4.34,4.47,4.47,0,0,1,2.87.9.48.48,0,0,1-.28.86.5.5,0,0,1-.3-.12,3.56,3.56,0,0,0-2.33-.77,3.28,3.28,0,0,0-3.19,3.44v0a3.24,3.24,0,0,0,3.32,3.49,4,4,0,0,0,2.42-.84V357.2h-2.25a.43.43,0,0,1,0-.85h2.7a.48.48,0,0,1,.47.48v2.55a.68.68,0,0,1-.32.58,5.11,5.11,0,0,1-3,1A4.12,4.12,0,0,1,398.69,356.66Z" transform="translate(-24.5 -26.21)"/><path class="cls-3" d="M414.85,362.43a5.6,5.6,0,0,1,0-10.07.41.41,0,0,1,.22,0,.37.37,0,0,1,.36.36.36.36,0,0,1-.18.32,5,5,0,0,0,0,8.8.36.36,0,0,1,.18.32.37.37,0,0,1-.36.36A.4.4,0,0,1,414.85,362.43Z" transform="translate(-24.5 -26.21)"/><path class="cls-3" d="M417.12,355a.47.47,0,0,1,.46-.47.46.46,0,0,1,.47.47v.64a2.26,2.26,0,0,1,2-1.17,2.1,2.1,0,0,1,2,1.23,2.47,2.47,0,0,1,2.18-1.23,2.23,2.23,0,0,1,2.3,2.49v3.43a.46.46,0,1,1-.92,0v-3.21c0-1.2-.6-1.87-1.61-1.87a1.73,1.73,0,0,0-1.7,1.92v3.17a.46.46,0,1,1-.92,0v-3.24c0-1.16-.61-1.85-1.6-1.85a1.8,1.8,0,0,0-1.73,2v3.13a.45.45,0,0,1-.46.47.46.46,0,0,1-.47-.47Z" transform="translate(-24.5 -26.21)"/><path class="cls-3" d="M428.53,355a.47.47,0,0,1,.46-.47.46.46,0,0,1,.47.47v.64a2.26,2.26,0,0,1,2-1.17,2.1,2.1,0,0,1,2,1.23,2.47,2.47,0,0,1,2.18-1.23,2.23,2.23,0,0,1,2.3,2.49v3.43a.46.46,0,1,1-.92,0v-3.21c0-1.2-.6-1.87-1.61-1.87a1.73,1.73,0,0,0-1.7,1.92v3.17a.46.46,0,1,1-.92,0v-3.24c0-1.16-.61-1.85-1.6-1.85a1.8,1.8,0,0,0-1.73,2v3.13a.45.45,0,0,1-.46.47.46.46,0,0,1-.47-.47Z" transform="translate(-24.5 -26.21)"/><path class="cls-3" d="M439.57,362.12a.36.36,0,0,1,.18-.32,5,5,0,0,0,0-8.8.36.36,0,0,1-.18-.32.37.37,0,0,1,.36-.36.41.41,0,0,1,.22,0,5.6,5.6,0,0,1,0,10.07.4.4,0,0,1-.22,0A.37.37,0,0,1,439.57,362.12Z" transform="translate(-24.5 -26.21)"/><path class="cls-3" d="M448.51,359.65v-.8l4.58-1.85v0l-4.58-1.86v-.79l5.56,2.3v.71Zm0,1.19v-.7h5.54v.7Z" transform="translate(-24.5 -26.21)"/><path class="cls-3" d="M455.68,359.71a.52.52,0,0,1-.16-.34.48.48,0,0,1,.47-.47.49.49,0,0,1,.35.14,2.88,2.88,0,0,0,2.28,1.07,1.69,1.69,0,0,0,1.83-1.63v0c0-1-1-1.62-2.35-1.62h-.3a.41.41,0,0,1-.42-.41.53.53,0,0,1,.19-.37l2.45-2.77H456.3a.43.43,0,0,1-.44-.42.44.44,0,0,1,.44-.43h4.58a.42.42,0,0,1,.46.41.68.68,0,0,1-.23.47l-2.47,2.75c1.46.12,2.77.83,2.77,2.36v0A2.61,2.61,0,0,1,458.6,361,3.79,3.79,0,0,1,455.68,359.71Z" transform="translate(-24.5 -26.21)"/><path class="cls-3" d="M463.71,359.51a.55.55,0,0,1,.56.56v.24a.57.57,0,1,1-1.14,0v-.24A.55.55,0,0,1,463.71,359.51Z" transform="translate(-24.5 -26.21)"/><path class="cls-3" d="M466.08,359.89a.47.47,0,0,1-.19-.4.46.46,0,0,1,.46-.44.51.51,0,0,1,.32.12,3.21,3.21,0,0,0,2.16.95,1.87,1.87,0,0,0,2-1.86v0a1.85,1.85,0,0,0-2.09-1.76,5.18,5.18,0,0,0-1.7.41.85.85,0,0,1-.48-.18.56.56,0,0,1-.2-.52l.19-3.29a.45.45,0,0,1,.46-.46h4a.44.44,0,0,1,0,.88h-3.62l-.18,2.69a3.78,3.78,0,0,1,1.65-.37,2.62,2.62,0,0,1,2.9,2.57v0a2.77,2.77,0,0,1-3,2.76A4.15,4.15,0,0,1,466.08,359.89Z" transform="translate(-24.5 -26.21)"/><path class="cls-3" d="M43.23,282.16v0a4.23,4.23,0,0,1,4.25-4.34,4.34,4.34,0,0,1,3,1.09.52.52,0,0,1,.19.38.49.49,0,0,1-.48.47.57.57,0,0,1-.31-.11,3.44,3.44,0,0,0-2.41-1,3.29,3.29,0,0,0-3.25,3.44v0a3.31,3.31,0,0,0,3.25,3.47,3.44,3.44,0,0,0,2.49-1,.43.43,0,0,1,.3-.13.47.47,0,0,1,.46.46.45.45,0,0,1-.16.33,4.3,4.3,0,0,1-3.12,1.24A4.19,4.19,0,0,1,43.23,282.16Z" transform="translate(-24.5 -26.21)"/><path class="cls-3" d="M52.33,282.82v-4.46a.47.47,0,1,1,.95,0v4.4c0,1.81,1,2.83,2.57,2.83s2.53-.94,2.53-2.77v-4.46a.47.47,0,1,1,.95,0v4.39c0,2.45-1.4,3.72-3.5,3.72A3.29,3.29,0,0,1,52.33,282.82Z" transform="translate(-24.5 -26.21)"/><path class="cls-3" d="M61.57,278.42a.48.48,0,0,1,.47-.48h3.14a3.31,3.31,0,0,1,2.39.84,2.32,2.32,0,0,1,.65,1.66v0A2.44,2.44,0,0,1,66,282.89l2.09,2.69a.52.52,0,0,1,.16.35.5.5,0,0,1-.48.47.55.55,0,0,1-.44-.25l-2.36-3.07H62.51v2.84a.47.47,0,1,1-.95,0Zm3.53,3.8c1.26,0,2.16-.65,2.16-1.73v0c0-1-.79-1.65-2.15-1.65H62.51v3.41Z" transform="translate(-24.5 -26.21)"/><path class="cls-3" d="M70.24,278.36a.47.47,0,1,1,.95,0v7.1h4.35a.44.44,0,0,1,.43.44.43.43,0,0,1-.43.43H70.71a.48.48,0,0,1-.47-.48Z" transform="translate(-24.5 -26.21)"/><path class="cls-3" d="M81.27,278.36a.47.47,0,1,1,.95,0v3.31h4.85v-3.31a.47.47,0,1,1,.95,0v7.56a.47.47,0,1,1-.95,0v-3.36H82.22v3.36a.47.47,0,1,1-.95,0Z" transform="translate(-24.5 -26.21)"/><path class="cls-3" d="M90.39,285.85v-7.44a.48.48,0,0,1,.47-.48h5.22a.43.43,0,1,1,0,.86H91.34v2.87h4.2a.44.44,0,0,1,.43.43.43.43,0,0,1-.43.43h-4.2v2.94h4.8a.43.43,0,1,1,0,.86H90.86A.48.48,0,0,1,90.39,285.85Z" transform="translate(-24.5 -26.21)"/><path class="cls-3" d="M98.51,278.36a.47.47,0,1,1,.95,0v7.56a.47.47,0,1,1-.95,0Z" transform="translate(-24.5 -26.21)"/><path class="cls-3" d="M101.55,282.16v0a4.21,4.21,0,0,1,4.21-4.34,4.47,4.47,0,0,1,2.87.9.48.48,0,0,1-.28.86.5.5,0,0,1-.3-.12,3.56,3.56,0,0,0-2.33-.77,3.28,3.28,0,0,0-3.19,3.44v0a3.24,3.24,0,0,0,3.32,3.49,4,4,0,0,0,2.42-.84V282.7H106a.43.43,0,0,1,0-.85h2.7a.48.48,0,0,1,.47.48v2.55a.68.68,0,0,1-.32.58,5.11,5.11,0,0,1-3,1A4.12,4.12,0,0,1,101.55,282.16Z" transform="translate(-24.5 -26.21)"/><path class="cls-3" d="M111.33,278.36a.47.47,0,1,1,.95,0v3.31h4.85v-3.31a.47.47,0,1,1,.95,0v7.56a.47.47,0,1,1-.95,0v-3.36h-4.85v3.36a.47.47,0,1,1-.95,0Z" transform="translate(-24.5 -26.21)"/><path class="cls-3" d="M122.67,278.81h-2.43a.44.44,0,0,1-.44-.43.45.45,0,0,1,.44-.44h5.83a.45.45,0,0,1,.44.44.44.44,0,0,1-.44.43h-2.43v7.1a.48.48,0,0,1-1,0Z" transform="translate(-24.5 -26.21)"/><path class="cls-3" d="M134.61,287.93a5.6,5.6,0,0,1,0-10.07.41.41,0,0,1,.22,0,.37.37,0,0,1,.36.36.36.36,0,0,1-.18.32,5,5,0,0,0,0,8.8.36.36,0,0,1,.18.32.37.37,0,0,1-.36.36A.4.4,0,0,1,134.61,287.93Z" transform="translate(-24.5 -26.21)"/><path class="cls-3" d="M136.88,280.54a.47.47,0,0,1,.46-.47.46.46,0,0,1,.47.47v.64a2.27,2.27,0,0,1,2-1.17,2.11,2.11,0,0,1,2,1.23A2.47,2.47,0,0,1,144,280a2.23,2.23,0,0,1,2.3,2.49v3.43a.46.46,0,1,1-.92,0v-3.21c0-1.2-.6-1.87-1.61-1.87a1.73,1.73,0,0,0-1.7,1.92v3.17a.46.46,0,1,1-.92,0v-3.24c0-1.16-.61-1.85-1.6-1.85a1.8,1.8,0,0,0-1.73,2v3.13a.45.45,0,0,1-.46.47.46.46,0,0,1-.47-.47Z" transform="translate(-24.5 -26.21)"/><path class="cls-3" d="M148.29,280.54a.47.47,0,0,1,.46-.47.46.46,0,0,1,.47.47v.64a2.27,2.27,0,0,1,2-1.17,2.11,2.11,0,0,1,2,1.23,2.47,2.47,0,0,1,2.18-1.23,2.23,2.23,0,0,1,2.3,2.49v3.43a.46.46,0,1,1-.92,0v-3.21c0-1.2-.6-1.87-1.61-1.87a1.73,1.73,0,0,0-1.7,1.92v3.17a.46.46,0,1,1-.92,0v-3.24c0-1.16-.61-1.85-1.6-1.85a1.8,1.8,0,0,0-1.73,2v3.13a.45.45,0,0,1-.46.47.46.46,0,0,1-.47-.47Z" transform="translate(-24.5 -26.21)"/><path class="cls-3" d="M159.33,287.62a.36.36,0,0,1,.18-.32,5,5,0,0,0,0-8.8.36.36,0,0,1-.18-.32.37.37,0,0,1,.36-.36.41.41,0,0,1,.22,0,5.6,5.6,0,0,1,0,10.07.4.4,0,0,1-.22,0A.37.37,0,0,1,159.33,287.62Z" transform="translate(-24.5 -26.21)"/><path class="cls-3" d="M168.23,285.45l2.87-2.53c1.3-1.15,1.75-1.8,1.75-2.64a1.6,1.6,0,0,0-1.69-1.61,2.5,2.5,0,0,0-2.09,1.22.44.44,0,0,1-.78-.26.42.42,0,0,1,.1-.26,3.18,3.18,0,0,1,2.84-1.55,2.42,2.42,0,0,1,2.6,2.38v0c0,1.22-.65,2-2.12,3.26l-2.24,2h4.07a.43.43,0,1,1,0,.86h-5a.44.44,0,0,1-.48-.44A.55.55,0,0,1,168.23,285.45Z" transform="translate(-24.5 -26.21)"/><path class="cls-3" d="M176.14,285a.55.55,0,0,1,.56.56v.24a.57.57,0,1,1-1.14,0v-.24A.55.55,0,0,1,176.14,285Z" transform="translate(-24.5 -26.21)"/><path class="cls-3" d="M178.11,282.16v0c0-2.35,1.4-4.34,3.56-4.34s3.53,2,3.53,4.32v0c0,2.35-1.39,4.34-3.55,4.34S178.11,284.51,178.11,282.16Zm6.11,0v0c0-1.83-1-3.48-2.57-3.48s-2.55,1.61-2.55,3.45v0c0,1.83,1,3.48,2.58,3.48S184.21,284,184.21,282.16Z" transform="translate(-24.5 -26.21)"/><path class="cls-3" d="M189.25,282h-2a.42.42,0,1,1,0-.84h2v-2a.44.44,0,1,1,.88,0v2h2a.42.42,0,1,1,0,.84h-2v2a.44.44,0,1,1-.87,0Zm-2.45,3.95a.42.42,0,0,1,.42-.41h4.94a.41.41,0,0,1,0,.83h-4.94A.43.43,0,0,1,186.81,285.91Z" transform="translate(-24.5 -26.21)"/><path class="cls-3" d="M194.19,282.16v0c0-2.35,1.4-4.34,3.56-4.34s3.53,2,3.53,4.32v0c0,2.35-1.39,4.34-3.55,4.34S194.19,284.51,194.19,282.16Zm6.11,0v0c0-1.83-1-3.48-2.57-3.48s-2.55,1.61-2.55,3.45v0c0,1.83,1,3.48,2.58,3.48S200.29,284,200.29,282.16Z" transform="translate(-24.5 -26.21)"/><path class="cls-3" d="M203.26,285a.55.55,0,0,1,.56.56v.24a.57.57,0,1,1-1.14,0v-.24A.55.55,0,0,1,203.26,285Z" transform="translate(-24.5 -26.21)"/><path class="cls-3" d="M206.27,278.83l-1.17.38a.66.66,0,0,1-.2,0,.41.41,0,0,1-.41-.41.43.43,0,0,1,.34-.41l1.38-.48a1.81,1.81,0,0,1,.52-.11h0a.46.46,0,0,1,.47.47v7.6a.47.47,0,0,1-.47.48.48.48,0,0,1-.47-.48Z" transform="translate(-24.5 -26.21)"/><path class="cls-3" d="M209.16,282.16v0c0-2.35,1.4-4.34,3.56-4.34s3.53,2,3.53,4.32v0c0,2.35-1.39,4.34-3.55,4.34S209.16,284.51,209.16,282.16Zm6.11,0v0c0-1.83-1-3.48-2.57-3.48s-2.55,1.61-2.55,3.45v0c0,1.83,1,3.48,2.58,3.48S215.27,284,215.27,282.16Z" transform="translate(-24.5 -26.21)"/><path class="cls-3" d="M202.57,193.86a.47.47,0,1,1,.95,0v7.56a.47.47,0,1,1-.95,0Z" transform="translate(-24.5 -26.21)"/><path class="cls-3" d="M206,193.87a.48.48,0,0,1,.47-.47h.13a.58.58,0,0,1,.48.28l5.1,6.5v-6.33a.46.46,0,1,1,.92,0v7.58a.43.43,0,0,1-.43.44h0a.65.65,0,0,1-.49-.29l-5.21-6.66v6.5a.46.46,0,1,1-.92,0Z" transform="translate(-24.5 -26.21)"/><path class="cls-3" d="M215.46,193.87a.48.48,0,0,1,.47-.47h.13a.58.58,0,0,1,.48.28l5.1,6.5v-6.33a.46.46,0,1,1,.92,0v7.58a.43.43,0,0,1-.43.44h0a.65.65,0,0,1-.49-.29l-5.21-6.66v6.5a.46.46,0,1,1-.92,0Z" transform="translate(-24.5 -26.21)"/><path class="cls-3" d="M224.94,201.35v-7.44a.48.48,0,0,1,.47-.48h5.22a.43.43,0,1,1,0,.86h-4.74v2.87h4.2a.44.44,0,0,1,.43.43.43.43,0,0,1-.43.43h-4.2V201h4.8a.43.43,0,0,1,0,.86h-5.28A.48.48,0,0,1,224.94,201.35Z" transform="translate(-24.5 -26.21)"/><path class="cls-3" d="M233,193.92a.48.48,0,0,1,.47-.48h3.14a3.31,3.31,0,0,1,2.39.84,2.32,2.32,0,0,1,.65,1.66v0a2.44,2.44,0,0,1-2.24,2.43l2.09,2.69a.51.51,0,0,1,.16.35.5.5,0,0,1-.48.47.55.55,0,0,1-.44-.25l-2.36-3.07h-2.41v2.84a.47.47,0,1,1-.95,0Zm3.53,3.8c1.26,0,2.16-.65,2.16-1.73v0c0-1-.79-1.65-2.15-1.65h-2.59v3.41Z" transform="translate(-24.5 -26.21)"/><path class="cls-3" d="M245.25,193.92a.48.48,0,0,1,.47-.48h2.45a4.19,4.19,0,0,1,4.46,4.17v0a4.2,4.2,0,0,1-4.46,4.2h-2.45a.48.48,0,0,1-.47-.48Zm2.91,7a3.25,3.25,0,0,0,3.48-3.3v0a3.27,3.27,0,0,0-3.48-3.32h-2V201Z" transform="translate(-24.5 -26.21)"/><path class="cls-3" d="M254.72,193.86a.47.47,0,1,1,.95,0v7.56a.47.47,0,1,1-.95,0Z" transform="translate(-24.5 -26.21)"/><path class="cls-3" d="M257.61,201.21l3.41-7.45a.62.62,0,0,1,.6-.42h0a.6.6,0,0,1,.59.42l3.41,7.44a.64.64,0,0,1,.06.24.45.45,0,0,1-.46.46.52.52,0,0,1-.47-.35l-.88-1.93h-4.61l-.88,2a.47.47,0,0,1-.46.32.43.43,0,0,1-.43-.43A.55.55,0,0,1,257.61,201.21Zm5.94-2.46-1.93-4.29-1.93,4.29Z" transform="translate(-24.5 -26.21)"/><path class="cls-3" d="M267.54,193.87a.48.48,0,0,1,.47-.47h.11a.52.52,0,0,1,.44.25l3,4.51,3-4.51a.51.51,0,0,1,.44-.25h.11a.48.48,0,0,1,.47.47v7.54a.48.48,0,0,1-.47.48.49.49,0,0,1-.48-.48v-6.26l-2.69,3.95a.46.46,0,0,1-.4.24.48.48,0,0,1-.41-.24l-2.67-3.93v6.26a.46.46,0,1,1-.92,0Z" transform="translate(-24.5 -26.21)"/><path class="cls-3" d="M278,201.35v-7.44a.48.48,0,0,1,.47-.48h5.22a.43.43,0,0,1,0,.86H278.9v2.87h4.2a.44.44,0,0,1,.43.43.43.43,0,0,1-.43.43h-4.2V201h4.8a.43.43,0,1,1,0,.86h-5.28A.48.48,0,0,1,278,201.35Z" transform="translate(-24.5 -26.21)"/><path class="cls-3" d="M288.21,194.31h-2.43a.44.44,0,0,1-.44-.43.45.45,0,0,1,.44-.44h5.83a.45.45,0,0,1,.44.44.44.44,0,0,1-.44.43h-2.43v7.1a.48.48,0,0,1-1,0Z" transform="translate(-24.5 -26.21)"/><path class="cls-3" d="M293.77,201.35v-7.44a.48.48,0,0,1,.47-.48h5.22a.43.43,0,0,1,0,.86h-4.74v2.87h4.2a.44.44,0,0,1,.43.43.43.43,0,0,1-.43.43h-4.2V201h4.8a.43.43,0,1,1,0,.86h-5.28A.48.48,0,0,1,293.77,201.35Z" transform="translate(-24.5 -26.21)"/><path class="cls-3" d="M301.81,193.92a.48.48,0,0,1,.47-.48h3.14a3.3,3.3,0,0,1,2.39.84,2.32,2.32,0,0,1,.65,1.66v0a2.44,2.44,0,0,1-2.24,2.43l2.09,2.69a.52.52,0,0,1,.16.35.5.5,0,0,1-.48.47.55.55,0,0,1-.44-.25l-2.36-3.07h-2.41v2.84a.47.47,0,1,1-.95,0Zm3.53,3.8c1.26,0,2.16-.65,2.16-1.73v0c0-1-.79-1.65-2.15-1.65h-2.59v3.41Z" transform="translate(-24.5 -26.21)"/><path class="cls-3" d="M316.87,203.43a5.6,5.6,0,0,1,0-10.07.41.41,0,0,1,.22,0,.37.37,0,0,1,.36.36.36.36,0,0,1-.18.32,5,5,0,0,0,0,8.8.36.36,0,0,1,.18.32.37.37,0,0,1-.36.36A.4.4,0,0,1,316.87,203.43Z" transform="translate(-24.5 -26.21)"/><path class="cls-3" d="M319.14,196a.47.47,0,0,1,.46-.47.46.46,0,0,1,.47.47v.64a2.26,2.26,0,0,1,2-1.17,2.11,2.11,0,0,1,2,1.23,2.47,2.47,0,0,1,2.18-1.23,2.23,2.23,0,0,1,2.3,2.49v3.43a.46.46,0,1,1-.92,0v-3.21c0-1.2-.6-1.87-1.61-1.87a1.73,1.73,0,0,0-1.7,1.92v3.17a.46.46,0,1,1-.92,0v-3.24c0-1.16-.61-1.85-1.6-1.85a1.8,1.8,0,0,0-1.73,2v3.13a.45.45,0,0,1-.46.47.46.46,0,0,1-.47-.47Z" transform="translate(-24.5 -26.21)"/><path class="cls-3" d="M330.55,196a.47.47,0,0,1,.46-.47.46.46,0,0,1,.47.47v.64a2.26,2.26,0,0,1,2-1.17,2.11,2.11,0,0,1,2,1.23,2.47,2.47,0,0,1,2.18-1.23A2.23,2.23,0,0,1,340,198v3.43a.46.46,0,1,1-.92,0v-3.21c0-1.2-.6-1.87-1.61-1.87a1.73,1.73,0,0,0-1.7,1.92v3.17a.46.46,0,1,1-.92,0v-3.24c0-1.16-.61-1.85-1.6-1.85a1.8,1.8,0,0,0-1.73,2v3.13a.45.45,0,0,1-.46.47.46.46,0,0,1-.47-.47Z" transform="translate(-24.5 -26.21)"/><path class="cls-3" d="M341.59,203.12a.36.36,0,0,1,.18-.32,5,5,0,0,0,0-8.8.36.36,0,0,1-.18-.32.37.37,0,0,1,.36-.36.41.41,0,0,1,.22,0,5.6,5.6,0,0,1,0,10.07.4.4,0,0,1-.22,0A.37.37,0,0,1,341.59,203.12Z" transform="translate(-24.5 -26.21)"/><path class="cls-3" d="M352.14,201.07l-.72.74a.42.42,0,0,1-.3.14.34.34,0,0,1-.36-.35.4.4,0,0,1,.12-.29l.72-.77a4.38,4.38,0,0,1-1-2.89v0a4.31,4.31,0,0,1,7-3.42l.72-.75a.42.42,0,0,1,.3-.14.34.34,0,0,1,.36.35.4.4,0,0,1-.12.29l-.73.78a4.36,4.36,0,0,1,1.06,2.88v0a4.32,4.32,0,0,1-7,3.43Zm.13-1.22,4.64-4.93a3.24,3.24,0,0,0-2.09-.76,3.31,3.31,0,0,0-3.29,3.45v0A3.56,3.56,0,0,0,352.27,199.84Zm5.87-2.18v0a3.59,3.59,0,0,0-.73-2.21l-4.64,4.94a3.19,3.19,0,0,0,2.09.74A3.31,3.31,0,0,0,358.13,197.66Z" transform="translate(-24.5 -26.21)"/><path class="cls-3" d="M360.85,200.89a.47.47,0,0,1-.19-.4.46.46,0,0,1,.46-.44.51.51,0,0,1,.32.12,3.21,3.21,0,0,0,2.16.95,1.87,1.87,0,0,0,2-1.86v0a1.85,1.85,0,0,0-2.09-1.76,5.18,5.18,0,0,0-1.7.41.85.85,0,0,1-.48-.18.56.56,0,0,1-.2-.52l.19-3.29a.45.45,0,0,1,.46-.46h4a.44.44,0,0,1,0,.88h-3.62L362,197a3.78,3.78,0,0,1,1.65-.37,2.62,2.62,0,0,1,2.9,2.57v0a2.77,2.77,0,0,1-3,2.76A4.15,4.15,0,0,1,360.85,200.89Z" transform="translate(-24.5 -26.21)"/><path class="cls-3" d="M367.92,200.95l2.87-2.53c1.29-1.15,1.75-1.8,1.75-2.64a1.6,1.6,0,0,0-1.69-1.61,2.51,2.51,0,0,0-2.09,1.22.43.43,0,0,1-.35.17.43.43,0,0,1-.43-.43.42.42,0,0,1,.1-.26,3.18,3.18,0,0,1,2.84-1.55,2.42,2.42,0,0,1,2.6,2.38v0c0,1.22-.65,2-2.12,3.26l-2.24,2h4.07a.43.43,0,1,1,0,.86h-5a.45.45,0,0,1-.48-.44A.55.55,0,0,1,367.92,200.95Z" transform="translate(-24.5 -26.21)"/><path class="cls-3" d="M375.82,200.51a.55.55,0,0,1,.56.56v.24a.57.57,0,1,1-1.14,0v-.24A.55.55,0,0,1,375.82,200.51Z" transform="translate(-24.5 -26.21)"/><path class="cls-3" d="M378.09,200.71a.52.52,0,0,1-.16-.34.48.48,0,0,1,.47-.47.49.49,0,0,1,.35.14,2.88,2.88,0,0,0,2.28,1.07,1.69,1.69,0,0,0,1.83-1.63v0c0-1-1-1.62-2.35-1.62h-.3a.41.41,0,0,1-.42-.41.53.53,0,0,1,.19-.37l2.45-2.77h-3.72a.43.43,0,0,1-.44-.42.44.44,0,0,1,.44-.43h4.58a.42.42,0,0,1,.46.41.68.68,0,0,1-.23.47l-2.47,2.75c1.46.12,2.77.83,2.77,2.36v0A2.61,2.61,0,0,1,381,202,3.79,3.79,0,0,1,378.09,200.71Z" transform="translate(-24.5 -26.21)"/><path class="cls-3" d="M388,197.47h-2a.42.42,0,1,1,0-.84h2v-2a.44.44,0,1,1,.88,0v2h2a.42.42,0,1,1,0,.84h-2v2a.44.44,0,1,1-.87,0Zm-2.45,3.95a.42.42,0,0,1,.42-.41h4.94a.41.41,0,0,1,0,.83h-4.94A.43.43,0,0,1,385.51,201.41Z" transform="translate(-24.5 -26.21)"/><path class="cls-3" d="M392.89,197.66v0c0-2.35,1.4-4.34,3.56-4.34s3.53,2,3.53,4.32v0c0,2.35-1.39,4.34-3.55,4.34S392.89,200,392.89,197.66Zm6.11,0v0c0-1.83-1-3.48-2.57-3.48s-2.55,1.61-2.55,3.45v0c0,1.83,1,3.48,2.58,3.48S399,199.49,399,197.66Z" transform="translate(-24.5 -26.21)"/><path class="cls-3" d="M402,200.51a.55.55,0,0,1,.56.56v.24a.57.57,0,1,1-1.14,0v-.24A.55.55,0,0,1,402,200.51Z" transform="translate(-24.5 -26.21)"/><path class="cls-3" d="M405,194.33l-1.17.38a.66.66,0,0,1-.2,0,.41.41,0,0,1-.41-.41.43.43,0,0,1,.34-.41l1.38-.48a1.81,1.81,0,0,1,.52-.11h0a.46.46,0,0,1,.47.47v7.6a.47.47,0,0,1-.47.48.48.48,0,0,1-.47-.48Z" transform="translate(-24.5 -26.21)"/><path class="cls-3" d="M407.86,197.66v0c0-2.35,1.4-4.34,3.56-4.34s3.53,2,3.53,4.32v0c0,2.35-1.39,4.34-3.55,4.34S407.86,200,407.86,197.66Zm6.11,0v0c0-1.83-1-3.48-2.57-3.48s-2.55,1.61-2.55,3.45v0c0,1.83,1,3.48,2.58,3.48S414,199.49,414,197.66Z" transform="translate(-24.5 -26.21)"/><path class="cls-3" d="M200.63,113.66v0a4.23,4.23,0,0,1,4.25-4.34,4.34,4.34,0,0,1,3,1.09.52.52,0,0,1,.19.38.49.49,0,0,1-.48.47.57.57,0,0,1-.31-.11,3.44,3.44,0,0,0-2.41-1,3.29,3.29,0,0,0-3.25,3.44v0a3.31,3.31,0,0,0,3.25,3.47,3.44,3.44,0,0,0,2.49-1,.43.43,0,0,1,.3-.13.47.47,0,0,1,.46.46.45.45,0,0,1-.16.33,4.3,4.3,0,0,1-3.12,1.24A4.19,4.19,0,0,1,200.63,113.66Z" transform="translate(-24.5 -26.21)"/><path class="cls-3" d="M209.85,109.86a.47.47,0,1,1,.95,0v3.31h4.85v-3.31a.47.47,0,1,1,.95,0v7.56a.47.47,0,1,1-.95,0v-3.36H210.8v3.36a.47.47,0,1,1-.95,0Z" transform="translate(-24.5 -26.21)"/><path class="cls-3" d="M218.84,114.32v-4.46a.47.47,0,1,1,.95,0v4.4c0,1.81,1,2.83,2.57,2.83s2.53-.94,2.53-2.77v-4.46a.47.47,0,1,1,.95,0v4.39c0,2.45-1.4,3.72-3.5,3.72A3.29,3.29,0,0,1,218.84,114.32Z" transform="translate(-24.5 -26.21)"/><path class="cls-3" d="M227.71,113.66v0a4.23,4.23,0,0,1,4.25-4.34,4.34,4.34,0,0,1,3,1.09.52.52,0,0,1,.19.38.49.49,0,0,1-.48.47.57.57,0,0,1-.31-.11,3.44,3.44,0,0,0-2.41-1,3.29,3.29,0,0,0-3.25,3.44v0a3.31,3.31,0,0,0,3.25,3.47,3.44,3.44,0,0,0,2.49-1,.43.43,0,0,1,.3-.13.47.47,0,0,1,.46.46.45.45,0,0,1-.16.33,4.3,4.3,0,0,1-3.12,1.24A4.19,4.19,0,0,1,227.71,113.66Z" transform="translate(-24.5 -26.21)"/><path class="cls-3" d="M236.94,109.86a.47.47,0,1,1,.95,0v4.59l4.79-4.91a.53.53,0,0,1,.37-.17.47.47,0,0,1,.46.47.47.47,0,0,1-.16.34l-3,3,3.19,3.93a.52.52,0,0,1,.13.35.49.49,0,0,1-.48.48.45.45,0,0,1-.38-.22l-3.13-3.9-1.81,1.81v1.82a.47.47,0,1,1-.95,0Z" transform="translate(-24.5 -26.21)"/><path class="cls-3" d="M249.11,109.92a.48.48,0,0,1,.47-.48H252a4.19,4.19,0,0,1,4.46,4.17v0a4.2,4.2,0,0,1-4.46,4.2h-2.45a.48.48,0,0,1-.47-.48Zm2.91,7a3.25,3.25,0,0,0,3.48-3.3v0a3.27,3.27,0,0,0-3.48-3.32h-2V117Z" transform="translate(-24.5 -26.21)"/><path class="cls-3" d="M258.57,109.86a.47.47,0,1,1,.95,0v7.56a.47.47,0,1,1-.95,0Z" transform="translate(-24.5 -26.21)"/><path class="cls-3" d="M261.47,117.21l3.41-7.45a.62.62,0,0,1,.6-.42h0a.6.6,0,0,1,.59.42l3.41,7.44a.64.64,0,0,1,.06.24.45.45,0,0,1-.46.46.52.52,0,0,1-.47-.35l-.88-1.93h-4.61l-.88,2a.47.47,0,0,1-.46.32.43.43,0,0,1-.43-.43A.55.55,0,0,1,261.47,117.21Zm5.94-2.46-1.93-4.29-1.93,4.29Z" transform="translate(-24.5 -26.21)"/><path class="cls-3" d="M271.39,109.87a.48.48,0,0,1,.47-.47H272a.52.52,0,0,1,.44.25l3,4.51,3-4.51a.51.51,0,0,1,.44-.25H279a.48.48,0,0,1,.47.47v7.54a.48.48,0,0,1-.47.48.49.49,0,0,1-.48-.48v-6.26l-2.69,3.95a.46.46,0,0,1-.4.24.48.48,0,0,1-.41-.24l-2.67-3.93v6.26a.46.46,0,1,1-.92,0Z" transform="translate(-24.5 -26.21)"/><path class="cls-3" d="M281.81,117.35v-7.44a.48.48,0,0,1,.47-.48h5.22a.43.43,0,0,1,0,.86h-4.74v2.87H287a.44.44,0,0,1,.43.43.43.43,0,0,1-.43.43h-4.2V117h4.8a.43.43,0,0,1,0,.86h-5.28A.48.48,0,0,1,281.81,117.35Z" transform="translate(-24.5 -26.21)"/><path class="cls-3" d="M292.06,110.31h-2.43a.44.44,0,0,1-.44-.43.45.45,0,0,1,.44-.44h5.83a.45.45,0,0,1,.44.44.44.44,0,0,1-.44.43H293v7.1a.48.48,0,0,1-1,0Z" transform="translate(-24.5 -26.21)"/><path class="cls-3" d="M297.62,117.35v-7.44a.48.48,0,0,1,.47-.48h5.22a.43.43,0,1,1,0,.86h-4.74v2.87h4.2a.44.44,0,0,1,.43.43.43.43,0,0,1-.43.43h-4.2V117h4.8a.43.43,0,1,1,0,.86h-5.28A.48.48,0,0,1,297.62,117.35Z" transform="translate(-24.5 -26.21)"/><path class="cls-3" d="M305.66,109.92a.48.48,0,0,1,.47-.48h3.14a3.31,3.31,0,0,1,2.39.84,2.32,2.32,0,0,1,.65,1.66v0a2.44,2.44,0,0,1-2.24,2.43l2.09,2.69a.52.52,0,0,1,.16.35.5.5,0,0,1-.48.47.55.55,0,0,1-.44-.25L309,114.57h-2.41v2.84a.47.47,0,1,1-.95,0Zm3.53,3.8c1.26,0,2.16-.65,2.16-1.73v0c0-1-.79-1.65-2.15-1.65h-2.59v3.41Z" transform="translate(-24.5 -26.21)"/><path class="cls-3" d="M320.72,119.43a5.6,5.6,0,0,1,0-10.07.41.41,0,0,1,.22,0,.37.37,0,0,1,.36.36.36.36,0,0,1-.18.32,5,5,0,0,0,0,8.8.36.36,0,0,1,.18.32.37.37,0,0,1-.36.36A.4.4,0,0,1,320.72,119.43Z" transform="translate(-24.5 -26.21)"/><path class="cls-3" d="M323,112a.47.47,0,0,1,.46-.47.46.46,0,0,1,.47.47v.64a2.26,2.26,0,0,1,2-1.17,2.1,2.1,0,0,1,2,1.23,2.47,2.47,0,0,1,2.18-1.23,2.23,2.23,0,0,1,2.3,2.49v3.43a.46.46,0,1,1-.92,0v-3.21c0-1.2-.6-1.87-1.61-1.87a1.73,1.73,0,0,0-1.7,1.92v3.17a.46.46,0,1,1-.92,0v-3.24c0-1.16-.61-1.85-1.6-1.85a1.8,1.8,0,0,0-1.73,2v3.13a.45.45,0,0,1-.46.47.46.46,0,0,1-.47-.47Z" transform="translate(-24.5 -26.21)"/><path class="cls-3" d="M334.4,112a.47.47,0,0,1,.46-.47.46.46,0,0,1,.47.47v.64a2.26,2.26,0,0,1,2-1.17,2.1,2.1,0,0,1,2,1.23,2.47,2.47,0,0,1,2.18-1.23,2.23,2.23,0,0,1,2.3,2.49v3.43a.46.46,0,1,1-.92,0v-3.21c0-1.2-.6-1.87-1.61-1.87a1.73,1.73,0,0,0-1.7,1.92v3.17a.46.46,0,1,1-.92,0v-3.24c0-1.16-.61-1.85-1.6-1.85a1.8,1.8,0,0,0-1.73,2v3.13a.45.45,0,0,1-.46.47.46.46,0,0,1-.47-.47Z" transform="translate(-24.5 -26.21)"/><path class="cls-3" d="M345.44,119.12a.36.36,0,0,1,.18-.32,5,5,0,0,0,0-8.8.36.36,0,0,1-.18-.32.37.37,0,0,1,.36-.36.41.41,0,0,1,.22,0,5.6,5.6,0,0,1,0,10.07.4.4,0,0,1-.22,0A.37.37,0,0,1,345.44,119.12Z" transform="translate(-24.5 -26.21)"/><path class="cls-3" d="M356,117.07l-.72.74a.42.42,0,0,1-.3.14.34.34,0,0,1-.36-.35.4.4,0,0,1,.12-.29l.72-.77a4.38,4.38,0,0,1-1-2.89v0a4.31,4.31,0,0,1,7-3.42l.72-.75a.42.42,0,0,1,.3-.14.34.34,0,0,1,.36.35.4.4,0,0,1-.12.29l-.73.78a4.36,4.36,0,0,1,1.06,2.88v0a4.32,4.32,0,0,1-7,3.43Zm.13-1.22,4.64-4.93a3.24,3.24,0,0,0-2.09-.76,3.31,3.31,0,0,0-3.29,3.45v0A3.56,3.56,0,0,0,356.12,115.84Zm5.87-2.18v0a3.59,3.59,0,0,0-.73-2.21l-4.64,4.94a3.19,3.19,0,0,0,2.09.74A3.31,3.31,0,0,0,362,113.66Z" transform="translate(-24.5 -26.21)"/><path class="cls-3" d="M364.7,116.89a.47.47,0,0,1-.19-.4A.46.46,0,0,1,365,116a.51.51,0,0,1,.32.12,3.21,3.21,0,0,0,2.16.95,1.87,1.87,0,0,0,2-1.86v0a1.85,1.85,0,0,0-2.09-1.76,5.18,5.18,0,0,0-1.7.41.85.85,0,0,1-.48-.18.56.56,0,0,1-.2-.52l.19-3.29a.45.45,0,0,1,.46-.46h4a.44.44,0,0,1,0,.88H366l-.18,2.69a3.78,3.78,0,0,1,1.65-.37,2.62,2.62,0,0,1,2.9,2.57v0a2.77,2.77,0,0,1-3,2.76A4.15,4.15,0,0,1,364.7,116.89Z" transform="translate(-24.5 -26.21)"/><path class="cls-3" d="M373.28,110.33l-1.17.38a.66.66,0,0,1-.2,0,.41.41,0,0,1-.41-.41.43.43,0,0,1,.34-.41l1.38-.48a1.81,1.81,0,0,1,.52-.11h0a.46.46,0,0,1,.47.47v7.6a.47.47,0,0,1-.47.48.48.48,0,0,1-.47-.48Z" transform="translate(-24.5 -26.21)"/><path class="cls-3" d="M376.91,116.51a.55.55,0,0,1,.56.56v.24a.57.57,0,1,1-1.14,0v-.24A.55.55,0,0,1,376.91,116.51Z" transform="translate(-24.5 -26.21)"/><path class="cls-3" d="M379.57,117.14a.45.45,0,0,1,.24-.84.56.56,0,0,1,.3.1,2.79,2.79,0,0,0,1.82.72c1.51,0,2.53-1.54,2.49-3.68a2.88,2.88,0,0,1-5.3-1.26v0a2.86,2.86,0,0,1,3-2.85,3,3,0,0,1,2.21.86,4.26,4.26,0,0,1,1,3.25v0c0,2.66-1.42,4.54-3.49,4.54A3.77,3.77,0,0,1,379.57,117.14Zm4.68-5.07v0a2,2,0,0,0-2.13-1.91,1.93,1.93,0,0,0-2,2v0a1.88,1.88,0,0,0,2.06,1.83A2,2,0,0,0,384.25,112.06Z" transform="translate(-24.5 -26.21)"/><path class="cls-3" d="M389.44,113.47h-2a.42.42,0,0,1,0-.84h2v-2a.44.44,0,1,1,.88,0v2h2a.42.42,0,0,1,0,.84h-2v2a.44.44,0,1,1-.87,0ZM387,117.41a.42.42,0,0,1,.42-.41h4.94a.41.41,0,0,1,0,.83h-4.94A.43.43,0,0,1,387,117.41Z" transform="translate(-24.5 -26.21)"/><path class="cls-3" d="M394.38,113.66v0c0-2.35,1.4-4.34,3.56-4.34s3.53,2,3.53,4.32v0c0,2.35-1.39,4.34-3.55,4.34S394.38,116,394.38,113.66Zm6.11,0v0c0-1.83-1-3.48-2.57-3.48s-2.55,1.61-2.55,3.45v0c0,1.83,1,3.48,2.58,3.48S400.48,115.49,400.48,113.66Z" transform="translate(-24.5 -26.21)"/><path class="cls-3" d="M403.45,116.51a.55.55,0,0,1,.56.56v.24a.57.57,0,1,1-1.14,0v-.24A.55.55,0,0,1,403.45,116.51Z" transform="translate(-24.5 -26.21)"/><path class="cls-3" d="M406.46,110.33l-1.17.38a.66.66,0,0,1-.2,0,.41.41,0,0,1-.41-.41.43.43,0,0,1,.34-.41l1.38-.48a1.81,1.81,0,0,1,.52-.11h0a.46.46,0,0,1,.47.47v7.6a.47.47,0,0,1-.47.48.48.48,0,0,1-.47-.48Z" transform="translate(-24.5 -26.21)"/><path class="cls-3" d="M409.35,113.66v0c0-2.35,1.4-4.34,3.56-4.34s3.53,2,3.53,4.32v0c0,2.35-1.39,4.34-3.55,4.34S409.35,116,409.35,113.66Zm6.11,0v0c0-1.83-1-3.48-2.57-3.48s-2.55,1.61-2.55,3.45v0c0,1.83,1,3.48,2.58,3.48S415.46,115.49,415.46,113.66Z" transform="translate(-24.5 -26.21)"/><path class="cls-3" d="M204.48,85.66v0a4.23,4.23,0,0,1,4.25-4.34,4.34,4.34,0,0,1,3,1.09.52.52,0,0,1,.19.38.49.49,0,0,1-.48.47.57.57,0,0,1-.31-.11,3.44,3.44,0,0,0-2.41-1,3.29,3.29,0,0,0-3.25,3.44v0a3.31,3.31,0,0,0,3.25,3.47,3.44,3.44,0,0,0,2.49-1,.43.43,0,0,1,.3-.13.47.47,0,0,1,.46.46.45.45,0,0,1-.16.33A4.3,4.3,0,0,1,208.69,90,4.19,4.19,0,0,1,204.48,85.66Z" transform="translate(-24.5 -26.21)"/><path class="cls-3" d="M213.57,86.32V81.86a.47.47,0,1,1,.95,0v4.4c0,1.81,1,2.83,2.57,2.83s2.53-.94,2.53-2.77V81.86a.47.47,0,1,1,.95,0v4.39c0,2.45-1.4,3.72-3.5,3.72A3.29,3.29,0,0,1,213.57,86.32Z" transform="translate(-24.5 -26.21)"/><path class="cls-3" d="M222.81,81.92a.48.48,0,0,1,.47-.48h3.14a3.31,3.31,0,0,1,2.39.84,2.32,2.32,0,0,1,.65,1.66v0a2.44,2.44,0,0,1-2.24,2.43l2.09,2.69a.52.52,0,0,1,.16.35.5.5,0,0,1-.48.47.55.55,0,0,1-.44-.25l-2.36-3.07h-2.41v2.84a.47.47,0,1,1-.95,0Zm3.53,3.8c1.26,0,2.16-.65,2.16-1.73v0c0-1-.79-1.65-2.15-1.65h-2.59v3.41Z" transform="translate(-24.5 -26.21)"/><path class="cls-3" d="M231.49,81.86a.47.47,0,1,1,.95,0V89h4.35a.44.44,0,0,1,.43.44.43.43,0,0,1-.43.43H232a.48.48,0,0,1-.47-.48Z" transform="translate(-24.5 -26.21)"/><path class="cls-3" d="M242.52,81.92a.48.48,0,0,1,.47-.48h2.45a4.19,4.19,0,0,1,4.46,4.17v0a4.2,4.2,0,0,1-4.46,4.2H243a.48.48,0,0,1-.47-.48Zm2.91,7a3.25,3.25,0,0,0,3.48-3.3v0a3.27,3.27,0,0,0-3.48-3.32h-2V89Z" transform="translate(-24.5 -26.21)"/><path class="cls-3" d="M252,81.86a.47.47,0,1,1,.95,0v7.56a.47.47,0,1,1-.95,0Z" transform="translate(-24.5 -26.21)"/><path class="cls-3" d="M254.88,89.21l3.41-7.45a.62.62,0,0,1,.6-.42h0a.6.6,0,0,1,.59.42l3.41,7.44a.64.64,0,0,1,.06.24.46.46,0,0,1-.46.46.52.52,0,0,1-.47-.35l-.88-1.93h-4.61l-.88,2a.47.47,0,0,1-.46.32.43.43,0,0,1-.43-.43A.55.55,0,0,1,254.88,89.21Zm5.94-2.46-1.93-4.29L257,86.75Z" transform="translate(-24.5 -26.21)"/><path class="cls-3" d="M264.8,81.87a.48.48,0,0,1,.47-.47h.11a.52.52,0,0,1,.44.25l3,4.51,3-4.51a.51.51,0,0,1,.44-.25h.11a.48.48,0,0,1,.47.47v7.54a.48.48,0,0,1-.47.48.49.49,0,0,1-.48-.48V83.15L269.2,87.1a.46.46,0,0,1-.4.24.48.48,0,0,1-.41-.24l-2.67-3.93v6.26a.46.46,0,1,1-.92,0Z" transform="translate(-24.5 -26.21)"/><path class="cls-3" d="M275.22,89.35V81.92a.48.48,0,0,1,.47-.48h5.22a.43.43,0,0,1,0,.86h-4.74v2.87h4.2a.44.44,0,0,1,.43.43.43.43,0,0,1-.43.43h-4.2V89H281a.43.43,0,0,1,0,.86h-5.28A.48.48,0,0,1,275.22,89.35Z" transform="translate(-24.5 -26.21)"/><path class="cls-3" d="M285.48,82.31H283a.44.44,0,0,1-.44-.43.45.45,0,0,1,.44-.44h5.83a.45.45,0,0,1,.44.44.44.44,0,0,1-.44.43h-2.43v7.1a.48.48,0,0,1-1,0Z" transform="translate(-24.5 -26.21)"/><path class="cls-3" d="M291,89.35V81.92a.48.48,0,0,1,.47-.48h5.22a.43.43,0,1,1,0,.86H292v2.87h4.2a.44.44,0,0,1,.43.43.43.43,0,0,1-.43.43H292V89h4.8a.43.43,0,0,1,0,.86H291.5A.48.48,0,0,1,291,89.35Z" transform="translate(-24.5 -26.21)"/><path class="cls-3" d="M299.07,81.92a.48.48,0,0,1,.47-.48h3.14a3.3,3.3,0,0,1,2.39.84,2.32,2.32,0,0,1,.65,1.66v0a2.44,2.44,0,0,1-2.24,2.43l2.09,2.69a.52.52,0,0,1,.16.35.5.5,0,0,1-.48.47.55.55,0,0,1-.44-.25l-2.36-3.07H300v2.84a.47.47,0,1,1-.95,0Zm3.53,3.8c1.26,0,2.16-.65,2.16-1.73v0c0-1-.79-1.65-2.15-1.65H300v3.41Z" transform="translate(-24.5 -26.21)"/><path class="cls-3" d="M314.13,91.43a5.6,5.6,0,0,1,0-10.07.41.41,0,0,1,.22,0,.37.37,0,0,1,.36.36.36.36,0,0,1-.18.32,5,5,0,0,0,0,8.8.36.36,0,0,1,.18.32.37.37,0,0,1-.36.36A.4.4,0,0,1,314.13,91.43Z" transform="translate(-24.5 -26.21)"/><path class="cls-3" d="M316.4,84a.47.47,0,0,1,.46-.47.46.46,0,0,1,.47.47v.64a2.26,2.26,0,0,1,2-1.17,2.11,2.11,0,0,1,2,1.23,2.47,2.47,0,0,1,2.18-1.23A2.23,2.23,0,0,1,325.8,86v3.43a.46.46,0,1,1-.92,0V86.21c0-1.2-.6-1.87-1.61-1.87a1.73,1.73,0,0,0-1.7,1.92v3.17a.46.46,0,1,1-.92,0V86.19c0-1.16-.61-1.85-1.6-1.85a1.8,1.8,0,0,0-1.73,2v3.13a.45.45,0,0,1-.46.47.46.46,0,0,1-.47-.47Z" transform="translate(-24.5 -26.21)"/><path class="cls-3" d="M327.81,84a.47.47,0,0,1,.46-.47.46.46,0,0,1,.47.47v.64a2.26,2.26,0,0,1,2-1.17,2.11,2.11,0,0,1,2,1.23,2.47,2.47,0,0,1,2.18-1.23,2.23,2.23,0,0,1,2.3,2.49v3.43a.46.46,0,1,1-.92,0V86.21c0-1.2-.6-1.87-1.61-1.87a1.73,1.73,0,0,0-1.7,1.92v3.17a.46.46,0,1,1-.92,0V86.19c0-1.16-.61-1.85-1.6-1.85a1.8,1.8,0,0,0-1.73,2v3.13a.45.45,0,0,1-.46.47.46.46,0,0,1-.47-.47Z" transform="translate(-24.5 -26.21)"/><path class="cls-3" d="M338.85,91.12a.36.36,0,0,1,.18-.32,5,5,0,0,0,0-8.8.36.36,0,0,1-.18-.32.37.37,0,0,1,.36-.36.41.41,0,0,1,.22,0,5.6,5.6,0,0,1,0,10.07.4.4,0,0,1-.22,0A.37.37,0,0,1,338.85,91.12Z" transform="translate(-24.5 -26.21)"/><path class="cls-3" d="M349.4,89.07l-.72.74a.42.42,0,0,1-.3.14.34.34,0,0,1-.36-.35.4.4,0,0,1,.12-.29l.72-.77a4.38,4.38,0,0,1-1-2.89v0a4.31,4.31,0,0,1,7-3.42l.72-.75a.42.42,0,0,1,.3-.14.34.34,0,0,1,.36.35.4.4,0,0,1-.12.29l-.73.78a4.36,4.36,0,0,1,1.06,2.88v0a4.32,4.32,0,0,1-7,3.43Zm.13-1.22,4.64-4.93a3.24,3.24,0,0,0-2.09-.76,3.31,3.31,0,0,0-3.29,3.45v0A3.56,3.56,0,0,0,349.53,87.84Zm5.87-2.18v0a3.59,3.59,0,0,0-.73-2.21L350,88.37a3.19,3.19,0,0,0,2.09.74A3.31,3.31,0,0,0,355.4,85.66Z" transform="translate(-24.5 -26.21)"/><path class="cls-3" d="M359,89.13a4.12,4.12,0,0,1-1.06-3.25v0c0-2.55,1.3-4.56,3.49-4.56a3.48,3.48,0,0,1,2.18.74.45.45,0,0,1,.23.4.46.46,0,0,1-.46.46.49.49,0,0,1-.26-.08,2.72,2.72,0,0,0-1.74-.65c-1.52,0-2.47,1.54-2.46,3.71a2.72,2.72,0,0,1,2.39-1.28,2.69,2.69,0,0,1,2.9,2.58v0a2.84,2.84,0,0,1-3,2.79A3,3,0,0,1,359,89.13Zm4.25-1.91v0a1.87,1.87,0,0,0-2.05-1.8,2,2,0,0,0-2.1,1.83v0a2,2,0,0,0,2.12,1.88A1.9,1.9,0,0,0,363.23,87.22Z" transform="translate(-24.5 -26.21)"/><path class="cls-3" d="M365.72,88.95l2.87-2.53c1.29-1.15,1.75-1.8,1.75-2.64a1.6,1.6,0,0,0-1.69-1.61,2.51,2.51,0,0,0-2.09,1.22.43.43,0,0,1-.35.17.43.43,0,0,1-.43-.43.42.42,0,0,1,.1-.26,3.18,3.18,0,0,1,2.84-1.55,2.42,2.42,0,0,1,2.6,2.38v0c0,1.22-.65,2-2.12,3.26L367,89H371a.43.43,0,1,1,0,.86h-5a.45.45,0,0,1-.48-.44A.55.55,0,0,1,365.72,88.95Z" transform="translate(-24.5 -26.21)"/><path class="cls-3" d="M373.63,88.51a.55.55,0,0,1,.56.56v.24a.57.57,0,1,1-1.14,0v-.24A.55.55,0,0,1,373.63,88.51Z" transform="translate(-24.5 -26.21)"/><path class="cls-3" d="M375.85,88.95l2.87-2.53c1.29-1.15,1.75-1.8,1.75-2.64a1.6,1.6,0,0,0-1.69-1.61,2.51,2.51,0,0,0-2.09,1.22.43.43,0,0,1-.35.17.43.43,0,0,1-.43-.43.42.42,0,0,1,.1-.26,3.18,3.18,0,0,1,2.84-1.55,2.42,2.42,0,0,1,2.6,2.38v0c0,1.22-.65,2-2.12,3.26l-2.24,2h4.07a.43.43,0,1,1,0,.86h-5a.45.45,0,0,1-.48-.44A.55.55,0,0,1,375.85,88.95Z" transform="translate(-24.5 -26.21)"/><path class="cls-3" d="M385.59,85.47h-2a.42.42,0,1,1,0-.84h2v-2a.44.44,0,1,1,.88,0v2h2a.42.42,0,1,1,0,.84h-2v2a.44.44,0,1,1-.87,0Zm-2.45,3.95a.42.42,0,0,1,.42-.41h4.94a.41.41,0,0,1,0,.83h-4.94A.43.43,0,0,1,383.14,89.41Z" transform="translate(-24.5 -26.21)"/><path class="cls-3" d="M390.52,85.66v0c0-2.35,1.4-4.34,3.56-4.34s3.53,2,3.53,4.32v0c0,2.35-1.39,4.34-3.55,4.34S390.52,88,390.52,85.66Zm6.11,0v0c0-1.83-1-3.48-2.57-3.48s-2.55,1.61-2.55,3.45v0c0,1.83,1,3.48,2.58,3.48S396.63,87.49,396.63,85.66Z" transform="translate(-24.5 -26.21)"/><path class="cls-3" d="M399.59,88.51a.55.55,0,0,1,.56.56v.24a.57.57,0,1,1-1.14,0v-.24A.55.55,0,0,1,399.59,88.51Z" transform="translate(-24.5 -26.21)"/><path class="cls-3" d="M402.61,82.33l-1.17.38a.66.66,0,0,1-.2,0,.41.41,0,0,1-.41-.41.43.43,0,0,1,.34-.41l1.38-.48a1.81,1.81,0,0,1,.52-.11h0a.46.46,0,0,1,.47.47v7.6a.47.47,0,0,1-.47.48.48.48,0,0,1-.47-.48Z" transform="translate(-24.5 -26.21)"/><path class="cls-3" d="M405.5,85.66v0c0-2.35,1.4-4.34,3.56-4.34s3.53,2,3.53,4.32v0C412.59,88,411.2,90,409,90S405.5,88,405.5,85.66Zm6.11,0v0c0-1.83-1-3.48-2.57-3.48s-2.55,1.61-2.55,3.45v0c0,1.83,1,3.48,2.58,3.48S411.6,87.49,411.6,85.66Z" transform="translate(-24.5 -26.21)"/><path class="cls-3" d="M112.24,26.47h5.48a8.67,8.67,0,0,1,3.17.56,7.49,7.49,0,0,1,2.47,1.54A6.88,6.88,0,0,1,125,30.89a7.3,7.3,0,0,1,.57,2.89v0a7.37,7.37,0,0,1-.57,2.9A6.85,6.85,0,0,1,123.36,39a7.62,7.62,0,0,1-2.47,1.55,8.53,8.53,0,0,1-3.17.57h-5.48Zm5.48,12.33a5.77,5.77,0,0,0,2.1-.37,4.51,4.51,0,0,0,2.64-2.59,5.23,5.23,0,0,0,.37-2v0a5.32,5.32,0,0,0-.37-2,4.61,4.61,0,0,0-1-1.58,4.71,4.71,0,0,0-1.61-1,5.63,5.63,0,0,0-2.1-.38h-2.9v10Z" transform="translate(-24.5 -26.21)"/><path class="cls-3" d="M128.81,26.47h2.58v14.7h-2.58Z" transform="translate(-24.5 -26.21)"/><path class="cls-3" d="M135.31,26.47h2.75l4.47,7,4.47-7h2.75v14.7h-2.58V30.62l-4.64,6.93h-.08l-4.6-6.89v10.5h-2.54Z" transform="translate(-24.5 -26.21)"/><path class="cls-3" d="M153.54,26.47h10.9v2.31h-8.32V32.6h7.37v2.31h-7.37v3.95h8.42v2.31h-11Z" transform="translate(-24.5 -26.21)"/><path class="cls-3" d="M167.61,26.47H170l7.88,10.16V26.47h2.54v14.7h-2.16l-8.11-10.46V41.17h-2.54Z" transform="translate(-24.5 -26.21)"/><path class="cls-3" d="M189.35,41.38a9.19,9.19,0,0,1-3.26-.58A8.87,8.87,0,0,1,183.22,39l1.55-1.85a9,9,0,0,0,2.16,1.42,6,6,0,0,0,2.48.49,3.21,3.21,0,0,0,1.9-.5,1.57,1.57,0,0,0,.7-1.34v0a1.7,1.7,0,0,0-.14-.7,1.53,1.53,0,0,0-.5-.58,4,4,0,0,0-1-.5,14.57,14.57,0,0,0-1.67-.46,20.39,20.39,0,0,1-2.09-.63,5.46,5.46,0,0,1-1.53-.83,3.24,3.24,0,0,1-.95-1.21,4.11,4.11,0,0,1-.33-1.72v0a3.94,3.94,0,0,1,1.42-3.07,4.89,4.89,0,0,1,1.59-.87,6.24,6.24,0,0,1,2-.31,8.36,8.36,0,0,1,2.91.48,8.66,8.66,0,0,1,2.43,1.39l-1.39,2a9,9,0,0,0-2-1.12,5.41,5.41,0,0,0-2-.39,2.76,2.76,0,0,0-1.76.5,1.53,1.53,0,0,0-.63,1.24v0a1.79,1.79,0,0,0,.15.75,1.44,1.44,0,0,0,.54.59,4.54,4.54,0,0,0,1.07.49q.68.23,1.73.48a13,13,0,0,1,2.06.64,5.33,5.33,0,0,1,1.47.88,3.47,3.47,0,0,1,.89,1.18,3.84,3.84,0,0,1,.3,1.59v0a4.25,4.25,0,0,1-.39,1.84,4,4,0,0,1-1.08,1.38,4.79,4.79,0,0,1-1.66.86A7.28,7.28,0,0,1,189.35,41.38Z" transform="translate(-24.5 -26.21)"/><path class="cls-3" d="M197.79,26.47h2.58v14.7h-2.58Z" transform="translate(-24.5 -26.21)"/><path class="cls-3" d="M211.31,41.42a7.85,7.85,0,0,1-3.11-.6,7.38,7.38,0,0,1-2.42-1.63,7.46,7.46,0,0,1-1.57-2.41,7.6,7.6,0,0,1-.57-2.93v0a7.61,7.61,0,0,1,.57-2.93,7.4,7.4,0,0,1,1.6-2.42,7.66,7.66,0,0,1,5.54-2.26,7.86,7.86,0,0,1,3.11.6,7.32,7.32,0,0,1,4,4,7.61,7.61,0,0,1,.57,2.93v0a7.6,7.6,0,0,1-.57,2.93,7.4,7.4,0,0,1-1.6,2.42,7.66,7.66,0,0,1-5.54,2.26Zm0-2.37a4.86,4.86,0,0,0,2-.41,4.75,4.75,0,0,0,1.56-1.11,5.15,5.15,0,0,0,1-1.65,5.52,5.52,0,0,0,.37-2v0a5.61,5.61,0,0,0-.37-2A4.92,4.92,0,0,0,213.33,29a5.08,5.08,0,0,0-4,0,4.76,4.76,0,0,0-1.56,1.11,5.15,5.15,0,0,0-1,1.65,5.51,5.51,0,0,0-.37,2v0a5.59,5.59,0,0,0,.37,2,4.91,4.91,0,0,0,2.61,2.78A4.81,4.81,0,0,0,211.35,39Z" transform="translate(-24.5 -26.21)"/><path class="cls-3" d="M222.15,26.47h2.39l7.88,10.16V26.47H235v14.7H232.8l-8.11-10.46V41.17h-2.54Z" transform="translate(-24.5 -26.21)"/><path class="cls-3" d="M243.95,26.36h2.39l6.47,14.8h-2.73l-1.49-3.55h-7l-1.51,3.55h-2.65Zm3.7,8.95-2.54-5.88-2.52,5.88Z" transform="translate(-24.5 -26.21)"/><path class="cls-3" d="M255.33,26.47h2.58V38.79h7.73v2.37H255.33Z" transform="translate(-24.5 -26.21)"/><path class="cls-3" d="M279.77,41.38a9.19,9.19,0,0,1-3.25-.58A8.86,8.86,0,0,1,273.64,39l1.55-1.85a9,9,0,0,0,2.16,1.42,6,6,0,0,0,2.48.49,3.21,3.21,0,0,0,1.9-.5,1.57,1.57,0,0,0,.7-1.34v0a1.7,1.7,0,0,0-.14-.7,1.52,1.52,0,0,0-.5-.58,4,4,0,0,0-1-.5,14.63,14.63,0,0,0-1.67-.46,20.34,20.34,0,0,1-2.09-.63,5.45,5.45,0,0,1-1.53-.83,3.24,3.24,0,0,1-.95-1.21,4.12,4.12,0,0,1-.33-1.72v0a3.94,3.94,0,0,1,.38-1.73,4,4,0,0,1,1-1.34,4.9,4.9,0,0,1,1.59-.87,6.24,6.24,0,0,1,2-.31,8.37,8.37,0,0,1,2.91.48,8.65,8.65,0,0,1,2.42,1.39l-1.39,2a9,9,0,0,0-2-1.12,5.41,5.41,0,0,0-2-.39,2.76,2.76,0,0,0-1.76.5,1.53,1.53,0,0,0-.63,1.24v0a1.8,1.8,0,0,0,.15.75,1.44,1.44,0,0,0,.54.59,4.52,4.52,0,0,0,1.07.49q.68.23,1.73.48a13,13,0,0,1,2.06.64,5.32,5.32,0,0,1,1.47.88,3.47,3.47,0,0,1,.89,1.18A3.83,3.83,0,0,1,285,37v0a4.25,4.25,0,0,1-.39,1.84,3.94,3.94,0,0,1-1.08,1.38,4.81,4.81,0,0,1-1.66.86A7.29,7.29,0,0,1,279.77,41.38Z" transform="translate(-24.5 -26.21)"/><path class="cls-3" d="M288.07,26.47h5.8a7.3,7.3,0,0,1,2.32.35,5,5,0,0,1,1.76,1,4.42,4.42,0,0,1,1.11,1.55,5.05,5.05,0,0,1,.39,2v0A4.84,4.84,0,0,1,299,33.6a4.5,4.5,0,0,1-1.26,1.56,5.62,5.62,0,0,1-1.87,1,7.8,7.8,0,0,1-2.29.33h-2.92v4.72h-2.58Zm5.59,7.67A3.43,3.43,0,0,0,296,33.4a2.39,2.39,0,0,0,.85-1.89v0a2.32,2.32,0,0,0-.86-2,3.69,3.69,0,0,0-2.31-.66h-3v5.29Z" transform="translate(-24.5 -26.21)"/><path class="cls-3" d="M302.1,26.47H313v2.31h-8.32V32.6H312v2.31h-7.37v3.95h8.42v2.31h-11Z" transform="translate(-24.5 -26.21)"/><path class="cls-3" d="M323,41.42a7.49,7.49,0,0,1-3-.59,7.29,7.29,0,0,1-2.37-1.61,7.4,7.4,0,0,1-1.56-2.4,7.75,7.75,0,0,1-.57-3v0a7.79,7.79,0,0,1,.56-3,7.44,7.44,0,0,1,1.56-2.42,7.34,7.34,0,0,1,2.4-1.64,7.67,7.67,0,0,1,3.06-.6,9.32,9.32,0,0,1,1.84.17,7.47,7.47,0,0,1,1.52.47,7.11,7.11,0,0,1,1.28.72,10.12,10.12,0,0,1,1.11.92l-1.66,1.91a8.28,8.28,0,0,0-1.87-1.32,4.87,4.87,0,0,0-2.25-.5,4.61,4.61,0,0,0-1.94.41,4.71,4.71,0,0,0-1.53,1.11,5.26,5.26,0,0,0-1,1.65,5.51,5.51,0,0,0-.37,2v0a5.59,5.59,0,0,0,.37,2,5.35,5.35,0,0,0,1,1.67A4.61,4.61,0,0,0,323.08,39a5.25,5.25,0,0,0,1.24-.14,5.37,5.37,0,0,0,1.07-.38,5.67,5.67,0,0,0,1-.6,10.59,10.59,0,0,0,.93-.8L329,38.82a11.25,11.25,0,0,1-1.19,1.07,7.48,7.48,0,0,1-1.33.83,6.74,6.74,0,0,1-1.56.52A9.17,9.17,0,0,1,323,41.42Z" transform="translate(-24.5 -26.21)"/><path class="cls-3" d="M331.81,26.47h2.58v14.7h-2.58Z" transform="translate(-24.5 -26.21)"/><path class="cls-3" d="M338.32,26.47h10.94v2.37H340.9v4h7.41v2.37H340.9v6h-2.58Z" transform="translate(-24.5 -26.21)"/><path class="cls-3" d="M352.24,26.47h2.58v14.7h-2.58Z" transform="translate(-24.5 -26.21)"/><path class="cls-3" d="M365.58,41.42a7.49,7.49,0,0,1-3-.59,7.29,7.29,0,0,1-2.37-1.61,7.4,7.4,0,0,1-1.56-2.4,7.75,7.75,0,0,1-.57-3v0a7.79,7.79,0,0,1,.56-3,7.44,7.44,0,0,1,1.56-2.42,7.34,7.34,0,0,1,2.4-1.64,7.67,7.67,0,0,1,3.06-.6,9.32,9.32,0,0,1,1.84.17,7.47,7.47,0,0,1,1.52.47,7.11,7.11,0,0,1,1.28.72,10.12,10.12,0,0,1,1.11.92l-1.66,1.91a8.28,8.28,0,0,0-1.87-1.32,4.87,4.87,0,0,0-2.25-.5,4.61,4.61,0,0,0-1.94.41,4.71,4.71,0,0,0-1.53,1.11,5.26,5.26,0,0,0-1,1.65,5.51,5.51,0,0,0-.37,2v0a5.59,5.59,0,0,0,.37,2,5.35,5.35,0,0,0,1,1.67A4.61,4.61,0,0,0,365.66,39a5.25,5.25,0,0,0,1.24-.14,5.37,5.37,0,0,0,1.07-.38,5.67,5.67,0,0,0,1-.6,10.59,10.59,0,0,0,.93-.8l1.66,1.68a11.25,11.25,0,0,1-1.19,1.07,7.48,7.48,0,0,1-1.33.83,6.74,6.74,0,0,1-1.56.52A9.17,9.17,0,0,1,365.58,41.42Z" transform="translate(-24.5 -26.21)"/><path class="cls-3" d="M379.46,26.36h2.39l6.47,14.8h-2.73l-1.49-3.55h-7l-1.51,3.55H373Zm3.7,8.95-2.54-5.88-2.52,5.88Z" transform="translate(-24.5 -26.21)"/><path class="cls-3" d="M392.56,28.84H387.9V26.47h11.91v2.37h-4.66V41.17h-2.58Z" transform="translate(-24.5 -26.21)"/><path class="cls-3" d="M402.71,26.47h2.58v14.7h-2.58Z" transform="translate(-24.5 -26.21)"/><path class="cls-3" d="M416.23,41.42a7.85,7.85,0,0,1-3.11-.6,7.37,7.37,0,0,1-2.42-1.63,7.46,7.46,0,0,1-1.58-2.41,7.6,7.6,0,0,1-.57-2.93v0a7.61,7.61,0,0,1,.57-2.93,7.4,7.4,0,0,1,1.6-2.42,7.66,7.66,0,0,1,5.54-2.26,7.85,7.85,0,0,1,3.11.6,7.38,7.38,0,0,1,2.42,1.63,7.46,7.46,0,0,1,1.58,2.4,7.61,7.61,0,0,1,.57,2.93v0a7.6,7.6,0,0,1-.57,2.93,7.4,7.4,0,0,1-1.6,2.42,7.66,7.66,0,0,1-5.54,2.26Zm0-2.37a4.85,4.85,0,0,0,2-.41,4.74,4.74,0,0,0,1.56-1.11,5.14,5.14,0,0,0,1-1.65,5.51,5.51,0,0,0,.37-2v0a5.6,5.6,0,0,0-.37-2A4.91,4.91,0,0,0,418.24,29a5.08,5.08,0,0,0-4,0,4.76,4.76,0,0,0-1.56,1.11,5.15,5.15,0,0,0-1,1.65,5.51,5.51,0,0,0-.37,2v0a5.59,5.59,0,0,0,.37,2,5,5,0,0,0,1,1.66,5,5,0,0,0,1.58,1.12A4.81,4.81,0,0,0,416.27,39Z" transform="translate(-24.5 -26.21)"/><path class="cls-3" d="M427.06,26.47h2.39l7.88,10.16V26.47h2.54v14.7h-2.16L429.6,30.71V41.17h-2.54Z" transform="translate(-24.5 -26.21)"/><path class="cls-3" d="M457,41.42a7.92,7.92,0,0,1-2.31-.33,7.29,7.29,0,0,1-2-.93l-1,1.11h-2.54l2.08-2.33a7.09,7.09,0,0,1-1.42-2.32,7.78,7.78,0,0,1-.49-2.76v0a7.62,7.62,0,0,1,.57-2.93,7.41,7.41,0,0,1,1.6-2.42A7.66,7.66,0,0,1,457,26.21a7.91,7.91,0,0,1,2.31.33,7.37,7.37,0,0,1,2,.93l1-1.11h2.54l-2.08,2.35A7.13,7.13,0,0,1,464.18,31a7.7,7.7,0,0,1,.49,2.75v0a7.61,7.61,0,0,1-.57,2.93,7.41,7.41,0,0,1-1.6,2.42A7.66,7.66,0,0,1,457,41.42Zm2.69-12.05a4.34,4.34,0,0,0-1.23-.62,4.73,4.73,0,0,0-1.46-.22,4.91,4.91,0,0,0-2,.41,4.75,4.75,0,0,0-1.58,1.12,5.15,5.15,0,0,0-1,1.67,5.59,5.59,0,0,0-.37,2v0a5.22,5.22,0,0,0,1,3.13ZM457,39.11a4.91,4.91,0,0,0,2-.41,4.77,4.77,0,0,0,1.59-1.12,5.15,5.15,0,0,0,1-1.67,5.59,5.59,0,0,0,.37-2v0a5.22,5.22,0,0,0-1-3.13l-6.72,7.56a4.31,4.31,0,0,0,1.23.62A4.74,4.74,0,0,0,457,39.11Z" transform="translate(-24.5 -26.21)"/><path class="cls-3" d="M466.94,39.13l5.06-4.3q.76-.63,1.28-1.14a7.31,7.31,0,0,0,.85-1,3.53,3.53,0,0,0,.47-.9,3,3,0,0,0,.15-.94,2.13,2.13,0,0,0-.68-1.69,2.47,2.47,0,0,0-1.69-.6,3,3,0,0,0-1.77.55A8.14,8.14,0,0,0,469,30.77l-1.83-1.43A12.46,12.46,0,0,1,468.22,28a6,6,0,0,1,1.19-1,5.1,5.1,0,0,1,1.41-.6,7,7,0,0,1,1.75-.2,5.86,5.86,0,0,1,2,.32,4.49,4.49,0,0,1,1.53.89,4,4,0,0,1,1,1.39,4.41,4.41,0,0,1,.36,1.79v0a5,5,0,0,1-.23,1.56,4.92,4.92,0,0,1-.7,1.35,9.13,9.13,0,0,1-1.19,1.31q-.71.66-1.7,1.46l-3,2.52h7v2.27H466.94Z" transform="translate(-24.5 -26.21)"/><path class="cls-3" d="M486.37,41.42a5.79,5.79,0,0,1-2.62-.59,6.08,6.08,0,0,1-2-1.62,7.4,7.4,0,0,1-1.29-2.4,9.41,9.41,0,0,1-.45-3v0a9.28,9.28,0,0,1,.46-3,7.54,7.54,0,0,1,1.3-2.42,6.18,6.18,0,0,1,2-1.63,6.13,6.13,0,0,1,5.26,0,6,6,0,0,1,2,1.62,7.7,7.7,0,0,1,1.29,2.4,9.22,9.22,0,0,1,.46,3v0a9.32,9.32,0,0,1-.46,3,7.56,7.56,0,0,1-1.3,2.42,6.19,6.19,0,0,1-2,1.63A5.76,5.76,0,0,1,486.37,41.42Zm0-2.31A2.94,2.94,0,0,0,488,38.7a3.72,3.72,0,0,0,1.17-1.13,5.64,5.64,0,0,0,.75-1.67,7.65,7.65,0,0,0,.26-2v0a7.49,7.49,0,0,0-.27-2.06,5.86,5.86,0,0,0-.76-1.68,3.78,3.78,0,0,0-1.18-1.14,3.07,3.07,0,0,0-3.09,0,3.71,3.71,0,0,0-1.18,1.12,5.48,5.48,0,0,0-.75,1.67,7.72,7.72,0,0,0-.26,2.05v0a7.73,7.73,0,0,0,.26,2.06,5.47,5.47,0,0,0,.76,1.68,3.89,3.89,0,0,0,1.19,1.14A2.93,2.93,0,0,0,486.41,39.11Z" transform="translate(-24.5 -26.21)"/><path class="cls-3" d="M494.81,39.13l5.06-4.3q.76-.63,1.28-1.14a7.31,7.31,0,0,0,.85-1,3.53,3.53,0,0,0,.47-.9,3,3,0,0,0,.15-.94,2.13,2.13,0,0,0-.68-1.69,2.47,2.47,0,0,0-1.69-.6,3,3,0,0,0-1.77.55,8.14,8.14,0,0,0-1.63,1.66L495,29.34A12.46,12.46,0,0,1,496.09,28a6,6,0,0,1,1.19-1,5.1,5.1,0,0,1,1.41-.6,7,7,0,0,1,1.75-.2,5.86,5.86,0,0,1,2,.32,4.49,4.49,0,0,1,1.53.89,4,4,0,0,1,1,1.39,4.41,4.41,0,0,1,.36,1.79v0a5,5,0,0,1-.23,1.56,4.92,4.92,0,0,1-.7,1.35,9.13,9.13,0,0,1-1.19,1.31q-.71.66-1.7,1.46l-3,2.52h7v2.27H494.81Z" transform="translate(-24.5 -26.21)"/><path class="cls-3" d="M83.19,515.42a.48.48,0,0,1,.47-.48h2.67c1.89,0,3.14,1,3.14,2.66v0c0,1.81-1.51,2.75-3.3,2.75h-2v2.54a.47.47,0,1,1-.95,0Zm3,4.09c1.39,0,2.3-.74,2.3-1.85v0c0-1.2-.9-1.82-2.25-1.82H84.13v3.69Z" transform="translate(-24.5 -26.21)"/><path class="cls-3" d="M89.91,522.71l3.41-7.45a.62.62,0,0,1,.6-.42h0a.61.61,0,0,1,.59.42L98,522.7a.64.64,0,0,1,.06.24.46.46,0,0,1-.46.46.52.52,0,0,1-.47-.35l-.87-1.93H91.61l-.88,2a.47.47,0,0,1-.46.32.43.43,0,0,1-.43-.43A.55.55,0,0,1,89.91,522.71Zm5.94-2.46L93.91,516,92,520.25Z" transform="translate(-24.5 -26.21)"/><path class="cls-3" d="M99.83,515.37a.48.48,0,0,1,.47-.47h.13a.58.58,0,0,1,.48.28l5.1,6.5v-6.33a.46.46,0,1,1,.92,0v7.58a.43.43,0,0,1-.43.44h0a.65.65,0,0,1-.49-.29l-5.21-6.66v6.5a.46.46,0,1,1-.92,0Z" transform="translate(-24.5 -26.21)"/><path class="cls-3" d="M109.31,522.85v-7.44a.48.48,0,0,1,.47-.48H115a.43.43,0,0,1,0,.86h-4.74v2.87h4.2a.44.44,0,0,1,.43.43.43.43,0,0,1-.43.43h-4.2v2.94h4.8a.43.43,0,1,1,0,.86h-5.28A.48.48,0,0,1,109.31,522.85Z" transform="translate(-24.5 -26.21)"/><path class="cls-3" d="M117.35,515.36a.47.47,0,1,1,.95,0v7.1h4.35a.44.44,0,0,1,.43.44.43.43,0,0,1-.43.43h-4.83a.48.48,0,0,1-.47-.48Z" transform="translate(-24.5 -26.21)"/><path class="cls-3" d="M128.38,515.42a.48.48,0,0,1,.47-.48h2.45a4.19,4.19,0,0,1,4.46,4.17v0a4.2,4.2,0,0,1-4.46,4.2h-2.45a.48.48,0,0,1-.47-.48Zm2.91,7a3.25,3.25,0,0,0,3.48-3.3v0a3.27,3.27,0,0,0-3.48-3.32h-2v6.64Z" transform="translate(-24.5 -26.21)"/><path class="cls-3" d="M137.76,522.85v-7.44a.48.48,0,0,1,.47-.48h5.22a.43.43,0,0,1,0,.86h-4.74v2.87h4.2a.44.44,0,0,1,.43.43.43.43,0,0,1-.43.43h-4.2v2.94h4.8a.43.43,0,1,1,0,.86h-5.28A.48.48,0,0,1,137.76,522.85Z" transform="translate(-24.5 -26.21)"/><path class="cls-3" d="M145.8,515.42a.48.48,0,0,1,.47-.48h2.67c1.89,0,3.14,1,3.14,2.66v0c0,1.81-1.51,2.75-3.3,2.75h-2v2.54a.47.47,0,1,1-.95,0Zm3,4.09c1.39,0,2.3-.74,2.3-1.85v0c0-1.2-.9-1.82-2.25-1.82h-2.12v3.69Z" transform="translate(-24.5 -26.21)"/><path class="cls-3" d="M156,515.81H153.6a.44.44,0,0,1-.44-.43.45.45,0,0,1,.44-.44h5.83a.45.45,0,0,1,.44.44.44.44,0,0,1-.44.43H157v7.1a.48.48,0,0,1-1,0Z" transform="translate(-24.5 -26.21)"/><path class="cls-3" d="M161.59,515.36a.47.47,0,1,1,.95,0v3.31h4.85v-3.31a.47.47,0,1,1,.95,0v7.56a.47.47,0,1,1-.95,0v-3.36h-4.85v3.36a.47.47,0,1,1-.95,0Z" transform="translate(-24.5 -26.21)"/><path class="cls-3" d="M177.1,524.93a5.6,5.6,0,0,1,0-10.07.41.41,0,0,1,.22,0,.37.37,0,0,1,.36.36.36.36,0,0,1-.18.32,5,5,0,0,0,0,8.8.36.36,0,0,1,.18.32.37.37,0,0,1-.36.36A.4.4,0,0,1,177.1,524.93Z" transform="translate(-24.5 -26.21)"/><path class="cls-3" d="M179.37,517.54a.47.47,0,0,1,.46-.47.46.46,0,0,1,.47.47v.64a2.26,2.26,0,0,1,2-1.17,2.11,2.11,0,0,1,2,1.23,2.47,2.47,0,0,1,2.18-1.23,2.23,2.23,0,0,1,2.3,2.49v3.43a.46.46,0,1,1-.92,0v-3.21c0-1.2-.6-1.87-1.61-1.87a1.73,1.73,0,0,0-1.7,1.92v3.17a.46.46,0,1,1-.92,0v-3.24c0-1.16-.61-1.85-1.6-1.85a1.8,1.8,0,0,0-1.73,2v3.13a.45.45,0,0,1-.46.47.46.46,0,0,1-.47-.47Z" transform="translate(-24.5 -26.21)"/><path class="cls-3" d="M190.78,517.54a.47.47,0,0,1,.46-.47.46.46,0,0,1,.47.47v.64a2.26,2.26,0,0,1,2-1.17,2.11,2.11,0,0,1,2,1.23,2.47,2.47,0,0,1,2.18-1.23,2.23,2.23,0,0,1,2.3,2.49v3.43a.46.46,0,1,1-.92,0v-3.21c0-1.2-.6-1.87-1.61-1.87a1.73,1.73,0,0,0-1.7,1.92v3.17a.46.46,0,1,1-.92,0v-3.24c0-1.16-.61-1.85-1.6-1.85a1.8,1.8,0,0,0-1.73,2v3.13a.45.45,0,0,1-.46.47.46.46,0,0,1-.47-.47Z" transform="translate(-24.5 -26.21)"/><path class="cls-3" d="M201.82,524.62a.36.36,0,0,1,.18-.32,5,5,0,0,0,0-8.8.36.36,0,0,1-.18-.32.37.37,0,0,1,.36-.36.41.41,0,0,1,.22,0,5.6,5.6,0,0,1,0,10.07.4.4,0,0,1-.22,0A.37.37,0,0,1,201.82,524.62Z" transform="translate(-24.5 -26.21)"/><path class="cls-3" d="M210.71,519.16v0c0-2.35,1.4-4.34,3.56-4.34s3.53,2,3.53,4.32v0c0,2.35-1.39,4.34-3.55,4.34S210.71,521.51,210.71,519.16Zm6.11,0v0c0-1.83-1-3.48-2.57-3.48s-2.55,1.61-2.55,3.45v0c0,1.83,1,3.48,2.58,3.48S216.81,521,216.81,519.16Z" transform="translate(-24.5 -26.21)"/><path class="cls-3" d="M219.78,522a.55.55,0,0,1,.56.56v.24a.57.57,0,1,1-1.14,0v-.24A.55.55,0,0,1,219.78,522Z" transform="translate(-24.5 -26.21)"/><path class="cls-3" d="M222,522.45l2.87-2.53c1.29-1.15,1.75-1.8,1.75-2.64a1.6,1.6,0,0,0-1.69-1.61,2.51,2.51,0,0,0-2.09,1.22.43.43,0,0,1-.35.17.43.43,0,0,1-.43-.43.42.42,0,0,1,.1-.26,3.18,3.18,0,0,1,2.84-1.55,2.42,2.42,0,0,1,2.6,2.38v0c0,1.22-.65,2-2.12,3.26l-2.24,2h4.07a.43.43,0,1,1,0,.86h-5a.45.45,0,0,1-.48-.44A.55.55,0,0,1,222,522.45Z" transform="translate(-24.5 -26.21)"/><path class="cls-3" d="M233.3,521.34h-4.17a.45.45,0,0,1-.48-.46.71.71,0,0,1,.18-.46l4.37-5.33a.61.61,0,0,1,.53-.29.49.49,0,0,1,.5.49v5.24h.95a.41.41,0,0,1,.41.41.4.4,0,0,1-.41.38h-.95v1.6a.46.46,0,0,1-.92,0Zm0-.79v-4.33l-3.53,4.33Z" transform="translate(-24.5 -26.21)"/><path class="cls-3" d="M239.48,519h-2a.42.42,0,0,1,0-.84h2v-2a.44.44,0,1,1,.88,0v2h2a.42.42,0,0,1,0,.84h-2v2a.44.44,0,1,1-.87,0ZM237,522.91a.42.42,0,0,1,.42-.41h4.94a.41.41,0,0,1,0,.83h-4.94A.43.43,0,0,1,237,522.91Z" transform="translate(-24.5 -26.21)"/><path class="cls-3" d="M244.42,519.16v0c0-2.35,1.4-4.34,3.56-4.34s3.53,2,3.53,4.32v0c0,2.35-1.39,4.34-3.55,4.34S244.42,521.51,244.42,519.16Zm6.11,0v0c0-1.83-1-3.48-2.57-3.48s-2.55,1.61-2.55,3.45v0c0,1.83,1,3.48,2.58,3.48S250.52,521,250.52,519.16Z" transform="translate(-24.5 -26.21)"/><path class="cls-3" d="M253.49,522a.55.55,0,0,1,.56.56v.24a.57.57,0,1,1-1.14,0v-.24A.55.55,0,0,1,253.49,522Z" transform="translate(-24.5 -26.21)"/><path class="cls-3" d="M256.5,515.83l-1.17.38a.66.66,0,0,1-.2,0,.41.41,0,0,1-.41-.41.43.43,0,0,1,.34-.41l1.38-.48a1.81,1.81,0,0,1,.52-.11h0a.46.46,0,0,1,.47.47v7.6a.47.47,0,0,1-.47.48.48.48,0,0,1-.47-.48Z" transform="translate(-24.5 -26.21)"/><path class="cls-3" d="M259.39,519.16v0c0-2.35,1.4-4.34,3.56-4.34s3.53,2,3.53,4.32v0c0,2.35-1.39,4.34-3.55,4.34S259.39,521.51,259.39,519.16Zm6.11,0v0c0-1.83-1-3.48-2.57-3.48s-2.55,1.61-2.55,3.45v0c0,1.83,1,3.48,2.58,3.48S265.5,521,265.5,519.16Z" transform="translate(-24.5 -26.21)"/><path d="M582,126.71q-.64,0-1.31-.13h0v-5.32h0c.92-.08,1.75-.11,2.58-.22,4.05-.56,5.93-4,4.22-7.72a7.29,7.29,0,0,0-5.82-4.41,10.46,10.46,0,0,0-1.59-.1q-24.68,0-49.36,0a7.09,7.09,0,0,0-7.1,4.64,9.35,9.35,0,0,0-.65,3.41c-.15,9.48-.24,19-.19,28.46h0s.6,9.13-1.15,12.75h0c-1.76,3.08-4.24,5.17-7.73,5.63-2,.26-4,.14-6,.22-1,0-2,.12-3.5.21h0l2.65,2.62a18.1,18.1,0,0,1,5.38,8.85A12.59,12.59,0,0,1,506.66,189c-4.75,3-10.49,3-14.5-.61a7.4,7.4,0,0,0-5.47-1.77q-176.07,0-352.14,0a8.09,8.09,0,0,0-5.74,1.93c-4,3.38-9.64,3.42-14.26.5A12.66,12.66,0,0,1,108.69,176a18.06,18.06,0,0,1,5.64-9.4c.7-.68,1.37-1.39,2.45-2.49h0c-3.76-.15-6.82-.08-9.84-.44-3.17-.38-5.47-2.43-7.63-4.84-1.36-1.67-1.23-7.16-1.23-7.16q0-17.34.13-34.69c0-2.74-.74-5.15-3.08-6.6a9.61,9.61,0,0,0-4.72-1.47c-16.45-.1-32.91-.06-49.36-.07a7.51,7.51,0,0,0-7.26,4.25c-2,3.82-.1,7.38,4.1,8,.82.12,1.65.17,2.62.26h0v5h0c-4,.84-5.9.57-10.07-2.13A7.37,7.37,0,0,1,27,118.41a21.26,21.26,0,0,1,2-8.88.34.34,0,0,0,.12-.07c3.33-5.07,8.26-6.63,14-6.52,4.14.08,8.28,0,12.42,0H89.91c5.43,0,9.62,2.22,12.39,7l.1.17a9.89,9.89,0,0,1,1.68,4.16,127.89,127.89,0,0,1,.57,15.44c-.14,7.61-.32,14.8-.39,22,0,4.79,1.7,6.48,6.52,6.51,5,0,10,0,15,0,.92,0,1.83.12,2.88.2h0l1.05,5.31h0a29,29,0,0,0-3.23,1.57c-2.93,1.9-5.89,3.75-8.65,5.87a9.62,9.62,0,0,0-3.42,5.61,6.89,6.89,0,0,0,3.7,7.7c3,1.6,6,1.35,8.06-1.24a5.68,5.68,0,0,1,5.11-2.29q179.29.07,358.58,0h3.29c.59.76,1,1.28,1.37,1.76,2.51,2.93,5.57,3.48,8.81,1.62s4.64-5.39,3.08-8.7a15.62,15.62,0,0,0-3.93-5.28,70.8,70.8,0,0,0-8-5.22c-.88-.55-1.85-.95-3-1.52h0l1.11-5.43h3.76c4.88,0,9.77.05,14.65,0,3.89-.06,5.88-1.8,5.88-5.56,0-7.41-.23-14.83-.39-22.24l-.15-2.42a49.63,49.63,0,0,1,1.26-14.72,13.81,13.81,0,0,1,2.94-5.72c3-3.36,7-4.67,12-4.6,10.82.15,21.64,0,32.45,0,4.77,0,9.55,0,14.32,0,5.56.06,10.15,2,13,7.06h0a22.6,22.6,0,0,1,1,4.88A10.68,10.68,0,0,1,582,126.71Z" transform="translate(-24.5 -26.21)"/><path d="M436.63,334.1l-127.78,0a5.78,5.78,0,0,0-4.1,1.38,8.52,8.52,0,0,1-10.19.36,9.05,9.05,0,0,1-4.18-9.37,12.91,12.91,0,0,1,4-6.72c.5-.48,1-1,1.75-1.78h0c-2.68-.11-4.88-.06-7-.32s-3.91-1.73-5.45-3.46c-1-1.2-.88-5.12-.88-5.12q0-12.4.09-24.79c0-2-.53-3.68-2.2-4.71a6.87,6.87,0,0,0-3.38-1.05c-11.76-.07-23.52,0-35.28,0a5.37,5.37,0,0,0-5.19,3c-1.39,2.73-.07,5.28,2.93,5.7.59.08,1.18.12,1.88.19h0V291h0c-2.87.6-4.22.41-7.2-1.52a5.27,5.27,0,0,1-2.45-4.13,15.2,15.2,0,0,1,1.4-6.35.24.24,0,0,0,.09,0c2.38-3.62,5.9-4.73,10-4.66,3,.06,5.92,0,8.87,0H277a9.57,9.57,0,0,1,8.85,5l.07.12a7.07,7.07,0,0,1,1.2,3,91.4,91.4,0,0,1,.41,11c-.1,5.44-.23,10.58-.28,15.72,0,3.42,1.21,4.63,4.66,4.65s7.13,0,10.7,0c.66,0,1.31.09,2.06.14h0l.75,3.8h0a20.7,20.7,0,0,0-2.31,1.12c-2.09,1.35-4.21,2.68-6.18,4.2a6.87,6.87,0,0,0-2.45,4,4.92,4.92,0,0,0,2.64,5.5c2.14,1.14,4.31,1,5.76-.89A4.06,4.06,0,0,1,306.5,330l130.13,0" transform="translate(-24.5 -26.21)"/><path d="M131.33,478.7l130.13,0a4.06,4.06,0,0,1,3.65,1.64c1.45,1.85,3.62,2,5.76.89a4.92,4.92,0,0,0,2.64-5.5,6.87,6.87,0,0,0-2.45-4c-2-1.52-4.09-2.84-6.18-4.2a20.7,20.7,0,0,0-2.31-1.12h0l.75-3.8h0c.75-.05,1.41-.14,2.06-.14,3.57,0,7.13,0,10.7,0s4.69-1.23,4.66-4.65c0-5.14-.18-10.28-.28-15.72a91.4,91.4,0,0,1,.41-11,7.07,7.07,0,0,1,1.2-3l.07-.12a9.57,9.57,0,0,1,8.85-5h24.57c3,0,5.92,0,8.87,0,4.11-.08,7.64,1,10,4.66a.24.24,0,0,0,.09,0A15.2,15.2,0,0,1,336,434a5.27,5.27,0,0,1-2.45,4.13c-3,1.93-4.33,2.12-7.2,1.52h0v-3.6h0c.7-.07,1.29-.1,1.88-.19,3-.42,4.33-3,2.93-5.7a5.37,5.37,0,0,0-5.19-3c-11.76,0-23.52,0-35.28,0a6.87,6.87,0,0,0-3.38,1.05c-1.67,1-2.22,2.75-2.2,4.71q.09,12.4.09,24.79s.1,3.92-.88,5.12c-1.54,1.72-3.18,3.19-5.45,3.46s-4.35.21-7,.32h0c.77.79,1.25,1.3,1.75,1.78a12.91,12.91,0,0,1,4,6.72,9.05,9.05,0,0,1-4.18,9.37,8.52,8.52,0,0,1-10.19-.36,5.78,5.78,0,0,0-4.1-1.38l-127.78,0" transform="translate(-24.5 -26.21)"/></svg>