<svg id="Layer_1" data-name="Layer 1" xmlns="http://www.w3.org/2000/svg" viewBox="0 0 509.17 288.17"><defs><style>.cls-1,.cls-2{fill:#333;}.cls-2{font-size:20px;font-family:GothamMedium, Gotham Medium;}.cls-3{fill:none;stroke:#333;stroke-miterlimit:10;}</style></defs><title>Material Specification</title><path class="cls-1" d="M69,109.9h5.73v1.36H70.48v2.47h3.76v1.37H70.48v2.53h4.3V119H69Z" transform="translate(-54.67 -53.67)"/><path class="cls-1" d="M76.22,112.11h1.47v1A2.16,2.16,0,0,1,79.57,112c1.33,0,2.12.94,2.12,2.4V119H80.22v-4.2c0-1-.46-1.5-1.24-1.5s-1.3.57-1.3,1.52V119H76.22Z" transform="translate(-54.67 -53.67)"/><path class="cls-1" d="M83,115.65v-.17c0-2.33,1.29-3.5,2.68-3.5a2.38,2.38,0,0,1,2,1.17v-3.54h1.47V119H87.69v-1.1a2.33,2.33,0,0,1-2,1.23C84.3,119.13,83,118,83,115.65Zm4.72,0v-.13c0-1.35-.75-2.21-1.64-2.21s-1.6.83-1.6,2.22v.1c0,1.38.71,2.22,1.6,2.22S87.72,117,87.72,115.62Z" transform="translate(-54.67 -53.67)"/><path class="cls-1" d="M90.26,118.17l.69-1.05a3.14,3.14,0,0,0,1.9.81c.61,0,1-.32,1-.75h0c0-.49-.53-.71-1.35-1.07-1-.44-1.88-.91-1.88-2v0a2.06,2.06,0,0,1,2.27-2,3.94,3.94,0,0,1,2.24.74l-.62,1.08a3.07,3.07,0,0,0-1.64-.61c-.55,0-.87.3-.87.68v0c0,.45.55.69,1.35,1.05,1.07.48,1.87,1,1.87,2.05h0a2.1,2.1,0,0,1-2.35,2.09A4.07,4.07,0,0,1,90.26,118.17Z" transform="translate(-54.67 -53.67)"/><path class="cls-1" d="M100,109.9h1.57l2.34,4.19,2.33-4.19h1.59V119h-1.5v-6.44l-2.42,4.21h0l-2.41-4.19V119H100Z" transform="translate(-54.67 -53.67)"/><path class="cls-1" d="M109.22,117V117c0-1.48,1-2.21,2.44-2.21a4.68,4.68,0,0,1,1.59.27v-.29a1.3,1.3,0,0,0-1.48-1.4,3.92,3.92,0,0,0-1.66.42l-.42-1.17A4.9,4.9,0,0,1,112,112a2.43,2.43,0,0,1,2.72,2.69V119h-1.44v-.85a2.19,2.19,0,0,1-1.91,1A2,2,0,0,1,109.22,117Zm4-.34V116a3.32,3.32,0,0,0-1.27-.25c-.84,0-1.34.43-1.34,1.16v0a1.05,1.05,0,0,0,1.12,1.09A1.38,1.38,0,0,0,113.27,116.69Z" transform="translate(-54.67 -53.67)"/><path class="cls-1" d="M116.49,117.34v-4h-.75v-1.26h.75v-1.86H118v1.86h1.55v1.26H118V117a.66.66,0,0,0,.74.75,1.67,1.67,0,0,0,.79-.19v1.21a2.5,2.5,0,0,1-1.22.3A1.57,1.57,0,0,1,116.49,117.34Z" transform="translate(-54.67 -53.67)"/><path class="cls-1" d="M120.35,115.63v-.1c0-2.07,1.25-3.55,2.94-3.55,1.87,0,2.86,1.56,2.86,3.63,0,.09,0,.3,0,.51h-4.32a1.77,1.77,0,0,0,1.74,1.78,2.19,2.19,0,0,0,1.59-.73l.77.91a3.2,3.2,0,0,1-5.56-2.44Zm4.37-.53c-.08-1.09-.57-1.89-1.43-1.89s-1.38.71-1.48,1.89Z" transform="translate(-54.67 -53.67)"/><path class="cls-1" d="M127.47,112.11h1.47v1.35A2,2,0,0,1,131,112v1.6h-.07c-1.2,0-2,.78-2,2.35v3h-1.47Z" transform="translate(-54.67 -53.67)"/><path class="cls-1" d="M132.18,109.67h1.56v1.44h-1.56Zm.05,2.44h1.47V119h-1.47Z" transform="translate(-54.67 -53.67)"/><path class="cls-1" d="M135.05,117V117c0-1.48,1-2.21,2.44-2.21a4.68,4.68,0,0,1,1.59.27v-.29a1.3,1.3,0,0,0-1.48-1.4,3.92,3.92,0,0,0-1.66.42l-.42-1.17a4.9,4.9,0,0,1,2.28-.55,2.43,2.43,0,0,1,2.72,2.69V119h-1.44v-.85a2.19,2.19,0,0,1-1.91,1A2,2,0,0,1,135.05,117Zm4-.34V116a3.32,3.32,0,0,0-1.27-.25c-.84,0-1.34.43-1.34,1.16v0A1.05,1.05,0,0,0,137.6,118,1.38,1.38,0,0,0,139.1,116.69Z" transform="translate(-54.67 -53.67)"/><path class="cls-1" d="M142.18,109.61h1.47V119h-1.47Z" transform="translate(-54.67 -53.67)"/><path class="cls-1" d="M70.81,148.3H68.42v-1.4h6.29v1.4H72.32V156H70.81Z" transform="translate(-54.67 -53.67)"/><path class="cls-1" d="M75.88,146.61h1.47v3.51A2.16,2.16,0,0,1,79.23,149c1.33,0,2.12.94,2.12,2.4V156H79.88v-4.2c0-1-.46-1.5-1.24-1.5s-1.3.57-1.3,1.52V156H75.88Z" transform="translate(-54.67 -53.67)"/><path class="cls-1" d="M83,146.67h1.56v1.44H83Zm.05,2.44H84.5V156H83Z" transform="translate(-54.67 -53.67)"/><path class="cls-1" d="M85.93,152.65v-.13A3.25,3.25,0,0,1,89.07,149a2.91,2.91,0,0,1,2.21.94L90.46,151a1.86,1.86,0,0,0-1.39-.69c-1,0-1.66.92-1.66,2.22v.06c0,1.34.7,2.24,1.7,2.24a1.92,1.92,0,0,0,1.4-.7l.79,1a2.88,2.88,0,0,1-2.29,1A3.19,3.19,0,0,1,85.93,152.65Z" transform="translate(-54.67 -53.67)"/><path class="cls-1" d="M92.49,146.61H94v5.52l2.35-3h1.74l-2.29,2.81L98.12,156h-1.7l-1.66-3L94,154v2H92.49Z" transform="translate(-54.67 -53.67)"/><path class="cls-1" d="M99.11,149.11h1.47v1a2.16,2.16,0,0,1,1.88-1.14c1.33,0,2.12.94,2.12,2.4V156h-1.47v-4.2c0-1-.46-1.5-1.24-1.5s-1.3.57-1.3,1.52V156H99.11Z" transform="translate(-54.67 -53.67)"/><path class="cls-1" d="M105.87,152.63v-.1c0-2.07,1.25-3.55,2.94-3.55,1.87,0,2.86,1.56,2.86,3.63,0,.09,0,.3,0,.51h-4.32a1.77,1.77,0,0,0,1.74,1.78,2.19,2.19,0,0,0,1.59-.73l.77.91a3.2,3.2,0,0,1-5.56-2.44Zm4.37-.53c-.08-1.09-.57-1.89-1.43-1.89s-1.38.71-1.48,1.89Z" transform="translate(-54.67 -53.67)"/><path class="cls-1" d="M112.42,155.17l.69-1.05a3.14,3.14,0,0,0,1.9.81c.61,0,1-.32,1-.75h0c0-.49-.53-.71-1.35-1.07-1-.44-1.89-.91-1.89-2v0a2.06,2.06,0,0,1,2.28-2,3.94,3.94,0,0,1,2.24.74l-.62,1.08a3.07,3.07,0,0,0-1.64-.61c-.55,0-.87.3-.87.68v0c0,.45.55.69,1.35,1.05,1.07.48,1.87,1,1.87,2.05h0a2.1,2.1,0,0,1-2.35,2.09A4.07,4.07,0,0,1,112.42,155.17Z" transform="translate(-54.67 -53.67)"/><path class="cls-1" d="M118,155.17l.69-1.05a3.14,3.14,0,0,0,1.9.81c.61,0,1-.32,1-.75h0c0-.49-.53-.71-1.35-1.07-1-.44-1.88-.91-1.88-2v0a2.06,2.06,0,0,1,2.27-2,3.94,3.94,0,0,1,2.24.74l-.62,1.08a3.07,3.07,0,0,0-1.64-.61c-.55,0-.87.3-.87.68v0c0,.45.55.69,1.35,1.05,1.07.48,1.87,1,1.87,2.05h0a2.1,2.1,0,0,1-2.35,2.09A4.07,4.07,0,0,1,118,155.17Z" transform="translate(-54.67 -53.67)"/><path class="cls-1" d="M69,183.9H70.5v7.71h3.9V193H69Z" transform="translate(-54.67 -53.67)"/><path class="cls-1" d="M75.23,191V191c0-1.48,1-2.21,2.44-2.21a4.71,4.71,0,0,1,1.59.27v-.29a1.3,1.3,0,0,0-1.48-1.4,3.92,3.92,0,0,0-1.66.42l-.42-1.17A4.9,4.9,0,0,1,78,186a2.43,2.43,0,0,1,2.72,2.69V193H79.24v-.84a2.19,2.19,0,0,1-1.91,1A2,2,0,0,1,75.23,191Zm4-.34V190a3.31,3.31,0,0,0-1.27-.25c-.84,0-1.34.43-1.34,1.16v0A1.05,1.05,0,0,0,77.78,192,1.38,1.38,0,0,0,79.27,190.69Z" transform="translate(-54.67 -53.67)"/><path class="cls-1" d="M82,189.65v-.13A3.25,3.25,0,0,1,85.11,186a2.91,2.91,0,0,1,2.21.94L86.5,188a1.86,1.86,0,0,0-1.39-.69c-1,0-1.66.92-1.66,2.22v.06c0,1.34.7,2.24,1.7,2.24a1.92,1.92,0,0,0,1.4-.7l.79,1a2.88,2.88,0,0,1-2.29,1A3.19,3.19,0,0,1,82,189.65Z" transform="translate(-54.67 -53.67)"/><path class="cls-1" d="M92.83,191.9a2.33,2.33,0,0,1-2,1.24c-1.38,0-2.68-1.16-2.68-3.48v-.17c0-2.33,1.29-3.5,2.68-3.5a2.38,2.38,0,0,1,2,1.17v-1H94.3V195H92.83Zm0-2.27v-.13c0-1.35-.75-2.21-1.64-2.21s-1.6.83-1.6,2.22v.1c0,1.38.72,2.22,1.6,2.22S92.86,191,92.86,189.62Z" transform="translate(-54.67 -53.67)"/><path class="cls-1" d="M95.9,190.73v-4.62h1.47v4.2c0,1,.45,1.5,1.22,1.5s1.3-.57,1.3-1.52v-4.17h1.48V193H99.89v-1A2.13,2.13,0,0,1,98,193.13C96.68,193.13,95.9,192.21,95.9,190.73Z" transform="translate(-54.67 -53.67)"/><path class="cls-1" d="M102.72,189.63v-.1c0-2.07,1.25-3.55,2.94-3.55,1.87,0,2.86,1.56,2.86,3.63,0,.09,0,.3,0,.51h-4.32a1.77,1.77,0,0,0,1.74,1.78,2.19,2.19,0,0,0,1.59-.73l.77.91a3.2,3.2,0,0,1-5.56-2.44Zm4.37-.53c-.08-1.09-.57-1.88-1.43-1.88s-1.38.71-1.48,1.88Z" transform="translate(-54.67 -53.67)"/><path class="cls-1" d="M109.85,186.11h1.47v1.35a2,2,0,0,1,2.07-1.46v1.6h-.06c-1.2,0-2,.78-2,2.35v3h-1.47Z" transform="translate(-54.67 -53.67)"/><path class="cls-1" d="M69,240.9H70.5v7.71h3.9V250H69Z" transform="translate(-54.67 -53.67)"/><path class="cls-1" d="M75.64,240.67H77.2v1.44H75.64Zm.05,2.44h1.47V250H75.7Z" transform="translate(-54.67 -53.67)"/><path class="cls-1" d="M78.91,243.11h1.47v1A2.16,2.16,0,0,1,82.26,243c1.33,0,2.12.94,2.12,2.41V250H82.91v-4.2c0-1-.45-1.5-1.23-1.5s-1.3.57-1.3,1.52V250H78.91Z" transform="translate(-54.67 -53.67)"/><path class="cls-1" d="M86,240.67h1.56v1.44H86Zm.05,2.44h1.47V250H86.06Z" transform="translate(-54.67 -53.67)"/><path class="cls-1" d="M89.27,243.11h1.47v1A2.16,2.16,0,0,1,92.62,243c1.33,0,2.12.94,2.12,2.41V250H93.27v-4.2c0-1-.46-1.5-1.24-1.5s-1.3.57-1.3,1.52V250H89.27Z" transform="translate(-54.67 -53.67)"/><path class="cls-1" d="M96.34,251.34l.48-1.16a4,4,0,0,0,2.07.58,1.64,1.64,0,0,0,1.87-1.82v-.66a2.44,2.44,0,0,1-2.08,1.21c-1.38,0-2.63-1.11-2.63-3.22v-.05c0-2.13,1.26-3.24,2.63-3.24a2.45,2.45,0,0,1,2.07,1.16v-1h1.47v5.77a3.1,3.1,0,0,1-.78,2.29A3.35,3.35,0,0,1,99,252,5.41,5.41,0,0,1,96.34,251.34Zm4.43-5.08v0a1.77,1.77,0,0,0-1.65-2c-.9,0-1.59.74-1.59,2h0c0,1.22.7,2,1.59,2A1.78,1.78,0,0,0,100.77,246.26Z" transform="translate(-54.67 -53.67)"/><path class="cls-1" d="M107.05,245.5v-.09c0-2.76,1.72-4.64,4.07-4.64A4,4,0,0,1,114,241.9l-.91,1.16a2.8,2.8,0,0,0-2-.88c-1.43,0-2.51,1.3-2.51,3.24v.05c0,2,1.08,3.26,2.51,3.26a2.78,2.78,0,0,0,2-.95l.88,1.07a3.91,3.91,0,0,1-3,1.29C108.72,250.13,107.05,248.28,107.05,245.5Z" transform="translate(-54.67 -53.67)"/><path class="cls-1" d="M114.77,246.63v-.12a3.19,3.19,0,1,1,6.34,0v.12a3.19,3.19,0,1,1-6.34,0Zm4.88,0v-.08c0-1.29-.71-2.25-1.72-2.25s-1.69.95-1.69,2.24v.08c0,1.29.71,2.26,1.72,2.26S119.65,247.89,119.65,246.61Z" transform="translate(-54.67 -53.67)"/><path class="cls-1" d="M122.47,243.11h1.47v1a2.14,2.14,0,0,1,1.85-1.13,1.88,1.88,0,0,1,1.78,1.11,2.44,2.44,0,0,1,2-1.11c1.27,0,2.11.85,2.11,2.41V250h-1.47v-4.19c0-1-.42-1.51-1.17-1.51s-1.24.55-1.24,1.52V250h-1.47v-4.2c0-1-.43-1.5-1.16-1.5s-1.25.58-1.25,1.53V250h-1.47Z" transform="translate(-54.67 -53.67)"/><path class="cls-1" d="M133.31,243.11h1.47v1.11a2.33,2.33,0,0,1,2-1.24c1.38,0,2.68,1.16,2.68,3.48v.18c0,2.31-1.29,3.48-2.68,3.48a2.35,2.35,0,0,1-2-1.17v3h-1.47Zm4.68,3.51v-.12c0-1.38-.71-2.22-1.6-2.22s-1.64.86-1.64,2.21v.13c0,1.35.75,2.21,1.64,2.21S138,248,138,246.62Z" transform="translate(-54.67 -53.67)"/><path class="cls-1" d="M140.54,246.63v-.12a3.19,3.19,0,1,1,6.34,0v.12a3.19,3.19,0,1,1-6.34,0Zm4.88,0v-.08c0-1.29-.71-2.25-1.72-2.25s-1.69.95-1.69,2.24v.08c0,1.29.71,2.26,1.72,2.26S145.41,247.89,145.41,246.61Z" transform="translate(-54.67 -53.67)"/><path class="cls-1" d="M148.17,247.73v-4.62h1.47v4.2c0,1,.46,1.5,1.22,1.5s1.3-.57,1.3-1.52v-4.17h1.48V250h-1.48v-1a2.12,2.12,0,0,1-1.87,1.13C148.95,250.13,148.17,249.21,148.17,247.73Z" transform="translate(-54.67 -53.67)"/><path class="cls-1" d="M155.31,243.11h1.47v1a2.16,2.16,0,0,1,1.89-1.14c1.33,0,2.12.94,2.12,2.41V250h-1.47v-4.2c0-1-.46-1.5-1.23-1.5s-1.3.57-1.3,1.52V250h-1.47Z" transform="translate(-54.67 -53.67)"/><path class="cls-1" d="M162.09,246.65v-.17c0-2.33,1.29-3.5,2.68-3.5a2.38,2.38,0,0,1,2,1.17v-3.54h1.47V250h-1.47V248.9a2.33,2.33,0,0,1-2,1.24C163.39,250.13,162.09,249,162.09,246.65Zm4.72,0v-.13c0-1.35-.75-2.21-1.64-2.21s-1.6.83-1.6,2.22v.1c0,1.38.71,2.22,1.6,2.22S166.81,248,166.81,246.62Z" transform="translate(-54.67 -53.67)"/><path class="cls-1" d="M70.81,279.3H68.42v-1.4h6.29v1.4H72.32V287H70.81Z" transform="translate(-54.67 -53.67)"/><path class="cls-1" d="M74.42,285V285c0-1.48,1-2.21,2.44-2.21a4.71,4.71,0,0,1,1.59.27v-.29a1.3,1.3,0,0,0-1.48-1.4,3.92,3.92,0,0,0-1.66.42l-.42-1.17a4.9,4.9,0,0,1,2.27-.55,2.43,2.43,0,0,1,2.72,2.69V287H78.44v-.84a2.19,2.19,0,0,1-1.91,1A2,2,0,0,1,74.42,285Zm4-.34V284a3.31,3.31,0,0,0-1.27-.25c-.84,0-1.34.43-1.34,1.16v0A1.05,1.05,0,0,0,77,286,1.38,1.38,0,0,0,78.47,284.69Z" transform="translate(-54.67 -53.67)"/><path class="cls-1" d="M82.94,286v1H81.47v-9.39h1.47v3.6A2.33,2.33,0,0,1,85,280c1.38,0,2.68,1.16,2.68,3.48v.18c0,2.31-1.29,3.48-2.68,3.48A2.35,2.35,0,0,1,82.94,286Zm3.21-2.34v-.12c0-1.38-.71-2.22-1.6-2.22s-1.64.86-1.64,2.21v.13c0,1.35.75,2.21,1.64,2.21S86.15,285,86.15,283.62Z" transform="translate(-54.67 -53.67)"/><path class="cls-1" d="M92.52,277.9h1.57l2.34,4.19,2.33-4.19h1.59V287h-1.5v-6.44l-2.42,4.21h0L94,280.59V287H92.52Z" transform="translate(-54.67 -53.67)"/><path class="cls-1" d="M101.76,285V285c0-1.48,1-2.21,2.44-2.21a4.71,4.71,0,0,1,1.59.27v-.29a1.3,1.3,0,0,0-1.48-1.4,3.92,3.92,0,0,0-1.66.42l-.42-1.17a4.9,4.9,0,0,1,2.27-.55,2.43,2.43,0,0,1,2.72,2.69V287h-1.44v-.84a2.19,2.19,0,0,1-1.91,1A2,2,0,0,1,101.76,285Zm4-.34V284a3.31,3.31,0,0,0-1.27-.25c-.84,0-1.34.43-1.34,1.16v0a1.05,1.05,0,0,0,1.12,1.09A1.38,1.38,0,0,0,105.8,284.69Z" transform="translate(-54.67 -53.67)"/><path class="cls-1" d="M109,285.34v-4h-.75v-1.26H109v-1.86h1.47v1.86H112v1.26H110.5V285a.66.66,0,0,0,.74.75,1.67,1.67,0,0,0,.79-.2v1.21a2.49,2.49,0,0,1-1.22.3A1.57,1.57,0,0,1,109,285.34Z" transform="translate(-54.67 -53.67)"/><path class="cls-1" d="M112.89,283.63v-.1c0-2.07,1.25-3.55,2.94-3.55,1.87,0,2.86,1.56,2.86,3.63,0,.09,0,.3,0,.51h-4.32a1.77,1.77,0,0,0,1.74,1.78,2.19,2.19,0,0,0,1.59-.73l.77.91a3.2,3.2,0,0,1-5.56-2.44Zm4.37-.53c-.08-1.09-.57-1.88-1.43-1.88s-1.38.71-1.48,1.88Z" transform="translate(-54.67 -53.67)"/><path class="cls-1" d="M120,280.11h1.47v1.35a2,2,0,0,1,2.07-1.46v1.6h-.07c-1.2,0-2,.78-2,2.35v3H120Z" transform="translate(-54.67 -53.67)"/><path class="cls-1" d="M124.72,277.67h1.56v1.44h-1.56Zm.05,2.44h1.47V287h-1.47Z" transform="translate(-54.67 -53.67)"/><path class="cls-1" d="M127.59,285V285c0-1.48,1-2.21,2.44-2.21a4.71,4.71,0,0,1,1.59.27v-.29a1.3,1.3,0,0,0-1.48-1.4,3.92,3.92,0,0,0-1.66.42l-.42-1.17a4.9,4.9,0,0,1,2.28-.55,2.43,2.43,0,0,1,2.72,2.69V287h-1.44v-.84a2.19,2.19,0,0,1-1.91,1A2,2,0,0,1,127.59,285Zm4-.34V284a3.31,3.31,0,0,0-1.27-.25c-.84,0-1.34.43-1.34,1.16v0a1.05,1.05,0,0,0,1.12,1.09A1.38,1.38,0,0,0,131.63,284.69Z" transform="translate(-54.67 -53.67)"/><path class="cls-1" d="M134.72,277.61h1.47V287h-1.47Z" transform="translate(-54.67 -53.67)"/><path class="cls-1" d="M70.81,316.3H68.42v-1.4h6.29v1.4H72.32V324H70.81Z" transform="translate(-54.67 -53.67)"/><path class="cls-1" d="M74.42,322V322c0-1.48,1-2.21,2.44-2.21a4.71,4.71,0,0,1,1.59.27v-.29a1.3,1.3,0,0,0-1.48-1.4,3.92,3.92,0,0,0-1.66.42l-.42-1.17a4.9,4.9,0,0,1,2.27-.55,2.43,2.43,0,0,1,2.72,2.69V324H78.44v-.84a2.19,2.19,0,0,1-1.91,1A2,2,0,0,1,74.42,322Zm4-.34V321a3.31,3.31,0,0,0-1.27-.25c-.84,0-1.34.43-1.34,1.16v0A1.05,1.05,0,0,0,77,323,1.38,1.38,0,0,0,78.47,321.69Z" transform="translate(-54.67 -53.67)"/><path class="cls-1" d="M82.94,323v1H81.47v-9.39h1.47v3.6A2.33,2.33,0,0,1,85,317c1.38,0,2.68,1.16,2.68,3.48v.18c0,2.31-1.29,3.48-2.68,3.48A2.35,2.35,0,0,1,82.94,323Zm3.21-2.34v-.12c0-1.38-.71-2.22-1.6-2.22s-1.64.86-1.64,2.21v.13c0,1.35.75,2.21,1.64,2.21S86.15,322,86.15,320.62Z" transform="translate(-54.67 -53.67)"/><path class="cls-1" d="M92.36,317.11h1.47v1A2.13,2.13,0,0,1,95.68,317a1.88,1.88,0,0,1,1.78,1.11,2.44,2.44,0,0,1,2-1.11c1.27,0,2.11.85,2.11,2.41V324h-1.47v-4.19c0-1-.42-1.51-1.17-1.51s-1.23.55-1.23,1.52V324H96.24v-4.2c0-1-.43-1.5-1.16-1.5s-1.25.58-1.25,1.53V324H92.36Z" transform="translate(-54.67 -53.67)"/><path class="cls-1" d="M102.81,322V322c0-1.48,1-2.21,2.44-2.21a4.71,4.71,0,0,1,1.59.27v-.29a1.3,1.3,0,0,0-1.48-1.4,3.92,3.92,0,0,0-1.66.42l-.42-1.17a4.9,4.9,0,0,1,2.27-.55,2.43,2.43,0,0,1,2.72,2.69V324h-1.44v-.84a2.19,2.19,0,0,1-1.91,1A2,2,0,0,1,102.81,322Zm4-.34V321a3.31,3.31,0,0,0-1.27-.25c-.84,0-1.34.43-1.34,1.16v0a1.05,1.05,0,0,0,1.12,1.09A1.38,1.38,0,0,0,106.86,321.69Z" transform="translate(-54.67 -53.67)"/><path class="cls-1" d="M110.08,322.34v-4h-.75v-1.26h.75v-1.86h1.47v1.86h1.55v1.26h-1.55V322a.66.66,0,0,0,.74.75,1.67,1.67,0,0,0,.79-.2v1.21a2.49,2.49,0,0,1-1.22.3A1.57,1.57,0,0,1,110.08,322.34Z" transform="translate(-54.67 -53.67)"/><path class="cls-1" d="M113.94,320.63v-.1c0-2.07,1.25-3.55,2.94-3.55,1.87,0,2.86,1.56,2.86,3.63,0,.09,0,.3,0,.51h-4.32a1.77,1.77,0,0,0,1.74,1.78,2.19,2.19,0,0,0,1.59-.73l.77.91a3.2,3.2,0,0,1-5.56-2.44Zm4.37-.53c-.08-1.09-.57-1.88-1.43-1.88s-1.38.71-1.48,1.88Z" transform="translate(-54.67 -53.67)"/><path class="cls-1" d="M121.07,317.11h1.47v1.35A2,2,0,0,1,124.6,317v1.6h-.07c-1.2,0-2,.78-2,2.35v3h-1.47Z" transform="translate(-54.67 -53.67)"/><path class="cls-1" d="M125.77,314.67h1.56v1.44h-1.56Zm.05,2.44h1.47V324h-1.47Z" transform="translate(-54.67 -53.67)"/><path class="cls-1" d="M128.65,322V322c0-1.48,1-2.21,2.44-2.21a4.7,4.7,0,0,1,1.59.27v-.29a1.3,1.3,0,0,0-1.48-1.4,3.92,3.92,0,0,0-1.66.42l-.42-1.17a4.9,4.9,0,0,1,2.28-.55,2.43,2.43,0,0,1,2.72,2.69V324h-1.44v-.84a2.19,2.19,0,0,1-1.91,1A2,2,0,0,1,128.65,322Zm4-.34V321a3.31,3.31,0,0,0-1.27-.25c-.84,0-1.34.43-1.34,1.16v0a1.05,1.05,0,0,0,1.12,1.09A1.38,1.38,0,0,0,132.69,321.69Z" transform="translate(-54.67 -53.67)"/><path class="cls-1" d="M135.77,314.61h1.47V324h-1.47Z" transform="translate(-54.67 -53.67)"/><path class="cls-1" d="M144.31,316.3h-2.39v-1.4h6.29v1.4h-2.39V324h-1.51Z" transform="translate(-54.67 -53.67)"/><path class="cls-1" d="M149.38,314.61h1.47v3.51a2.16,2.16,0,0,1,1.89-1.14c1.33,0,2.12.94,2.12,2.41V324h-1.47v-4.2c0-1-.46-1.5-1.23-1.5s-1.3.57-1.3,1.52V324h-1.47Z" transform="translate(-54.67 -53.67)"/><path class="cls-1" d="M156.48,314.67H158v1.44h-1.56Zm.05,2.44H158V324h-1.47Z" transform="translate(-54.67 -53.67)"/><path class="cls-1" d="M159.43,320.65v-.13a3.25,3.25,0,0,1,3.15-3.54,2.91,2.91,0,0,1,2.21.94L164,319a1.86,1.86,0,0,0-1.39-.69c-1,0-1.66.92-1.66,2.22v.06c0,1.34.7,2.24,1.7,2.24a1.92,1.92,0,0,0,1.4-.7l.79,1a2.88,2.88,0,0,1-2.29,1A3.19,3.19,0,0,1,159.43,320.65Z" transform="translate(-54.67 -53.67)"/><path class="cls-1" d="M166,314.61h1.47v5.53l2.35-3h1.74l-2.29,2.81,2.35,4.08h-1.7l-1.66-3-.79,1v2H166Z" transform="translate(-54.67 -53.67)"/><path class="cls-1" d="M172.61,317.11h1.47v1A2.16,2.16,0,0,1,176,317c1.33,0,2.12.94,2.12,2.41V324h-1.47v-4.2c0-1-.46-1.5-1.23-1.5s-1.3.57-1.3,1.52V324h-1.47Z" transform="translate(-54.67 -53.67)"/><path class="cls-1" d="M179.37,320.63v-.1c0-2.07,1.25-3.55,2.94-3.55,1.87,0,2.86,1.56,2.86,3.63,0,.09,0,.3,0,.51h-4.32a1.77,1.77,0,0,0,1.74,1.78,2.19,2.19,0,0,0,1.59-.73l.77.91a3.2,3.2,0,0,1-5.56-2.44Zm4.37-.53c-.08-1.09-.57-1.88-1.43-1.88s-1.38.71-1.48,1.88Z" transform="translate(-54.67 -53.67)"/><path class="cls-1" d="M185.92,323.17l.69-1.05a3.14,3.14,0,0,0,1.9.81c.61,0,1-.33,1-.75h0c0-.49-.53-.72-1.35-1.07-1-.44-1.88-.91-1.88-2v0a2.06,2.06,0,0,1,2.27-2,3.93,3.93,0,0,1,2.24.74l-.62,1.08a3.07,3.07,0,0,0-1.64-.61c-.55,0-.87.3-.87.68v0c0,.46.55.69,1.35,1.05,1.07.48,1.87,1,1.87,2.05h0a2.1,2.1,0,0,1-2.35,2.09A4.07,4.07,0,0,1,185.92,323.17Z" transform="translate(-54.67 -53.67)"/><path class="cls-1" d="M191.47,323.17l.69-1.05a3.14,3.14,0,0,0,1.9.81c.61,0,1-.33,1-.75h0c0-.49-.53-.72-1.35-1.07-1-.44-1.88-.91-1.88-2v0a2.06,2.06,0,0,1,2.27-2,3.93,3.93,0,0,1,2.24.74l-.62,1.08a3.07,3.07,0,0,0-1.64-.61c-.55,0-.87.3-.87.68v0c0,.46.55.69,1.35,1.05,1.07.48,1.87,1,1.87,2.05h0a2.1,2.1,0,0,1-2.35,2.09A4.07,4.07,0,0,1,191.47,323.17Z" transform="translate(-54.67 -53.67)"/><path class="cls-1" d="M487.14,109.85h1.46l3.34,9.15h-1.57l-.75-2.15h-3.54l-.75,2.15H483.8Zm2,5.67-1.3-3.65-1.3,3.65Z" transform="translate(-54.67 -53.67)"/><path class="cls-1" d="M493.48,109.61H495V119h-1.47Z" transform="translate(-54.67 -53.67)"/><path class="cls-1" d="M497,116.73v-4.62h1.47v4.2c0,1,.46,1.5,1.22,1.5s1.3-.57,1.3-1.52v-4.17h1.48V119h-1.48v-1a2.13,2.13,0,0,1-1.87,1.13C497.73,119.13,497,118.21,497,116.73Z" transform="translate(-54.67 -53.67)"/><path class="cls-1" d="M504.42,112.11h1.47v1a2.13,2.13,0,0,1,1.85-1.13,1.88,1.88,0,0,1,1.78,1.1,2.44,2.44,0,0,1,2-1.1c1.27,0,2.11.84,2.11,2.4V119h-1.47v-4.19c0-1-.42-1.51-1.17-1.51s-1.24.55-1.24,1.52V119h-1.47v-4.2c0-1-.43-1.5-1.16-1.5s-1.25.58-1.25,1.53V119h-1.47Z" transform="translate(-54.67 -53.67)"/><path class="cls-1" d="M515.61,109.67h1.56v1.44h-1.56Zm.05,2.44h1.47V119h-1.47Z" transform="translate(-54.67 -53.67)"/><path class="cls-1" d="M519.2,112.11h1.47v1a2.16,2.16,0,0,1,1.88-1.14c1.33,0,2.12.94,2.12,2.4V119H523.2v-4.2c0-1-.46-1.5-1.24-1.5s-1.3.57-1.3,1.52V119H519.2Z" transform="translate(-54.67 -53.67)"/><path class="cls-1" d="M526.53,116.73v-4.62H528v4.2c0,1,.45,1.5,1.22,1.5s1.3-.57,1.3-1.52v-4.17H532V119h-1.48v-1a2.13,2.13,0,0,1-1.87,1.13C527.31,119.13,526.53,118.21,526.53,116.73Z" transform="translate(-54.67 -53.67)"/><path class="cls-1" d="M534,112.11h1.47v1a2.13,2.13,0,0,1,1.85-1.13,1.88,1.88,0,0,1,1.78,1.1,2.44,2.44,0,0,1,2-1.1c1.27,0,2.11.84,2.11,2.4V119h-1.47v-4.19c0-1-.42-1.51-1.17-1.51s-1.23.55-1.23,1.52V119h-1.47v-4.2c0-1-.43-1.5-1.16-1.5s-1.25.58-1.25,1.53V119H534Z" transform="translate(-54.67 -53.67)"/><path class="cls-1" d="M498.66,150.53v-.14c0-2.76,1.35-4.63,3.46-4.63s3.43,1.85,3.43,4.61v.14c0,2.76-1.35,4.63-3.46,4.63S498.66,153.3,498.66,150.53Zm5.34,0v-.1c0-2-.78-3.28-1.91-3.28s-1.9,1.22-1.9,3.25v.1c0,2,.78,3.28,1.92,3.28S504,152.54,504,150.51Z" transform="translate(-54.67 -53.67)"/><path class="cls-1" d="M507.07,153.27h1.66V155h-1.66Z" transform="translate(-54.67 -53.67)"/><path class="cls-1" d="M510.41,153.8l2.78-3c1-1.07,1.4-1.62,1.4-2.37a1.25,1.25,0,0,0-1.33-1.3c-.71,0-1.22.39-1.82,1.17l-1-.92a3.44,3.44,0,0,1,3-1.64,2.52,2.52,0,0,1,2.73,2.56v0c0,1.23-.57,2-1.9,3.3l-1.82,2h3.76V155h-5.76Z" transform="translate(-54.67 -53.67)"/><path class="cls-1" d="M519.11,147.41l-1.43.43-.25-1.3,2.11-.7h1.07V155h-1.5Z" transform="translate(-54.67 -53.67)"/><path class="cls-1" d="M522.82,148.11h1.47v1a2.13,2.13,0,0,1,1.85-1.13,1.88,1.88,0,0,1,1.78,1.1,2.44,2.44,0,0,1,2-1.1c1.27,0,2.11.84,2.11,2.4V155h-1.47v-4.19c0-1-.42-1.51-1.17-1.51s-1.23.55-1.23,1.52V155H526.7v-4.2c0-1-.43-1.5-1.16-1.5s-1.25.58-1.25,1.53V155h-1.47Z" transform="translate(-54.67 -53.67)"/><path class="cls-1" d="M534,148.11h1.47v1a2.13,2.13,0,0,1,1.85-1.13,1.88,1.88,0,0,1,1.78,1.1,2.44,2.44,0,0,1,2-1.1c1.27,0,2.11.84,2.11,2.4V155h-1.47v-4.19c0-1-.42-1.51-1.17-1.51s-1.23.55-1.23,1.52V155h-1.47v-4.2c0-1-.43-1.5-1.16-1.5s-1.25.58-1.25,1.53V155H534Z" transform="translate(-54.67 -53.67)"/><path class="cls-1" d="M262.35,181.9h2.91c2,0,3.28,1.14,3.28,3v0c0,2-1.48,3.07-3.37,3.09h-1.31v3h-1.51Zm2.82,4.78A1.65,1.65,0,0,0,267,185h0a1.6,1.6,0,0,0-1.83-1.69h-1.31v3.41Z" transform="translate(-54.67 -53.67)"/><path class="cls-1" d="M270.08,184.11h1.47v1.35a2,2,0,0,1,2.07-1.46v1.6h-.06c-1.2,0-2,.78-2,2.35v3h-1.47Z" transform="translate(-54.67 -53.67)"/><path class="cls-1" d="M274.55,187.63v-.12a3.19,3.19,0,1,1,6.34,0v.12a3.19,3.19,0,1,1-6.34,0Zm4.88,0v-.08c0-1.29-.71-2.25-1.72-2.25s-1.69.95-1.69,2.24v.08c0,1.29.71,2.26,1.72,2.26S279.43,188.89,279.43,187.61Z" transform="translate(-54.67 -53.67)"/><path class="cls-1" d="M282.29,187.65v-.17c0-2.33,1.29-3.5,2.68-3.5a2.38,2.38,0,0,1,2,1.17v-3.54h1.47V191H287V189.9a2.33,2.33,0,0,1-2,1.24C283.59,191.13,282.29,190,282.29,187.65Zm4.72,0v-.13c0-1.35-.75-2.21-1.64-2.21s-1.6.83-1.6,2.22v.1c0,1.38.72,2.22,1.6,2.22S287,189,287,187.62Z" transform="translate(-54.67 -53.67)"/><path class="cls-1" d="M290.38,188.73v-4.61h1.47v4.2c0,1,.45,1.5,1.22,1.5s1.3-.57,1.3-1.52v-4.17h1.48V191h-1.48v-1a2.13,2.13,0,0,1-1.87,1.13C291.15,191.13,290.38,190.21,290.38,188.73Z" transform="translate(-54.67 -53.67)"/><path class="cls-1" d="M297.52,187.65v-.13a3.25,3.25,0,0,1,3.15-3.54,2.91,2.91,0,0,1,2.21.94l-.82,1.08a1.85,1.85,0,0,0-1.39-.69c-1,0-1.66.92-1.66,2.22v.06c0,1.34.7,2.24,1.7,2.24a1.92,1.92,0,0,0,1.4-.7l.79,1a2.88,2.88,0,0,1-2.29,1A3.19,3.19,0,0,1,297.52,187.65Z" transform="translate(-54.67 -53.67)"/><path class="cls-1" d="M304.67,189.34v-4h-.75v-1.26h.75v-1.86h1.47v1.86h1.55v1.26h-1.55V189a.66.66,0,0,0,.74.75,1.67,1.67,0,0,0,.79-.2v1.21a2.49,2.49,0,0,1-1.22.3A1.57,1.57,0,0,1,304.67,189.34Z" transform="translate(-54.67 -53.67)"/><path class="cls-1" d="M312.53,189.8l.91-1.13a3.53,3.53,0,0,0,2.39,1.08c.87,0,1.43-.48,1.43-1.16h0c0-.57-.3-.95-1.74-1.48-1.73-.65-2.63-1.29-2.63-2.74v0a2.62,2.62,0,0,1,2.89-2.55,4.23,4.23,0,0,1,2.86,1.07l-.86,1.16a3.31,3.31,0,0,0-2-.86c-.82,0-1.33.46-1.33,1.05h0c0,.64.34,1,1.88,1.57s2.47,1.35,2.47,2.68v0a2.67,2.67,0,0,1-3,2.63A4.75,4.75,0,0,1,312.53,189.8Z" transform="translate(-54.67 -53.67)"/><path class="cls-1" d="M320.51,181.67h1.56v1.44h-1.56Zm.05,2.44H322V191h-1.47Z" transform="translate(-54.67 -53.67)"/><path class="cls-1" d="M323.81,187.65v-.17c0-2.33,1.29-3.5,2.68-3.5a2.38,2.38,0,0,1,2,1.17v-3.54H330V191H328.5V189.9a2.33,2.33,0,0,1-2,1.24C325.11,191.13,323.81,190,323.81,187.65Zm4.72,0v-.13c0-1.35-.75-2.21-1.64-2.21s-1.6.83-1.6,2.22v.1c0,1.38.71,2.22,1.6,2.22S328.53,189,328.53,187.62Z" transform="translate(-54.67 -53.67)"/><path class="cls-1" d="M331.65,187.63v-.1c0-2.07,1.25-3.55,2.94-3.55,1.87,0,2.86,1.56,2.86,3.63,0,.09,0,.3,0,.51h-4.32a1.77,1.77,0,0,0,1.74,1.78,2.19,2.19,0,0,0,1.59-.73l.77.91a3.2,3.2,0,0,1-5.56-2.44Zm4.37-.53c-.08-1.09-.57-1.88-1.43-1.88s-1.38.71-1.48,1.88Z" transform="translate(-54.67 -53.67)"/><path class="cls-1" d="M343,180.74h1.27l-5,11.8H338Z" transform="translate(-54.67 -53.67)"/><path class="cls-1" d="M349.22,181.9h1.51V191h-1.51Z" transform="translate(-54.67 -53.67)"/><path class="cls-1" d="M352.94,184.11h1.47v1A2.16,2.16,0,0,1,356.3,184c1.33,0,2.12.94,2.12,2.41V191h-1.47v-4.2c0-1-.46-1.5-1.24-1.5s-1.3.57-1.3,1.52V191h-1.47Z" transform="translate(-54.67 -53.67)"/><path class="cls-1" d="M359.77,190.17l.69-1.05a3.14,3.14,0,0,0,1.9.81c.61,0,1-.33,1-.75h0c0-.49-.53-.72-1.35-1.07-1-.44-1.88-.91-1.88-2v0a2.06,2.06,0,0,1,2.27-2,3.94,3.94,0,0,1,2.24.74l-.62,1.08a3.07,3.07,0,0,0-1.64-.61c-.55,0-.87.3-.87.68v0c0,.46.55.69,1.35,1.05,1.07.48,1.87,1,1.87,2.05h0a2.1,2.1,0,0,1-2.35,2.09A4.07,4.07,0,0,1,359.77,190.17Z" transform="translate(-54.67 -53.67)"/><path class="cls-1" d="M366.33,181.67h1.56v1.44h-1.56Zm.05,2.44h1.47V191h-1.47Z" transform="translate(-54.67 -53.67)"/><path class="cls-1" d="M369.63,187.65v-.17c0-2.33,1.29-3.5,2.68-3.5a2.37,2.37,0,0,1,2,1.17v-3.54h1.47V191h-1.47V189.9a2.33,2.33,0,0,1-2,1.24C370.93,191.13,369.63,190,369.63,187.65Zm4.72,0v-.13c0-1.35-.75-2.21-1.64-2.21s-1.6.83-1.6,2.22v.1c0,1.38.71,2.22,1.6,2.22S374.35,189,374.35,187.62Z" transform="translate(-54.67 -53.67)"/><path class="cls-1" d="M377.47,187.63v-.1c0-2.07,1.25-3.55,2.94-3.55,1.87,0,2.86,1.56,2.86,3.63,0,.09,0,.3,0,.51h-4.32a1.77,1.77,0,0,0,1.74,1.78,2.19,2.19,0,0,0,1.59-.73l.77.91a3.2,3.2,0,0,1-5.56-2.44Zm4.37-.53c-.08-1.09-.57-1.88-1.43-1.88s-1.38.71-1.48,1.88Z" transform="translate(-54.67 -53.67)"/><path class="cls-1" d="M388.43,186.29H392v1.46h-3.61Z" transform="translate(-54.67 -53.67)"/><path class="cls-1" d="M401.34,189h-4l-.21-1.09,4.33-6.08h1.34v5.92h1.13V189h-1.13v2h-1.43Zm0-1.26v-3.65l-2.57,3.65Z" transform="translate(-54.67 -53.67)"/><path class="cls-1" d="M405.41,186.29H409v1.46h-3.61Z" transform="translate(-54.67 -53.67)"/><path class="cls-1" d="M411.7,190.32c-.65-.66-1.05-1.62-1.05-3.52v-.09c0-3.07,1.27-5,3.52-5a3.59,3.59,0,0,1,2.33.83l-.74,1.2a2.54,2.54,0,0,0-1.62-.65c-1.31,0-1.91,1.35-2,2.89a2.48,2.48,0,0,1,1.91-.83,2.65,2.65,0,0,1,2.77,2.83v0a3,3,0,0,1-3,3.09A2.89,2.89,0,0,1,411.7,190.32Zm3.67-2.2v0a1.57,1.57,0,1,0-3.15,0v0a1.56,1.56,0,0,0,1.6,1.69A1.54,1.54,0,0,0,415.37,188.13Z" transform="translate(-54.67 -53.67)"/><path class="cls-1" d="M426,192.34l.48-1.16a4,4,0,0,0,2.07.58,1.64,1.64,0,0,0,1.87-1.82v-.66a2.44,2.44,0,0,1-2.08,1.21c-1.38,0-2.63-1.11-2.63-3.22v-.05c0-2.13,1.26-3.24,2.63-3.24a2.45,2.45,0,0,1,2.07,1.16v-1h1.47v5.77a3.1,3.1,0,0,1-.78,2.29,3.35,3.35,0,0,1-2.48.82A5.41,5.41,0,0,1,426,192.34Zm4.43-5.08v0a1.77,1.77,0,0,0-1.65-2c-.9,0-1.59.74-1.59,2h0c0,1.22.7,2,1.59,2A1.78,1.78,0,0,0,430.43,187.26Z" transform="translate(-54.67 -53.67)"/><path class="cls-1" d="M433.87,184.11h1.47v1.35A2,2,0,0,1,437.4,184v1.6h-.07c-1.2,0-2,.78-2,2.35v3h-1.47Z" transform="translate(-54.67 -53.67)"/><path class="cls-1" d="M438.21,189V189c0-1.48,1-2.21,2.44-2.21a4.71,4.71,0,0,1,1.59.27v-.29a1.3,1.3,0,0,0-1.48-1.4,3.92,3.92,0,0,0-1.66.42l-.42-1.17A4.91,4.91,0,0,1,441,184a2.43,2.43,0,0,1,2.72,2.69V191h-1.44v-.84a2.19,2.19,0,0,1-1.91,1A2,2,0,0,1,438.21,189Zm4-.34V188a3.31,3.31,0,0,0-1.27-.25c-.84,0-1.34.43-1.34,1.16v0a1.05,1.05,0,0,0,1.12,1.09A1.38,1.38,0,0,0,442.25,188.69Z" transform="translate(-54.67 -53.67)"/><path class="cls-1" d="M445.58,184.11H447v1a2.13,2.13,0,0,1,1.85-1.13,1.88,1.88,0,0,1,1.78,1.11,2.44,2.44,0,0,1,2-1.11c1.27,0,2.11.85,2.11,2.41V191h-1.47v-4.19c0-1-.42-1.51-1.17-1.51s-1.24.55-1.24,1.52V191h-1.47v-4.2c0-1-.43-1.5-1.16-1.5s-1.25.58-1.25,1.53V191h-1.47Z" transform="translate(-54.67 -53.67)"/><path class="cls-1" d="M456.17,190.17l.69-1.05a3.14,3.14,0,0,0,1.9.81c.61,0,1-.33,1-.75h0c0-.49-.53-.72-1.35-1.07-1-.44-1.88-.91-1.88-2v0a2.06,2.06,0,0,1,2.27-2,3.94,3.94,0,0,1,2.24.74l-.62,1.08a3.07,3.07,0,0,0-1.64-.61c-.55,0-.87.3-.87.68v0c0,.46.55.69,1.35,1.05,1.07.48,1.87,1,1.87,2.05h0a2.1,2.1,0,0,1-2.35,2.09A4.07,4.07,0,0,1,456.17,190.17Z" transform="translate(-54.67 -53.67)"/><path class="cls-1" d="M466.55,181.9h5.71v1.39h-4.2v2.56h3.72v1.38h-3.72V191h-1.51Z" transform="translate(-54.67 -53.67)"/><path class="cls-1" d="M473.41,187.63v-.12a3.19,3.19,0,1,1,6.34,0v.12a3.19,3.19,0,1,1-6.34,0Zm4.88,0v-.08c0-1.29-.71-2.25-1.72-2.25s-1.69.95-1.69,2.24v.08c0,1.29.71,2.26,1.72,2.26S478.29,188.89,478.29,187.61Z" transform="translate(-54.67 -53.67)"/><path class="cls-1" d="M481.12,187.63v-.12a3.19,3.19,0,1,1,6.34,0v.12a3.19,3.19,0,1,1-6.34,0Zm4.88,0v-.08c0-1.29-.71-2.25-1.72-2.25s-1.69.95-1.69,2.24v.08c0,1.29.71,2.26,1.72,2.26S486,188.89,486,187.61Z" transform="translate(-54.67 -53.67)"/><path class="cls-1" d="M488.86,187.65v-.17c0-2.33,1.29-3.5,2.68-3.5a2.38,2.38,0,0,1,2,1.17v-3.54H495V191h-1.47V189.9a2.33,2.33,0,0,1-2,1.24C490.16,191.13,488.86,190,488.86,187.65Zm4.72,0v-.13c0-1.35-.75-2.21-1.64-2.21s-1.6.83-1.6,2.22v.1c0,1.38.71,2.22,1.6,2.22S493.57,189,493.57,187.62Z" transform="translate(-54.67 -53.67)"/><path class="cls-1" d="M500.76,181.61h1.47V191h-1.47Z" transform="translate(-54.67 -53.67)"/><path class="cls-1" d="M503.91,189V189c0-1.48,1-2.21,2.44-2.21a4.71,4.71,0,0,1,1.59.27v-.29a1.3,1.3,0,0,0-1.48-1.4,3.92,3.92,0,0,0-1.66.42l-.42-1.17a4.91,4.91,0,0,1,2.28-.55,2.43,2.43,0,0,1,2.72,2.69V191h-1.44v-.84a2.19,2.19,0,0,1-1.91,1A2,2,0,0,1,503.91,189Zm4-.34V188a3.31,3.31,0,0,0-1.27-.25c-.84,0-1.34.43-1.34,1.16v0a1.05,1.05,0,0,0,1.12,1.09A1.38,1.38,0,0,0,508,188.69Z" transform="translate(-54.67 -53.67)"/><path class="cls-1" d="M511,187.65v-.13a3.25,3.25,0,0,1,3.15-3.54,2.91,2.91,0,0,1,2.21.94L515.5,186a1.85,1.85,0,0,0-1.39-.69c-1,0-1.66.92-1.66,2.22v.06c0,1.34.7,2.24,1.7,2.24a1.92,1.92,0,0,0,1.4-.7l.79,1a2.88,2.88,0,0,1-2.29,1A3.19,3.19,0,0,1,511,187.65Z" transform="translate(-54.67 -53.67)"/><path class="cls-1" d="M522.16,189.9a2.33,2.33,0,0,1-2,1.24c-1.38,0-2.68-1.16-2.68-3.48v-.17c0-2.33,1.29-3.5,2.68-3.5a2.37,2.37,0,0,1,2,1.17v-1h1.47V193h-1.47Zm0-2.27v-.13c0-1.35-.75-2.21-1.64-2.21s-1.6.83-1.6,2.22v.1c0,1.38.71,2.22,1.6,2.22S522.19,189,522.19,187.62Z" transform="translate(-54.67 -53.67)"/><path class="cls-1" d="M525.55,188.73v-4.61H527v4.2c0,1,.45,1.5,1.22,1.5s1.3-.57,1.3-1.52v-4.17H531V191h-1.48v-1a2.12,2.12,0,0,1-1.87,1.13C526.33,191.13,525.55,190.21,525.55,188.73Z" transform="translate(-54.67 -53.67)"/><path class="cls-1" d="M532.7,187.63v-.1c0-2.07,1.25-3.55,2.94-3.55,1.87,0,2.86,1.56,2.86,3.63,0,.09,0,.3,0,.51h-4.32a1.77,1.77,0,0,0,1.74,1.78,2.19,2.19,0,0,0,1.59-.73l.77.91a3.2,3.2,0,0,1-5.56-2.44Zm4.37-.53c-.08-1.09-.57-1.88-1.43-1.88s-1.38.71-1.48,1.88Z" transform="translate(-54.67 -53.67)"/><path class="cls-1" d="M540.15,184.11h1.47v1.35a2,2,0,0,1,2.07-1.46v1.6h-.06c-1.2,0-2,.78-2,2.35v3h-1.47Z" transform="translate(-54.67 -53.67)"/><path class="cls-1" d="M250.19,202.1V202c0-2.76,1.72-4.64,4.07-4.64a4,4,0,0,1,2.86,1.13l-.91,1.16a2.8,2.8,0,0,0-2-.88c-1.43,0-2.51,1.3-2.51,3.24v.05c0,2,1.08,3.26,2.51,3.26a2.78,2.78,0,0,0,2-.95l.88,1.07a3.91,3.91,0,0,1-3,1.29C251.86,206.73,250.19,204.88,250.19,202.1Z" transform="translate(-54.67 -53.67)"/><path class="cls-1" d="M258.63,204.32v-4.62h1.47v4.2c0,1,.46,1.5,1.22,1.5s1.3-.57,1.3-1.52v-4.17h1.48v6.89h-1.48v-1a2.13,2.13,0,0,1-1.87,1.13C259.41,206.73,258.63,205.81,258.63,204.32Z" transform="translate(-54.67 -53.67)"/><path class="cls-1" d="M265.52,205.77l.69-1.05a3.14,3.14,0,0,0,1.9.81c.61,0,1-.33,1-.75h0c0-.49-.53-.72-1.35-1.07-1-.44-1.88-.91-1.88-2v0a2.06,2.06,0,0,1,2.27-2,3.93,3.93,0,0,1,2.24.74l-.62,1.08a3.07,3.07,0,0,0-1.64-.61c-.55,0-.87.3-.87.68v0c0,.46.55.69,1.35,1.05,1.07.48,1.87,1,1.87,2.05h0a2.1,2.1,0,0,1-2.35,2.09A4.07,4.07,0,0,1,265.52,205.77Z" transform="translate(-54.67 -53.67)"/><path class="cls-1" d="M272.24,204.94v-4h-.75v-1.26h.75v-1.86h1.47v1.86h1.55V201h-1.55v3.67a.66.66,0,0,0,.74.75,1.67,1.67,0,0,0,.79-.2v1.21a2.49,2.49,0,0,1-1.22.3A1.57,1.57,0,0,1,272.24,204.94Z" transform="translate(-54.67 -53.67)"/><path class="cls-1" d="M276.43,203.23v-.12a3.19,3.19,0,1,1,6.34,0v.12a3.19,3.19,0,1,1-6.34,0Zm4.88,0v-.08c0-1.29-.71-2.25-1.72-2.25s-1.69.95-1.69,2.24v.08c0,1.29.71,2.26,1.72,2.26S281.3,204.49,281.3,203.21Z" transform="translate(-54.67 -53.67)"/><path class="cls-1" d="M284.45,199.71h1.47v1a2.13,2.13,0,0,1,1.85-1.13,1.88,1.88,0,0,1,1.78,1.11,2.44,2.44,0,0,1,2-1.11c1.27,0,2.11.85,2.11,2.41v4.62H292.2v-4.19c0-1-.42-1.51-1.17-1.51s-1.23.55-1.23,1.52v4.17h-1.47v-4.2c0-1-.43-1.5-1.16-1.5s-1.25.58-1.25,1.53v4.16h-1.47Z" transform="translate(-54.67 -53.67)"/><path class="cls-1" d="M295.3,203.23v-.1c0-2.07,1.25-3.55,2.94-3.55,1.87,0,2.86,1.56,2.86,3.63,0,.09,0,.3,0,.51h-4.32a1.77,1.77,0,0,0,1.74,1.78,2.19,2.19,0,0,0,1.59-.73l.77.91a3.2,3.2,0,0,1-5.56-2.44Zm4.37-.53c-.08-1.09-.57-1.88-1.43-1.88s-1.38.71-1.48,1.88Z" transform="translate(-54.67 -53.67)"/><path class="cls-1" d="M302.75,199.71h1.47v1.35a2,2,0,0,1,2.07-1.46v1.6h-.06c-1.2,0-2,.78-2,2.35v3h-1.47Z" transform="translate(-54.67 -53.67)"/><path class="cls-1" d="M310.94,205.4l.91-1.13a3.53,3.53,0,0,0,2.39,1.08c.87,0,1.43-.48,1.43-1.16h0c0-.57-.3-.95-1.74-1.48-1.73-.65-2.63-1.29-2.63-2.74v0a2.62,2.62,0,0,1,2.89-2.55,4.23,4.23,0,0,1,2.86,1.07l-.86,1.16a3.31,3.31,0,0,0-2-.86c-.82,0-1.33.46-1.33,1.05h0c0,.64.34,1,1.88,1.57s2.47,1.35,2.47,2.68v0a2.67,2.67,0,0,1-3,2.63A4.75,4.75,0,0,1,310.94,205.4Z" transform="translate(-54.67 -53.67)"/><path class="cls-1" d="M318.92,197.27h1.56v1.44h-1.56Zm.05,2.44h1.47v6.89H319Z" transform="translate(-54.67 -53.67)"/><path class="cls-1" d="M322.22,203.25v-.17c0-2.33,1.29-3.5,2.68-3.5a2.38,2.38,0,0,1,2,1.17v-3.54h1.47v9.39h-1.47v-1.11a2.33,2.33,0,0,1-2,1.24C323.53,206.73,322.22,205.57,322.22,203.25Zm4.72,0v-.13c0-1.35-.75-2.21-1.64-2.21s-1.6.83-1.6,2.22v.1c0,1.38.71,2.22,1.6,2.22S326.94,204.57,326.94,203.22Z" transform="translate(-54.67 -53.67)"/><path class="cls-1" d="M330.06,203.23v-.1c0-2.07,1.25-3.55,2.94-3.55,1.87,0,2.86,1.56,2.86,3.63,0,.09,0,.3,0,.51h-4.32a1.77,1.77,0,0,0,1.74,1.78,2.19,2.19,0,0,0,1.59-.73l.77.91a3.2,3.2,0,0,1-5.56-2.44Zm4.37-.53c-.08-1.09-.57-1.88-1.43-1.88s-1.38.71-1.48,1.88Z" transform="translate(-54.67 -53.67)"/><path class="cls-1" d="M341.39,196.34h1.27l-5,11.8h-1.27Z" transform="translate(-54.67 -53.67)"/><path class="cls-1" d="M343.1,202.13V202c0-2.7,1.66-4.64,4-4.64s4,1.92,4,4.62v.13c0,2.7-1.66,4.64-4,4.64S343.1,204.82,343.1,202.13Zm6.5,0V202c0-2-1-3.26-2.48-3.26s-2.46,1.29-2.46,3.25v.09c0,1.95,1.05,3.26,2.48,3.26S349.6,204.06,349.6,202.1Z" transform="translate(-54.67 -53.67)"/><path class="cls-1" d="M352.9,204.32v-4.62h1.47v4.2c0,1,.46,1.5,1.22,1.5s1.3-.57,1.3-1.52v-4.17h1.48v6.89H356.9v-1a2.13,2.13,0,0,1-1.87,1.13C353.68,206.73,352.9,205.81,352.9,204.32Z" transform="translate(-54.67 -53.67)"/><path class="cls-1" d="M360.65,204.94v-4h-.75v-1.26h.75v-1.86h1.47v1.86h1.55V201h-1.55v3.67a.66.66,0,0,0,.74.75,1.67,1.67,0,0,0,.79-.2v1.21a2.49,2.49,0,0,1-1.22.3A1.57,1.57,0,0,1,360.65,204.94Z" transform="translate(-54.67 -53.67)"/><path class="cls-1" d="M364.75,205.77l.69-1.05a3.14,3.14,0,0,0,1.9.81c.61,0,1-.33,1-.75h0c0-.49-.53-.72-1.35-1.07-1-.44-1.88-.91-1.88-2v0a2.06,2.06,0,0,1,2.27-2,3.93,3.93,0,0,1,2.24.74l-.62,1.08a3.07,3.07,0,0,0-1.64-.61c-.55,0-.87.3-.87.68v0c0,.46.55.69,1.35,1.05,1.07.48,1.87,1,1.87,2.05h0a2.1,2.1,0,0,1-2.35,2.09A4.07,4.07,0,0,1,364.75,205.77Z" transform="translate(-54.67 -53.67)"/><path class="cls-1" d="M371.31,197.27h1.56v1.44h-1.56Zm.05,2.44h1.47v6.89h-1.47Z" transform="translate(-54.67 -53.67)"/><path class="cls-1" d="M374.61,203.25v-.17c0-2.33,1.29-3.5,2.68-3.5a2.38,2.38,0,0,1,2,1.17v-3.54h1.47v9.39h-1.47v-1.11a2.33,2.33,0,0,1-2,1.24C375.91,206.73,374.61,205.57,374.61,203.25Zm4.72,0v-.13c0-1.35-.75-2.21-1.64-2.21s-1.6.83-1.6,2.22v.1c0,1.38.71,2.22,1.6,2.22S379.33,204.57,379.33,203.22Z" transform="translate(-54.67 -53.67)"/><path class="cls-1" d="M382.45,203.23v-.1c0-2.07,1.25-3.55,2.94-3.55,1.87,0,2.86,1.56,2.86,3.63,0,.09,0,.3,0,.51h-4.32a1.77,1.77,0,0,0,1.74,1.78,2.19,2.19,0,0,0,1.59-.73l.77.91a3.2,3.2,0,0,1-5.56-2.44Zm4.37-.53c-.08-1.09-.57-1.88-1.43-1.88s-1.38.71-1.48,1.88Z" transform="translate(-54.67 -53.67)"/><path class="cls-1" d="M393.41,201.89H397v1.46h-3.61Z" transform="translate(-54.67 -53.67)"/><path class="cls-1" d="M406.32,204.62h-4l-.21-1.09,4.33-6.08h1.34v5.92h1.13v1.26h-1.13v2h-1.43Zm0-1.26v-3.65l-2.57,3.65Z" transform="translate(-54.67 -53.67)"/><path class="cls-1" d="M410.39,201.89H414v1.46h-3.61Z" transform="translate(-54.67 -53.67)"/><path class="cls-1" d="M416.68,205.92c-.65-.66-1.05-1.62-1.05-3.52v-.09c0-3.07,1.27-5,3.52-5a3.59,3.59,0,0,1,2.33.83l-.74,1.2a2.53,2.53,0,0,0-1.62-.65c-1.31,0-1.91,1.35-2,2.89a2.48,2.48,0,0,1,1.91-.83,2.65,2.65,0,0,1,2.77,2.83v0a3,3,0,0,1-3,3.09A2.89,2.89,0,0,1,416.68,205.92Zm3.67-2.2v0a1.57,1.57,0,1,0-3.15,0v0a1.56,1.56,0,0,0,1.6,1.69A1.54,1.54,0,0,0,420.35,203.73Z" transform="translate(-54.67 -53.67)"/><path class="cls-1" d="M427.3,207.94l.48-1.16a4,4,0,0,0,2.07.58,1.64,1.64,0,0,0,1.87-1.82v-.66a2.44,2.44,0,0,1-2.08,1.21c-1.38,0-2.63-1.11-2.63-3.22v-.05c0-2.13,1.26-3.24,2.63-3.24a2.45,2.45,0,0,1,2.07,1.16v-1h1.47v5.77a3.1,3.1,0,0,1-.78,2.29,3.35,3.35,0,0,1-2.48.82A5.41,5.41,0,0,1,427.3,207.94Zm4.43-5.08v0a1.77,1.77,0,0,0-1.65-2c-.9,0-1.59.74-1.59,2h0c0,1.22.7,2,1.59,2A1.78,1.78,0,0,0,431.73,202.86Z" transform="translate(-54.67 -53.67)"/><path class="cls-1" d="M435.17,199.71h1.47v1.35a2,2,0,0,1,2.07-1.46v1.6h-.06c-1.2,0-2,.78-2,2.35v3h-1.47Z" transform="translate(-54.67 -53.67)"/><path class="cls-1" d="M439.51,204.62v-.06c0-1.48,1-2.21,2.44-2.21a4.7,4.7,0,0,1,1.59.27v-.29a1.3,1.3,0,0,0-1.48-1.4,3.92,3.92,0,0,0-1.66.42l-.42-1.17a4.89,4.89,0,0,1,2.27-.55,2.43,2.43,0,0,1,2.72,2.69v4.28h-1.44v-.84a2.19,2.19,0,0,1-1.91,1A2,2,0,0,1,439.51,204.62Zm4-.34v-.69a3.31,3.31,0,0,0-1.27-.25c-.84,0-1.34.43-1.34,1.16v0a1.05,1.05,0,0,0,1.12,1.09A1.38,1.38,0,0,0,443.55,204.29Z" transform="translate(-54.67 -53.67)"/><path class="cls-1" d="M446.88,199.71h1.47v1a2.13,2.13,0,0,1,1.85-1.13,1.88,1.88,0,0,1,1.78,1.11,2.44,2.44,0,0,1,2-1.11c1.27,0,2.11.85,2.11,2.41v4.62h-1.47v-4.19c0-1-.42-1.51-1.17-1.51s-1.23.55-1.23,1.52v4.17h-1.47v-4.2c0-1-.43-1.5-1.16-1.5s-1.25.58-1.25,1.53v4.16h-1.47Z" transform="translate(-54.67 -53.67)"/><path class="cls-1" d="M457.47,205.77l.69-1.05a3.14,3.14,0,0,0,1.9.81c.61,0,1-.33,1-.75h0c0-.49-.53-.72-1.35-1.07-1-.44-1.88-.91-1.88-2v0a2.06,2.06,0,0,1,2.28-2,3.93,3.93,0,0,1,2.24.74l-.62,1.08a3.07,3.07,0,0,0-1.64-.61c-.55,0-.87.3-.87.68v0c0,.46.55.69,1.35,1.05,1.07.48,1.87,1,1.87,2.05h0a2.1,2.1,0,0,1-2.35,2.09A4.06,4.06,0,0,1,457.47,205.77Z" transform="translate(-54.67 -53.67)"/><path class="cls-1" d="M467.38,203.25v-.13a3.25,3.25,0,0,1,3.15-3.54,2.91,2.91,0,0,1,2.21.94l-.82,1.08a1.85,1.85,0,0,0-1.39-.69c-1,0-1.66.92-1.66,2.22v.06c0,1.34.7,2.24,1.7,2.24a1.92,1.92,0,0,0,1.4-.7l.79,1a2.88,2.88,0,0,1-2.29,1A3.19,3.19,0,0,1,467.38,203.25Z" transform="translate(-54.67 -53.67)"/><path class="cls-1" d="M474.35,197.21h1.47v9.39h-1.47Z" transform="translate(-54.67 -53.67)"/><path class="cls-1" d="M477.57,203.23v-.1c0-2.07,1.25-3.55,2.94-3.55,1.87,0,2.86,1.56,2.86,3.63,0,.09,0,.3,0,.51H479a1.77,1.77,0,0,0,1.74,1.78,2.19,2.19,0,0,0,1.59-.73l.77.91a3.2,3.2,0,0,1-5.56-2.44Zm4.37-.53c-.08-1.09-.57-1.88-1.43-1.88s-1.38.71-1.48,1.88Z" transform="translate(-54.67 -53.67)"/><path class="cls-1" d="M484.63,204.62v-.06c0-1.48,1-2.21,2.44-2.21a4.71,4.71,0,0,1,1.59.27v-.29a1.3,1.3,0,0,0-1.48-1.4,3.92,3.92,0,0,0-1.66.42l-.42-1.17a4.9,4.9,0,0,1,2.28-.55,2.43,2.43,0,0,1,2.72,2.69v4.28h-1.44v-.84a2.19,2.19,0,0,1-1.91,1A2,2,0,0,1,484.63,204.62Zm4-.34v-.69a3.31,3.31,0,0,0-1.27-.25c-.84,0-1.34.43-1.34,1.16v0a1.05,1.05,0,0,0,1.12,1.09A1.38,1.38,0,0,0,488.67,204.29Z" transform="translate(-54.67 -53.67)"/><path class="cls-1" d="M492,199.71h1.47v1.35a2,2,0,0,1,2.07-1.46v1.6h-.07c-1.2,0-2,.78-2,2.35v3H492Z" transform="translate(-54.67 -53.67)"/><path class="cls-1" d="M500.76,197.21h1.47v9.39h-1.47Z" transform="translate(-54.67 -53.67)"/><path class="cls-1" d="M503.91,204.62v-.06c0-1.48,1-2.21,2.44-2.21a4.71,4.71,0,0,1,1.59.27v-.29a1.3,1.3,0,0,0-1.48-1.4,3.92,3.92,0,0,0-1.66.42l-.42-1.17a4.9,4.9,0,0,1,2.28-.55,2.43,2.43,0,0,1,2.72,2.69v4.28h-1.44v-.84a2.19,2.19,0,0,1-1.91,1A2,2,0,0,1,503.91,204.62Zm4-.34v-.69a3.31,3.31,0,0,0-1.27-.25c-.84,0-1.34.43-1.34,1.16v0a1.05,1.05,0,0,0,1.12,1.09A1.38,1.38,0,0,0,508,204.29Z" transform="translate(-54.67 -53.67)"/><path class="cls-1" d="M511,203.25v-.13a3.25,3.25,0,0,1,3.15-3.54,2.91,2.91,0,0,1,2.21.94l-.82,1.08a1.85,1.85,0,0,0-1.39-.69c-1,0-1.66.92-1.66,2.22v.06c0,1.34.7,2.24,1.7,2.24a1.92,1.92,0,0,0,1.4-.7l.79,1a2.88,2.88,0,0,1-2.29,1A3.19,3.19,0,0,1,511,203.25Z" transform="translate(-54.67 -53.67)"/><path class="cls-1" d="M522.16,205.49a2.33,2.33,0,0,1-2,1.24c-1.38,0-2.68-1.16-2.68-3.48v-.17c0-2.33,1.29-3.5,2.68-3.5a2.38,2.38,0,0,1,2,1.17v-1h1.47v8.85h-1.47Zm0-2.27v-.13c0-1.35-.75-2.21-1.64-2.21s-1.6.83-1.6,2.22v.1c0,1.38.71,2.22,1.6,2.22S522.19,204.57,522.19,203.22Z" transform="translate(-54.67 -53.67)"/><path class="cls-1" d="M525.55,204.32v-4.62H527v4.2c0,1,.45,1.5,1.22,1.5s1.3-.57,1.3-1.52v-4.17H531v6.89h-1.48v-1a2.12,2.12,0,0,1-1.87,1.13C526.33,206.73,525.55,205.81,525.55,204.32Z" transform="translate(-54.67 -53.67)"/><path class="cls-1" d="M532.7,203.23v-.1c0-2.07,1.25-3.55,2.94-3.55,1.87,0,2.86,1.56,2.86,3.63,0,.09,0,.3,0,.51h-4.32a1.77,1.77,0,0,0,1.74,1.78,2.19,2.19,0,0,0,1.59-.73l.77.91a3.2,3.2,0,0,1-5.56-2.44Zm4.37-.53c-.08-1.09-.57-1.88-1.43-1.88s-1.38.71-1.48,1.88Z" transform="translate(-54.67 -53.67)"/><path class="cls-1" d="M540.15,199.71h1.47v1.35a2,2,0,0,1,2.07-1.46v1.6h-.06c-1.2,0-2,.78-2,2.35v3h-1.47Z" transform="translate(-54.67 -53.67)"/><path class="cls-1" d="M320.91,237.5h1.6l1.78,6.6,1.86-6.63h1.3l1.86,6.63,1.78-6.6h1.56L330,246.65h-1.37l-1.86-6.42-1.86,6.42h-1.37Z" transform="translate(-54.67 -53.67)"/><path class="cls-1" d="M333.1,244.62v-.06c0-1.48,1-2.21,2.44-2.21a4.7,4.7,0,0,1,1.59.27v-.29a1.3,1.3,0,0,0-1.48-1.4,3.92,3.92,0,0,0-1.66.42l-.42-1.17a4.89,4.89,0,0,1,2.27-.55,2.43,2.43,0,0,1,2.72,2.69v4.28h-1.44v-.84a2.19,2.19,0,0,1-1.91,1A2,2,0,0,1,333.1,244.62Zm4-.34v-.69a3.31,3.31,0,0,0-1.27-.25c-.84,0-1.34.43-1.34,1.16v0a1.05,1.05,0,0,0,1.12,1.09A1.38,1.38,0,0,0,337.15,244.29Z" transform="translate(-54.67 -53.67)"/><path class="cls-1" d="M340.7,244.94v-4h-.75v-1.26h.75v-1.86h1.47v1.86h1.55V241h-1.55v3.67a.66.66,0,0,0,.74.75,1.67,1.67,0,0,0,.79-.2v1.21a2.49,2.49,0,0,1-1.22.3A1.57,1.57,0,0,1,340.7,244.94Z" transform="translate(-54.67 -53.67)"/><path class="cls-1" d="M344.88,243.23v-.1c0-2.07,1.25-3.55,2.94-3.55,1.87,0,2.86,1.56,2.86,3.63,0,.09,0,.3,0,.51h-4.32a1.77,1.77,0,0,0,1.74,1.78,2.19,2.19,0,0,0,1.59-.73l.77.91a3.2,3.2,0,0,1-5.56-2.44Zm4.37-.53c-.08-1.09-.57-1.88-1.43-1.88s-1.38.71-1.48,1.88Z" transform="translate(-54.67 -53.67)"/><path class="cls-1" d="M352.33,239.71h1.47v1.35a2,2,0,0,1,2.07-1.46v1.6h-.07c-1.2,0-2,.78-2,2.35v3h-1.47Z" transform="translate(-54.67 -53.67)"/><path class="cls-1" d="M362.49,245.56v1H361v-9.39h1.47v3.6a2.33,2.33,0,0,1,2-1.24c1.38,0,2.68,1.16,2.68,3.48v.18c0,2.31-1.29,3.48-2.68,3.48A2.35,2.35,0,0,1,362.49,245.56Zm3.21-2.34v-.12c0-1.38-.71-2.22-1.6-2.22s-1.64.86-1.64,2.21v.13c0,1.35.75,2.21,1.64,2.21S365.7,244.6,365.7,243.22Z" transform="translate(-54.67 -53.67)"/><path class="cls-1" d="M368.49,244.62v-.06c0-1.48,1-2.21,2.44-2.21a4.7,4.7,0,0,1,1.59.27v-.29a1.3,1.3,0,0,0-1.48-1.4,3.92,3.92,0,0,0-1.66.42l-.42-1.17a4.89,4.89,0,0,1,2.27-.55,2.43,2.43,0,0,1,2.72,2.69v4.28h-1.44v-.84a2.19,2.19,0,0,1-1.91,1A2,2,0,0,1,368.49,244.62Zm4-.34v-.69a3.31,3.31,0,0,0-1.27-.25c-.84,0-1.34.43-1.34,1.16v0a1.05,1.05,0,0,0,1.12,1.09A1.38,1.38,0,0,0,372.53,244.29Z" transform="translate(-54.67 -53.67)"/><path class="cls-1" d="M375.29,245.77l.69-1.05a3.14,3.14,0,0,0,1.9.81c.61,0,1-.33,1-.75h0c0-.49-.53-.72-1.35-1.07-1-.44-1.88-.91-1.88-2v0a2.06,2.06,0,0,1,2.28-2,3.93,3.93,0,0,1,2.24.74l-.62,1.08a3.07,3.07,0,0,0-1.64-.61c-.55,0-.87.3-.87.68v0c0,.46.55.69,1.35,1.05,1.07.48,1.87,1,1.87,2.05h0a2.1,2.1,0,0,1-2.35,2.09A4.06,4.06,0,0,1,375.29,245.77Z" transform="translate(-54.67 -53.67)"/><path class="cls-1" d="M381.52,243.23v-.1c0-2.07,1.25-3.55,2.94-3.55,1.87,0,2.86,1.56,2.86,3.63,0,.09,0,.3,0,.51H383a1.77,1.77,0,0,0,1.74,1.78,2.19,2.19,0,0,0,1.59-.73l.77.91a3.2,3.2,0,0,1-5.56-2.44Zm4.37-.53c-.08-1.09-.57-1.88-1.43-1.88s-1.38.71-1.48,1.88Z" transform="translate(-54.67 -53.67)"/><path class="cls-1" d="M388.68,243.25v-.17c0-2.33,1.29-3.5,2.68-3.5a2.38,2.38,0,0,1,2,1.17v-3.54h1.47v9.39h-1.47v-1.11a2.33,2.33,0,0,1-2,1.24C390,246.73,388.68,245.57,388.68,243.25Zm4.72,0v-.13c0-1.35-.75-2.21-1.64-2.21s-1.6.83-1.6,2.22v.1c0,1.38.71,2.22,1.6,2.22S393.4,244.57,393.4,243.22Z" transform="translate(-54.67 -53.67)"/><path class="cls-1" d="M400.51,239.71H402v1.35a2,2,0,0,1,2.07-1.46v1.6H404c-1.2,0-2,.78-2,2.35v3h-1.47Z" transform="translate(-54.67 -53.67)"/><path class="cls-1" d="M405.45,244.32v-4.62h1.47v4.2c0,1,.46,1.5,1.22,1.5s1.3-.57,1.3-1.52v-4.17h1.48v6.89h-1.48v-1a2.13,2.13,0,0,1-1.87,1.13C406.23,246.73,405.45,245.81,405.45,244.32Z" transform="translate(-54.67 -53.67)"/><path class="cls-1" d="M414.38,245.56v1h-1.47v-9.39h1.47v3.6a2.33,2.33,0,0,1,2-1.24c1.38,0,2.68,1.16,2.68,3.48v.18c0,2.31-1.29,3.48-2.68,3.48A2.35,2.35,0,0,1,414.38,245.56Zm3.21-2.34v-.12c0-1.38-.71-2.22-1.6-2.22s-1.64.86-1.64,2.21v.13c0,1.35.75,2.21,1.64,2.21S417.59,244.6,417.59,243.22Z" transform="translate(-54.67 -53.67)"/><path class="cls-1" d="M422.25,245.56v1h-1.47v-9.39h1.47v3.6a2.33,2.33,0,0,1,2-1.24c1.38,0,2.68,1.16,2.68,3.48v.18c0,2.31-1.29,3.48-2.68,3.48A2.35,2.35,0,0,1,422.25,245.56Zm3.21-2.34v-.12c0-1.38-.71-2.22-1.6-2.22s-1.64.86-1.64,2.21v.13c0,1.35.75,2.21,1.64,2.21S425.46,244.6,425.46,243.22Z" transform="translate(-54.67 -53.67)"/><path class="cls-1" d="M428.33,243.23v-.1c0-2.07,1.25-3.55,2.94-3.55,1.87,0,2.86,1.56,2.86,3.63,0,.09,0,.3,0,.51H429.8a1.77,1.77,0,0,0,1.74,1.78,2.19,2.19,0,0,0,1.59-.73l.77.91a3.2,3.2,0,0,1-5.56-2.44Zm4.37-.53c-.08-1.09-.57-1.88-1.43-1.88s-1.38.71-1.48,1.88Z" transform="translate(-54.67 -53.67)"/><path class="cls-1" d="M435.78,239.71h1.47v1.35a2,2,0,0,1,2.07-1.46v1.6h-.07c-1.2,0-2,.78-2,2.35v3h-1.47Z" transform="translate(-54.67 -53.67)"/><path class="cls-1" d="M444.54,237.21H446v9.39h-1.47Z" transform="translate(-54.67 -53.67)"/><path class="cls-1" d="M448.1,237.27h1.56v1.44H448.1Zm.05,2.44h1.47v6.89h-1.47Z" transform="translate(-54.67 -53.67)"/><path class="cls-1" d="M451.69,239.71h1.47v1a2.16,2.16,0,0,1,1.88-1.14c1.33,0,2.12.94,2.12,2.41v4.62h-1.47v-4.2c0-1-.46-1.5-1.24-1.5s-1.3.57-1.3,1.52v4.17h-1.47Z" transform="translate(-54.67 -53.67)"/><path class="cls-1" d="M459.11,237.27h1.56v1.44h-1.56Zm.05,2.44h1.47v6.89h-1.47Z" transform="translate(-54.67 -53.67)"/><path class="cls-1" d="M462.7,239.71h1.47v1a2.16,2.16,0,0,1,1.88-1.14c1.33,0,2.12.94,2.12,2.41v4.62H466.7v-4.2c0-1-.46-1.5-1.24-1.5s-1.3.57-1.3,1.52v4.17H462.7Z" transform="translate(-54.67 -53.67)"/><path class="cls-1" d="M470.1,247.94l.48-1.16a4,4,0,0,0,2.07.58,1.64,1.64,0,0,0,1.87-1.82v-.66a2.44,2.44,0,0,1-2.08,1.21c-1.38,0-2.63-1.11-2.63-3.22v-.05c0-2.13,1.26-3.24,2.63-3.24a2.45,2.45,0,0,1,2.07,1.16v-1H476v5.77a3.1,3.1,0,0,1-.78,2.29,3.35,3.35,0,0,1-2.48.82A5.41,5.41,0,0,1,470.1,247.94Zm4.43-5.08v0a1.77,1.77,0,0,0-1.65-2c-.9,0-1.59.74-1.59,2h0c0,1.22.7,2,1.59,2A1.78,1.78,0,0,0,474.53,242.86Z" transform="translate(-54.67 -53.67)"/><path class="cls-1" d="M481.33,243.25v-.13a3.25,3.25,0,0,1,3.15-3.54,2.91,2.91,0,0,1,2.21.94l-.82,1.08a1.86,1.86,0,0,0-1.39-.69c-1,0-1.66.92-1.66,2.22v.06c0,1.34.7,2.24,1.7,2.24a1.92,1.92,0,0,0,1.4-.7l.79,1a2.88,2.88,0,0,1-2.29,1A3.19,3.19,0,0,1,481.33,243.25Z" transform="translate(-54.67 -53.67)"/><path class="cls-1" d="M487.74,243.23v-.12a3.19,3.19,0,1,1,6.34,0v.12a3.19,3.19,0,1,1-6.34,0Zm4.88,0v-.08c0-1.29-.71-2.25-1.72-2.25s-1.69.95-1.69,2.24v.08c0,1.29.71,2.26,1.72,2.26S492.61,244.49,492.61,243.21Z" transform="translate(-54.67 -53.67)"/><path class="cls-1" d="M495.76,239.71h1.47v1a2.13,2.13,0,0,1,1.85-1.13,1.88,1.88,0,0,1,1.78,1.11,2.44,2.44,0,0,1,2-1.11c1.27,0,2.11.85,2.11,2.41v4.62h-1.47v-4.19c0-1-.42-1.51-1.17-1.51s-1.23.55-1.23,1.52v4.17h-1.47v-4.2c0-1-.43-1.5-1.16-1.5s-1.25.58-1.25,1.53v4.16h-1.47Z" transform="translate(-54.67 -53.67)"/><path class="cls-1" d="M506.92,239.71h1.47v1.11a2.33,2.33,0,0,1,2-1.24c1.38,0,2.68,1.16,2.68,3.48v.18c0,2.31-1.29,3.48-2.68,3.48a2.35,2.35,0,0,1-2-1.17v3h-1.47Zm4.68,3.51v-.12c0-1.38-.71-2.22-1.6-2.22s-1.64.86-1.64,2.21v.13c0,1.35.75,2.21,1.64,2.21S511.61,244.6,511.61,243.22Z" transform="translate(-54.67 -53.67)"/><path class="cls-1" d="M514.48,243.23v-.12a3.19,3.19,0,1,1,6.34,0v.12a3.19,3.19,0,1,1-6.34,0Zm4.88,0v-.08c0-1.29-.71-2.25-1.72-2.25s-1.69.95-1.69,2.24v.08c0,1.29.71,2.26,1.72,2.26S519.35,244.49,519.35,243.21Z" transform="translate(-54.67 -53.67)"/><path class="cls-1" d="M522.43,244.32v-4.62h1.47v4.2c0,1,.45,1.5,1.22,1.5s1.3-.57,1.3-1.52v-4.17h1.48v6.89h-1.48v-1a2.12,2.12,0,0,1-1.87,1.13C523.21,246.73,522.43,245.81,522.43,244.32Z" transform="translate(-54.67 -53.67)"/><path class="cls-1" d="M529.9,239.71h1.47v1a2.16,2.16,0,0,1,1.88-1.14c1.33,0,2.12.94,2.12,2.41v4.62H533.9v-4.2c0-1-.46-1.5-1.24-1.5s-1.3.57-1.3,1.52v4.17H529.9Z" transform="translate(-54.67 -53.67)"/><path class="cls-1" d="M537,243.25v-.17c0-2.33,1.29-3.5,2.68-3.5a2.38,2.38,0,0,1,2,1.17v-3.54h1.47v9.39H541.7v-1.11a2.33,2.33,0,0,1-2,1.24C538.31,246.73,537,245.57,537,243.25Zm4.72,0v-.13c0-1.35-.75-2.21-1.64-2.21s-1.6.83-1.6,2.22v.1c0,1.38.71,2.22,1.6,2.22S541.73,244.57,541.73,243.22Z" transform="translate(-54.67 -53.67)"/><path class="cls-1" d="M487.14,277.45h1.46l3.34,9.15h-1.57l-.75-2.15h-3.54l-.75,2.15H483.8Zm2,5.67-1.3-3.65-1.3,3.65Z" transform="translate(-54.67 -53.67)"/><path class="cls-1" d="M493.48,277.21H495v9.39h-1.47Z" transform="translate(-54.67 -53.67)"/><path class="cls-1" d="M497,284.33v-4.62h1.47v4.2c0,1,.46,1.5,1.22,1.5s1.3-.57,1.3-1.52v-4.17h1.48v6.89h-1.48v-1a2.13,2.13,0,0,1-1.87,1.13C497.73,286.73,497,285.81,497,284.33Z" transform="translate(-54.67 -53.67)"/><path class="cls-1" d="M504.42,279.71h1.47v1a2.13,2.13,0,0,1,1.85-1.13,1.88,1.88,0,0,1,1.78,1.11,2.44,2.44,0,0,1,2-1.11c1.27,0,2.11.85,2.11,2.41v4.62h-1.47v-4.19c0-1-.42-1.51-1.17-1.51s-1.24.55-1.24,1.52v4.17h-1.47v-4.2c0-1-.43-1.5-1.16-1.5s-1.25.58-1.25,1.53v4.16h-1.47Z" transform="translate(-54.67 -53.67)"/><path class="cls-1" d="M515.61,277.27h1.56v1.44h-1.56Zm.05,2.44h1.47v6.89h-1.47Z" transform="translate(-54.67 -53.67)"/><path class="cls-1" d="M519.2,279.71h1.47v1a2.16,2.16,0,0,1,1.88-1.14c1.33,0,2.12.94,2.12,2.41v4.62H523.2v-4.2c0-1-.46-1.5-1.24-1.5s-1.3.57-1.3,1.52v4.17H519.2Z" transform="translate(-54.67 -53.67)"/><path class="cls-1" d="M526.53,284.33v-4.62H528v4.2c0,1,.45,1.5,1.22,1.5s1.3-.57,1.3-1.52v-4.17H532v6.89h-1.48v-1a2.12,2.12,0,0,1-1.87,1.13C527.31,286.73,526.53,285.81,526.53,284.33Z" transform="translate(-54.67 -53.67)"/><path class="cls-1" d="M534,279.71h1.47v1a2.13,2.13,0,0,1,1.85-1.13,1.88,1.88,0,0,1,1.78,1.11,2.44,2.44,0,0,1,2-1.11c1.27,0,2.11.85,2.11,2.41v4.62h-1.47v-4.19c0-1-.42-1.51-1.17-1.51s-1.23.55-1.23,1.52v4.17h-1.47v-4.2c0-1-.43-1.5-1.16-1.5s-1.25.58-1.25,1.53v4.16H534Z" transform="translate(-54.67 -53.67)"/><path class="cls-1" d="M491.39,322.13V322c0-2.76,1.35-4.63,3.46-4.63s3.43,1.85,3.43,4.62v.14c0,2.76-1.35,4.63-3.46,4.63S491.39,324.9,491.39,322.13Zm5.34,0V322c0-2-.78-3.28-1.91-3.28s-1.9,1.22-1.9,3.25v.1c0,2,.78,3.28,1.92,3.28S496.73,324.14,496.73,322.12Z" transform="translate(-54.67 -53.67)"/><path class="cls-1" d="M499.8,324.87h1.66v1.73H499.8Z" transform="translate(-54.67 -53.67)"/><path class="cls-1" d="M503,325.5l.94-1.07a2.54,2.54,0,0,0,2,.95,1.41,1.41,0,0,0,1.5-1.44v0c0-.94-.81-1.46-2.07-1.46h-.46l-.2-.95,2.21-2.64h-3.45V317.5h5.33v1.18l-2.3,2.64a2.52,2.52,0,0,1,2.42,2.52v0a2.79,2.79,0,0,1-3,2.86A3.81,3.81,0,0,1,503,325.5Z" transform="translate(-54.67 -53.67)"/><path class="cls-1" d="M510.47,322.13V322c0-2.76,1.35-4.63,3.46-4.63s3.43,1.85,3.43,4.62v.14c0,2.76-1.35,4.63-3.46,4.63S510.47,324.9,510.47,322.13Zm5.34,0V322c0-2-.78-3.28-1.91-3.28S512,320,512,322v.1c0,2,.78,3.28,1.92,3.28S515.82,324.14,515.82,322.12Z" transform="translate(-54.67 -53.67)"/><path class="cls-1" d="M522.82,319.71h1.47v1a2.13,2.13,0,0,1,1.85-1.13,1.88,1.88,0,0,1,1.78,1.11,2.44,2.44,0,0,1,2-1.11c1.27,0,2.11.85,2.11,2.41v4.62h-1.47v-4.19c0-1-.42-1.51-1.17-1.51s-1.23.55-1.23,1.52v4.17H526.7v-4.2c0-1-.43-1.5-1.16-1.5s-1.25.58-1.25,1.53v4.16h-1.47Z" transform="translate(-54.67 -53.67)"/><path class="cls-1" d="M534,319.71h1.47v1a2.13,2.13,0,0,1,1.85-1.13,1.88,1.88,0,0,1,1.78,1.11,2.44,2.44,0,0,1,2-1.11c1.27,0,2.11.85,2.11,2.41v4.62h-1.47v-4.19c0-1-.42-1.51-1.17-1.51s-1.23.55-1.23,1.52v4.17h-1.47v-4.2c0-1-.43-1.5-1.16-1.5s-1.25.58-1.25,1.53v4.16H534Z" transform="translate(-54.67 -53.67)"/><text class="cls-2" transform="translate(0 17)">Material Specification</text><rect class="cls-3" x="2" y="43" width="506.67" height="244.67"/><line class="cls-3" x1="508.67" y1="77.67" x2="2" y2="77.67"/><line class="cls-3" x1="508.67" y1="113.67" x2="2" y2="113.67"/><line class="cls-3" x1="508.67" y1="169.67" x2="2" y2="169.67"/><line class="cls-3" x1="508.67" y1="209.67" x2="2" y2="209.67"/><line class="cls-3" x1="508.67" y1="246.67" x2="2" y2="246.67"/><line class="cls-3" x1="157.33" y1="43.33" x2="157.33" y2="288"/></svg>